<?xml version="1.0" encoding="UTF-8" standalone="no"?><!DOCTYPE svg PUBLIC "-//W3C//DTD SVG 1.1//EN" "http://www.w3.org/Graphics/SVG/1.1/DTD/svg11.dtd"><svg width="100%" height="100%" viewBox="0 0 842 596" version="1.1" xmlns="http://www.w3.org/2000/svg" xmlns:xlink="http://www.w3.org/1999/xlink" xml:space="preserve" style="fill-rule:evenodd;clip-rule:evenodd;stroke-linecap:round;stroke-linejoin:round;stroke-miterlimit:1.5;"><g><path d="M612.147,91.588c0,-30.121 -2.053,-27.078 -27.353,-27.018c-62.11,0.147 -342.3,0 -342.3,0l0,508.892c0,0 291.104,0 353.427,0c8.969,0 16.226,-7.006 16.226,-19.355c0,-80.594 0,-388.766 0,-462.519Z" style="fill:#333;"/><path d="M613.611,82.674c0,-30.279 -2.058,-27.22 -27.402,-27.16c-62.222,0.148 -342.914,0 -342.914,0l0,511.559c0,0 291.626,0 354.06,0c8.986,0 16.256,-7.042 16.256,-19.457c0,-81.016 0,-390.803 0,-464.942Z" style="fill:#f2f2f2;"/><path d="M612.131,66.783c0,-30.262 -2.053,-27.205 -27.353,-27.145c-62.11,0.148 -342.3,0 -342.3,0l0,511.285c0,0 291.104,0 353.427,0c8.969,0 16.226,-7.039 16.226,-19.446c0,-80.973 0,-390.594 0,-464.694Z" style="fill:#333;stroke:#333;stroke-width:0.24px;"/><rect x="480.154" y="37.902" width="18.311" height="541.152" style="stroke:#000;stroke-width:0.24px;"/></g></svg>