<?xml version="1.0" encoding="UTF-8" standalone="no"?><!DOCTYPE svg PUBLIC "-//W3C//DTD SVG 1.1//EN" "http://www.w3.org/Graphics/SVG/1.1/DTD/svg11.dtd"><svg width="100%" height="100%" viewBox="0 0 3508 2481" version="1.1" xmlns="http://www.w3.org/2000/svg" xmlns:xlink="http://www.w3.org/1999/xlink" xml:space="preserve" style="fill-rule:evenodd;clip-rule:evenodd;stroke-linejoin:round;stroke-miterlimit:1.41421;"><g><g><g><path d="M2401.08,1949.62c0,0 234.975,-549.729 241.778,-544.764c85.533,62.436 596.794,324.788 598.15,325.874c114.002,91.269 -46.568,479.41 -159.618,448.294c-41.657,-11.466 -623.535,-204.206 -680.31,-229.404Z" style="fill:#ffa52c;"/><path d="M2409.93,1928.74c0,0 217.305,-507.809 223.381,-503.314c76.399,56.52 534.079,292.625 535.414,293.433c145.765,88.346 -16.478,466.439 -148.387,413.78c-36.116,-14.418 -559.529,-181.318 -610.408,-203.899Z" style="fill:#ffc12c;"/></g><path d="M2692.28,1567.01c0,0 -54.141,266.882 -157.786,355.516c-19.312,16.515 402.033,135.955 433.168,145.108c136.036,39.995 252.536,-254.312 116.661,-317.208c-4.262,-1.973 -368.797,-173.099 -392.043,-183.416Z" style="fill:#ffdf2c;"/></g><g><ellipse cx="1599.14" cy="1280.11" rx="1063.9" ry="1032.9" style="fill:#ffa52c;"/><ellipse cx="1600.14" cy="1281.08" rx="1035.99" ry="1005.8" style="fill:#ffc12c;"/><ellipse cx="1634.08" cy="1314.04" rx="903.474" ry="877.148" style="fill:#252600;"/><ellipse cx="1593.4" cy="1274.54" rx="982.914" ry="954.272" style="fill:#ffdf2c;"/><ellipse cx="1585.67" cy="1267.04" rx="951.886" ry="924.149" style="fill:#252600;"/><ellipse cx="1616.14" cy="1332.45" rx="887.04" ry="861.192" style="fill:#644500;"/></g></g></svg>