<?xml version="1.0" encoding="UTF-8" standalone="no"?><!DOCTYPE svg PUBLIC "-//W3C//DTD SVG 1.1//EN" "http://www.w3.org/Graphics/SVG/1.1/DTD/svg11.dtd"><svg width="100%" height="100%" viewBox="0 0 518 428" version="1.1" xmlns="http://www.w3.org/2000/svg" xmlns:xlink="http://www.w3.org/1999/xlink" xml:space="preserve" style="fill-rule:evenodd;clip-rule:evenodd;stroke-linecap:round;stroke-linejoin:round;stroke-miterlimit:1.5;"><rect id="Artboard1" x="0" y="0" width="517.946" height="427.83" style="fill:none;"/><path d="M124.084,291.279l104.169,2.13l169.487,3.785c0,0 28.319,0.67 51.645,-11.524c25.565,-13.363 51.744,-46.192 34.353,-87.62c-21.076,-50.209 -89.434,-45.281 -89.347,-45.882c6.662,-46.05 -32.727,-67.481 -63.398,-69.816c-17.307,-1.318 -37.828,6.998 -38.08,6.598c-38.058,-60.454 -93.563,-48.442 -112.79,-42.186c-30.431,9.902 -46.267,35.624 -52.394,55.719c-8.476,27.798 0.049,49.887 0.049,49.887c0,0 -38.173,-5.735 -67.751,16.655c-48.377,36.621 -26.707,95.021 13.737,112.283c27.573,11.769 50.32,9.971 50.32,9.971l0,0Z" style="fill:#fff;stroke:#595959;stroke-width:4.5px;"/><g><path d="M253.705,154.79c-32.402,-0.628 -37.107,18.761 -35.345,27.832c1.761,9.072 22.95,38.759 22.95,38.759l0.239,31.009l25.25,-0.078l-1.093,-31.636c0,0 20.227,-28.368 22.479,-38.406c2.253,-10.038 0.242,-26.806 -34.48,-27.48Z" style="fill:#fff;stroke:#595959;stroke-width:5.5px;"/><path d="M243.363,222.229l19.136,-0.633l-19.031,8.206l20.902,2.95l-21.983,5.914l20.653,4.861l-18.521,3.941" style="fill:#fff;stroke:#595959;stroke-width:3.5px;"/><path d="M248.251,218.599l-0.408,-16.545l-2.578,-5.328l4.694,-1.191l6.699,0.678l6.977,-0.505l-0.844,3.643l-3.772,3.113l0.342,15.168" style="fill:#fff;stroke:#595959;stroke-width:3.5px;"/><path d="M229.868,145.857c-1.63,-6.295 -4.964,-12.364 -4.964,-18.866" style="fill:#fff;stroke:#595959;stroke-width:3.5px;"/><path d="M204.226,179.964c-5.013,-1.59 -9.827,-4.616 -15.085,-4.616" style="fill:#fff;stroke:#595959;stroke-width:3.5px;"/><path d="M214.507,213.692c-2.683,1.161 -12.878,8.316 -16.433,8.316" style="fill:#fff;stroke:#595959;stroke-width:3.5px;"/><path d="M300.636,211.87c4.804,2.377 10.907,5.366 16.152,5.366" style="fill:#fff;stroke:#595959;stroke-width:3.5px;"/><path d="M301.511,177.232c7.797,0.435 12.444,-0.648 19.331,-0.648" style="fill:#fff;stroke:#595959;stroke-width:3.5px;"/><path d="M279.985,144.325c4.731,-4.757 7.031,-11.472 11.214,-15.723" style="fill:#fff;stroke:#595959;stroke-width:3.5px;"/></g></svg>