<?xml version="1.0" encoding="UTF-8" standalone="no"?><!DOCTYPE svg PUBLIC "-//W3C//DTD SVG 1.1//EN" "http://www.w3.org/Graphics/SVG/1.1/DTD/svg11.dtd"><svg width="100%" height="100%" viewBox="0 0 682 509" version="1.1" xmlns="http://www.w3.org/2000/svg" xmlns:xlink="http://www.w3.org/1999/xlink" xml:space="preserve" style="fill-rule:evenodd;clip-rule:evenodd;"><g id="Group"><path id="Combined-Shape" d="M155.823,400.156l-127.692,-224.662l0.869,-0.494c0,0 0,0 0,0l-14,6c0,0 -0.337,0.048 -0.908,0.122l129.23,224.742m-0.027,0.013c-23.482,-40.548 -126.956,-219.307 -129.24,-224.75c-2.361,0.306 -8.537,1.029 -11.468,0.659l127.955,228.137m0.034,0.06l-1.448,1.506c0,0 -128.128,-228.489 -128.128,-230.489c0,-2 10,-7 12,-8c2,-1 5.543,-3.117 12,-5c6.457,-1.883 12,-2 12,-2c0.092,0.736 130.869,226.506 130.869,226.506l-1.222,0.695l-0.684,2.326l2.235,-1.021l11.058,62.012l-49.256,-44.571m35.904,-18.851l-127.904,-226.096c-0.945,1.953 -8.986,7.988 -9,8l128.65,224.322" style="fill:#fff;stroke:#4a4a4a;stroke-width:2px;"/><path id="Path-9" d="M176,445l-5,-1l0,3l7,7l-2,-9Z" style="stroke:#000;stroke-width:2px;"/><path id="Path-10" d="M340.189,490.884l0.518,-0.211l0.581,-0.236l0.641,-0.259l0.699,-0.28l0.754,-0.301l0.808,-0.32l0.86,-0.339l0.91,-0.357l0.959,-0.373l1.005,-0.388l1.05,-0.403l0.541,-0.206l0.552,-0.21l0.562,-0.212l0.572,-0.216l0.582,-0.218l0.591,-0.221l0.601,-0.224l0.61,-0.226l0.618,-0.228l0.628,-0.23l0.636,-0.233l0.644,-0.234l0.652,-0.236l0.659,-0.238l0.667,-0.239l0.675,-0.241l0.681,-0.241l0.689,-0.243l0.695,-0.244l0.701,-0.245l0.707,-0.245l0.714,-0.246l0.719,-0.246l0.724,-0.247l0.73,-0.247l0.735,-0.247l0.739,-0.247l0.744,-0.247l0.749,-0.246l0.752,-0.246l0.756,-0.245l0.76,-0.245l0.763,-0.244l0.767,-0.242l0.769,-0.242l0.772,-0.24l0.775,-0.239l0.777,-0.238l0.779,-0.236l0.78,-0.234l0.782,-0.232l0.784,-0.23l0.785,-0.228l0.785,-0.226l0.787,-0.223l0.786,-0.221l0.787,-0.218l0.787,-0.215l0.787,-0.212l0.786,-0.209l0.785,-0.206l0.393,-0.102l0.393,-0.101l0.392,-0.1l0.391,-0.099l0.391,-0.098l0.391,-0.097l0.391,-0.097l0.39,-0.095l0.39,-0.095l0.389,-0.093l0.389,-0.093l0.388,-0.091l0.387,-0.091l0.387,-0.089l0.387,-0.088l0.386,-0.088l0.385,-0.086l0.384,-0.085l0.384,-0.084l0.383,-0.082l0.382,-0.082l0.381,-0.08l0.38,-0.08l0.38,-0.078l0.379,-0.077l0.378,-0.075l0.376,-0.074l0.376,-0.073l0.375,-0.072l0.374,-0.07l0.373,-0.069l0.372,-0.068l0.37,-0.066l0.37,-0.065l0.368,-0.064l0.367,-0.062l0.366,-0.061l0.365,-0.059l0.364,-0.058l0.362,-0.056l0.36,-0.055l0.36,-0.054l0.358,-0.051l0.357,-0.051l0.355,-0.048l0.354,-0.047l0.352,-0.046l0.351,-0.044l0.35,-0.042l0.348,-0.041l0.346,-0.039l0.344,-0.037l0.343,-0.035l0.342,-0.034l0.34,-0.032l0.337,-0.031l0.337,-0.028l0.334,-0.027l0.333,-0.025l0.331,-0.023l0.329,-0.021l0.327,-0.019l0.326,-0.018l0.323,-0.016l0.322,-0.013l0.32,-0.012l0.317,-0.01l0.316,-0.007l0.314,-0.006l0.312,-0.004l0.309,-0.002l0.308,0.001l0.305,0.002l0.304,0.005l0.301,0.006l0.299,0.009l0.297,0.011l0.295,0.014l0.292,0.015l0.29,0.018l0.288,0.02l0.286,0.022l0.28,0.024l0.275,0.026l0.271,0.028l0.265,0.029l0.261,0.031l0.256,0.032l0.251,0.035l0.247,0.036l0.242,0.038l0.238,0.039l0.233,0.042l0.229,0.043l0.225,0.044l0.22,0.047l0.216,0.048l0.212,0.05l0.208,0.052l0.204,0.054l0.2,0.056l0.195,0.057l0.193,0.06l0.188,0.061l0.184,0.063l0.181,0.065l0.177,0.068l0.173,0.069l0.17,0.071l0.166,0.074l0.163,0.076l0.159,0.078l0.152,0.078l0.081,0.043l0.075,0.041l0.075,0.043l0.074,0.042l0.073,0.044l0.072,0.044l0.072,0.044l0.07,0.046l0.07,0.045l0.069,0.047l0.068,0.047l0.067,0.048l0.066,0.048l0.065,0.049l0.065,0.05l0.063,0.05l0.063,0.051l0.062,0.052l0.06,0.052l0.06,0.053l0.059,0.054l0.058,0.054l0.057,0.055l0.056,0.055l0.055,0.057l0.055,0.057l0.052,0.057l0.052,0.058l0.051,0.059l0.051,0.059l0.049,0.06l0.048,0.061l0.047,0.061l0.046,0.061l0.045,0.063l0.043,0.063l0.043,0.063l0.041,0.064l0.041,0.065l0.039,0.065l0.039,0.065l0.037,0.066l0.035,0.066l0.036,0.067l0.033,0.067l0.033,0.067l0.031,0.069l0.031,0.068l0.029,0.068l0.028,0.069l0.027,0.069l0.026,0.07l0.024,0.069l0.024,0.07l0.022,0.07l0.022,0.071l0.02,0.069l0.02,0.076l0.034,0.136l0.031,0.142l0.026,0.142l0.023,0.142l0.019,0.143l0.015,0.142l0.011,0.142l0.007,0.142l0.004,0.141l0.001,0.142l-0.002,0.141l-0.006,0.141l-0.008,0.141l-0.012,0.139l-0.014,0.14l-0.017,0.14l-0.019,0.139l-0.022,0.139l-0.024,0.139l-0.027,0.138l-0.029,0.138l-0.031,0.137l-0.033,0.138l-0.035,0.137l-0.037,0.137l-0.039,0.137l-0.04,0.136l-0.043,0.137l-0.043,0.136l-0.046,0.136l-0.047,0.137l-0.049,0.136l-0.05,0.136l-0.052,0.136l-0.053,0.136l-0.054,0.135l-0.055,0.136l-0.057,0.136l-0.058,0.136l-0.059,0.136l-0.06,0.135l-0.061,0.136l-0.062,0.136l-0.064,0.138l-0.127,0.269l-0.132,0.272l-0.135,0.272l-0.137,0.272l-0.14,0.273l-0.142,0.272l-0.143,0.272l-0.145,0.273l-0.291,0.543l-0.293,0.543l-0.292,0.543l-0.144,0.27l-0.144,0.269l-0.141,0.269l-0.14,0.268l-0.137,0.267l-0.135,0.266l-0.132,0.264l-0.128,0.264l-0.126,0.263l-0.061,0.129l-0.06,0.13l-0.059,0.129l-0.058,0.129l-0.056,0.128l-0.056,0.128l-0.055,0.128l-0.053,0.126l-0.052,0.127l-0.05,0.125l-0.05,0.125l-0.048,0.125l-0.046,0.123l-0.045,0.123l-0.044,0.122l-0.042,0.122l-0.04,0.12l-0.039,0.12l-0.038,0.119l-0.035,0.118l-0.034,0.118l-0.033,0.116l-0.03,0.115l-0.029,0.115l-0.027,0.113l-0.026,0.112l-0.023,0.112l-0.022,0.11l-0.02,0.109l-0.018,0.108l-0.017,0.107l-0.014,0.106l-0.012,0.104l-0.011,0.104l-0.009,0.102l-0.007,0.1l-0.005,0.1l-0.003,0.099l-0.001,0.097l0,0.096l0.003,0.094l0.004,0.094l0.007,0.092l0.008,0.091l0.01,0.09l0.012,0.089l0.014,0.088l0.015,0.086l0.018,0.086l0.019,0.085l0.023,0.088l0.01,0.037l0.012,0.042l0.013,0.041l0.013,0.041l0.013,0.041l0.014,0.04l0.015,0.041l0.015,0.041l0.015,0.04l0.016,0.04l0.017,0.04l0.017,0.04l0.018,0.04l0.018,0.04l0.019,0.039l0.02,0.039l0.02,0.04l0.021,0.039l0.021,0.04l0.022,0.039l0.023,0.039l0.023,0.039l0.024,0.04l0.024,0.039l0.025,0.039l0.027,0.039l0.026,0.039l0.028,0.039l0.028,0.039l0.029,0.039l0.029,0.04l0.031,0.039l0.031,0.039l0.032,0.039l0.033,0.04l0.033,0.038l0.035,0.04l0.035,0.039l0.036,0.039l0.038,0.04l0.038,0.039l0.039,0.039l0.04,0.04l0.04,0.039l0.042,0.04l0.042,0.039l0.044,0.04l0.045,0.039l0.046,0.04l0.046,0.039l0.048,0.04l0.048,0.039l0.05,0.04l0.051,0.039l0.052,0.04l0.052,0.039l0.054,0.04l0.055,0.039l0.056,0.04l0.058,0.039l0.058,0.039l0.059,0.04l0.061,0.039l0.062,0.039l0.063,0.039l0.063,0.039l0.066,0.039l0.066,0.039l0.068,0.039l0.068,0.039l0.07,0.039l0.071,0.038l0.072,0.039l0.071,0.037l0.154,0.078l0.155,0.076l0.161,0.075l0.165,0.075l0.171,0.074l0.175,0.074l0.181,0.073l0.186,0.072l0.191,0.072l0.196,0.071l0.202,0.07l0.207,0.069l0.212,0.069l0.218,0.067l0.223,0.067l0.229,0.065l0.234,0.065l0.241,0.064l0.508,0.131l0.516,0.132l0.521,0.131l0.528,0.13l0.533,0.13l0.538,0.13l0.544,0.128l0.55,0.128l0.555,0.128l0.561,0.127l0.567,0.126l0.572,0.125l0.578,0.125l0.584,0.124l0.589,0.123l0.594,0.122l0.601,0.121l0.605,0.121l0.611,0.119l0.617,0.119l0.623,0.118l0.627,0.116l0.634,0.116l0.638,0.114l0.645,0.114l0.649,0.112l0.656,0.112l0.66,0.11l0.666,0.108l0.672,0.108l0.677,0.106l0.682,0.106l0.688,0.103l0.693,0.103l0.699,0.101l0.704,0.1l0.709,0.098l0.715,0.097l0.72,0.096l0.725,0.094l0.731,0.092l0.736,0.091l0.741,0.09l0.747,0.088l0.752,0.086l0.757,0.084l0.762,0.083l0.768,0.081l0.773,0.08l0.778,0.077l0.784,0.076l0.789,0.074l0.794,0.073l0.799,0.07l0.804,0.069l0.81,0.066l0.815,0.065l0.82,0.063l0.825,0.06l0.83,0.059l0.835,0.057l0.841,0.054l0.846,0.053l0.85,0.05l0.856,0.048l0.861,0.046l0.866,0.044l0.872,0.042l0.876,0.039l0.881,0.037l0.887,0.035l0.891,0.032l0.897,0.03l0.901,0.027l0.907,0.026l0.911,0.022l0.917,0.021l0.921,0.017l0.927,0.015l0.931,0.013l0.937,0.01l0.941,0.008l0.947,0.004l0.951,0.003l0.957,-0.001l0.961,-0.003l0.966,-0.006l0.971,-0.009l0.976,-0.012l0.981,-0.014l0.985,-0.017l0.991,-0.02l0.995,-0.023l1.001,-0.026l1.005,-0.029l1.01,-0.032l1.015,-0.035l1.019,-0.038l1.025,-0.041l1.029,-0.044l1.034,-0.048l1.039,-0.05l1.043,-0.054l1.048,-0.056l1.054,-0.06l1.058,-0.064l0.53,-0.032l0.532,-0.034l0.533,-0.035l0.534,-0.035l0.536,-0.036l0.536,-0.037l0.538,-0.038l0.539,-0.038l0.54,-0.04l0.541,-0.04l0.543,-0.042l0.544,-0.042l0.544,-0.043l0.546,-0.043l0.547,-0.045l0.549,-0.046l0.549,-0.046l0.551,-0.047l0.552,-0.049l0.553,-0.049l0.554,-0.05l0.555,-0.05l0.557,-0.052l0.557,-0.053l0.559,-0.053l0.56,-0.055l0.561,-0.055l0.562,-0.056l0.564,-0.057l0.564,-0.059l0.566,-0.059l0.567,-0.059l0.568,-0.061l0.569,-0.062l0.57,-0.063l0.572,-0.063l0.572,-0.065l0.574,-0.066l0.575,-0.066l0.576,-0.067l0.577,-0.069l0.578,-0.069l0.58,-0.07l0.581,-0.072l0.584,0.044l0.523,0.263l0.382,0.443l0.183,0.556l-0.044,0.584l-0.263,0.523l-0.443,0.382l-0.556,0.183l-0.584,0.071l-0.584,0.071l-0.582,0.07l-0.581,0.069l-0.581,0.068l-0.579,0.067l-0.577,0.066l-0.577,0.065l-0.576,0.064l-0.574,0.063l-0.574,0.062l-0.572,0.062l-0.571,0.06l-0.57,0.06l-0.568,0.058l-0.568,0.058l-0.566,0.056l-0.566,0.056l-0.564,0.055l-0.563,0.054l-0.562,0.053l-0.56,0.052l-0.56,0.051l-0.558,0.05l-0.557,0.05l-0.556,0.048l-0.555,0.048l-0.554,0.047l-0.552,0.046l-0.552,0.045l-0.55,0.044l-0.549,0.043l-0.548,0.043l-0.546,0.041l-0.546,0.041l-0.544,0.04l-0.543,0.039l-0.542,0.038l-0.541,0.037l-0.54,0.037l-0.538,0.035l-0.537,0.035l-0.537,0.034l-0.535,0.033l-1.066,0.064l-1.061,0.06l-1.057,0.057l-1.052,0.054l-1.047,0.051l-1.043,0.048l-1.037,0.044l-1.033,0.042l-1.028,0.038l-1.023,0.035l-1.019,0.032l-1.013,0.029l-1.009,0.027l-1.004,0.023l-0.999,0.02l-0.994,0.018l-0.989,0.014l-0.985,0.012l-0.979,0.009l-0.975,0.006l-0.97,0.003l-0.964,0.001l-0.96,-0.003l-0.955,-0.004l-0.95,-0.008l-0.945,-0.01l-0.94,-0.013l-0.935,-0.015l-0.93,-0.018l-0.925,-0.021l-0.92,-0.022l-0.915,-0.026l-0.91,-0.028l-0.905,-0.03l-0.9,-0.033l-0.895,-0.035l-0.89,-0.037l-0.885,-0.04l-0.88,-0.042l-0.874,-0.044l-0.87,-0.046l-0.865,-0.049l-0.859,-0.051l-0.854,-0.053l-0.849,-0.055l-0.844,-0.057l-0.839,-0.059l-0.834,-0.062l-0.828,-0.063l-0.824,-0.065l-0.818,-0.068l-0.813,-0.069l-0.808,-0.071l-0.803,-0.073l-0.797,-0.075l-0.792,-0.077l-0.787,-0.078l-0.782,-0.081l-0.776,-0.082l-0.772,-0.084l-0.766,-0.085l-0.76,-0.087l-0.756,-0.089l-0.75,-0.091l-0.745,-0.092l-0.739,-0.093l-0.734,-0.096l-0.729,-0.096l-0.724,-0.098l-0.718,-0.1l-0.713,-0.101l-0.707,-0.103l-0.702,-0.103l-0.697,-0.106l-0.691,-0.106l-0.686,-0.108l-0.681,-0.109l-0.675,-0.11l-0.67,-0.112l-0.664,-0.113l-0.659,-0.114l-0.654,-0.115l-0.647,-0.116l-0.643,-0.117l-0.637,-0.119l-0.632,-0.119l-0.626,-0.12l-0.62,-0.122l-0.615,-0.122l-0.61,-0.123l-0.604,-0.124l-0.599,-0.126l-0.593,-0.125l-0.587,-0.127l-0.582,-0.128l-0.576,-0.128l-0.571,-0.129l-0.565,-0.13l-0.56,-0.13l-0.554,-0.131l-0.548,-0.132l-0.543,-0.132l-0.537,-0.133l-0.532,-0.134l-0.526,-0.134l-0.522,-0.135l-0.266,-0.071l-0.263,-0.072l-0.258,-0.074l-0.253,-0.076l-0.249,-0.077l-0.244,-0.078l-0.239,-0.08l-0.235,-0.082l-0.23,-0.083l-0.226,-0.085l-0.222,-0.086l-0.217,-0.088l-0.213,-0.089l-0.209,-0.091l-0.204,-0.093l-0.201,-0.094l-0.196,-0.096l-0.189,-0.096l-0.097,-0.051l-0.094,-0.05l-0.092,-0.05l-0.092,-0.05l-0.09,-0.052l-0.09,-0.051l-0.088,-0.052l-0.088,-0.052l-0.086,-0.053l-0.086,-0.053l-0.084,-0.054l-0.084,-0.054l-0.082,-0.055l-0.082,-0.055l-0.08,-0.055l-0.08,-0.056l-0.079,-0.057l-0.077,-0.056l-0.077,-0.058l-0.076,-0.058l-0.074,-0.058l-0.074,-0.058l-0.073,-0.059l-0.072,-0.06l-0.071,-0.06l-0.07,-0.061l-0.068,-0.061l-0.068,-0.061l-0.067,-0.062l-0.066,-0.063l-0.065,-0.062l-0.064,-0.064l-0.063,-0.063l-0.062,-0.065l-0.061,-0.064l-0.06,-0.065l-0.06,-0.066l-0.057,-0.066l-0.058,-0.067l-0.056,-0.067l-0.055,-0.067l-0.054,-0.068l-0.053,-0.068l-0.052,-0.069l-0.051,-0.069l-0.05,-0.069l-0.049,-0.07l-0.048,-0.07l-0.046,-0.071l-0.046,-0.071l-0.045,-0.072l-0.044,-0.071l-0.043,-0.072l-0.041,-0.072l-0.041,-0.073l-0.04,-0.074l-0.038,-0.073l-0.038,-0.074l-0.037,-0.074l-0.035,-0.074l-0.034,-0.075l-0.034,-0.074l-0.032,-0.075l-0.032,-0.076l-0.03,-0.076l-0.029,-0.075l-0.028,-0.076l-0.028,-0.076l-0.026,-0.077l-0.025,-0.076l-0.025,-0.077l-0.023,-0.077l-0.022,-0.077l-0.022,-0.081l-0.039,-0.15l-0.035,-0.155l-0.032,-0.155l-0.029,-0.156l-0.024,-0.155l-0.021,-0.156l-0.017,-0.155l-0.014,-0.156l-0.011,-0.156l-0.007,-0.155l-0.004,-0.155l-0.001,-0.155l0.002,-0.155l0.005,-0.155l0.007,-0.154l0.011,-0.154l0.013,-0.154l0.016,-0.153l0.018,-0.154l0.021,-0.152l0.023,-0.153l0.026,-0.152l0.028,-0.152l0.03,-0.151l0.032,-0.151l0.034,-0.151l0.036,-0.15l0.038,-0.151l0.039,-0.149l0.042,-0.15l0.043,-0.149l0.045,-0.149l0.047,-0.149l0.048,-0.148l0.05,-0.148l0.051,-0.148l0.053,-0.147l0.054,-0.147l0.055,-0.147l0.056,-0.147l0.058,-0.146l0.059,-0.146l0.06,-0.146l0.061,-0.146l0.062,-0.145l0.064,-0.145l0.064,-0.145l0.065,-0.145l0.065,-0.144l0.067,-0.144l0.068,-0.145l0.136,-0.285l0.14,-0.286l0.141,-0.284l0.144,-0.283l0.145,-0.282l0.146,-0.281l0.148,-0.28l0.147,-0.277l0.148,-0.277l0.295,-0.548l0.292,-0.541l0.286,-0.534l0.14,-0.263l0.137,-0.261l0.135,-0.259l0.131,-0.256l0.128,-0.253l0.124,-0.251l0.12,-0.247l0.117,-0.246l0.055,-0.119l0.055,-0.12l0.053,-0.119l0.052,-0.118l0.051,-0.117l0.05,-0.117l0.048,-0.115l0.046,-0.114l0.045,-0.113l0.044,-0.112l0.042,-0.11l0.04,-0.11l0.039,-0.108l0.037,-0.107l0.036,-0.106l0.033,-0.104l0.032,-0.103l0.03,-0.102l0.029,-0.1l0.026,-0.099l0.025,-0.097l0.023,-0.095l0.021,-0.094l0.02,-0.093l0.017,-0.09l0.016,-0.089l0.013,-0.087l0.012,-0.085l0.01,-0.084l0.009,-0.081l0.006,-0.08l0.005,-0.078l0.003,-0.076l0.001,-0.073l0,-0.072l-0.002,-0.07l-0.004,-0.068l-0.005,-0.067l-0.007,-0.064l-0.008,-0.063l-0.01,-0.061l-0.011,-0.059l-0.013,-0.058l-0.015,-0.061l-0.006,-0.022l-0.008,-0.028l-0.008,-0.027l-0.008,-0.026l-0.009,-0.027l-0.01,-0.026l-0.009,-0.026l-0.01,-0.025l-0.011,-0.026l-0.01,-0.026l-0.012,-0.025l-0.011,-0.024l-0.012,-0.025l-0.012,-0.025l-0.013,-0.024l-0.014,-0.025l-0.013,-0.024l-0.015,-0.025l-0.014,-0.024l-0.015,-0.024l-0.016,-0.025l-0.017,-0.024l-0.017,-0.024l-0.017,-0.024l-0.018,-0.025l-0.019,-0.024l-0.019,-0.024l-0.02,-0.025l-0.021,-0.024l-0.021,-0.025l-0.023,-0.025l-0.023,-0.025l-0.023,-0.025l-0.024,-0.024l-0.026,-0.025l-0.026,-0.026l-0.027,-0.025l-0.028,-0.025l-0.028,-0.025l-0.03,-0.026l-0.03,-0.026l-0.032,-0.025l-0.032,-0.026l-0.034,-0.026l-0.034,-0.026l-0.035,-0.025l-0.037,-0.026l-0.037,-0.026l-0.039,-0.026l-0.04,-0.026l-0.04,-0.027l-0.042,-0.025l-0.043,-0.027l-0.044,-0.026l-0.045,-0.026l-0.046,-0.026l-0.047,-0.026l-0.045,-0.024l-0.104,-0.053l-0.106,-0.052l-0.11,-0.051l-0.114,-0.051l-0.12,-0.05l-0.125,-0.05l-0.129,-0.049l-0.135,-0.049l-0.139,-0.048l-0.145,-0.047l-0.15,-0.046l-0.155,-0.046l-0.16,-0.044l-0.165,-0.044l-0.171,-0.042l-0.175,-0.042l-0.181,-0.04l-0.187,-0.04l-0.191,-0.038l-0.197,-0.037l-0.203,-0.036l-0.207,-0.034l-0.214,-0.034l-0.218,-0.032l-0.224,-0.03l-0.23,-0.03l-0.235,-0.028l-0.241,-0.026l-0.246,-0.025l-0.252,-0.024l-0.257,-0.022l-0.26,-0.02l-0.263,-0.019l-0.265,-0.016l-0.269,-0.014l-0.271,-0.012l-0.274,-0.01l-0.277,-0.009l-0.279,-0.006l-0.282,-0.004l-0.285,-0.002l-0.287,-0.001l-0.29,0.002l-0.293,0.003l-0.294,0.006l-0.298,0.007l-0.299,0.009l-0.302,0.011l-0.305,0.013l-0.306,0.015l-0.309,0.017l-0.312,0.018l-0.313,0.02l-0.315,0.022l-0.318,0.024l-0.32,0.026l-0.322,0.027l-0.324,0.029l-0.325,0.031l-0.328,0.032l-0.33,0.035l-0.332,0.035l-0.333,0.038l-0.335,0.039l-0.337,0.041l-0.339,0.042l-0.341,0.044l-0.342,0.046l-0.344,0.047l-0.346,0.049l-0.347,0.05l-0.349,0.052l-0.35,0.053l-0.352,0.055l-0.354,0.056l-0.354,0.057l-0.357,0.06l-0.357,0.06l-0.359,0.062l-0.361,0.063l-0.361,0.065l-0.363,0.066l-0.364,0.068l-0.366,0.068l-0.366,0.07l-0.368,0.072l-0.368,0.073l-0.37,0.074l-0.371,0.075l-0.372,0.076l-0.373,0.078l-0.374,0.079l-0.374,0.08l-0.376,0.081l-0.377,0.082l-0.377,0.084l-0.378,0.084l-0.379,0.086l-0.38,0.087l-0.38,0.088l-0.381,0.089l-0.382,0.09l-0.382,0.091l-0.383,0.092l-0.384,0.093l-0.384,0.093l-0.385,0.095l-0.385,0.096l-0.385,0.097l-0.386,0.098l-0.387,0.098l-0.386,0.1l-0.387,0.1l-0.776,0.203l-0.776,0.207l-0.776,0.209l-0.777,0.213l-0.778,0.215l-0.777,0.218l-0.778,0.221l-0.777,0.223l-0.776,0.226l-0.775,0.227l-0.774,0.23l-0.773,0.232l-0.771,0.233l-0.769,0.236l-0.768,0.236l-0.765,0.238l-0.762,0.24l-0.759,0.24l-0.757,0.242l-0.753,0.242l-0.75,0.244l-0.746,0.244l-0.743,0.244l-0.738,0.245l-0.733,0.245l-0.729,0.245l-0.724,0.245l-0.719,0.244l-0.714,0.245l-0.708,0.244l-0.702,0.244l-0.697,0.243l-0.69,0.242l-0.683,0.241l-0.677,0.24l-0.67,0.239l-0.662,0.237l-0.655,0.236l-0.648,0.235l-0.64,0.233l-0.631,0.23l-0.623,0.229l-0.615,0.227l-0.606,0.224l-0.596,0.223l-0.588,0.219l-0.578,0.217l-0.568,0.214l-0.558,0.211l-0.548,0.209l-0.538,0.204l-1.043,0.401l-0.999,0.385l-0.952,0.371l-0.904,0.354l-0.854,0.336l-0.802,0.319l-0.749,0.298l-0.692,0.278l-0.636,0.257l-0.576,0.234l-0.515,0.21l-0.452,0.185l-0.708,0.293l-0.434,0.181l-1.916,0.805l-7.063,-45.403l-78.484,12.753l-0.122,0.024l-0.426,0.083l-0.314,0.06l-0.377,0.072l-0.44,0.082l-0.499,0.092l-0.558,0.102l-0.615,0.111l-0.669,0.119l-0.721,0.127l-0.773,0.133l-0.821,0.14l-0.869,0.146l-0.914,0.151l-0.956,0.155l-0.495,0.079l-0.504,0.08l-0.515,0.08l-0.524,0.082l-0.533,0.082l-0.543,0.082l-0.551,0.083l-0.561,0.084l-0.568,0.083l-0.577,0.084l-0.586,0.084l-0.592,0.084l-0.601,0.084l-0.608,0.084l-0.615,0.084l-0.621,0.084l-0.629,0.083l-0.635,0.082l-0.641,0.083l-0.647,0.081l-0.652,0.081l-0.658,0.081l-0.664,0.079l-0.668,0.079l-0.673,0.077l-0.678,0.077l-0.682,0.075l-0.686,0.074l-0.69,0.073l-0.693,0.071l-0.697,0.07l-0.7,0.069l-0.703,0.066l-0.706,0.066l-0.708,0.063l-0.71,0.061l-0.713,0.06l-0.714,0.057l-0.715,0.055l-0.717,0.054l-0.718,0.05l-0.719,0.049l-0.72,0.046l-0.719,0.044l-0.72,0.041l-0.72,0.038l-0.72,0.035l-0.719,0.033l-0.718,0.03l-0.717,0.027l-0.359,0.012l-0.358,0.011l-0.357,0.011l-0.358,0.01l-0.356,0.009l-0.357,0.008l-0.355,0.007l-0.356,0.007l-0.354,0.005l-0.355,0.005l-0.353,0.004l-0.353,0.003l-0.353,0.002l-0.351,0.002l-0.351,0l-0.351,-0.001l-0.349,-0.001l-0.349,-0.003l-0.348,-0.003l-0.347,-0.004l-0.346,-0.006l-0.345,-0.006l-0.345,-0.008l-0.343,-0.008l-0.343,-0.009l-0.341,-0.011l-0.341,-0.011l-0.339,-0.013l-0.338,-0.014l-0.337,-0.014l-0.336,-0.016l-0.335,-0.017l-0.334,-0.018l-0.332,-0.019l-0.332,-0.02l-0.329,-0.022l-0.329,-0.022l-0.327,-0.024l-0.326,-0.025l-0.325,-0.026l-0.323,-0.027l-0.322,-0.029l-0.32,-0.029l-0.318,-0.031l-0.318,-0.033l-0.315,-0.033l-0.314,-0.035l-0.313,-0.036l-0.311,-0.037l-0.309,-0.039l-0.307,-0.04l-0.306,-0.041l-0.304,-0.043l-0.303,-0.044l-0.3,-0.045l-0.299,-0.047l-0.297,-0.048l-0.295,-0.049l-0.293,-0.051l-0.292,-0.053l-0.289,-0.054l-0.288,-0.055l-0.285,-0.057l-0.284,-0.058l-0.281,-0.06l-0.279,-0.062l-0.278,-0.063l-0.275,-0.064l-0.273,-0.066l-0.271,-0.068l-0.269,-0.069l-0.266,-0.071l-0.265,-0.073l-0.262,-0.074l-0.26,-0.076l-0.257,-0.077l-0.256,-0.08l-0.253,-0.081l-0.25,-0.083l-0.248,-0.085l-0.246,-0.086l-0.244,-0.088l-0.24,-0.091l-0.239,-0.092l-0.236,-0.094l-0.233,-0.096l-0.231,-0.097l-0.22,-0.097l-0.48,-0.334l-0.316,-0.493l-0.103,-0.576l0.126,-0.572l0.334,-0.48l0.493,-0.316l0.576,-0.103l0.572,0.126l0.205,0.089l0.2,0.085l0.203,0.083l0.206,0.083l0.209,0.08l0.212,0.08l0.215,0.078l0.219,0.077l0.221,0.075l0.225,0.075l0.227,0.072l0.23,0.072l0.233,0.07l0.236,0.069l0.238,0.068l0.241,0.066l0.244,0.065l0.247,0.063l0.249,0.063l0.252,0.061l0.255,0.059l0.257,0.059l0.259,0.057l0.262,0.055l0.264,0.055l0.267,0.053l0.269,0.052l0.272,0.05l0.273,0.049l0.276,0.048l0.278,0.047l0.281,0.046l0.282,0.044l0.285,0.043l0.287,0.041l0.289,0.041l0.29,0.039l0.293,0.038l0.295,0.037l0.297,0.036l0.298,0.034l0.301,0.033l0.302,0.032l0.304,0.031l0.306,0.03l0.308,0.029l0.309,0.027l0.311,0.026l0.312,0.025l0.314,0.024l0.316,0.023l0.317,0.022l0.319,0.021l0.32,0.019l0.322,0.019l0.323,0.017l0.324,0.017l0.326,0.015l0.327,0.014l0.329,0.013l0.33,0.012l0.33,0.012l0.332,0.01l0.334,0.009l0.334,0.008l0.336,0.007l0.336,0.007l0.338,0.005l0.338,0.004l0.34,0.004l0.34,0.002l0.342,0.001l0.342,0.001l0.343,0l0.344,-0.002l0.345,-0.002l0.345,-0.003l0.346,-0.003l0.347,-0.005l0.348,-0.006l0.348,-0.006l0.349,-0.007l0.349,-0.008l0.35,-0.009l0.351,-0.01l0.351,-0.01l0.351,-0.012l0.351,-0.012l0.706,-0.026l0.706,-0.029l0.707,-0.032l0.708,-0.035l0.709,-0.038l0.709,-0.04l0.709,-0.043l0.709,-0.046l0.709,-0.047l0.708,-0.051l0.707,-0.052l0.706,-0.055l0.705,-0.056l0.704,-0.059l0.701,-0.061l0.7,-0.062l0.697,-0.064l0.695,-0.067l0.692,-0.067l0.689,-0.069l0.686,-0.071l0.683,-0.072l0.678,-0.073l0.675,-0.075l0.671,-0.076l0.666,-0.076l0.662,-0.078l0.657,-0.079l0.652,-0.079l0.646,-0.08l0.641,-0.081l0.635,-0.082l0.629,-0.082l0.622,-0.082l0.616,-0.083l0.61,-0.083l0.602,-0.083l0.595,-0.083l0.588,-0.084l0.58,-0.083l0.572,-0.083l0.564,-0.083l0.555,-0.083l0.547,-0.082l0.538,-0.082l0.528,-0.081l0.52,-0.081l0.51,-0.08l0.5,-0.079l0.489,-0.078l0.949,-0.154l0.906,-0.149l0.861,-0.145l0.813,-0.138l0.766,-0.133l0.714,-0.125l0.662,-0.118l0.608,-0.109l0.551,-0.101l0.494,-0.091l0.433,-0.082l0.371,-0.07l0.307,-0.059l0.418,-0.081l0.166,-0.032l81.516,-13.247l6.939,44.607Z" style="fill:#4a4a4a;"/><path id="Path-11" d="M15,181l133,229" style="fill:none;stroke:#4a4a4a;stroke-width:2px;"/><path id="Path-2" d="M165,391l3,9l-6,-7l-3,13l-8,-3.5l-3.5,8.5l-14.5,-5l1,8l-6,-8" style="fill:none;stroke:#4a4a4a;stroke-width:2px;"/><path id="Path-3" d="M146,410l-5,-8" style="fill:none;stroke:#4a4a4a;stroke-width:2px;"/><path id="Path-4" d="M158,405l-9,-18l10,17" style="fill:none;stroke:#4a4a4a;stroke-width:2px;"/><path id="Path-5" d="M155,395l5,8" style="fill:none;stroke:#4a4a4a;stroke-width:2px;"/><path id="Path-6" d="M23,173c-1.558,0.374 -4,1.885 -4,2c0,0.115 2.568,-0.82 3,-1c0.432,-0.18 2.558,-1.374 1,-1Z" style="fill:none;stroke:#000;stroke-width:1px;"/><g id="Path-8"><path d="M549.973,307.324c-2.51,4.936 -7.232,9.278 -7.531,14.807c-0.128,2.367 4.475,-1.747 6.836,-1.964c4.823,-0.443 9.702,-0.384 14.531,0c2.792,0.222 5.405,1.798 8.207,1.807c1.053,0.003 2.484,-0.73 2.614,-1.775c0.477,-3.841 -17.109,-13.422 -18.132,-14.203" style="fill:#4a4a4a;"/><path d="M558.008,304.001l0.073,0.047l0.108,0.067l0.135,0.083l0.159,0.096l0.388,0.232l0.464,0.276l0.533,0.316l0.596,0.354l0.65,0.388l0.697,0.418l0.366,0.221l0.375,0.228l0.384,0.234l0.391,0.24l0.399,0.246l0.405,0.251l0.411,0.257l0.416,0.261l0.42,0.266l0.423,0.27l0.426,0.274l0.428,0.278l0.428,0.281l0.429,0.284l0.429,0.287l0.427,0.289l0.424,0.291l0.213,0.147l0.211,0.147l0.21,0.147l0.209,0.148l0.208,0.148l0.207,0.148l0.206,0.149l0.204,0.149l0.203,0.149l0.202,0.149l0.2,0.15l0.198,0.15l0.197,0.149l0.194,0.15l0.194,0.15l0.19,0.15l0.189,0.15l0.187,0.15l0.185,0.151l0.182,0.15l0.18,0.15l0.177,0.15l0.175,0.15l0.173,0.151l0.17,0.15l0.167,0.15l0.164,0.151l0.162,0.151l0.158,0.151l0.156,0.151l0.153,0.151l0.15,0.152l0.146,0.152l0.144,0.153l0.14,0.154l0.137,0.154l0.134,0.156l0.13,0.156l0.128,0.159l0.119,0.154l0.065,0.086l0.06,0.081l0.058,0.082l0.058,0.082l0.057,0.084l0.056,0.084l0.055,0.085l0.054,0.085l0.053,0.086l0.052,0.088l0.051,0.089l0.05,0.09l0.048,0.091l0.048,0.093l0.046,0.093l0.045,0.096l0.043,0.097l0.042,0.099l0.041,0.101l0.039,0.103l0.036,0.104l0.035,0.106l0.034,0.11l0.03,0.111l0.028,0.113l0.026,0.117l0.022,0.117l0.02,0.122l0.017,0.124l0.012,0.126l0.009,0.127l0.005,0.131l0,0.134l-0.004,0.134l-0.009,0.136l-0.015,0.139l-0.021,0.143l-0.026,0.145l-0.032,0.142l-0.036,0.136l-0.041,0.135l-0.046,0.132l-0.049,0.129l-0.053,0.124l-0.057,0.121l-0.059,0.117l-0.063,0.114l-0.065,0.109l-0.066,0.106l-0.07,0.103l-0.071,0.099l-0.073,0.096l-0.074,0.092l-0.076,0.089l-0.077,0.086l-0.078,0.082l-0.078,0.08l-0.08,0.078l-0.081,0.074l-0.081,0.072l-0.082,0.069l-0.083,0.067l-0.083,0.065l-0.084,0.062l-0.084,0.06l-0.085,0.059l-0.085,0.055l-0.086,0.055l-0.086,0.052l-0.086,0.05l-0.088,0.049l-0.087,0.047l-0.087,0.045l-0.088,0.044l-0.089,0.042l-0.088,0.04l-0.09,0.039l-0.089,0.037l-0.089,0.035l-0.091,0.034l-0.091,0.033l-0.091,0.031l-0.091,0.03l-0.092,0.028l-0.093,0.027l-0.092,0.025l-0.094,0.024l-0.094,0.022l-0.094,0.02l-0.095,0.019l-0.096,0.018l-0.097,0.016l-0.097,0.014l-0.097,0.012l-0.099,0.011l-0.1,0.009l-0.1,0.007l-0.101,0.005l-0.102,0.003l-0.101,0.001l-0.177,-0.002l-0.173,-0.005l-0.171,-0.008l-0.17,-0.01l-0.169,-0.014l-0.167,-0.015l-0.165,-0.018l-0.164,-0.02l-0.163,-0.022l-0.16,-0.023l-0.159,-0.026l-0.158,-0.028l-0.156,-0.029l-0.155,-0.03l-0.153,-0.032l-0.151,-0.033l-0.15,-0.034l-0.149,-0.036l-0.147,-0.036l-0.146,-0.037l-0.145,-0.038l-0.142,-0.038l-0.142,-0.039l-0.143,-0.041l-0.273,-0.079l-0.272,-0.081l-0.266,-0.082l-0.262,-0.081l-0.508,-0.16l-0.247,-0.077l-0.243,-0.075l-0.238,-0.071l-0.233,-0.069l-0.233,-0.066l-0.11,-0.03l-0.111,-0.029l-0.111,-0.029l-0.109,-0.027l-0.108,-0.027l-0.107,-0.025l-0.106,-0.023l-0.104,-0.023l-0.104,-0.021l-0.102,-0.02l-0.101,-0.018l-0.1,-0.017l-0.099,-0.015l-0.098,-0.014l-0.097,-0.013l-0.095,-0.011l-0.095,-0.01l-0.1,-0.008l-0.436,-0.034l-0.442,-0.032l-0.442,-0.031l-0.443,-0.028l-0.442,-0.027l-0.443,-0.024l-0.442,-0.022l-0.443,-0.021l-0.442,-0.018l-0.443,-0.016l-0.442,-0.014l-0.442,-0.011l-0.443,-0.01l-0.442,-0.007l-0.441,-0.005l-0.442,-0.002l-0.442,0l-0.441,0.002l-0.441,0.005l-0.441,0.007l-0.44,0.009l-0.44,0.012l-0.44,0.015l-0.44,0.017l-0.439,0.02l-0.439,0.022l-0.438,0.025l-0.438,0.028l-0.438,0.03l-0.437,0.033l-0.437,0.036l-0.425,0.038l-0.008,0l-0.002,0.001l-0.005,0l-0.008,0.002l-0.012,0.002l-0.016,0.003l-0.019,0.005l-0.022,0.005l-0.025,0.007l-0.027,0.007l-0.03,0.009l-0.033,0.01l-0.034,0.011l-0.037,0.012l-0.039,0.014l-0.035,0.013l-0.093,0.035l-0.094,0.037l-0.1,0.042l-0.105,0.046l-0.109,0.049l-0.115,0.054l-0.118,0.056l-0.122,0.06l-0.125,0.063l-0.127,0.066l-0.131,0.068l-0.13,0.069l-0.274,0.147l-0.277,0.151l-0.568,0.313l-0.288,0.157l-0.288,0.155l-0.148,0.078l-0.147,0.076l-0.148,0.076l-0.148,0.074l-0.15,0.072l-0.151,0.071l-0.153,0.07l-0.156,0.067l-0.158,0.066l-0.162,0.063l-0.159,0.057l-0.094,0.032l-0.088,0.028l-0.09,0.027l-0.093,0.026l-0.095,0.025l-0.098,0.024l-0.102,0.023l-0.105,0.02l-0.11,0.018l-0.114,0.016l-0.119,0.013l-0.125,0.01l-0.131,0.005l-0.138,0.001l-0.146,-0.006l-0.153,-0.013l-0.159,-0.021l-0.166,-0.031l-0.173,-0.042l-0.18,-0.056l-0.184,-0.07l-0.184,-0.085l-0.185,-0.102l-0.182,-0.118l-0.174,-0.133l-0.166,-0.148l-0.152,-0.157l-0.139,-0.168l-0.125,-0.177l-0.107,-0.177l-0.092,-0.177l-0.079,-0.179l-0.063,-0.173l-0.051,-0.168l-0.041,-0.165l-0.03,-0.159l-0.022,-0.152l-0.015,-0.147l-0.009,-0.142l-0.003,-0.138l0.001,-0.133l0.004,-0.12l0.011,-0.171l0.011,-0.16l0.014,-0.159l0.016,-0.159l0.017,-0.158l0.019,-0.158l0.022,-0.156l0.022,-0.156l0.025,-0.155l0.027,-0.154l0.028,-0.154l0.03,-0.153l0.031,-0.152l0.033,-0.151l0.035,-0.151l0.036,-0.15l0.037,-0.148l0.04,-0.149l0.04,-0.147l0.042,-0.146l0.044,-0.146l0.044,-0.145l0.046,-0.144l0.048,-0.144l0.048,-0.143l0.05,-0.141l0.051,-0.142l0.052,-0.14l0.053,-0.139l0.055,-0.14l0.055,-0.138l0.056,-0.137l0.058,-0.136l0.058,-0.136l0.059,-0.135l0.06,-0.135l0.062,-0.134l0.062,-0.133l0.062,-0.133l0.064,-0.131l0.064,-0.131l0.065,-0.131l0.067,-0.13l0.066,-0.129l0.067,-0.129l0.07,-0.131l0.136,-0.251l0.14,-0.252l0.142,-0.25l0.144,-0.247l0.146,-0.245l0.147,-0.244l0.149,-0.242l0.15,-0.239l0.151,-0.238l0.152,-0.236l0.153,-0.235l0.154,-0.233l0.153,-0.231l0.154,-0.23l0.155,-0.23l0.307,-0.451l0.307,-0.448l0.304,-0.444l0.3,-0.439l0.296,-0.437l0.144,-0.215l0.143,-0.215l0.142,-0.214l0.139,-0.213l0.138,-0.213l0.135,-0.211l0.133,-0.211l0.13,-0.21l0.127,-0.209l0.125,-0.209l0.121,-0.207l0.119,-0.207l0.115,-0.206l0.114,-0.208l0.053,-0.099l0.054,-0.102l0.053,-0.102l0.056,-0.109l4.45,2.28l-0.063,0.123l-0.067,0.129l-0.068,0.128l-0.07,0.131l-0.137,0.25l-0.14,0.251l-0.143,0.249l-0.145,0.247l-0.146,0.245l-0.148,0.242l-0.15,0.242l-0.15,0.239l-0.152,0.237l-0.152,0.236l-0.153,0.233l-0.153,0.233l-0.154,0.231l-0.155,0.231l-0.307,0.453l-0.308,0.449l-0.304,0.445l-0.302,0.441l-0.298,0.438l-0.145,0.215l-0.144,0.216l-0.143,0.215l-0.141,0.214l-0.139,0.213l-0.137,0.212l-0.134,0.211l-0.132,0.211l-0.129,0.21l-0.126,0.208l-0.124,0.209l-0.121,0.207l-0.117,0.206l-0.115,0.206l-0.112,0.208l-0.053,0.099l-0.053,0.102l-0.053,0.102l-0.051,0.101l-0.051,0.101l-0.049,0.102l-0.049,0.101l-0.048,0.101l-0.047,0.1l-0.046,0.101l-0.015,0.035l0.062,-0.032l0.161,-0.081l0.163,-0.08l0.165,-0.079l0.167,-0.078l0.168,-0.076l0.171,-0.075l0.173,-0.072l0.175,-0.07l0.173,-0.065l0.096,-0.035l0.091,-0.031l0.092,-0.031l0.095,-0.031l0.094,-0.029l0.095,-0.028l0.098,-0.027l0.098,-0.025l0.1,-0.025l0.102,-0.023l0.103,-0.022l0.106,-0.02l0.108,-0.018l0.109,-0.017l0.111,-0.014l0.103,-0.011l0.48,-0.042l0.469,-0.039l0.468,-0.035l0.469,-0.033l0.469,-0.029l0.469,-0.027l0.469,-0.024l0.469,-0.021l0.469,-0.018l0.469,-0.016l0.468,-0.012l0.469,-0.011l0.469,-0.007l0.468,-0.005l0.469,-0.002l0.468,0l0.468,0.003l0.468,0.005l0.468,0.007l0.468,0.01l0.467,0.013l0.467,0.014l0.467,0.017l0.466,0.019l0.466,0.022l0.466,0.023l0.465,0.026l0.465,0.027l0.465,0.03l0.464,0.032l0.464,0.034l0.47,0.036l0.161,0.014l0.167,0.017l0.165,0.02l0.163,0.021l0.162,0.023l0.16,0.025l0.159,0.027l0.157,0.029l0.156,0.029l0.154,0.032l0.153,0.033l0.151,0.033l0.149,0.035l0.149,0.036l0.146,0.037l0.145,0.038l0.144,0.038l0.146,0.04l0.277,0.078l0.275,0.081l0.271,0.081l0.265,0.082l0.26,0.081l0.506,0.159l0.246,0.076l0.241,0.074l0.236,0.071l0.235,0.068l0.112,0.032l0.113,0.031l0.111,0.03l0.111,0.029l0.109,0.028l0.108,0.027l0.107,0.025l0.106,0.024l0.104,0.023l0.104,0.021l0.102,0.021l0.101,0.018l0.099,0.018l0.099,0.015l0.098,0.015l0.096,0.013l0.095,0.012l0.094,0.01l0.093,0.008l0.017,0.002l-0.022,-0.026l-0.088,-0.099l-0.094,-0.102l-0.098,-0.105l-0.104,-0.108l-0.109,-0.111l-0.114,-0.112l-0.118,-0.115l-0.124,-0.117l-0.127,-0.119l-0.132,-0.121l-0.136,-0.122l-0.139,-0.124l-0.144,-0.125l-0.147,-0.127l-0.152,-0.128l-0.154,-0.129l-0.158,-0.13l-0.161,-0.131l-0.164,-0.132l-0.167,-0.133l-0.17,-0.133l-0.173,-0.134l-0.175,-0.135l-0.178,-0.136l-0.18,-0.136l-0.183,-0.136l-0.185,-0.137l-0.186,-0.137l-0.189,-0.137l-0.19,-0.138l-0.193,-0.138l-0.194,-0.138l-0.195,-0.137l-0.196,-0.138l-0.198,-0.138l-0.198,-0.137l-0.403,-0.276l-0.405,-0.274l-0.407,-0.273l-0.409,-0.271l-0.41,-0.269l-0.41,-0.266l-0.409,-0.264l-0.408,-0.26l-0.405,-0.257l-0.402,-0.252l-0.398,-0.249l-0.393,-0.244l-0.388,-0.239l-0.381,-0.233l-0.374,-0.228l-0.366,-0.222l-0.356,-0.215l-0.686,-0.412l-0.64,-0.382l-0.59,-0.35l-0.534,-0.317l-0.472,-0.281l-0.405,-0.242l-0.18,-0.109l-0.163,-0.1l-0.148,-0.092l-0.139,-0.088l-0.128,-0.086l-0.081,-0.057l-0.052,-0.038l2.968,-4.024l-0.013,-0.009l0.039,0.026Z" style="fill:#4a4a4a;"/></g><g id="Path-7"><path d="M555.885,307.453c2.58,0 4.093,-5.565 1,-7c-3.092,-1.435 -1,1 -5,1c-5,-5 -5,5 -1,6c4,1 2.421,0 5,0Z" style="fill:#4a4a4a;"/><path d="M555.562,297.502l0.1,0.004l0.097,0.007l0.094,0.009l0.094,0.012l0.093,0.013l0.089,0.015l0.087,0.016l0.087,0.018l0.085,0.02l0.093,0.022l0.155,0.042l0.161,0.049l0.16,0.053l0.159,0.057l0.16,0.061l0.161,0.065l0.163,0.069l0.167,0.073l0.178,0.081l0.124,0.06l0.128,0.065l0.126,0.069l0.125,0.073l0.122,0.075l0.119,0.078l0.117,0.081l0.114,0.084l0.112,0.087l0.109,0.09l0.105,0.091l0.103,0.094l0.1,0.097l0.097,0.099l0.093,0.1l0.091,0.102l0.087,0.104l0.084,0.105l0.081,0.108l0.078,0.108l0.075,0.11l0.072,0.112l0.068,0.111l0.066,0.113l0.062,0.114l0.059,0.113l0.056,0.115l0.054,0.116l0.05,0.116l0.048,0.116l0.045,0.116l0.042,0.117l0.04,0.118l0.036,0.116l0.035,0.117l0.032,0.118l0.029,0.117l0.027,0.116l0.025,0.118l0.022,0.117l0.02,0.116l0.018,0.117l0.016,0.116l0.014,0.117l0.012,0.115l0.009,0.116l0.008,0.114l0.006,0.115l0.004,0.116l0.002,0.114l0.001,0.115l-0.002,0.113l-0.003,0.113l-0.005,0.114l-0.007,0.112l-0.008,0.112l-0.01,0.111l-0.011,0.111l-0.014,0.112l-0.015,0.111l-0.016,0.109l-0.018,0.111l-0.019,0.109l-0.021,0.108l-0.022,0.108l-0.024,0.108l-0.026,0.108l-0.027,0.107l-0.029,0.106l-0.029,0.106l-0.032,0.105l-0.033,0.106l-0.034,0.104l-0.036,0.104l-0.037,0.103l-0.039,0.103l-0.04,0.102l-0.042,0.101l-0.044,0.102l-0.045,0.1l-0.046,0.099l-0.048,0.101l-0.05,0.098l-0.051,0.097l-0.053,0.098l-0.054,0.096l-0.057,0.097l-0.057,0.095l-0.06,0.094l-0.061,0.094l-0.064,0.093l-0.064,0.092l-0.068,0.091l-0.068,0.09l-0.071,0.09l-0.073,0.089l-0.074,0.087l-0.077,0.086l-0.08,0.086l-0.081,0.084l-0.084,0.083l-0.085,0.081l-0.089,0.081l-0.092,0.08l-0.092,0.077l-0.095,0.075l-0.099,0.074l-0.102,0.073l-0.103,0.07l-0.106,0.068l-0.11,0.066l-0.112,0.064l-0.115,0.06l-0.117,0.059l-0.12,0.055l-0.122,0.052l-0.126,0.049l-0.128,0.046l-0.13,0.042l-0.133,0.038l-0.135,0.034l-0.136,0.03l-0.139,0.025l-0.14,0.022l-0.142,0.016l-0.143,0.012l-0.143,0.008l-0.116,0.002l-0.115,0l-0.079,0.002l-0.072,0.002l-0.065,0.003l-0.058,0.004l-0.051,0.004l-0.044,0.004l-0.037,0.004l-0.033,0.004l-0.026,0.004l-0.022,0.004l-0.018,0.003l-0.014,0.003l-0.01,0.002l-0.007,0.002l-0.006,0.002l-0.006,0.001l-0.007,0.003l-0.007,0.002l-0.003,0.001l-0.042,0.015l-0.053,0.021l-0.082,0.033l-0.114,0.044l-0.135,0.048l-0.095,0.031l-0.094,0.029l-0.1,0.028l-0.107,0.027l-0.11,0.024l-0.114,0.022l-0.118,0.02l-0.119,0.016l-0.12,0.012l-0.121,0.01l-0.122,0.006l-0.12,0.004l-0.121,0l-0.122,-0.002l-0.121,-0.005l-0.122,-0.007l-0.123,-0.01l-0.123,-0.011l-0.126,-0.014l-0.127,-0.016l-0.129,-0.018l-0.133,-0.02l-0.135,-0.023l-0.139,-0.024l-0.143,-0.026l-0.147,-0.029l-0.152,-0.031l-0.157,-0.033l-0.163,-0.035l-0.168,-0.038l-0.175,-0.04l-0.181,-0.043l-0.187,-0.046l-0.203,-0.05l-0.083,-0.021l-0.091,-0.026l-0.09,-0.027l-0.087,-0.028l-0.088,-0.029l-0.088,-0.032l-0.086,-0.033l-0.085,-0.034l-0.085,-0.035l-0.083,-0.037l-0.082,-0.038l-0.082,-0.04l-0.08,-0.04l-0.079,-0.041l-0.078,-0.044l-0.078,-0.044l-0.075,-0.044l-0.076,-0.047l-0.073,-0.047l-0.081,-0.053l-0.134,-0.093l-0.138,-0.102l-0.134,-0.105l-0.129,-0.109l-0.125,-0.11l-0.121,-0.113l-0.116,-0.116l-0.113,-0.117l-0.109,-0.12l-0.105,-0.121l-0.101,-0.123l-0.097,-0.124l-0.094,-0.125l-0.091,-0.128l-0.087,-0.128l-0.084,-0.129l-0.082,-0.13l-0.077,-0.131l-0.075,-0.131l-0.072,-0.133l-0.07,-0.134l-0.066,-0.134l-0.064,-0.134l-0.061,-0.136l-0.058,-0.135l-0.056,-0.137l-0.054,-0.136l-0.051,-0.138l-0.049,-0.137l-0.046,-0.138l-0.044,-0.138l-0.042,-0.138l-0.039,-0.139l-0.037,-0.139l-0.036,-0.139l-0.032,-0.139l-0.031,-0.139l-0.029,-0.14l-0.026,-0.139l-0.024,-0.14l-0.022,-0.139l-0.02,-0.14l-0.018,-0.14l-0.015,-0.139l-0.013,-0.14l-0.012,-0.139l-0.008,-0.139l-0.007,-0.14l-0.005,-0.14l-0.002,-0.139l0,-0.139l0.003,-0.14l0.005,-0.139l0.007,-0.14l0.01,-0.139l0.013,-0.139l0.015,-0.139l0.018,-0.14l0.021,-0.139l0.024,-0.139l0.028,-0.141l0.03,-0.14l0.035,-0.14l0.038,-0.14l0.041,-0.141l0.046,-0.141l0.051,-0.142l0.055,-0.141l0.06,-0.142l0.067,-0.142l0.071,-0.142l0.078,-0.142l0.085,-0.142l0.091,-0.141l0.1,-0.14l0.098,-0.127l0.066,-0.079l0.059,-0.069l0.061,-0.067l0.062,-0.066l0.066,-0.066l0.069,-0.066l0.069,-0.063l0.072,-0.062l0.075,-0.063l0.078,-0.06l0.078,-0.058l0.081,-0.057l0.084,-0.055l0.086,-0.053l0.087,-0.051l0.089,-0.049l0.092,-0.047l0.094,-0.044l0.094,-0.042l0.097,-0.039l0.097,-0.036l0.098,-0.034l0.101,-0.031l0.101,-0.028l0.1,-0.025l0.103,-0.022l0.102,-0.02l0.102,-0.016l0.102,-0.013l0.103,-0.011l0.104,-0.007l0.101,-0.005l0.102,-0.002l0.101,0l0.1,0.003l0.101,0.006l0.098,0.008l0.098,0.01l0.098,0.013l0.096,0.015l0.095,0.017l0.095,0.019l0.093,0.021l0.092,0.023l0.091,0.025l0.09,0.026l0.09,0.028l0.088,0.03l0.087,0.031l0.086,0.033l0.084,0.034l0.085,0.035l0.084,0.037l0.082,0.038l0.082,0.04l0.081,0.041l0.08,0.041l0.08,0.043l0.079,0.045l0.078,0.045l0.078,0.047l0.077,0.047l0.077,0.049l0.082,0.054l0.144,0.098l0.15,0.108l0.148,0.111l0.115,0.091l0.003,-0.001l0.004,-0.001l0.066,-0.079l0.089,-0.103l0.068,-0.076l0.077,-0.083l0.091,-0.091l0.106,-0.1l0.123,-0.106l0.142,-0.111l0.144,-0.099l0.103,-0.065l0.09,-0.052l0.096,-0.052l0.102,-0.049l0.1,-0.046l0.106,-0.043l0.109,-0.039l0.109,-0.036l0.11,-0.031l0.112,-0.028l0.113,-0.023l0.111,-0.02l0.109,-0.015l0.109,-0.011l0.109,-0.008l0.105,-0.004l0.103,-0.001l0.103,0.002Zm0.322,5.285l-0.123,0.097l-0.132,0.096l-0.14,0.094l-0.136,0.084l-0.085,0.05l-0.078,0.044l-0.079,0.041l-0.08,0.041l-0.082,0.04l-0.082,0.038l-0.084,0.037l-0.086,0.036l-0.086,0.034l-0.088,0.033l-0.088,0.031l-0.09,0.031l-0.09,0.028l-0.091,0.028l-0.093,0.026l-0.094,0.024l-0.094,0.024l-0.096,0.022l-0.096,0.021l-0.097,0.019l-0.098,0.018l-0.099,0.017l-0.101,0.016l-0.101,0.014l-0.102,0.013l-0.103,0.012l-0.106,0.011l-0.105,0.01l-0.107,0.008l-0.108,0.008l-0.11,0.006l-0.111,0.005l-0.112,0.004l-0.114,0.003l-0.115,0.001l-1.136,0.006l-0.164,-0.162l0.012,0.037l0.021,0.062l0.021,0.061l0.023,0.061l0.023,0.059l0.024,0.058l0.025,0.057l0.024,0.055l0.026,0.054l0.026,0.053l0.026,0.05l0.027,0.049l0.027,0.048l0.027,0.045l0.026,0.043l0.027,0.041l0.027,0.039l0.026,0.037l0.026,0.035l0.026,0.033l0.025,0.03l0.024,0.028l0.024,0.026l0.023,0.023l0.021,0.022l0.021,0.019l0.019,0.018l0.019,0.015l0.017,0.013l0.015,0.012l0.022,0.014l0.011,0.007l0.015,0.009l0.013,0.007l0.014,0.006l0.014,0.005l0.011,0.003l0.164,0.04l0.163,0.04l0.155,0.036l0.146,0.034l0.138,0.031l0.129,0.028l0.121,0.026l0.113,0.023l0.105,0.02l0.097,0.018l0.089,0.015l0.081,0.014l0.073,0.011l0.066,0.009l0.057,0.007l0.05,0.006l0.043,0.004l0.013,0.001l0.007,-0.003l0.106,-0.042l0.127,-0.047l0.086,-0.03l0.085,-0.028l0.091,-0.028l0.095,-0.028l0.101,-0.027l0.104,-0.026l0.108,-0.025l0.111,-0.023l0.113,-0.021l0.117,-0.02l0.12,-0.018l0.122,-0.015l0.125,-0.014l0.128,-0.012l0.13,-0.01l0.134,-0.009l0.137,-0.006l0.141,-0.005l0.057,-0.001l0.001,-0.001l0.012,-0.014l0.013,-0.016l0.013,-0.018l0.013,-0.018l0.015,-0.02l0.014,-0.021l0.014,-0.021l0.015,-0.024l0.015,-0.025l0.014,-0.025l0.015,-0.026l0.015,-0.028l0.015,-0.029l0.015,-0.029l0.015,-0.03l0.014,-0.032l0.015,-0.032l0.013,-0.032l0.014,-0.033l0.014,-0.035l0.013,-0.034l0.013,-0.036l0.012,-0.036l0.012,-0.036l0.012,-0.036l0.011,-0.038l0.011,-0.038l0.01,-0.038l0.009,-0.038l0.009,-0.038l0.009,-0.039l0.008,-0.038l0.008,-0.04l0.006,-0.038l0.006,-0.038l0.006,-0.04l0.006,-0.038l0.004,-0.037l0.004,-0.039l0.003,-0.038l0.003,-0.038l0.002,-0.037l0.002,-0.036l0.001,-0.036l0,-0.038l0,-0.034l0,-0.035l-0.001,-0.033l-0.002,-0.033l-0.002,-0.034l-0.003,-0.032l-0.003,-0.031l-0.004,-0.03l-0.004,-0.029l-0.004,-0.029l-0.005,-0.028l-0.005,-0.026l-0.005,-0.025l-0.006,-0.025l-0.006,-0.024l-0.006,-0.022l-0.007,-0.022l-0.006,-0.021l-0.006,-0.018l-0.007,-0.018l-0.007,-0.018l-0.006,-0.016l-0.007,-0.016l-0.006,-0.013l-0.007,-0.013l-0.006,-0.013l-0.006,-0.01l-0.006,-0.011l-0.006,-0.01l-0.005,-0.007l-0.006,-0.008l-0.005,-0.007l-0.005,-0.007l-0.005,-0.006l-0.005,-0.006l-0.004,-0.005l-0.005,-0.005l-0.004,-0.005l-0.004,-0.003l-0.005,-0.005l-0.005,-0.005l-0.005,-0.004l-0.001,0l-0.025,0.021Z" style="fill:#4a4a4a;"/></g><path id="Path-12" d="M549,320c3.884,-4.956 3,-3 3,-8" style="fill:none;stroke:#d8d8d8;stroke-width:2px;"/><path id="Path-13" d="M562,320c-5,-5 -0.11,-5.722 -4,-8" style="fill:none;stroke:#d8d8d8;stroke-width:2px;"/><path id="Path-14" d="M558.509,319.777l0.11,0.324l0.151,0.447l0.191,0.566l0.229,0.683l0.265,0.797l0.3,0.906l0.334,1.014l0.365,1.117l0.395,1.217l0.424,1.314l0.223,0.693l0.229,0.716l0.235,0.738l0.242,0.76l0.248,0.783l0.253,0.804l0.259,0.825l0.265,0.845l0.269,0.866l0.275,0.886l0.28,0.904l0.284,0.924l0.289,0.943l0.293,0.961l0.297,0.978l0.301,0.996l0.305,1.013l0.308,1.03l0.312,1.046l0.314,1.061l0.318,1.077l0.32,1.092l0.323,1.106l0.325,1.121l0.328,1.134l0.329,1.148l0.331,1.16l0.333,1.173l0.334,1.185l0.335,1.197l0.336,1.208l0.337,1.22l0.338,1.229l0.338,1.24l0.338,1.249l0.338,1.259l0.338,1.268l0.338,1.276l0.337,1.284l0.337,1.292l0.335,1.299l0.334,1.306l0.333,1.312l0.166,0.659l0.166,0.66l0.165,0.662l0.165,0.663l0.164,0.664l0.163,0.665l0.164,0.667l0.162,0.668l0.162,0.668l0.162,0.67l0.16,0.671l0.161,0.672l0.159,0.673l0.159,0.674l0.158,0.674l0.157,0.676l0.157,0.675l0.156,0.677l0.154,0.677l0.155,0.678l0.153,0.678l0.152,0.679l0.152,0.679l0.15,0.68l0.15,0.68l0.148,0.68l0.148,0.68l0.146,0.681l0.146,0.68l0.144,0.681l0.143,0.681l0.143,0.68l0.141,0.681l0.139,0.68l0.139,0.68l0.137,0.68l0.136,0.68l0.135,0.679l0.134,0.679l0.132,0.678l0.131,0.678l0.129,0.678l0.129,0.677l0.126,0.676l0.126,0.675l0.123,0.675l0.123,0.674l0.12,0.673l0.12,0.672l0.117,0.672l0.116,0.67l0.115,0.669l0.113,0.668l0.111,0.667l0.109,0.666l0.108,0.665l0.106,0.663l0.104,0.662l0.103,0.661l0.1,0.659l0.099,0.657l0.097,0.656l0.095,0.655l0.093,0.653l0.091,0.651l0.09,0.65l0.087,0.647l0.085,0.646l0.084,0.644l0.081,0.642l0.079,0.64l0.077,0.638l0.075,0.636l0.073,0.634l0.07,0.632l0.068,0.629l0.067,0.627l0.063,0.625l0.062,0.623l0.059,0.62l0.057,0.617l0.055,0.615l0.052,0.613l0.05,0.61l0.048,0.607l0.044,0.604l0.043,0.602l0.04,0.599l0.037,0.596l0.035,0.594l0.033,0.59l0.029,0.587l0.027,0.584l0.025,0.582l0.022,0.578l0.019,0.575l0.016,0.571l0.014,0.569l0.01,0.565l0.008,0.561l0.006,0.559l0.002,0.554l-0.001,0.552l-0.003,0.547l-0.007,0.544l-0.004,0.271l-0.005,0.27l-0.006,0.269l-0.007,0.268l-0.007,0.267l-0.008,0.266l-0.009,0.265l-0.01,0.265l-0.01,0.263l-0.011,0.262l-0.012,0.261l-0.013,0.261l-0.014,0.259l-0.014,0.258l-0.015,0.258l-0.016,0.256l-0.017,0.256l-0.017,0.254l-0.019,0.254l-0.019,0.252l-0.02,0.251l-0.02,0.25l-0.022,0.25l-0.022,0.248l-0.024,0.247l-0.024,0.246l-0.025,0.246l-0.025,0.244l-0.027,0.243l-0.027,0.242l-0.029,0.241l-0.029,0.239l-0.03,0.239l-0.031,0.237l-0.062,0.463l-0.061,0.46l-0.063,0.457l-0.063,0.454l-0.063,0.45l-0.064,0.448l-0.064,0.445l-0.064,0.443l-0.065,0.439l-0.066,0.436l-0.065,0.434l-0.066,0.43l-0.067,0.428l-0.067,0.425l-0.067,0.422l-0.068,0.419l-0.068,0.417l-0.069,0.413l-0.068,0.411l-0.07,0.408l-0.069,0.406l-0.07,0.402l-0.071,0.4l-0.071,0.397l-0.071,0.395l-0.071,0.391l-0.072,0.389l-0.073,0.386l-0.072,0.384l-0.073,0.381l-0.074,0.378l-0.074,0.376l-0.074,0.372l-0.074,0.371l-0.075,0.367l-0.075,0.366l-0.076,0.362l-0.076,0.36l-0.076,0.357l-0.076,0.355l-0.077,0.352l-0.078,0.35l-0.077,0.347l-0.078,0.344l-0.078,0.343l-0.079,0.339l-0.079,0.337l-0.079,0.335l-0.08,0.332l-0.08,0.33l-0.08,0.327l-0.081,0.325l-0.081,0.322l-0.081,0.32l-0.081,0.317l-0.082,0.316l-0.082,0.312l-0.083,0.311l-0.083,0.308l-0.083,0.305l-0.083,0.304l-0.084,0.301l-0.084,0.298l-0.084,0.297l-0.085,0.294l-0.085,0.292l-0.085,0.289l-0.085,0.287l-0.086,0.285l-0.086,0.283l-0.087,0.281l-0.086,0.278l-0.087,0.276l-0.087,0.274l-0.088,0.271l-0.088,0.27l-0.088,0.267l-0.088,0.265l-0.088,0.263l-0.089,0.261l-0.089,0.259l-0.09,0.256l-0.089,0.255l-0.09,0.252l-0.091,0.251l-0.09,0.248l-0.091,0.246l-0.091,0.244l-0.091,0.242l-0.091,0.24l-0.092,0.238l-0.092,0.236l-0.092,0.234l-0.093,0.232l-0.092,0.23l-0.093,0.228l-0.093,0.226l-0.094,0.224l-0.093,0.222l-0.094,0.221l-0.094,0.218l-0.095,0.216l-0.094,0.215l-0.095,0.212l-0.095,0.211l-0.096,0.209l-0.095,0.207l-0.096,0.205l-0.096,0.203l-0.096,0.202l-0.096,0.2l-0.097,0.197l-0.097,0.196l-0.097,0.195l-0.097,0.192l-0.097,0.191l-0.098,0.189l-0.098,0.187l-0.098,0.186l-0.098,0.183l-0.099,0.182l-0.098,0.181l-0.099,0.178l-0.099,0.177l-0.1,0.176l-0.099,0.173l-0.1,0.172l-0.099,0.17l-0.1,0.169l-0.101,0.167l-0.1,0.165l-0.101,0.164l-0.1,0.162l-0.101,0.161l-0.101,0.159l-0.102,0.157l-0.101,0.156l-0.102,0.155l-0.102,0.152l-0.102,0.151l-0.102,0.15l-0.102,0.148l-0.102,0.147l-0.103,0.145l-0.103,0.144l-0.103,0.142l-0.103,0.141l-0.103,0.139l-0.103,0.138l-0.104,0.136l-0.103,0.135l-0.104,0.134l-0.104,0.132l-0.104,0.131l-0.104,0.129l-0.105,0.128l-0.104,0.126l-0.105,0.125l-0.104,0.124l-0.105,0.123l-0.105,0.121l-0.105,0.12l-0.105,0.118l-0.106,0.117l-0.105,0.116l-0.106,0.115l-0.105,0.113l-0.106,0.112l-0.106,0.11l-0.105,0.11l-0.106,0.108l-0.106,0.107l-0.106,0.106l-0.107,0.104l-0.106,0.103l-0.106,0.102l-0.106,0.101l-0.107,0.1l-0.106,0.098l-0.107,0.097l-0.106,0.096l-0.107,0.095l-0.107,0.094l-0.107,0.093l-0.106,0.091l-0.107,0.091l-0.107,0.089l-0.107,0.088l-0.106,0.087l-0.107,0.086l-0.107,0.085l-0.107,0.084l-0.107,0.083l-0.107,0.082l-0.106,0.081l-0.109,0.081l-0.212,0.155l-0.213,0.152l-0.214,0.148l-0.213,0.145l-0.213,0.141l-0.212,0.137l-0.213,0.133l-0.212,0.13l-0.211,0.127l-0.211,0.123l-0.211,0.12l-0.21,0.116l-0.21,0.114l-0.209,0.111l-0.209,0.107l-0.208,0.105l-0.207,0.102l-0.206,0.099l-0.206,0.097l-0.205,0.094l-0.204,0.091l-0.203,0.09l-0.203,0.087l-0.201,0.085l-0.201,0.082l-0.199,0.081l-0.198,0.079l-0.198,0.077l-0.196,0.076l-0.196,0.074l-0.201,0.074l-0.205,0.074l-0.208,0.073l-0.211,0.073l-0.215,0.072l-0.218,0.071l-0.221,0.071l-0.224,0.07l-0.227,0.07l-0.23,0.069l-0.233,0.069l-0.236,0.068l-0.238,0.067l-0.241,0.067l-0.243,0.067l-0.246,0.066l-0.249,0.065l-0.251,0.065l-0.253,0.065l-0.255,0.064l-0.258,0.063l-0.259,0.063l-0.261,0.063l-0.264,0.062l-0.265,0.062l-0.267,0.061l-0.268,0.06l-0.27,0.06l-0.272,0.06l-0.274,0.059l-0.549,0.117l-0.555,0.115l-0.558,0.113l-0.562,0.111l-0.565,0.108l-0.567,0.107l-0.568,0.105l-0.569,0.103l-0.57,0.101l-0.568,0.099l-0.567,0.096l-0.566,0.095l-0.562,0.092l-0.56,0.09l-0.555,0.088l-0.551,0.086l-0.545,0.084l-0.54,0.081l-0.533,0.08l-0.525,0.077l-0.517,0.074l-0.509,0.072l-0.499,0.07l-0.49,0.068l-0.478,0.065l-0.467,0.063l-0.455,0.061l-0.87,0.113l-0.814,0.104l-0.752,0.093l-0.684,0.084l-0.611,0.072l-0.533,0.062l-0.448,0.052l-0.359,0.04l-0.264,0.029l-0.217,0.023l-0.322,-2.982l0.214,-0.023l0.258,-0.029l0.352,-0.039l0.442,-0.051l0.526,-0.061l0.603,-0.072l0.677,-0.082l0.743,-0.093l0.805,-0.102l0.862,-0.113l0.449,-0.059l0.462,-0.062l0.473,-0.065l0.484,-0.067l0.493,-0.069l0.503,-0.072l0.512,-0.073l0.519,-0.076l0.526,-0.079l0.532,-0.08l0.539,-0.082l0.543,-0.085l0.548,-0.087l0.551,-0.089l0.554,-0.091l0.557,-0.093l0.558,-0.095l0.558,-0.097l0.559,-0.099l0.559,-0.101l0.557,-0.103l0.555,-0.104l0.552,-0.107l0.549,-0.108l0.545,-0.11l0.54,-0.112l0.536,-0.114l0.264,-0.057l0.263,-0.058l0.262,-0.058l0.259,-0.059l0.258,-0.059l0.256,-0.059l0.253,-0.06l0.252,-0.06l0.249,-0.061l0.247,-0.06l0.244,-0.062l0.241,-0.061l0.239,-0.062l0.236,-0.062l0.234,-0.063l0.23,-0.063l0.227,-0.063l0.224,-0.064l0.221,-0.063l0.217,-0.064l0.214,-0.065l0.21,-0.064l0.207,-0.065l0.202,-0.065l0.199,-0.065l0.195,-0.065l0.19,-0.066l0.187,-0.065l0.182,-0.066l0.178,-0.066l0.18,-0.068l0.18,-0.069l0.181,-0.071l0.181,-0.072l0.181,-0.073l0.181,-0.075l0.182,-0.076l0.181,-0.078l0.182,-0.08l0.182,-0.082l0.181,-0.083l0.182,-0.086l0.182,-0.087l0.183,-0.09l0.182,-0.092l0.182,-0.094l0.183,-0.096l0.183,-0.099l0.182,-0.102l0.183,-0.104l0.183,-0.106l0.184,-0.11l0.183,-0.112l0.183,-0.116l0.184,-0.118l0.184,-0.122l0.184,-0.124l0.183,-0.128l0.185,-0.132l0.186,-0.136l0.09,-0.068l0.093,-0.069l0.092,-0.071l0.092,-0.071l0.092,-0.073l0.093,-0.073l0.092,-0.075l0.093,-0.075l0.092,-0.076l0.093,-0.078l0.092,-0.078l0.093,-0.08l0.092,-0.08l0.093,-0.081l0.093,-0.083l0.092,-0.083l0.093,-0.085l0.093,-0.086l0.093,-0.087l0.092,-0.088l0.093,-0.089l0.093,-0.09l0.093,-0.092l0.093,-0.092l0.093,-0.094l0.093,-0.095l0.093,-0.096l0.093,-0.097l0.093,-0.099l0.093,-0.1l0.093,-0.101l0.093,-0.102l0.093,-0.103l0.093,-0.105l0.093,-0.107l0.093,-0.107l0.094,-0.109l0.093,-0.11l0.093,-0.111l0.093,-0.113l0.093,-0.114l0.093,-0.116l0.093,-0.117l0.094,-0.118l0.093,-0.12l0.093,-0.121l0.093,-0.123l0.093,-0.124l0.093,-0.126l0.093,-0.127l0.093,-0.128l0.093,-0.13l0.093,-0.132l0.093,-0.133l0.093,-0.134l0.093,-0.136l0.092,-0.138l0.093,-0.139l0.093,-0.141l0.093,-0.143l0.092,-0.144l0.093,-0.145l0.093,-0.148l0.092,-0.148l0.092,-0.151l0.093,-0.152l0.092,-0.154l0.092,-0.156l0.093,-0.157l0.092,-0.159l0.092,-0.16l0.092,-0.163l0.092,-0.164l0.091,-0.166l0.092,-0.167l0.092,-0.17l0.091,-0.171l0.092,-0.173l0.091,-0.175l0.091,-0.176l0.091,-0.179l0.092,-0.18l0.09,-0.182l0.091,-0.184l0.091,-0.186l0.091,-0.187l0.09,-0.19l0.09,-0.191l0.091,-0.194l0.09,-0.195l0.09,-0.197l0.089,-0.199l0.09,-0.201l0.09,-0.203l0.089,-0.205l0.089,-0.208l0.09,-0.209l0.088,-0.211l0.089,-0.213l0.089,-0.215l0.088,-0.217l0.089,-0.219l0.088,-0.221l0.088,-0.223l0.088,-0.226l0.087,-0.227l0.088,-0.23l0.087,-0.231l0.087,-0.234l0.087,-0.236l0.087,-0.238l0.086,-0.241l0.087,-0.242l0.086,-0.244l0.086,-0.247l0.086,-0.249l0.085,-0.251l0.085,-0.253l0.086,-0.256l0.084,-0.258l0.085,-0.26l0.085,-0.262l0.084,-0.265l0.084,-0.267l0.084,-0.269l0.083,-0.271l0.084,-0.274l0.083,-0.276l0.082,-0.278l0.083,-0.281l0.082,-0.283l0.083,-0.285l0.081,-0.288l0.082,-0.29l0.081,-0.293l0.081,-0.295l0.081,-0.297l0.081,-0.3l0.08,-0.302l0.08,-0.305l0.08,-0.307l0.079,-0.309l0.08,-0.312l0.079,-0.315l0.078,-0.317l0.079,-0.319l0.078,-0.322l0.077,-0.325l0.078,-0.327l0.077,-0.329l0.077,-0.332l0.077,-0.335l0.076,-0.337l0.076,-0.34l0.076,-0.343l0.075,-0.345l0.075,-0.347l0.075,-0.351l0.074,-0.353l0.074,-0.355l0.074,-0.358l0.073,-0.361l0.074,-0.364l0.072,-0.366l0.073,-0.369l0.072,-0.371l0.072,-0.375l0.071,-0.377l0.071,-0.38l0.071,-0.382l0.07,-0.386l0.07,-0.388l0.07,-0.39l0.07,-0.394l0.069,-0.397l0.068,-0.399l0.068,-0.402l0.068,-0.405l0.068,-0.407l0.067,-0.411l0.067,-0.413l0.066,-0.417l0.066,-0.419l0.066,-0.422l0.065,-0.425l0.065,-0.428l0.064,-0.43l0.065,-0.434l0.063,-0.437l0.064,-0.439l0.062,-0.443l0.063,-0.446l0.062,-0.448l0.062,-0.452l0.061,-0.454l0.061,-0.457l0.029,-0.226l0.029,-0.226l0.027,-0.228l0.027,-0.229l0.026,-0.23l0.026,-0.231l0.024,-0.233l0.024,-0.233l0.023,-0.235l0.022,-0.236l0.022,-0.238l0.02,-0.238l0.02,-0.24l0.019,-0.24l0.019,-0.242l0.017,-0.243l0.017,-0.244l0.016,-0.246l0.015,-0.246l0.015,-0.247l0.014,-0.249l0.013,-0.25l0.012,-0.251l0.012,-0.252l0.01,-0.253l0.01,-0.254l0.01,-0.255l0.008,-0.256l0.008,-0.257l0.007,-0.258l0.007,-0.26l0.005,-0.26l0.005,-0.261l0.005,-0.261l0.006,-0.529l0.003,-0.532l0.001,-0.535l-0.002,-0.539l-0.005,-0.544l-0.008,-0.546l-0.011,-0.551l-0.013,-0.554l-0.016,-0.558l-0.018,-0.561l-0.022,-0.565l-0.024,-0.568l-0.026,-0.571l-0.029,-0.575l-0.032,-0.578l-0.034,-0.581l-0.037,-0.585l-0.039,-0.587l-0.042,-0.591l-0.044,-0.593l-0.046,-0.596l-0.049,-0.6l-0.052,-0.602l-0.053,-0.604l-0.056,-0.608l-0.059,-0.61l-0.06,-0.613l-0.063,-0.615l-0.066,-0.618l-0.067,-0.62l-0.069,-0.622l-0.072,-0.625l-0.074,-0.628l-0.076,-0.629l-0.078,-0.632l-0.08,-0.633l-0.082,-0.636l-0.085,-0.638l-0.086,-0.64l-0.088,-0.642l-0.09,-0.643l-0.092,-0.645l-0.094,-0.648l-0.096,-0.648l-0.098,-0.651l-0.1,-0.652l-0.101,-0.654l-0.103,-0.655l-0.105,-0.656l-0.107,-0.658l-0.108,-0.66l-0.11,-0.66l-0.112,-0.662l-0.113,-0.663l-0.115,-0.664l-0.117,-0.666l-0.118,-0.666l-0.12,-0.667l-0.121,-0.668l-0.123,-0.67l-0.124,-0.669l-0.126,-0.671l-0.127,-0.672l-0.128,-0.672l-0.13,-0.672l-0.131,-0.674l-0.133,-0.673l-0.134,-0.675l-0.135,-0.674l-0.136,-0.675l-0.138,-0.676l-0.139,-0.675l-0.14,-0.676l-0.141,-0.676l-0.142,-0.676l-0.143,-0.676l-0.145,-0.676l-0.146,-0.676l-0.146,-0.676l-0.148,-0.676l-0.148,-0.675l-0.15,-0.676l-0.15,-0.675l-0.152,-0.674l-0.152,-0.675l-0.153,-0.674l-0.154,-0.673l-0.155,-0.673l-0.156,-0.672l-0.156,-0.671l-0.158,-0.671l-0.158,-0.67l-0.158,-0.669l-0.159,-0.668l-0.16,-0.668l-0.161,-0.666l-0.161,-0.665l-0.162,-0.665l-0.162,-0.663l-0.163,-0.662l-0.163,-0.661l-0.164,-0.659l-0.165,-0.658l-0.164,-0.657l-0.165,-0.655l-0.332,-1.307l-0.333,-1.3l-0.333,-1.293l-0.335,-1.286l-0.336,-1.278l-0.336,-1.271l-0.337,-1.262l-0.337,-1.253l-0.336,-1.245l-0.337,-1.234l-0.336,-1.225l-0.336,-1.214l-0.335,-1.203l-0.333,-1.192l-0.333,-1.181l-0.332,-1.168l-0.329,-1.156l-0.328,-1.143l-0.326,-1.13l-0.324,-1.117l-0.322,-1.102l-0.319,-1.087l-0.317,-1.073l-0.313,-1.058l-0.31,-1.042l-0.308,-1.025l-0.303,-1.009l-0.3,-0.993l-0.296,-0.975l-0.292,-0.957l-0.288,-0.939l-0.283,-0.92l-0.279,-0.902l-0.273,-0.882l-0.269,-0.863l-0.264,-0.842l-0.258,-0.822l-0.252,-0.8l-0.247,-0.78l-0.24,-0.757l-0.235,-0.736l-0.228,-0.712l-0.221,-0.69l-0.423,-1.309l-0.393,-1.212l-0.364,-1.111l-0.332,-1.009l-0.298,-0.901l-0.264,-0.792l-0.227,-0.678l-0.189,-0.562l-0.15,-0.442l-0.108,-0.319l-0.089,-0.26l2.838,-0.972l0.09,0.263Z" style="fill:#4a4a4a;"/><g id="Path"><path d="M469,244c-22,-25 -46,-50 -55,-105c-9,-55 36,-132 125,-135c89,-3 148,80 138,135c-10,55 -33,81 -54,105c-21,24 -70,57 -70,57c0,0 -62,-32 -84,-57Z" style="fill:#4a4a4a;"/><path d="M544.191,0.922l0.525,0.003l0.525,0.004l0.524,0.007l0.523,0.009l0.523,0.011l0.522,0.012l0.521,0.015l0.52,0.016l0.52,0.019l0.519,0.02l0.518,0.022l0.517,0.024l0.517,0.026l0.516,0.028l0.516,0.03l0.514,0.031l0.514,0.034l0.513,0.035l0.512,0.038l0.512,0.039l0.511,0.041l0.51,0.042l0.509,0.045l0.509,0.047l0.508,0.048l0.507,0.05l0.506,0.052l0.506,0.054l0.505,0.056l0.504,0.057l0.503,0.059l0.503,0.061l0.501,0.063l0.501,0.065l0.501,0.066l0.499,0.069l0.499,0.07l0.498,0.071l0.497,0.074l0.496,0.075l0.495,0.077l0.495,0.079l0.494,0.08l0.493,0.083l0.493,0.084l0.491,0.085l0.491,0.088l0.49,0.089l0.489,0.091l0.488,0.092l0.488,0.095l0.487,0.096l0.486,0.097l0.485,0.1l0.484,0.101l0.484,0.102l0.482,0.105l0.482,0.106l0.481,0.107l0.48,0.11l0.48,0.111l0.478,0.112l0.478,0.115l0.477,0.116l0.476,0.117l0.475,0.119l0.475,0.121l0.473,0.122l0.473,0.124l0.472,0.126l0.471,0.127l0.47,0.129l0.469,0.13l0.468,0.132l0.468,0.134l0.467,0.135l0.466,0.137l0.465,0.138l0.464,0.139l0.463,0.142l0.463,0.143l0.461,0.144l0.461,0.146l0.46,0.147l0.459,0.149l0.458,0.151l0.457,0.152l0.456,0.153l0.456,0.155l0.454,0.157l0.454,0.158l0.453,0.159l0.452,0.161l0.451,0.163l0.45,0.164l0.449,0.165l0.448,0.167l0.448,0.168l0.446,0.17l0.446,0.171l0.445,0.173l0.443,0.174l0.443,0.175l0.442,0.177l0.441,0.178l0.441,0.18l0.439,0.181l0.438,0.183l0.438,0.184l0.436,0.185l0.436,0.186l0.434,0.189l0.434,0.189l0.433,0.191l0.432,0.192l0.431,0.194l0.43,0.194l0.429,0.197l0.428,0.197l0.427,0.199l0.427,0.2l0.425,0.202l0.424,0.203l0.424,0.204l0.422,0.206l0.422,0.206l0.42,0.208l0.42,0.21l0.419,0.211l0.417,0.212l0.417,0.213l0.416,0.214l0.415,0.216l0.414,0.217l0.413,0.219l0.412,0.219l0.411,0.221l0.41,0.222l0.409,0.223l0.408,0.225l0.407,0.226l0.406,0.227l0.405,0.228l0.404,0.229l0.404,0.231l0.402,0.232l0.401,0.233l0.4,0.234l0.399,0.236l0.399,0.236l0.397,0.238l0.396,0.239l0.395,0.24l0.395,0.241l0.393,0.243l0.392,0.243l0.391,0.245l0.391,0.245l0.389,0.247l0.388,0.249l0.387,0.249l0.387,0.25l0.385,0.252l0.384,0.252l0.383,0.254l0.382,0.255l0.381,0.255l0.38,0.257l0.38,0.258l0.378,0.259l0.377,0.26l0.376,0.262l0.375,0.262l0.374,0.263l0.372,0.264l0.372,0.266l0.371,0.266l0.37,0.268l0.369,0.268l0.367,0.27l0.367,0.27l0.366,0.272l0.364,0.273l0.364,0.273l0.362,0.275l0.362,0.275l0.36,0.277l0.359,0.277l0.359,0.279l0.357,0.279l0.356,0.281l0.355,0.281l0.354,0.282l0.353,0.284l0.352,0.284l0.351,0.285l0.349,0.286l0.349,0.287l0.347,0.288l0.347,0.289l0.345,0.29l0.345,0.291l0.343,0.291l0.342,0.293l0.341,0.293l0.34,0.295l0.339,0.295l0.338,0.296l0.337,0.297l0.335,0.298l0.335,0.298l0.333,0.3l0.333,0.3l0.331,0.302l0.33,0.302l0.329,0.302l0.328,0.304l0.327,0.305l0.325,0.305l0.325,0.306l0.324,0.307l0.322,0.308l0.321,0.309l0.32,0.309l0.319,0.31l0.318,0.312l0.317,0.311l0.316,0.313l0.314,0.313l0.314,0.314l0.312,0.315l0.311,0.316l0.31,0.316l0.309,0.317l0.308,0.318l0.306,0.319l0.306,0.319l0.304,0.32l0.304,0.321l0.302,0.321l0.301,0.322l0.299,0.323l0.299,0.324l0.297,0.324l0.297,0.325l0.295,0.326l0.294,0.326l0.293,0.327l0.291,0.328l0.291,0.328l0.289,0.329l0.288,0.33l0.287,0.33l0.286,0.331l0.285,0.331l0.283,0.332l0.283,0.333l0.281,0.334l0.28,0.334l0.279,0.335l0.278,0.335l0.276,0.336l0.275,0.336l0.275,0.337l0.272,0.338l0.272,0.338l0.271,0.339l0.269,0.34l0.268,0.34l0.267,0.34l0.266,0.341l0.265,0.342l0.263,0.342l0.262,0.343l0.261,0.343l0.26,0.344l0.258,0.344l0.258,0.345l0.256,0.346l0.255,0.345l0.254,0.347l0.252,0.347l0.251,0.347l0.25,0.348l0.249,0.348l0.248,0.349l0.246,0.35l0.246,0.35l0.243,0.35l0.243,0.35l0.242,0.352l0.24,0.351l0.239,0.352l0.238,0.353l0.236,0.353l0.236,0.353l0.234,0.354l0.233,0.354l0.231,0.355l0.231,0.355l0.229,0.356l0.228,0.356l0.226,0.356l0.226,0.357l0.224,0.357l0.223,0.357l0.221,0.358l0.221,0.358l0.218,0.359l0.218,0.359l0.217,0.359l0.215,0.36l0.214,0.36l0.213,0.36l0.211,0.361l0.211,0.361l0.209,0.361l0.207,0.362l0.207,0.362l0.205,0.362l0.204,0.363l0.202,0.363l0.201,0.363l0.2,0.363l0.199,0.364l0.197,0.364l0.196,0.365l0.195,0.364l0.194,0.365l0.192,0.365l0.191,0.366l0.189,0.365l0.189,0.366l0.187,0.367l0.185,0.366l0.185,0.367l0.183,0.366l0.182,0.368l0.18,0.367l0.179,0.368l0.178,0.367l0.176,0.368l0.175,0.368l0.174,0.369l0.173,0.368l0.171,0.369l0.17,0.369l0.168,0.369l0.168,0.369l0.166,0.37l0.164,0.369l0.163,0.37l0.162,0.37l0.161,0.37l0.159,0.37l0.158,0.37l0.156,0.371l0.155,0.37l0.154,0.371l0.152,0.371l0.152,0.371l0.149,0.371l0.149,0.371l0.147,0.371l0.145,0.372l0.145,0.371l0.143,0.371l0.141,0.372l0.14,0.371l0.139,0.372l0.137,0.372l0.137,0.372l0.134,0.372l0.134,0.372l0.132,0.372l0.13,0.372l0.129,0.372l0.128,0.372l0.126,0.372l0.126,0.372l0.123,0.372l0.122,0.372l0.121,0.372l0.12,0.373l0.118,0.372l0.116,0.372l0.115,0.372l0.114,0.372l0.113,0.372l0.111,0.372l0.109,0.372l0.109,0.372l0.106,0.372l0.106,0.372l0.104,0.372l0.102,0.372l0.101,0.372l0.1,0.371l0.098,0.371l0.097,0.372l0.095,0.372l0.094,0.371l0.093,0.371l0.091,0.371l0.089,0.371l0.089,0.371l0.086,0.371l0.086,0.37l0.084,0.371l0.082,0.371l0.081,0.37l0.079,0.37l0.079,0.37l0.076,0.37l0.075,0.37l0.074,0.369l0.072,0.37l0.071,0.369l0.069,0.369l0.068,0.369l0.066,0.369l0.065,0.368l0.064,0.369l0.061,0.368l0.061,0.368l0.059,0.368l0.057,0.367l0.056,0.368l0.055,0.367l0.053,0.367l0.051,0.366l0.05,0.367l0.049,0.366l0.047,0.366l0.045,0.366l0.044,0.365l0.043,0.365l0.041,0.365l0.039,0.365l0.038,0.364l0.037,0.365l0.035,0.363l0.033,0.364l0.032,0.363l0.03,0.363l0.029,0.363l0.027,0.362l0.026,0.362l0.024,0.362l0.023,0.361l0.021,0.362l0.02,0.36l0.018,0.361l0.016,0.36l0.015,0.359l0.014,0.36l0.012,0.359l0.01,0.358l0.009,0.359l0.007,0.358l0.006,0.357l0.004,0.357l0.002,0.357l0.001,0.357l0,0.355l-0.003,0.356l-0.003,0.355l-0.006,0.355l-0.007,0.354l-0.008,0.354l-0.01,0.354l-0.012,0.353l-0.013,0.352l-0.015,0.352l-0.017,0.352l-0.018,0.351l-0.019,0.351l-0.021,0.35l-0.023,0.351l-0.025,0.349l-0.026,0.349l-0.028,0.348l-0.029,0.348l-0.031,0.348l-0.033,0.347l-0.034,0.346l-0.036,0.346l-0.037,0.345l-0.039,0.345l-0.041,0.345l-0.042,0.343l-0.044,0.344l-0.046,0.342l-0.047,0.342l-0.049,0.342l-0.05,0.341l-0.052,0.341l-0.054,0.34l-0.056,0.339l-0.057,0.339l-0.059,0.338l-0.06,0.336l-0.12,0.652l-0.12,0.648l-0.121,0.646l-0.123,0.642l-0.124,0.641l-0.125,0.637l-0.127,0.635l-0.127,0.633l-0.129,0.63l-0.13,0.627l-0.13,0.625l-0.133,0.622l-0.133,0.62l-0.134,0.617l-0.136,0.615l-0.137,0.612l-0.137,0.61l-0.139,0.607l-0.141,0.605l-0.141,0.602l-0.142,0.6l-0.143,0.597l-0.145,0.595l-0.146,0.593l-0.146,0.59l-0.148,0.588l-0.149,0.585l-0.15,0.584l-0.151,0.58l-0.152,0.578l-0.153,0.576l-0.154,0.574l-0.155,0.571l-0.156,0.569l-0.158,0.567l-0.158,0.564l-0.159,0.562l-0.16,0.56l-0.162,0.557l-0.162,0.555l-0.164,0.553l-0.164,0.551l-0.165,0.548l-0.166,0.546l-0.168,0.544l-0.168,0.542l-0.169,0.539l-0.171,0.538l-0.171,0.535l-0.172,0.533l-0.173,0.531l-0.174,0.528l-0.175,0.527l-0.176,0.524l-0.177,0.522l-0.177,0.52l-0.179,0.518l-0.179,0.516l-0.181,0.514l-0.181,0.512l-0.183,0.509l-0.183,0.508l-0.184,0.505l-0.184,0.504l-0.186,0.501l-0.187,0.499l-0.187,0.498l-0.189,0.495l-0.189,0.493l-0.19,0.492l-0.191,0.489l-0.192,0.487l-0.192,0.486l-0.193,0.483l-0.195,0.482l-0.195,0.479l-0.195,0.478l-0.197,0.475l-0.197,0.474l-0.198,0.472l-0.199,0.47l-0.2,0.468l-0.201,0.466l-0.201,0.464l-0.202,0.463l-0.203,0.461l-0.203,0.459l-0.205,0.456l-0.205,0.455l-0.205,0.454l-0.207,0.451l-0.207,0.45l-0.208,0.448l-0.208,0.446l-0.21,0.444l-0.21,0.443l-0.21,0.441l-0.212,0.439l-0.212,0.438l-0.213,0.435l-0.213,0.434l-0.214,0.433l-0.215,0.43l-0.215,0.429l-0.216,0.427l-0.217,0.426l-0.217,0.424l-0.218,0.422l-0.219,0.421l-0.219,0.419l-0.22,0.417l-0.22,0.416l-0.221,0.414l-0.222,0.413l-0.222,0.41l-0.223,0.41l-0.223,0.408l-0.224,0.406l-0.224,0.405l-0.225,0.403l-0.226,0.402l-0.226,0.4l-0.226,0.398l-0.228,0.398l-0.227,0.395l-0.229,0.394l-0.228,0.393l-0.23,0.391l-0.23,0.39l-0.23,0.388l-0.231,0.387l-0.231,0.386l-0.231,0.383l-0.233,0.383l-0.232,0.382l-0.234,0.379l-0.233,0.379l-0.234,0.377l-0.235,0.376l-0.235,0.374l-0.235,0.373l-0.236,0.372l-0.236,0.37l-0.237,0.369l-0.237,0.368l-0.237,0.366l-0.238,0.365l-0.238,0.364l-0.239,0.363l-0.239,0.361l-0.239,0.36l-0.24,0.359l-0.24,0.358l-0.241,0.356l-0.241,0.355l-0.241,0.354l-0.241,0.353l-0.242,0.351l-0.242,0.351l-0.243,0.349l-0.243,0.348l-0.243,0.347l-0.243,0.346l-0.244,0.345l-0.244,0.343l-0.244,0.343l-0.245,0.341l-0.245,0.34l-0.245,0.339l-0.246,0.339l-0.245,0.336l-0.246,0.336l-0.246,0.335l-0.246,0.334l-0.247,0.333l-0.247,0.332l-0.247,0.331l-0.248,0.331l-0.494,0.655l-0.496,0.653l-0.497,0.649l-0.497,0.645l-0.499,0.642l-0.498,0.638l-0.499,0.635l-0.5,0.631l-0.5,0.628l-0.501,0.624l-0.501,0.621l-0.501,0.619l-0.502,0.615l-0.501,0.612l-0.502,0.609l-0.502,0.607l-0.502,0.604l-0.503,0.601l-0.502,0.598l-0.502,0.596l-0.502,0.594l-0.502,0.591l-0.501,0.589l-0.502,0.586l-0.501,0.585l-0.501,0.583l-0.5,0.58l-0.5,0.579l-0.5,0.577l-0.997,1.148l-0.996,1.142l-0.992,1.137l-1.977,2.26l-0.253,0.288l-0.257,0.29l-0.259,0.291l-0.262,0.292l-0.265,0.292l-0.266,0.293l-0.269,0.294l-0.271,0.294l-0.273,0.295l-0.276,0.295l-0.277,0.295l-0.28,0.297l-0.282,0.296l-0.284,0.297l-0.287,0.298l-0.288,0.298l-0.29,0.299l-0.293,0.299l-0.294,0.3l-0.296,0.3l-0.298,0.3l-0.3,0.301l-0.303,0.301l-0.303,0.302l-0.306,0.302l-0.308,0.302l-0.309,0.302l-0.311,0.304l-0.313,0.303l-0.314,0.303l-0.316,0.304l-0.318,0.304l-0.319,0.305l-0.321,0.304l-0.323,0.305l-0.324,0.305l-0.326,0.306l-0.327,0.305l-0.328,0.306l-0.33,0.306l-0.332,0.306l-0.333,0.306l-0.334,0.307l-0.335,0.306l-0.337,0.307l-0.338,0.306l-0.339,0.307l-0.342,0.308l-0.683,0.613l-0.69,0.613l-0.693,0.614l-0.698,0.614l-0.701,0.613l-0.706,0.613l-0.708,0.613l-0.712,0.612l-0.716,0.611l-0.718,0.611l-0.72,0.609l-0.723,0.609l-0.725,0.607l-0.728,0.606l-0.729,0.605l-0.73,0.603l-0.732,0.602l-0.733,0.6l-0.734,0.598l-0.734,0.596l-0.735,0.594l-0.736,0.592l-0.735,0.589l-0.735,0.587l-0.735,0.584l-0.734,0.582l-0.733,0.579l-0.732,0.576l-0.731,0.573l-0.73,0.57l-0.727,0.567l-0.726,0.563l-0.724,0.56l-0.721,0.556l-0.719,0.553l-0.715,0.548l-0.713,0.545l-0.71,0.54l-0.706,0.537l-0.702,0.532l-0.699,0.527l-0.694,0.523l-0.69,0.519l-0.686,0.513l-0.681,0.509l-0.675,0.503l-0.671,0.499l-0.665,0.493l-0.659,0.487l-0.654,0.483l-0.647,0.476l-0.642,0.471l-0.634,0.465l-0.628,0.459l-0.621,0.453l-0.614,0.447l-0.606,0.44l-0.599,0.434l-1.173,0.847l-1.141,0.821l-1.105,0.792l-1.069,0.763l-1.031,0.733l-0.99,0.701l-0.948,0.67l-0.905,0.636l-0.859,0.603l-0.812,0.567l-0.763,0.532l-0.713,0.495l-0.66,0.457l-0.605,0.418l-0.55,0.378l-0.492,0.338l-0.433,0.297l-0.678,0.462l-0.42,0.285l-1.621,1.095l-1.765,-0.915l-0.529,-0.276l-0.39,-0.205l-0.468,-0.246l-0.545,-0.288l-0.62,-0.329l-0.692,-0.368l-0.762,-0.408l-0.829,-0.445l-0.895,-0.483l-0.958,-0.519l-1.018,-0.554l-1.077,-0.589l-1.133,-0.622l-1.185,-0.654l-0.613,-0.34l-0.625,-0.348l-0.638,-0.355l-0.649,-0.362l-0.661,-0.37l-0.672,-0.378l-0.683,-0.385l-0.694,-0.392l-0.705,-0.399l-0.715,-0.406l-0.725,-0.413l-0.734,-0.42l-0.744,-0.426l-0.752,-0.433l-0.762,-0.439l-0.77,-0.445l-0.778,-0.452l-0.786,-0.458l-0.794,-0.463l-0.8,-0.47l-0.808,-0.475l-0.815,-0.481l-0.821,-0.486l-0.827,-0.492l-0.833,-0.497l-0.839,-0.502l-0.844,-0.508l-0.849,-0.512l-0.854,-0.517l-0.858,-0.522l-0.862,-0.527l-0.866,-0.531l-0.869,-0.536l-0.873,-0.54l-0.875,-0.544l-0.879,-0.548l-0.881,-0.552l-0.882,-0.556l-0.885,-0.56l-0.886,-0.563l-0.887,-0.567l-0.889,-0.571l-0.889,-0.574l-0.889,-0.577l-0.889,-0.58l-0.889,-0.583l-0.889,-0.586l-0.888,-0.589l-0.887,-0.592l-0.884,-0.593l-0.443,-0.299l-0.442,-0.298l-0.441,-0.3l-0.441,-0.299l-0.44,-0.301l-0.439,-0.301l-0.439,-0.301l-0.438,-0.302l-0.438,-0.302l-0.437,-0.303l-0.435,-0.304l-0.436,-0.304l-0.434,-0.304l-0.434,-0.305l-0.432,-0.305l-0.432,-0.306l-0.43,-0.306l-0.43,-0.307l-0.428,-0.307l-0.428,-0.307l-0.426,-0.308l-0.425,-0.308l-0.424,-0.308l-0.423,-0.309l-0.421,-0.309l-0.421,-0.309l-0.419,-0.309l-0.417,-0.31l-0.416,-0.31l-0.415,-0.311l-0.413,-0.31l-0.411,-0.311l-0.41,-0.311l-0.409,-0.311l-0.407,-0.311l-0.405,-0.312l-0.403,-0.311l-0.402,-0.312l-0.4,-0.312l-0.398,-0.312l-0.396,-0.313l-0.395,-0.312l-0.393,-0.312l-0.39,-0.313l-0.389,-0.312l-0.386,-0.313l-0.385,-0.312l-0.383,-0.313l-0.38,-0.313l-0.378,-0.312l-0.376,-0.313l-0.374,-0.313l-0.372,-0.312l-0.369,-0.313l-0.367,-0.313l-0.365,-0.312l-0.362,-0.313l-0.36,-0.312l-0.358,-0.312l-0.354,-0.313l-0.353,-0.312l-0.35,-0.312l-0.347,-0.312l-0.344,-0.311l-0.342,-0.312l-0.34,-0.311l-0.336,-0.312l-0.334,-0.311l-0.331,-0.311l-0.328,-0.31l-0.325,-0.311l-0.323,-0.31l-0.319,-0.311l-0.316,-0.31l-0.314,-0.309l-0.31,-0.31l-0.308,-0.309l-0.304,-0.309l-0.301,-0.309l-0.298,-0.309l-0.295,-0.308l-0.291,-0.308l-0.288,-0.308l-0.285,-0.307l-0.282,-0.308l-0.278,-0.307l-0.275,-0.307l-0.268,-0.302l-1.034,-1.174l-1.033,-1.171l-2.077,-2.35l-1.042,-1.181l-1.044,-1.185l-1.045,-1.189l-0.523,-0.598l-0.524,-0.599l-0.523,-0.6l-0.524,-0.602l-0.523,-0.604l-0.524,-0.606l-0.524,-0.608l-0.524,-0.61l-0.523,-0.612l-0.523,-0.614l-0.524,-0.617l-0.522,-0.619l-0.523,-0.621l-0.522,-0.624l-0.522,-0.627l-0.521,-0.629l-0.52,-0.633l-0.52,-0.635l-0.52,-0.638l-0.518,-0.641l-0.518,-0.645l-0.517,-0.647l-0.517,-0.651l-0.515,-0.655l-0.514,-0.657l-0.257,-0.331l-0.257,-0.331l-0.256,-0.332l-0.256,-0.333l-0.256,-0.334l-0.255,-0.336l-0.255,-0.335l-0.255,-0.337l-0.254,-0.338l-0.255,-0.339l-0.254,-0.34l-0.253,-0.341l-0.253,-0.342l-0.253,-0.343l-0.253,-0.344l-0.252,-0.345l-0.252,-0.346l-0.251,-0.347l-0.251,-0.348l-0.251,-0.35l-0.25,-0.35l-0.25,-0.352l-0.249,-0.353l-0.249,-0.354l-0.249,-0.355l-0.248,-0.356l-0.248,-0.357l-0.247,-0.359l-0.247,-0.36l-0.247,-0.361l-0.246,-0.362l-0.245,-0.363l-0.245,-0.365l-0.245,-0.366l-0.244,-0.367l-0.244,-0.368l-0.243,-0.37l-0.242,-0.371l-0.242,-0.372l-0.242,-0.373l-0.241,-0.375l-0.241,-0.377l-0.24,-0.377l-0.239,-0.379l-0.239,-0.38l-0.238,-0.382l-0.238,-0.383l-0.237,-0.384l-0.237,-0.386l-0.236,-0.387l-0.235,-0.389l-0.235,-0.39l-0.234,-0.391l-0.234,-0.393l-0.233,-0.394l-0.232,-0.396l-0.232,-0.398l-0.231,-0.398l-0.23,-0.401l-0.23,-0.402l-0.229,-0.403l-0.229,-0.405l-0.227,-0.406l-0.228,-0.408l-0.226,-0.41l-0.226,-0.411l-0.225,-0.413l-0.224,-0.414l-0.224,-0.416l-0.222,-0.417l-0.223,-0.419l-0.221,-0.421l-0.221,-0.423l-0.22,-0.424l-0.219,-0.425l-0.218,-0.428l-0.218,-0.429l-0.217,-0.431l-0.216,-0.432l-0.215,-0.434l-0.214,-0.436l-0.214,-0.438l-0.213,-0.439l-0.212,-0.442l-0.211,-0.443l-0.211,-0.444l-0.209,-0.447l-0.209,-0.448l-0.208,-0.45l-0.207,-0.452l-0.206,-0.454l-0.206,-0.455l-0.204,-0.458l-0.204,-0.459l-0.202,-0.461l-0.202,-0.463l-0.201,-0.465l-0.2,-0.467l-0.199,-0.469l-0.198,-0.47l-0.198,-0.473l-0.196,-0.474l-0.195,-0.477l-0.195,-0.478l-0.193,-0.48l-0.193,-0.483l-0.191,-0.484l-0.191,-0.486l-0.19,-0.489l-0.188,-0.49l-0.188,-0.492l-0.187,-0.495l-0.185,-0.496l-0.185,-0.499l-0.184,-0.5l-0.182,-0.503l-0.182,-0.504l-0.18,-0.507l-0.18,-0.509l-0.178,-0.511l-0.178,-0.514l-0.176,-0.515l-0.176,-0.517l-0.174,-0.52l-0.173,-0.522l-0.172,-0.524l-0.171,-0.526l-0.17,-0.528l-0.169,-0.531l-0.168,-0.533l-0.166,-0.535l-0.166,-0.537l-0.164,-0.539l-0.163,-0.542l-0.162,-0.544l-0.161,-0.546l-0.16,-0.549l-0.159,-0.551l-0.157,-0.553l-0.156,-0.556l-0.156,-0.557l-0.153,-0.561l-0.153,-0.562l-0.152,-0.565l-0.15,-0.567l-0.149,-0.57l-0.148,-0.572l-0.147,-0.575l-0.146,-0.576l-0.144,-0.58l-0.143,-0.581l-0.142,-0.585l-0.14,-0.586l-0.14,-0.589l-0.138,-0.592l-0.137,-0.594l-0.135,-0.597l-0.134,-0.599l-0.133,-0.601l-0.132,-0.604l-0.13,-0.607l-0.13,-0.609l-0.127,-0.612l-0.127,-0.614l-0.125,-0.617l-0.124,-0.619l-0.122,-0.622l-0.122,-0.625l-0.119,-0.627l-0.119,-0.63l-0.117,-0.633l-0.116,-0.635l-0.114,-0.638l-0.113,-0.64l-0.112,-0.644l-0.11,-0.646l-0.109,-0.648l-0.108,-0.652l-0.054,-0.334l-0.052,-0.335l-0.052,-0.335l-0.05,-0.336l-0.049,-0.336l-0.047,-0.336l-0.047,-0.337l-0.045,-0.338l-0.044,-0.338l-0.042,-0.338l-0.041,-0.339l-0.04,-0.339l-0.039,-0.34l-0.037,-0.34l-0.036,-0.341l-0.035,-0.341l-0.033,-0.341l-0.033,-0.342l-0.031,-0.342l-0.029,-0.343l-0.029,-0.343l-0.027,-0.343l-0.026,-0.344l-0.024,-0.344l-0.024,-0.345l-0.022,-0.344l-0.021,-0.346l-0.019,-0.345l-0.019,-0.346l-0.017,-0.347l-0.015,-0.346l-0.015,-0.347l-0.013,-0.348l-0.012,-0.347l-0.011,-0.348l-0.009,-0.349l-0.008,-0.348l-0.007,-0.349l-0.006,-0.35l-0.004,-0.349l-0.003,-0.35l-0.002,-0.35l-0.001,-0.351l0.001,-0.351l0.002,-0.351l0.003,-0.352l0.004,-0.351l0.006,-0.352l0.007,-0.352l0.008,-0.353l0.009,-0.353l0.011,-0.353l0.012,-0.353l0.013,-0.353l0.014,-0.354l0.016,-0.354l0.017,-0.355l0.018,-0.354l0.019,-0.355l0.021,-0.355l0.022,-0.355l0.023,-0.356l0.024,-0.355l0.026,-0.356l0.027,-0.356l0.028,-0.356l0.029,-0.357l0.031,-0.356l0.031,-0.357l0.033,-0.357l0.035,-0.357l0.035,-0.358l0.037,-0.357l0.038,-0.358l0.039,-0.358l0.04,-0.358l0.042,-0.358l0.043,-0.359l0.044,-0.358l0.046,-0.359l0.046,-0.359l0.048,-0.359l0.049,-0.358l0.05,-0.36l0.052,-0.359l0.053,-0.359l0.054,-0.36l0.055,-0.36l0.056,-0.359l0.058,-0.36l0.059,-0.36l0.06,-0.36l0.061,-0.36l0.063,-0.361l0.063,-0.36l0.065,-0.36l0.067,-0.361l0.067,-0.36l0.069,-0.361l0.07,-0.36l0.071,-0.361l0.072,-0.361l0.074,-0.361l0.074,-0.36l0.076,-0.361l0.077,-0.361l0.079,-0.361l0.079,-0.361l0.081,-0.361l0.082,-0.361l0.084,-0.361l0.084,-0.361l0.086,-0.361l0.087,-0.361l0.088,-0.361l0.089,-0.361l0.091,-0.361l0.091,-0.361l0.093,-0.361l0.094,-0.361l0.096,-0.361l0.096,-0.361l0.098,-0.361l0.099,-0.361l0.1,-0.361l0.102,-0.36l0.102,-0.361l0.104,-0.36l0.105,-0.361l0.106,-0.361l0.108,-0.36l0.108,-0.36l0.11,-0.36l0.111,-0.361l0.113,-0.36l0.113,-0.36l0.115,-0.36l0.115,-0.36l0.117,-0.359l0.119,-0.36l0.119,-0.359l0.121,-0.36l0.122,-0.359l0.123,-0.359l0.124,-0.359l0.125,-0.359l0.127,-0.358l0.128,-0.359l0.129,-0.358l0.13,-0.359l0.131,-0.358l0.133,-0.358l0.134,-0.358l0.135,-0.357l0.136,-0.358l0.137,-0.357l0.139,-0.357l0.14,-0.357l0.14,-0.357l0.143,-0.356l0.143,-0.357l0.144,-0.356l0.146,-0.356l0.147,-0.355l0.148,-0.356l0.149,-0.355l0.151,-0.355l0.151,-0.355l0.153,-0.355l0.154,-0.354l0.155,-0.354l0.157,-0.354l0.157,-0.354l0.159,-0.353l0.16,-0.353l0.161,-0.353l0.162,-0.353l0.164,-0.352l0.164,-0.352l0.166,-0.352l0.167,-0.351l0.168,-0.352l0.17,-0.351l0.17,-0.35l0.172,-0.351l0.173,-0.35l0.174,-0.349l0.175,-0.35l0.177,-0.349l0.177,-0.349l0.179,-0.348l0.18,-0.348l0.181,-0.348l0.182,-0.348l0.184,-0.347l0.185,-0.347l0.185,-0.346l0.187,-0.346l0.189,-0.346l0.189,-0.345l0.19,-0.345l0.192,-0.345l0.193,-0.344l0.194,-0.344l0.195,-0.343l0.197,-0.343l0.197,-0.343l0.199,-0.342l0.2,-0.342l0.201,-0.342l0.202,-0.341l0.203,-0.341l0.205,-0.34l0.206,-0.34l0.207,-0.339l0.208,-0.339l0.209,-0.339l0.21,-0.338l0.212,-0.337l0.212,-0.338l0.214,-0.336l0.215,-0.337l0.217,-0.335l0.217,-0.336l0.219,-0.335l0.219,-0.334l0.221,-0.334l0.222,-0.334l0.223,-0.333l0.224,-0.332l0.226,-0.332l0.227,-0.331l0.227,-0.331l0.229,-0.331l0.23,-0.33l0.232,-0.329l0.232,-0.329l0.234,-0.329l0.234,-0.327l0.236,-0.328l0.237,-0.327l0.239,-0.326l0.239,-0.326l0.24,-0.325l0.242,-0.324l0.243,-0.324l0.244,-0.324l0.245,-0.323l0.246,-0.322l0.248,-0.322l0.248,-0.321l0.25,-0.32l0.251,-0.32l0.252,-0.32l0.253,-0.319l0.255,-0.318l0.255,-0.317l0.257,-0.317l0.257,-0.317l0.259,-0.315l0.26,-0.315l0.262,-0.315l0.262,-0.314l0.263,-0.313l0.265,-0.313l0.266,-0.311l0.267,-0.312l0.268,-0.31l0.269,-0.31l0.271,-0.309l0.271,-0.309l0.273,-0.308l0.274,-0.307l0.274,-0.307l0.277,-0.306l0.277,-0.305l0.278,-0.304l0.28,-0.304l0.28,-0.303l0.282,-0.303l0.283,-0.301l0.284,-0.301l0.285,-0.3l0.287,-0.3l0.287,-0.299l0.289,-0.298l0.289,-0.297l0.291,-0.297l0.292,-0.295l0.293,-0.295l0.295,-0.295l0.295,-0.293l0.297,-0.293l0.297,-0.292l0.299,-0.291l0.3,-0.291l0.301,-0.289l0.302,-0.289l0.304,-0.288l0.304,-0.287l0.306,-0.287l0.306,-0.286l0.308,-0.284l0.309,-0.284l0.31,-0.284l0.311,-0.282l0.313,-0.282l0.313,-0.28l0.315,-0.28l0.316,-0.279l0.316,-0.279l0.318,-0.277l0.32,-0.276l0.32,-0.276l0.321,-0.275l0.323,-0.274l0.323,-0.273l0.325,-0.272l0.326,-0.271l0.327,-0.271l0.328,-0.269l0.329,-0.269l0.33,-0.268l0.332,-0.266l0.332,-0.266l0.334,-0.265l0.335,-0.264l0.336,-0.264l0.337,-0.262l0.338,-0.261l0.339,-0.261l0.34,-0.259l0.342,-0.258l0.342,-0.258l0.344,-0.257l0.345,-0.255l0.346,-0.255l0.347,-0.254l0.348,-0.252l0.349,-0.252l0.351,-0.251l0.351,-0.25l0.353,-0.248l0.353,-0.248l0.355,-0.247l0.356,-0.246l0.357,-0.245l0.358,-0.244l0.36,-0.242l0.36,-0.242l0.361,-0.241l0.363,-0.24l0.363,-0.238l0.365,-0.238l0.366,-0.237l0.367,-0.235l0.368,-0.235l0.369,-0.233l0.37,-0.233l0.372,-0.231l0.372,-0.23l0.374,-0.23l0.374,-0.228l0.376,-0.227l0.377,-0.226l0.378,-0.225l0.379,-0.223l0.38,-0.223l0.381,-0.222l0.383,-0.22l0.383,-0.219l0.385,-0.219l0.385,-0.217l0.387,-0.216l0.388,-0.215l0.388,-0.213l0.39,-0.213l0.391,-0.212l0.393,-0.21l0.393,-0.209l0.394,-0.208l0.395,-0.207l0.397,-0.206l0.398,-0.204l0.398,-0.203l0.4,-0.203l0.401,-0.201l0.402,-0.199l0.403,-0.199l0.404,-0.197l0.405,-0.197l0.406,-0.195l0.407,-0.193l0.409,-0.193l0.409,-0.191l0.411,-0.19l0.411,-0.189l0.413,-0.188l0.414,-0.186l0.415,-0.186l0.416,-0.184l0.417,-0.182l0.418,-0.182l0.419,-0.18l0.42,-0.179l0.421,-0.178l0.423,-0.176l0.423,-0.175l0.424,-0.174l0.426,-0.172l0.427,-0.172l0.427,-0.17l0.429,-0.168l0.43,-0.168l0.431,-0.166l0.432,-0.165l0.433,-0.163l0.434,-0.162l0.435,-0.161l0.436,-0.159l0.437,-0.158l0.439,-0.157l0.439,-0.156l0.441,-0.154l0.441,-0.153l0.443,-0.151l0.443,-0.15l0.445,-0.149l0.446,-0.147l0.447,-0.146l0.447,-0.145l0.449,-0.143l0.45,-0.142l0.451,-0.14l0.452,-0.139l0.453,-0.138l0.455,-0.136l0.455,-0.135l0.456,-0.133l0.457,-0.132l0.459,-0.131l0.459,-0.129l0.461,-0.127l0.461,-0.127l0.463,-0.125l0.463,-0.123l0.465,-0.122l0.466,-0.12l0.466,-0.119l0.468,-0.118l0.469,-0.116l0.47,-0.115l0.47,-0.113l0.472,-0.112l0.473,-0.11l0.474,-0.109l0.475,-0.107l0.476,-0.106l0.477,-0.104l0.479,-0.103l0.479,-0.101l0.48,-0.1l0.481,-0.098l0.482,-0.097l0.484,-0.095l0.484,-0.093l0.485,-0.093l0.487,-0.09l0.487,-0.089l0.488,-0.088l0.49,-0.086l0.49,-0.084l0.492,-0.083l0.492,-0.081l0.494,-0.08l0.494,-0.078l0.496,-0.077l0.497,-0.075l0.497,-0.073l0.499,-0.072l0.5,-0.07l0.5,-0.069l0.502,-0.067l0.503,-0.065l0.503,-0.064l0.505,-0.062l0.506,-0.061l0.507,-0.059l0.508,-0.057l0.508,-0.056l0.51,-0.054l0.511,-0.052l0.512,-0.051l0.513,-0.049l0.514,-0.048l0.514,-0.046l0.516,-0.044l0.517,-0.042l0.518,-0.041l0.519,-0.039l0.52,-0.038l0.521,-0.036l0.522,-0.034l0.523,-0.032l0.524,-0.031l0.524,-0.029l0.526,-0.027l0.527,-0.026l0.528,-0.024l0.529,-0.022l0.53,-0.021l0.531,-0.018l0.532,-0.017l0.532,-0.015l0.531,-0.013l0.53,-0.011l0.53,-0.009l0.529,-0.007l0.528,-0.005l0.527,-0.003l0.527,-0.001l0.526,0.001Zm-1.03,6l-0.505,0.003l-0.506,0.005l-0.506,0.006l-0.507,0.009l-0.508,0.01l-0.509,0.013l-0.509,0.014l-0.51,0.016l-0.511,0.018l-0.51,0.02l-0.509,0.021l-0.508,0.024l-0.507,0.024l-0.506,0.026l-0.505,0.028l-0.504,0.03l-0.503,0.031l-0.502,0.033l-0.501,0.034l-0.499,0.037l-0.499,0.037l-0.498,0.039l-0.497,0.041l-0.496,0.043l-0.494,0.044l-0.494,0.045l-0.493,0.048l-0.491,0.048l-0.491,0.051l-0.49,0.052l-0.488,0.053l-0.488,0.055l-0.486,0.057l-0.486,0.058l-0.485,0.06l-0.483,0.061l-0.483,0.063l-0.481,0.064l-0.48,0.066l-0.48,0.067l-0.478,0.069l-0.478,0.071l-0.476,0.072l-0.475,0.073l-0.475,0.075l-0.473,0.076l-0.472,0.078l-0.471,0.08l-0.47,0.081l-0.47,0.082l-0.468,0.084l-0.467,0.085l-0.466,0.087l-0.465,0.088l-0.464,0.09l-0.463,0.091l-0.462,0.093l-0.461,0.094l-0.46,0.096l-0.459,0.097l-0.458,0.098l-0.457,0.1l-0.455,0.101l-0.455,0.103l-0.454,0.104l-0.453,0.105l-0.451,0.107l-0.451,0.109l-0.45,0.109l-0.448,0.111l-0.448,0.113l-0.446,0.114l-0.446,0.115l-0.444,0.117l-0.444,0.118l-0.442,0.119l-0.442,0.121l-0.44,0.122l-0.44,0.124l-0.438,0.125l-0.437,0.126l-0.436,0.127l-0.436,0.129l-0.434,0.13l-0.433,0.132l-0.432,0.133l-0.431,0.134l-0.43,0.136l-0.429,0.137l-0.428,0.138l-0.427,0.139l-0.426,0.141l-0.425,0.142l-0.424,0.143l-0.423,0.145l-0.422,0.146l-0.42,0.147l-0.42,0.149l-0.419,0.149l-0.417,0.151l-0.417,0.153l-0.416,0.153l-0.414,0.155l-0.414,0.156l-0.412,0.158l-0.412,0.158l-0.41,0.16l-0.409,0.161l-0.409,0.162l-0.407,0.164l-0.406,0.165l-0.406,0.165l-0.404,0.168l-0.403,0.168l-0.402,0.17l-0.401,0.17l-0.4,0.172l-0.399,0.174l-0.398,0.174l-0.397,0.175l-0.396,0.177l-0.395,0.178l-0.393,0.179l-0.393,0.18l-0.392,0.182l-0.391,0.182l-0.389,0.184l-0.389,0.185l-0.387,0.186l-0.387,0.187l-0.385,0.189l-0.385,0.189l-0.383,0.191l-0.382,0.191l-0.382,0.193l-0.38,0.194l-0.379,0.195l-0.378,0.196l-0.377,0.198l-0.377,0.198l-0.375,0.199l-0.374,0.201l-0.373,0.202l-0.371,0.202l-0.371,0.204l-0.37,0.205l-0.369,0.206l-0.368,0.207l-0.366,0.208l-0.366,0.21l-0.364,0.21l-0.364,0.211l-0.362,0.212l-0.362,0.214l-0.36,0.214l-0.359,0.216l-0.359,0.216l-0.357,0.218l-0.356,0.218l-0.355,0.22l-0.354,0.22l-0.353,0.222l-0.352,0.223l-0.351,0.223l-0.35,0.225l-0.349,0.225l-0.347,0.227l-0.347,0.228l-0.346,0.228l-0.344,0.23l-0.344,0.23l-0.342,0.232l-0.342,0.232l-0.34,0.234l-0.34,0.234l-0.338,0.235l-0.337,0.237l-0.336,0.237l-0.335,0.238l-0.334,0.239l-0.333,0.24l-0.332,0.241l-0.331,0.242l-0.33,0.243l-0.329,0.243l-0.327,0.245l-0.327,0.246l-0.325,0.246l-0.325,0.247l-0.323,0.249l-0.323,0.249l-0.321,0.25l-0.32,0.251l-0.319,0.251l-0.318,0.253l-0.317,0.253l-0.316,0.255l-0.315,0.255l-0.314,0.256l-0.313,0.257l-0.312,0.258l-0.31,0.259l-0.31,0.259l-0.309,0.26l-0.307,0.262l-0.306,0.262l-0.306,0.262l-0.304,0.264l-0.303,0.265l-0.302,0.265l-0.301,0.266l-0.3,0.267l-0.299,0.267l-0.298,0.269l-0.297,0.269l-0.295,0.27l-0.295,0.271l-0.294,0.272l-0.292,0.272l-0.291,0.273l-0.291,0.274l-0.289,0.275l-0.288,0.275l-0.287,0.277l-0.286,0.276l-0.285,0.278l-0.284,0.279l-0.283,0.279l-0.282,0.28l-0.28,0.28l-0.28,0.282l-0.278,0.282l-0.278,0.283l-0.276,0.283l-0.275,0.284l-0.274,0.285l-0.273,0.286l-0.272,0.286l-0.271,0.287l-0.27,0.288l-0.269,0.288l-0.267,0.289l-0.267,0.29l-0.265,0.29l-0.265,0.292l-0.263,0.291l-0.262,0.293l-0.261,0.293l-0.261,0.293l-0.259,0.295l-0.257,0.295l-0.257,0.295l-0.256,0.297l-0.255,0.296l-0.253,0.298l-0.252,0.298l-0.252,0.299l-0.25,0.299l-0.249,0.3l-0.248,0.301l-0.247,0.301l-0.246,0.301l-0.245,0.303l-0.244,0.303l-0.242,0.303l-0.242,0.304l-0.24,0.305l-0.239,0.305l-0.239,0.306l-0.237,0.306l-0.236,0.307l-0.235,0.308l-0.233,0.308l-0.233,0.308l-0.232,0.309l-0.23,0.31l-0.23,0.31l-0.228,0.311l-0.227,0.311l-0.226,0.312l-0.225,0.312l-0.224,0.313l-0.223,0.313l-0.222,0.314l-0.22,0.314l-0.22,0.315l-0.218,0.315l-0.218,0.316l-0.216,0.316l-0.215,0.316l-0.214,0.318l-0.213,0.317l-0.211,0.318l-0.211,0.319l-0.21,0.319l-0.208,0.319l-0.207,0.32l-0.207,0.32l-0.205,0.321l-0.204,0.321l-0.203,0.322l-0.201,0.322l-0.201,0.323l-0.2,0.322l-0.198,0.324l-0.197,0.323l-0.196,0.324l-0.196,0.325l-0.193,0.325l-0.193,0.325l-0.192,0.326l-0.191,0.326l-0.189,0.326l-0.189,0.327l-0.187,0.327l-0.186,0.328l-0.185,0.328l-0.184,0.328l-0.183,0.328l-0.181,0.329l-0.181,0.33l-0.179,0.329l-0.179,0.33l-0.177,0.331l-0.176,0.33l-0.175,0.331l-0.174,0.331l-0.172,0.332l-0.172,0.332l-0.17,0.332l-0.17,0.332l-0.168,0.333l-0.167,0.333l-0.166,0.334l-0.164,0.333l-0.164,0.334l-0.163,0.334l-0.161,0.335l-0.16,0.334l-0.159,0.336l-0.158,0.335l-0.157,0.335l-0.156,0.336l-0.155,0.336l-0.153,0.336l-0.153,0.336l-0.151,0.337l-0.15,0.337l-0.149,0.337l-0.148,0.338l-0.146,0.337l-0.146,0.338l-0.144,0.338l-0.144,0.338l-0.142,0.338l-0.141,0.339l-0.14,0.339l-0.138,0.339l-0.138,0.339l-0.136,0.339l-0.136,0.339l-0.134,0.34l-0.133,0.34l-0.132,0.34l-0.13,0.34l-0.13,0.34l-0.129,0.34l-0.127,0.341l-0.126,0.341l-0.125,0.34l-0.124,0.341l-0.123,0.341l-0.121,0.341l-0.121,0.342l-0.119,0.341l-0.118,0.341l-0.117,0.342l-0.116,0.342l-0.115,0.341l-0.113,0.342l-0.113,0.342l-0.111,0.342l-0.11,0.342l-0.109,0.342l-0.108,0.343l-0.107,0.342l-0.105,0.342l-0.105,0.343l-0.103,0.342l-0.102,0.342l-0.101,0.343l-0.1,0.342l-0.098,0.343l-0.098,0.343l-0.096,0.342l-0.095,0.343l-0.094,0.343l-0.093,0.342l-0.092,0.343l-0.09,0.343l-0.09,0.342l-0.088,0.343l-0.087,0.342l-0.086,0.343l-0.085,0.342l-0.083,0.343l-0.083,0.342l-0.081,0.343l-0.08,0.342l-0.079,0.343l-0.078,0.342l-0.076,0.342l-0.076,0.343l-0.074,0.342l-0.073,0.342l-0.072,0.342l-0.071,0.342l-0.07,0.342l-0.068,0.342l-0.068,0.341l-0.066,0.342l-0.065,0.342l-0.064,0.341l-0.063,0.341l-0.061,0.341l-0.061,0.342l-0.059,0.34l-0.058,0.341l-0.057,0.341l-0.055,0.341l-0.055,0.34l-0.053,0.34l-0.052,0.341l-0.051,0.34l-0.05,0.339l-0.049,0.34l-0.048,0.339l-0.046,0.34l-0.045,0.339l-0.044,0.339l-0.043,0.339l-0.042,0.339l-0.04,0.338l-0.04,0.338l-0.038,0.338l-0.037,0.338l-0.036,0.338l-0.034,0.337l-0.034,0.337l-0.032,0.337l-0.031,0.337l-0.03,0.337l-0.029,0.336l-0.028,0.336l-0.026,0.336l-0.025,0.336l-0.024,0.335l-0.023,0.335l-0.022,0.335l-0.021,0.334l-0.019,0.335l-0.018,0.334l-0.017,0.333l-0.016,0.334l-0.015,0.333l-0.014,0.333l-0.012,0.332l-0.011,0.333l-0.01,0.332l-0.009,0.331l-0.008,0.332l-0.006,0.331l-0.005,0.33l-0.005,0.331l-0.003,0.33l-0.001,0.329l-0.001,0.33l0.001,0.329l0.002,0.329l0.002,0.328l0.005,0.328l0.005,0.328l0.006,0.327l0.008,0.327l0.009,0.326l0.01,0.326l0.011,0.326l0.012,0.326l0.014,0.324l0.015,0.325l0.016,0.324l0.017,0.324l0.018,0.323l0.02,0.323l0.02,0.323l0.022,0.322l0.023,0.322l0.024,0.321l0.026,0.321l0.026,0.32l0.028,0.32l0.029,0.32l0.03,0.319l0.031,0.318l0.033,0.319l0.033,0.317l0.035,0.317l0.036,0.317l0.037,0.316l0.039,0.316l0.039,0.315l0.041,0.315l0.042,0.315l0.043,0.313l0.044,0.314l0.046,0.313l0.047,0.312l0.047,0.312l0.049,0.311l0.051,0.311l0.104,0.635l0.107,0.632l0.107,0.629l0.109,0.627l0.11,0.624l0.111,0.621l0.113,0.619l0.114,0.616l0.116,0.613l0.116,0.611l0.118,0.608l0.119,0.605l0.121,0.602l0.122,0.6l0.123,0.598l0.124,0.594l0.125,0.593l0.127,0.589l0.128,0.587l0.129,0.585l0.131,0.582l0.131,0.579l0.133,0.577l0.134,0.574l0.135,0.572l0.137,0.569l0.138,0.567l0.138,0.565l0.14,0.562l0.141,0.559l0.143,0.557l0.143,0.555l0.145,0.552l0.146,0.55l0.146,0.547l0.148,0.545l0.15,0.543l0.15,0.54l0.151,0.538l0.153,0.536l0.153,0.533l0.155,0.531l0.156,0.529l0.156,0.526l0.158,0.524l0.159,0.522l0.16,0.52l0.161,0.517l0.163,0.515l0.163,0.513l0.164,0.511l0.165,0.508l0.166,0.506l0.168,0.504l0.168,0.502l0.169,0.5l0.171,0.498l0.171,0.495l0.172,0.494l0.174,0.491l0.174,0.489l0.175,0.487l0.177,0.485l0.177,0.483l0.178,0.481l0.179,0.479l0.18,0.477l0.181,0.474l0.182,0.473l0.183,0.471l0.183,0.469l0.185,0.467l0.186,0.464l0.186,0.463l0.188,0.461l0.188,0.46l0.189,0.457l0.19,0.455l0.191,0.453l0.192,0.452l0.192,0.449l0.194,0.448l0.194,0.446l0.195,0.444l0.196,0.442l0.197,0.441l0.198,0.438l0.198,0.437l0.2,0.435l0.2,0.433l0.201,0.432l0.202,0.43l0.202,0.428l0.203,0.426l0.205,0.425l0.204,0.423l0.206,0.421l0.207,0.419l0.207,0.418l0.208,0.416l0.208,0.415l0.21,0.413l0.21,0.411l0.211,0.41l0.212,0.408l0.212,0.407l0.213,0.405l0.214,0.403l0.214,0.402l0.216,0.4l0.215,0.399l0.217,0.397l0.217,0.396l0.218,0.394l0.219,0.393l0.219,0.391l0.22,0.39l0.221,0.388l0.221,0.388l0.222,0.385l0.222,0.384l0.224,0.383l0.223,0.381l0.225,0.38l0.225,0.379l0.226,0.377l0.226,0.376l0.227,0.374l0.227,0.373l0.228,0.372l0.229,0.371l0.229,0.369l0.23,0.368l0.23,0.367l0.231,0.365l0.232,0.364l0.232,0.363l0.232,0.362l0.234,0.36l0.233,0.36l0.235,0.358l0.234,0.357l0.235,0.356l0.236,0.354l0.237,0.354l0.236,0.352l0.238,0.351l0.237,0.35l0.239,0.349l0.238,0.348l0.24,0.347l0.239,0.346l0.241,0.344l0.24,0.344l0.241,0.342l0.242,0.342l0.242,0.34l0.242,0.34l0.243,0.339l0.244,0.337l0.243,0.337l0.244,0.335l0.245,0.335l0.245,0.334l0.245,0.332l0.246,0.332l0.246,0.331l0.247,0.33l0.247,0.33l0.247,0.328l0.248,0.328l0.248,0.326l0.248,0.326l0.249,0.325l0.249,0.324l0.249,0.323l0.25,0.323l0.249,0.32l0.503,0.643l0.502,0.638l0.504,0.635l0.505,0.632l0.506,0.63l0.507,0.627l0.508,0.624l0.509,0.622l0.51,0.62l0.511,0.617l0.512,0.615l0.512,0.612l0.514,0.611l0.514,0.609l0.515,0.607l0.515,0.605l0.516,0.603l0.517,0.602l0.517,0.6l0.517,0.598l0.519,0.598l0.518,0.596l0.518,0.594l0.519,0.594l0.519,0.592l1.039,1.184l1.039,1.179l1.039,1.177l2.077,2.35l1.036,1.175l1.032,1.17l0.251,0.284l0.252,0.281l0.255,0.282l0.26,0.283l0.262,0.284l0.267,0.285l0.27,0.285l0.274,0.287l0.277,0.287l0.281,0.288l0.284,0.289l0.288,0.289l0.291,0.291l0.295,0.291l0.297,0.291l0.301,0.292l0.305,0.293l0.307,0.294l0.31,0.294l0.314,0.295l0.317,0.295l0.319,0.296l0.323,0.296l0.326,0.297l0.328,0.297l0.332,0.298l0.334,0.298l0.337,0.298l0.34,0.299l0.342,0.299l0.346,0.3l0.348,0.3l0.35,0.3l0.353,0.301l0.356,0.301l0.358,0.301l0.36,0.302l0.363,0.301l0.365,0.302l0.368,0.302l0.37,0.303l0.372,0.302l0.374,0.303l0.377,0.303l0.378,0.303l0.381,0.303l0.383,0.303l0.385,0.303l0.387,0.303l0.389,0.303l0.39,0.303l0.393,0.304l0.394,0.303l0.397,0.303l0.397,0.303l0.4,0.304l0.402,0.303l0.403,0.303l0.404,0.303l0.407,0.302l0.407,0.303l0.41,0.302l0.41,0.303l0.413,0.302l0.413,0.302l0.415,0.302l0.416,0.301l0.418,0.301l0.418,0.301l0.42,0.301l0.421,0.3l0.423,0.301l0.423,0.3l0.424,0.299l0.426,0.299l0.426,0.299l0.427,0.298l0.428,0.298l0.429,0.298l0.43,0.297l0.431,0.297l0.431,0.296l0.432,0.296l0.433,0.295l0.433,0.295l0.434,0.295l0.435,0.293l0.434,0.293l0.873,0.586l0.873,0.582l0.875,0.58l0.876,0.578l0.876,0.575l0.877,0.572l0.877,0.569l0.877,0.566l0.877,0.563l0.876,0.56l0.875,0.557l0.874,0.552l0.872,0.55l0.87,0.545l0.868,0.542l0.866,0.538l0.863,0.534l0.859,0.529l0.857,0.526l0.853,0.52l0.848,0.517l0.845,0.512l0.84,0.507l0.835,0.502l0.83,0.497l0.825,0.492l0.819,0.487l0.813,0.482l0.807,0.476l0.8,0.47l0.793,0.465l0.786,0.46l0.779,0.453l0.77,0.447l0.763,0.442l0.755,0.435l0.745,0.429l0.737,0.422l0.728,0.416l0.718,0.409l0.708,0.402l0.698,0.396l0.688,0.388l0.677,0.381l0.666,0.374l0.655,0.367l0.644,0.36l0.631,0.351l0.619,0.344l0.606,0.336l1.176,0.65l1.122,0.616l1.066,0.583l1.008,0.549l0.948,0.513l0.885,0.477l0.82,0.441l0.753,0.402l0.683,0.364l0.611,0.324l0.486,0.257l0.164,-0.112l0.485,-0.333l0.543,-0.374l0.599,-0.413l0.653,-0.453l0.705,-0.489l0.756,-0.527l0.805,-0.562l0.851,-0.597l0.897,-0.631l0.94,-0.664l0.982,-0.696l1.022,-0.727l1.06,-0.756l1.097,-0.786l1.131,-0.814l1.165,-0.841l0.593,-0.43l0.601,-0.437l0.609,-0.443l0.616,-0.449l0.622,-0.455l0.63,-0.461l0.636,-0.467l0.642,-0.472l0.648,-0.478l0.653,-0.484l0.66,-0.489l0.664,-0.494l0.67,-0.499l0.675,-0.504l0.679,-0.509l0.684,-0.514l0.688,-0.518l0.692,-0.523l0.696,-0.527l0.7,-0.531l0.702,-0.535l0.706,-0.54l0.709,-0.543l0.712,-0.547l0.714,-0.55l0.716,-0.555l0.718,-0.557l0.72,-0.561l0.722,-0.563l0.723,-0.567l0.724,-0.57l0.725,-0.572l0.725,-0.575l0.726,-0.578l0.727,-0.58l0.726,-0.582l0.726,-0.585l0.726,-0.586l0.725,-0.588l0.724,-0.59l0.723,-0.592l0.722,-0.593l0.72,-0.595l0.718,-0.596l0.717,-0.597l0.714,-0.598l0.711,-0.599l0.71,-0.6l0.706,-0.601l0.703,-0.601l0.699,-0.601l0.697,-0.602l0.692,-0.601l0.688,-0.602l0.684,-0.602l0.68,-0.601l0.675,-0.601l0.671,-0.602l0.332,-0.299l0.332,-0.3l0.33,-0.3l0.329,-0.299l0.328,-0.3l0.326,-0.299l0.325,-0.299l0.323,-0.298l0.322,-0.298l0.32,-0.298l0.318,-0.298l0.317,-0.297l0.316,-0.297l0.313,-0.297l0.312,-0.296l0.311,-0.296l0.308,-0.295l0.307,-0.295l0.305,-0.294l0.304,-0.294l0.301,-0.294l0.299,-0.293l0.298,-0.292l0.295,-0.292l0.294,-0.292l0.291,-0.29l0.29,-0.291l0.288,-0.289l0.285,-0.289l0.283,-0.288l0.281,-0.288l0.279,-0.287l0.277,-0.286l0.274,-0.286l0.273,-0.284l0.27,-0.285l0.267,-0.283l0.265,-0.282l0.264,-0.282l0.26,-0.281l0.258,-0.28l0.255,-0.279l0.254,-0.278l0.25,-0.277l0.248,-0.276l0.245,-0.276l0.243,-0.274l0.242,-0.276l1.971,-2.253l0.989,-1.132l0.99,-1.136l0.991,-1.141l0.495,-0.572l0.496,-0.573l0.495,-0.575l0.496,-0.576l0.495,-0.578l0.495,-0.58l0.495,-0.581l0.495,-0.583l0.495,-0.585l0.495,-0.587l0.494,-0.589l0.494,-0.591l0.493,-0.594l0.493,-0.595l0.493,-0.598l0.492,-0.6l0.492,-0.603l0.491,-0.606l0.49,-0.608l0.489,-0.611l0.489,-0.614l0.489,-0.616l0.487,-0.62l0.487,-0.623l0.486,-0.626l0.484,-0.629l0.484,-0.632l0.483,-0.636l0.483,-0.64l0.24,-0.32l0.24,-0.322l0.24,-0.322l0.24,-0.324l0.24,-0.325l0.239,-0.325l0.239,-0.326l0.238,-0.328l0.239,-0.328l0.238,-0.329l0.237,-0.331l0.238,-0.331l0.237,-0.332l0.237,-0.334l0.236,-0.334l0.236,-0.336l0.236,-0.336l0.235,-0.337l0.236,-0.339l0.234,-0.339l0.235,-0.341l0.234,-0.342l0.233,-0.343l0.233,-0.344l0.233,-0.345l0.233,-0.346l0.232,-0.348l0.232,-0.348l0.231,-0.35l0.231,-0.35l0.23,-0.353l0.23,-0.353l0.23,-0.354l0.229,-0.356l0.229,-0.357l0.229,-0.358l0.228,-0.359l0.227,-0.361l0.227,-0.362l0.227,-0.363l0.226,-0.364l0.226,-0.366l0.225,-0.367l0.225,-0.368l0.224,-0.37l0.224,-0.371l0.224,-0.372l0.222,-0.374l0.223,-0.375l0.222,-0.376l0.221,-0.378l0.221,-0.379l0.22,-0.381l0.22,-0.382l0.219,-0.383l0.219,-0.385l0.219,-0.386l0.217,-0.388l0.218,-0.389l0.216,-0.391l0.216,-0.392l0.216,-0.394l0.215,-0.395l0.214,-0.397l0.214,-0.398l0.214,-0.399l0.212,-0.402l0.212,-0.403l0.212,-0.404l0.211,-0.406l0.21,-0.408l0.21,-0.409l0.209,-0.411l0.209,-0.412l0.207,-0.414l0.208,-0.416l0.206,-0.417l0.206,-0.419l0.206,-0.42l0.205,-0.423l0.204,-0.424l0.203,-0.425l0.203,-0.428l0.202,-0.429l0.201,-0.431l0.201,-0.432l0.2,-0.434l0.2,-0.437l0.198,-0.437l0.198,-0.44l0.198,-0.442l0.196,-0.443l0.196,-0.445l0.195,-0.446l0.195,-0.449l0.194,-0.451l0.193,-0.452l0.192,-0.454l0.191,-0.456l0.191,-0.458l0.19,-0.46l0.19,-0.462l0.188,-0.464l0.188,-0.465l0.187,-0.468l0.186,-0.469l0.186,-0.471l0.184,-0.474l0.184,-0.475l0.183,-0.477l0.182,-0.48l0.182,-0.481l0.18,-0.484l0.18,-0.485l0.179,-0.487l0.178,-0.49l0.178,-0.491l0.176,-0.494l0.176,-0.495l0.175,-0.498l0.174,-0.5l0.173,-0.502l0.172,-0.504l0.171,-0.506l0.171,-0.508l0.17,-0.511l0.168,-0.512l0.168,-0.515l0.167,-0.517l0.166,-0.519l0.165,-0.521l0.164,-0.524l0.164,-0.526l0.162,-0.528l0.162,-0.53l0.16,-0.532l0.16,-0.535l0.158,-0.537l0.158,-0.539l0.157,-0.541l0.156,-0.544l0.154,-0.546l0.154,-0.549l0.153,-0.551l0.152,-0.553l0.151,-0.555l0.15,-0.558l0.149,-0.56l0.147,-0.563l0.147,-0.565l0.146,-0.567l0.145,-0.57l0.144,-0.572l0.143,-0.574l0.141,-0.577l0.141,-0.58l0.14,-0.582l0.138,-0.584l0.138,-0.587l0.137,-0.589l0.135,-0.592l0.134,-0.594l0.134,-0.597l0.132,-0.6l0.131,-0.602l0.13,-0.604l0.129,-0.607l0.127,-0.609l0.127,-0.613l0.126,-0.615l0.124,-0.617l0.124,-0.62l0.122,-0.622l0.121,-0.626l0.12,-0.627l0.118,-0.631l0.118,-0.633l0.116,-0.634l0.056,-0.309l0.053,-0.309l0.052,-0.308l0.051,-0.31l0.049,-0.31l0.048,-0.311l0.046,-0.312l0.045,-0.312l0.043,-0.313l0.042,-0.313l0.04,-0.314l0.039,-0.315l0.037,-0.316l0.036,-0.316l0.034,-0.316l0.033,-0.318l0.031,-0.317l0.03,-0.319l0.028,-0.319l0.027,-0.32l0.026,-0.32l0.024,-0.321l0.022,-0.321l0.021,-0.322l0.02,-0.322l0.018,-0.324l0.017,-0.323l0.015,-0.324l0.014,-0.325l0.012,-0.326l0.011,-0.325l0.009,-0.327l0.008,-0.326l0.006,-0.328l0.005,-0.328l0.004,-0.328l0.002,-0.329l0,-0.33l-0.001,-0.33l-0.002,-0.33l-0.004,-0.331l-0.005,-0.332l-0.007,-0.332l-0.008,-0.332l-0.009,-0.333l-0.011,-0.333l-0.013,-0.333l-0.014,-0.335l-0.015,-0.334l-0.017,-0.335l-0.018,-0.336l-0.02,-0.336l-0.021,-0.336l-0.023,-0.337l-0.024,-0.337l-0.025,-0.338l-0.027,-0.338l-0.028,-0.338l-0.03,-0.339l-0.031,-0.339l-0.033,-0.34l-0.034,-0.34l-0.035,-0.34l-0.037,-0.341l-0.038,-0.341l-0.04,-0.342l-0.041,-0.341l-0.043,-0.342l-0.044,-0.343l-0.045,-0.343l-0.047,-0.343l-0.048,-0.343l-0.05,-0.344l-0.051,-0.344l-0.053,-0.345l-0.053,-0.344l-0.056,-0.345l-0.056,-0.345l-0.059,-0.346l-0.059,-0.346l-0.061,-0.346l-0.062,-0.346l-0.064,-0.347l-0.065,-0.347l-0.067,-0.347l-0.067,-0.347l-0.07,-0.348l-0.071,-0.348l-0.072,-0.348l-0.073,-0.349l-0.075,-0.348l-0.076,-0.349l-0.078,-0.349l-0.079,-0.349l-0.08,-0.35l-0.082,-0.35l-0.083,-0.349l-0.085,-0.35l-0.086,-0.35l-0.087,-0.351l-0.089,-0.351l-0.09,-0.35l-0.091,-0.351l-0.093,-0.351l-0.094,-0.351l-0.096,-0.352l-0.097,-0.351l-0.098,-0.352l-0.1,-0.351l-0.101,-0.352l-0.102,-0.352l-0.104,-0.352l-0.105,-0.352l-0.106,-0.353l-0.108,-0.352l-0.109,-0.353l-0.111,-0.352l-0.112,-0.353l-0.113,-0.352l-0.114,-0.353l-0.116,-0.353l-0.117,-0.353l-0.119,-0.353l-0.12,-0.353l-0.121,-0.353l-0.123,-0.353l-0.124,-0.353l-0.125,-0.353l-0.126,-0.353l-0.128,-0.353l-0.13,-0.354l-0.13,-0.353l-0.132,-0.353l-0.133,-0.353l-0.135,-0.353l-0.136,-0.354l-0.137,-0.353l-0.138,-0.353l-0.14,-0.353l-0.141,-0.353l-0.143,-0.353l-0.144,-0.353l-0.145,-0.353l-0.146,-0.353l-0.148,-0.352l-0.149,-0.353l-0.15,-0.353l-0.152,-0.352l-0.152,-0.353l-0.155,-0.352l-0.155,-0.352l-0.157,-0.352l-0.158,-0.352l-0.159,-0.352l-0.161,-0.352l-0.162,-0.352l-0.163,-0.351l-0.165,-0.352l-0.166,-0.351l-0.167,-0.351l-0.168,-0.351l-0.17,-0.351l-0.171,-0.351l-0.172,-0.351l-0.173,-0.35l-0.175,-0.35l-0.176,-0.35l-0.177,-0.35l-0.179,-0.35l-0.179,-0.349l-0.182,-0.349l-0.182,-0.349l-0.184,-0.349l-0.184,-0.349l-0.187,-0.348l-0.187,-0.348l-0.189,-0.348l-0.189,-0.348l-0.191,-0.347l-0.193,-0.348l-0.194,-0.347l-0.194,-0.346l-0.196,-0.346l-0.198,-0.347l-0.198,-0.345l-0.2,-0.346l-0.201,-0.345l-0.202,-0.345l-0.204,-0.345l-0.205,-0.344l-0.206,-0.345l-0.207,-0.343l-0.208,-0.344l-0.21,-0.343l-0.211,-0.343l-0.212,-0.342l-0.213,-0.342l-0.215,-0.342l-0.215,-0.342l-0.217,-0.341l-0.219,-0.341l-0.219,-0.34l-0.22,-0.34l-0.222,-0.34l-0.223,-0.339l-0.224,-0.339l-0.226,-0.338l-0.226,-0.338l-0.228,-0.338l-0.229,-0.337l-0.23,-0.337l-0.232,-0.336l-0.232,-0.337l-0.234,-0.335l-0.235,-0.335l-0.236,-0.335l-0.237,-0.334l-0.239,-0.334l-0.239,-0.334l-0.241,-0.333l-0.242,-0.332l-0.243,-0.332l-0.245,-0.332l-0.245,-0.331l-0.247,-0.33l-0.248,-0.33l-0.249,-0.33l-0.25,-0.329l-0.251,-0.329l-0.253,-0.328l-0.253,-0.327l-0.255,-0.327l-0.256,-0.327l-0.257,-0.326l-0.259,-0.325l-0.259,-0.325l-0.261,-0.324l-0.261,-0.324l-0.263,-0.323l-0.264,-0.323l-0.265,-0.322l-0.267,-0.322l-0.267,-0.321l-0.269,-0.32l-0.269,-0.32l-0.271,-0.319l-0.272,-0.319l-0.273,-0.318l-0.274,-0.317l-0.276,-0.317l-0.276,-0.316l-0.277,-0.316l-0.279,-0.315l-0.28,-0.314l-0.281,-0.314l-0.282,-0.313l-0.283,-0.312l-0.284,-0.312l-0.285,-0.311l-0.287,-0.31l-0.287,-0.31l-0.289,-0.309l-0.29,-0.308l-0.291,-0.308l-0.292,-0.307l-0.293,-0.306l-0.294,-0.306l-0.295,-0.305l-0.296,-0.304l-0.298,-0.303l-0.298,-0.303l-0.3,-0.302l-0.3,-0.301l-0.302,-0.301l-0.303,-0.3l-0.304,-0.299l-0.305,-0.298l-0.306,-0.298l-0.307,-0.297l-0.308,-0.296l-0.309,-0.295l-0.311,-0.294l-0.311,-0.294l-0.312,-0.293l-0.314,-0.292l-0.314,-0.291l-0.316,-0.291l-0.317,-0.29l-0.317,-0.289l-0.319,-0.288l-0.32,-0.287l-0.321,-0.286l-0.322,-0.286l-0.323,-0.285l-0.324,-0.284l-0.325,-0.283l-0.326,-0.282l-0.327,-0.281l-0.328,-0.281l-0.329,-0.28l-0.33,-0.278l-0.331,-0.278l-0.333,-0.277l-0.333,-0.277l-0.334,-0.275l-0.336,-0.274l-0.336,-0.274l-0.337,-0.272l-0.339,-0.272l-0.339,-0.27l-0.341,-0.27l-0.341,-0.269l-0.342,-0.268l-0.344,-0.267l-0.344,-0.266l-0.346,-0.265l-0.346,-0.264l-0.348,-0.263l-0.348,-0.263l-0.349,-0.261l-0.351,-0.26l-0.351,-0.26l-0.353,-0.258l-0.353,-0.257l-0.355,-0.257l-0.355,-0.255l-0.356,-0.254l-0.358,-0.254l-0.358,-0.252l-0.359,-0.251l-0.361,-0.25l-0.361,-0.25l-0.362,-0.248l-0.363,-0.247l-0.365,-0.246l-0.365,-0.245l-0.366,-0.244l-0.367,-0.243l-0.368,-0.242l-0.369,-0.241l-0.37,-0.24l-0.371,-0.239l-0.372,-0.237l-0.372,-0.237l-0.374,-0.235l-0.375,-0.235l-0.376,-0.233l-0.376,-0.232l-0.378,-0.231l-0.378,-0.23l-0.38,-0.229l-0.38,-0.227l-0.381,-0.227l-0.383,-0.225l-0.383,-0.225l-0.384,-0.223l-0.385,-0.222l-0.386,-0.221l-0.387,-0.219l-0.388,-0.219l-0.389,-0.217l-0.389,-0.216l-0.391,-0.215l-0.392,-0.214l-0.392,-0.212l-0.393,-0.212l-0.395,-0.21l-0.395,-0.209l-0.396,-0.208l-0.397,-0.206l-0.398,-0.205l-0.399,-0.204l-0.399,-0.203l-0.401,-0.202l-0.402,-0.2l-0.402,-0.199l-0.403,-0.198l-0.405,-0.197l-0.405,-0.195l-0.406,-0.194l-0.407,-0.193l-0.407,-0.192l-0.409,-0.19l-0.41,-0.189l-0.41,-0.188l-0.411,-0.186l-0.413,-0.185l-0.413,-0.184l-0.414,-0.183l-0.415,-0.181l-0.415,-0.18l-0.417,-0.178l-0.417,-0.177l-0.419,-0.176l-0.419,-0.175l-0.42,-0.173l-0.421,-0.172l-0.422,-0.17l-0.422,-0.17l-0.424,-0.167l-0.424,-0.167l-0.425,-0.165l-0.426,-0.163l-0.427,-0.163l-0.428,-0.161l-0.429,-0.159l-0.429,-0.158l-0.43,-0.157l-0.431,-0.155l-0.432,-0.154l-0.433,-0.152l-0.434,-0.151l-0.434,-0.15l-0.436,-0.148l-0.436,-0.147l-0.437,-0.145l-0.438,-0.144l-0.439,-0.142l-0.439,-0.141l-0.44,-0.14l-0.442,-0.138l-0.441,-0.136l-0.443,-0.135l-0.444,-0.134l-0.444,-0.132l-0.446,-0.131l-0.446,-0.129l-0.447,-0.127l-0.447,-0.126l-0.449,-0.125l-0.449,-0.123l-0.45,-0.122l-0.451,-0.12l-0.452,-0.118l-0.452,-0.117l-0.454,-0.115l-0.454,-0.114l-0.455,-0.113l-0.455,-0.11l-0.457,-0.11l-0.457,-0.107l-0.458,-0.106l-0.459,-0.105l-0.46,-0.103l-0.46,-0.101l-0.462,-0.1l-0.462,-0.098l-0.463,-0.096l-0.463,-0.095l-0.465,-0.094l-0.465,-0.091l-0.466,-0.091l-0.467,-0.088l-0.467,-0.087l-0.468,-0.085l-0.469,-0.084l-0.47,-0.082l-0.471,-0.08l-0.471,-0.078l-0.472,-0.077l-0.473,-0.076l-0.474,-0.073l-0.474,-0.072l-0.475,-0.071l-0.476,-0.068l-0.477,-0.067l-0.477,-0.065l-0.479,-0.064l-0.479,-0.062l-0.479,-0.06l-0.481,-0.058l-0.481,-0.057l-0.482,-0.055l-0.482,-0.053l-0.484,-0.051l-0.484,-0.05l-0.485,-0.048l-0.486,-0.046l-0.486,-0.045l-0.487,-0.043l-0.488,-0.04l-0.489,-0.04l-0.489,-0.037l-0.49,-0.036l-0.491,-0.034l-0.491,-0.032l-0.493,-0.03l-0.493,-0.028l-0.493,-0.027l-0.495,-0.025l-0.495,-0.023l-0.496,-0.021l-0.496,-0.02l-0.498,-0.017l-0.498,-0.016l-0.498,-0.014l-0.5,-0.012l-0.5,-0.01l-0.501,-0.008l-0.501,-0.007l-0.503,-0.004l-0.503,-0.003l-0.503,-0.001l-0.505,0.001Z" style="fill:#4a4a4a;"/></g><path id="Path-15" d="M549,280c-17.498,-12.396 -71.587,-48.834 -99.479,-90.362c-45,-67 49.553,-203.623 18.479,-96.638c-21.203,73 11.271,108.37 44.271,146.37c32.364,37.268 68.041,62.812 36.729,40.63Z" style="fill:#fff;stroke:#4a4a4a;stroke-width:2px;"/></g></svg>