<?xml version="1.0" encoding="UTF-8" standalone="no"?><!DOCTYPE svg PUBLIC "-//W3C//DTD SVG 1.1//EN" "http://www.w3.org/Graphics/SVG/1.1/DTD/svg11.dtd"><svg width="100%" height="100%" viewBox="0 0 186 154" version="1.1" xmlns="http://www.w3.org/2000/svg" xmlns:xlink="http://www.w3.org/1999/xlink" xml:space="preserve" style="fill-rule:evenodd;clip-rule:evenodd;stroke-linejoin:round;stroke-miterlimit:1.41421;"><rect id="Artboard1" x="0" y="0" width="185.774" height="153.101" style="fill:none;"/><circle cx="93" cy="77" r="72.5" style="fill:#d1f1f1;"/><path id="LinkedIn" d="M135.297,77.297l0,32.532l-17.703,0l0,-30.353c0,-7.625 -2.561,-12.829 -8.969,-12.829c-4.891,0 -7.802,3.507 -9.083,6.899c-0.467,1.213 -0.587,2.901 -0.587,4.599l0,31.684l-17.709,0c0,0 0.239,-51.408 0,-56.735l17.707,0l0,8.042c-0.036,0.06 -0.082,0.125 -0.116,0.184l0.116,0l0,-0.184c2.353,-3.86 6.554,-9.375 15.958,-9.375c11.651,0 20.386,8.109 20.386,25.536Zm-72.575,-51.552c-6.058,0 -10.021,4.234 -10.021,9.801c0,5.446 3.848,9.808 9.786,9.808l0.118,0c6.176,0 10.016,-4.361 10.016,-9.808c-0.116,-5.567 -3.84,-9.801 -9.899,-9.801Zm-8.969,84.084l17.702,0l0,-56.735l-17.702,0l0,56.735Z" style="fill-rule:nonzero;"/></svg>