<?xml version="1.0" encoding="UTF-8" standalone="no"?><!DOCTYPE svg PUBLIC "-//W3C//DTD SVG 1.1//EN" "http://www.w3.org/Graphics/SVG/1.1/DTD/svg11.dtd"><svg width="100%" height="100%" viewBox="0 0 238 188" version="1.1" xmlns="http://www.w3.org/2000/svg" xmlns:xlink="http://www.w3.org/1999/xlink" xml:space="preserve" style="fill-rule:evenodd;clip-rule:evenodd;stroke-linecap:round;stroke-linejoin:round;stroke-miterlimit:1.5;"><rect id="Artboard1" x="0" y="0" width="237.326" height="187.411" style="fill:none;"/><g><path d="M118.174,105.608c-3.493,5.995 -7.39,20.338 -4.698,34.268c1.642,8.496 1.898,14.836 4.504,23.304l-0.002,0.838c2.476,1.985 10.273,0.823 13.74,0.834c1.019,0.004 0.539,-0.051 2.842,-0.269c2.232,-8.617 2.486,-15.078 3.912,-23.729c2.338,-14.184 -0.831,-28.83 -3.714,-34.964c0,0 -1.406,2.977 -8.211,2.996c-8.442,0.025 -8.373,-3.278 -8.373,-3.278Z" style="fill:#262626;stroke:#404040;stroke-width:1px;"/><path d="M113.005,24.542c38.765,-6.39 75.422,19.881 81.81,58.63c6.387,38.748 -19.899,75.395 -58.663,81.785c-38.765,6.39 -75.422,-19.881 -81.81,-58.629c-6.387,-38.749 19.899,-75.396 58.663,-81.786Z" style="fill:none;stroke:#404040;stroke-width:5px;"/><path d="M131.85,101.388c0.163,0 5.303,-30.779 5.303,-30.779l-11.136,-26.836l-11.544,26.759l6.143,30.856c1.591,0.005 7.876,0 11.234,0Z" style="fill:#666;stroke:#404040;stroke-width:1px;"/><path d="M129.749,102.038c1.303,0.005 5.012,-30.781 5.012,-30.781l-8.61,-22.923l-9.582,22.862l5.805,30.817c0,0 -6.255,-0.021 7.375,0.025Z" style="fill:#737373;stroke:#404040;stroke-width:0.25px;"/><path d="M129.461,102.013c1.7,0 5.335,-30.636 5.335,-30.636l-8.605,-12.246l-9.683,12.184l5.78,30.698c0,0 2.491,0 7.173,0Z" style="fill:#8c8c8c;stroke:#404040;stroke-width:0.15px;"/><path d="M126.269,100.779l0,-30.395" style="fill:none;stroke:#404040;stroke-width:0.4px;"/><path d="M126.429,65.351c0.949,0.003 1.717,0.846 1.713,1.882c-0.003,1.036 -0.777,1.874 -1.726,1.871c-0.949,-0.004 -1.716,-0.847 -1.713,-1.883c0.004,-1.035 0.777,-1.873 1.726,-1.87Z" style="fill:#262626;stroke:#404040;stroke-width:1px;"/><path d="M126.352,100.848c4.94,0.017 8.945,1.857 8.937,4.108c-0.008,2.251 -4.024,4.065 -8.965,4.048c-4.94,-0.017 -8.944,-1.857 -8.937,-4.108c0.008,-2.251 4.025,-4.065 8.965,-4.048Z" style="fill:#595959;stroke:#404040;stroke-width:0.25px;"/></g></svg>