<?xml version="1.0" encoding="UTF-8" standalone="no"?><!DOCTYPE svg PUBLIC "-//W3C//DTD SVG 1.1//EN" "http://www.w3.org/Graphics/SVG/1.1/DTD/svg11.dtd"><svg width="100%" height="100%" viewBox="0 0 1229 1244" version="1.1" xmlns="http://www.w3.org/2000/svg" xmlns:xlink="http://www.w3.org/1999/xlink" xml:space="preserve" style="fill-rule:evenodd;clip-rule:evenodd;stroke-linecap:round;stroke-linejoin:round;stroke-miterlimit:1.5;"><rect id="Artboard1" x="0" y="0" width="1228.5" height="1243.42" style="fill:none;"/><g><ellipse cx="614.906" cy="626.417" rx="605.787" ry="605.527"/><g><path d="M196.086,687.536c0,0 -1.86,146.03 -1.119,147.611c2.43,5.191 58.016,5.563 77.014,4.405c33.847,-2.062 42.249,-43.392 29.711,-69.257c-7.698,-15.882 -32.37,-12.331 -32.416,-15.418c-0.038,-2.559 19.094,-17.524 21.543,-30.301c4.01,-20.919 -4.831,-36.026 -10.759,-40.597c-20.54,-15.84 -83.974,-5.909 -83.974,3.557Z" style="fill:#ffa40e;stroke:#000;stroke-width:1px;"/><path d="M327.012,684.563c0,0 -5.045,155.182 -2.776,155.277c15.916,0.662 12.846,-0.438 43.609,0.498c2.297,0.07 0.531,-30.805 2.378,-29.676c1.639,1.002 14.557,21.845 15.486,29.497c0.044,0.361 47.275,0.78 47.194,0.138c-7.645,-60.791 -51.468,-75.366 -46.55,-77.335c24.104,-9.646 32.996,-42.563 26.939,-60.345c-11.119,-32.637 -64.329,-35.333 -86.28,-18.054Z" style="fill:#ffa40e;stroke:#000;stroke-width:1px;"/><path d="M527.102,721.802c0.021,-4.02 0.025,-31.469 -1.368,-44.193c-0.324,-2.954 -74.555,-0.362 -76.851,2.399c-1.214,1.461 -4.765,141.213 2.741,158.116c2.279,5.13 86.804,3.597 90.739,0.3c2.998,-2.511 0.637,-49.748 -1.176,-56.273c-0.625,-2.25 -21.767,-1.467 -24.039,-0.604c-8.751,3.321 -0.9,16.641 -4.603,24.206c-2.185,4.465 -29.374,-0.197 -29.41,-0.274c-2.061,-4.398 -1.715,-27.386 3.757,-30.016c2.407,-1.157 19.588,-0.566 21.031,-1.633c3.545,-2.626 -0.527,-23.386 -2.354,-25.244c-6.67,-6.78 -14.567,0.093 -21.62,-1.042c-5.013,-0.808 -0.782,-28.413 -1.183,-36.993c-0.266,-5.688 17.998,-4.995 17.049,-0.365c-2.364,11.533 -5.198,21.01 15.971,18.848c8.095,-0.826 11.316,-7.232 11.316,-7.232Z" style="fill:#ffa40e;stroke:#000;stroke-width:1px;"/><path d="M796.97,721.413c0.022,-4.028 0.025,-31.536 -1.368,-44.288c-0.137,-1.254 -75.527,0.809 -76.85,2.405c-1.214,1.464 -4.765,141.517 2.741,158.457c2.278,5.141 86.804,3.605 90.739,0.301c2.998,-2.517 0.637,-49.856 -1.177,-56.395c-0.625,-2.255 -21.766,-1.47 -24.038,-0.606c-8.752,3.329 -0.9,16.678 -4.603,24.259c-2.186,4.475 -29.374,-0.198 -29.41,-0.275c-2.062,-4.407 -1.716,-27.444 3.756,-30.08c2.407,-1.16 19.589,-0.567 21.031,-1.637c3.546,-2.631 -0.526,-23.436 -2.354,-25.298c-6.669,-6.796 -14.567,0.093 -21.62,-1.045c-5.012,-0.809 -0.781,-28.475 -1.182,-37.073c-0.266,-5.7 17.998,-5.005 17.049,-0.365c-2.364,11.557 -5.198,21.055 15.971,18.889c8.094,-0.829 11.315,-7.249 11.315,-7.249Z" style="fill:#ffa40e;stroke:#000;stroke-width:1px;"/><path d="M548.891,678.198c8.662,36.11 40.715,162.475 41.678,162.465c9.299,-0.101 29.857,0.59 30.247,-0.767c6.408,-22.3 9.787,-43.264 9.815,-43.009c0.958,8.676 3.27,18.432 8.216,43.282c0.412,2.068 27.045,0.889 29.51,1.066c2.432,0.175 33.885,-155.733 36.103,-160.435c1.747,-3.703 -9.876,-1.839 -19.789,-2.212c-9.608,-0.362 -19.14,-0.292 -19.323,0.467c-9.683,40.342 -13.19,61.638 -13.995,62.86c-0.697,1.056 -7.314,-51.609 -10.099,-51.78c-4.872,-0.3 -17.625,0.271 -19.644,0.032c-1.439,-0.17 -5.861,30.501 -10.094,51.717c-0.276,1.385 -19.064,-54.475 -21.076,-63.283c-0.426,-1.862 -41.549,-0.403 -41.549,-0.403Z" style="fill:#ffa40e;stroke:#000;stroke-width:1px;"/><path d="M939.814,676.02c2.74,9.753 13.978,44.241 20.275,61.921c6.65,18.673 12.657,35.432 12.469,36.895c-2.173,16.902 -20.418,65.171 -18.752,66.07c3.777,2.035 47.324,-0.478 51.166,-0.254c5.135,0.3 64.558,-163.547 59.67,-164.258c-8.022,-1.166 -39.519,-1.737 -44.944,-1.865c-2.671,-0.062 -9.401,25.755 -15.836,43.918c-2.456,6.933 -9.181,-35.842 -13.233,-42.503c-1.842,-3.028 -50.815,0.076 -50.815,0.076Z" style="fill:#ffa40e;stroke:#000;stroke-width:1px;"/><path d="M357.275,710.602c-0.082,6.535 -1.072,26.52 -1.09,29.84c-0.009,1.701 16.725,-3.21 18.484,-12.728c3.399,-18.404 -17.394,-17.112 -17.394,-17.112Z" style="fill:#ffa40e;stroke:#000;stroke-width:1px;"/><path d="M234.941,706.951c-0.082,6.534 -1.072,26.52 -1.09,29.84c-0.009,1.701 16.725,-3.21 18.483,-12.728c3.4,-18.404 -17.393,-17.112 -17.393,-17.112Z" style="fill:#ffa40e;stroke:#000;stroke-width:1px;"/><path d="M235.115,775.11c-0.082,6.535 -1.073,26.521 -1.09,29.84c-0.009,1.702 16.725,-3.21 18.483,-12.728c3.4,-18.404 -17.393,-17.112 -17.393,-17.112Z" style="fill:#ffa40e;stroke:#000;stroke-width:1px;"/><path d="M357.275,710.602c-0.082,6.535 -1.072,26.52 -1.09,29.84c-0.009,1.701 16.725,-3.21 18.484,-12.728c3.399,-18.404 -17.394,-17.112 -17.394,-17.112Z" style="stroke:#000;stroke-width:1px;"/><path d="M234.941,706.951c-0.082,6.534 -1.072,26.52 -1.09,29.84c-0.009,1.701 16.725,-3.21 18.483,-12.728c3.4,-18.404 -17.393,-17.112 -17.393,-17.112Z" style="stroke:#000;stroke-width:1px;"/><path d="M235.115,775.11c-0.082,6.535 -1.073,26.521 -1.09,29.84c-0.009,1.702 16.725,-3.21 18.483,-12.728c3.4,-18.404 -17.393,-17.112 -17.393,-17.112Z" style="stroke:#000;stroke-width:1px;"/><path d="M838.027,684.299c0,0 -4.987,156.325 -2.744,156.42c15.733,0.666 12.698,-0.442 43.109,0.501c2.27,0.071 0.524,-31.031 2.35,-29.894c1.62,1.009 14.389,22.005 15.309,29.714c0.043,0.364 46.732,0.786 46.652,0.139c-7.558,-61.239 -50.878,-75.921 -46.016,-77.904c23.827,-9.717 33.005,-43.149 27.017,-61.062c-10.99,-32.877 -63.978,-35.32 -85.677,-17.914Z" style="fill:#ffa40e;stroke:#000;stroke-width:1px;"/><path d="M867.702,708.344c-0.082,6.534 -1.073,26.52 -1.09,29.84c-0.009,1.701 16.725,-3.21 18.483,-12.728c3.4,-18.404 -17.393,-17.112 -17.393,-17.112Z" style="fill:#ffa40e;stroke:#000;stroke-width:1px;"/><path d="M867.702,708.344c-0.082,6.534 -1.073,26.52 -1.09,29.84c-0.009,1.701 16.725,-3.21 18.483,-12.728c3.4,-18.404 -17.393,-17.112 -17.393,-17.112Z" style="stroke:#000;stroke-width:1px;"/></g><g><path d="M279.753,472.775c0.023,-4.096 0.026,-32.067 -1.447,-45.033c-0.342,-3.011 -78.857,-0.369 -81.285,2.445c-1.284,1.488 -5.04,143.898 2.899,161.122c2.41,5.228 91.813,3.666 95.975,0.306c3.171,-2.559 0.674,-50.694 -1.244,-57.344c-0.661,-2.292 -23.023,-1.494 -25.426,-0.615c-9.257,3.385 -0.952,16.958 -4.868,24.667c-2.312,4.55 -31.07,-0.201 -31.108,-0.28c-2.18,-4.481 -1.814,-27.906 3.974,-30.586c2.546,-1.179 20.719,-0.577 22.244,-1.665c3.75,-2.675 -0.557,-23.83 -2.49,-25.723c-7.054,-6.91 -15.407,0.094 -22.867,-1.063c-5.302,-0.822 -0.827,-28.953 -1.251,-37.696c-0.281,-5.796 19.037,-5.09 18.033,-0.371c-2.501,11.752 -5.498,21.409 16.893,19.206c8.561,-0.842 11.968,-7.37 11.968,-7.37Z" style="fill:#ffa40e;stroke:#000;stroke-width:1px;"/><path d="M318.27,428.095c-0.632,44.973 -19.042,131.869 20.265,158.278c15.779,10.601 51.849,8.819 62.664,-7.081c21.63,-31.803 15.116,-108.152 13.542,-149.249c-0.075,-1.948 -37.217,-1.866 -37.272,-0.476c-1.155,29.369 -0.188,66.22 -3.77,88.202c-1.343,8.246 -0.505,16.671 -10.325,15.373c-8.686,-1.149 -7.884,-10.423 -9.098,-15.616c-1.529,-6.542 0.128,-73.853 0.887,-88.717c0.118,-2.306 -36.893,-0.714 -36.893,-0.714Z" style="fill:#ffa40e;stroke:#000;stroke-width:1px;"/><path d="M596.407,428.3c-0.633,44.974 -19.043,131.87 20.265,158.278c15.779,10.601 51.849,8.82 62.663,-7.081c21.631,-31.803 15.117,-108.152 13.543,-149.248c-0.075,-1.948 -37.217,-1.867 -37.272,-0.476c-1.156,29.368 -0.189,66.219 -3.77,88.201c-1.344,8.247 -0.505,16.672 -10.326,15.373c-8.685,-1.148 -7.884,-10.423 -9.097,-15.615c-1.53,-6.542 0.128,-73.854 0.887,-88.718c0.117,-2.306 -36.893,-0.714 -36.893,-0.714Z" style="fill:#ffa40e;stroke:#000;stroke-width:1px;"/><path d="M442.972,427.986c0,0 -7.784,152.697 -2.749,162.767c1.521,3.042 44.203,2.087 47.208,0.353c2.018,-1.164 -0.904,-51.837 2.799,-54.021c2.97,-1.751 7.277,30.262 14.167,31.247c7.591,1.085 10.471,-32.363 15.418,-32.443c0.895,-0.014 -0.851,49.667 1.787,55.768c0.278,0.642 37.252,1.425 45.591,0.159c1.304,-0.198 -1.44,-162.772 -4.206,-164.155c-1.269,-0.634 -42.576,-0.052 -43.461,2.56c-4.297,12.688 -4.27,59.316 -14.844,56.209c-8.702,-2.557 -8.723,-41.58 -16.118,-56.369c-1.755,-3.51 -37.059,-1.998 -45.592,-2.075Z" style="fill:#ffa40e;stroke:#000;stroke-width:1px;"/><path d="M718.925,428.578c-4.921,38.149 -3.948,162.537 -3.783,162.622c5.941,3.048 49.157,2.329 49.61,0.087c2.663,-13.184 -7.779,-40.02 -1.909,-44.948c1.017,-0.854 16.503,41.873 19.171,43.242c6.345,3.256 47.679,3.965 49.741,1.735c2.034,-2.2 2.117,-156.632 1.572,-159.888c-1.001,-5.973 -47.53,-4.494 -47.393,0.117c0.347,11.65 -2.111,72.04 -2.608,71.888c-9.49,-2.915 -8.536,-62.421 -13.853,-73.335c-2.824,-5.795 -50.548,-1.52 -50.548,-1.52Z" style="fill:#ffa40e;stroke:#000;stroke-width:1px;"/><path d="M860.768,429.405c0.916,41.472 1.533,159.422 6.315,161.92c0.361,0.188 61.905,7.394 82.658,-2.127c24.131,-11.07 30.789,-61.324 23.261,-98.693c-4.488,-22.282 -8.072,-36.073 -18.081,-47.739c-16.634,-19.386 -94.153,-13.361 -94.153,-13.361Z" style="fill:#ffa40e;stroke:#000;stroke-width:1px;"/><path d="M898.836,480.207c-0.694,13.638 -1.853,62.689 1.96,67.779c6.47,8.639 37.746,-11.458 32.588,-41.041c-5.087,-29.172 -34.548,-26.738 -34.548,-26.738Z" style="fill:none;stroke:#000;stroke-width:1px;"/><path d="M898.836,480.207c-0.694,13.638 -1.853,62.689 1.96,67.779c6.47,8.639 37.746,-11.458 32.588,-41.041c-5.087,-29.172 -34.548,-26.738 -34.548,-26.738Z" style="stroke:#000;stroke-width:1px;"/><path d="M988.107,428.503c16.271,37.526 18.262,116.986 7.708,162.441c-0.578,2.488 60.878,9.381 62.745,-5.172c1.864,-14.53 -7.676,-122.749 -7.077,-155.825c0.101,-5.616 -63.376,-1.444 -63.376,-1.444Z" style="fill:#ffa40e;stroke:#000;stroke-width:1px;"/></g><g><g><path d="M924.989,229.088c-0.413,-0.892 -20.925,-26.15 -29.825,-30.617c-26.915,-13.507 -46.285,2.259 -75.275,-4.942c-23.477,-5.832 -30.625,-44.779 -52.453,-51.606c-13.286,-4.155 -51.257,13.634 -69.326,12.017c-13.982,-1.251 -48.921,-19.755 -65.652,-16.363c-11.32,2.294 -39.089,12.955 -56.945,3.393c-10.529,-5.639 -30.433,-20.554 -55.341,-7.629c-12.262,6.364 -25.024,12.552 -37.16,18.754c-21.571,11.025 -42.147,-6.57 -59.522,10.978l-3.123,-4.229c17.376,-17.549 40.386,-1.283 61.957,-12.308c12.136,-6.203 24.898,-12.391 37.16,-18.754c24.908,-12.925 44.812,1.99 55.342,7.628c17.856,9.563 45.625,-1.098 56.944,-3.393c16.731,-3.391 51.67,15.112 65.652,16.364c18.069,1.617 56.04,-16.172 69.327,-12.017c21.827,6.826 28.975,45.773 52.452,51.606c28.99,7.201 48.36,-8.565 75.275,4.942c9.877,4.957 26.844,27.217 31.019,36.231" style="fill:#2d5959;stroke:#000;stroke-width:1px;"/></g><path d="M493.255,139.643c-10.335,-10.978 -19.884,-10.938 -32.902,-15.402c-0.968,-0.332 -9.272,-3.325 -9.301,-3.194c-5.287,24.628 27.431,19.784 40.542,19.719" style="fill:#2d5959;stroke:#000;stroke-width:1px;"/><path d="M428.417,152.059c-11.059,-1.559 -13.827,-5.488 -23.789,-7.793c-3.406,-0.788 -12.918,1.167 -16.319,0.081c-0.423,-0.135 -4.806,-1.294 -4.797,-1.302c0.558,-0.526 0.761,5.782 0.851,6.021c1.405,3.703 0.935,9.441 6.302,10.964c6.772,1.922 21.239,-1.653 27.26,-4.497c1.488,-0.703 6.943,-2.678 8.402,-1.352" style="fill:#2d5959;stroke:#000;stroke-width:1px;"/><path d="M401.128,177.397c5.814,18.846 5.862,30.151 -6.301,46.552c-2.952,3.98 -6.496,7.667 -8.678,12.085c-0.745,1.509 -1.153,3.249 -1.691,4.842c-0.302,0.892 -0.257,3.757 -0.262,2.815c-0.056,-11.385 -7.646,-23.216 -5.266,-35.026c2.32,-11.509 11.187,-23.672 19.006,-31.569" style="fill:#2d5959;stroke:#000;stroke-width:1px;"/><path d="M446.737,155.22c0,0 12.395,23.492 3.034,42.784c-0.643,1.326 -2.962,16.859 -2.856,16.857c0.376,-0.008 -4.303,-5.267 -4.807,-6.119c-2.609,-4.419 -5.188,-11.288 -6.256,-16.394c-2.836,-13.567 5.438,-26.177 10.885,-37.128Z" style="fill:#2d5959;stroke:#000;stroke-width:1px;"/><path d="M357.277,185.106c-25.225,-7.913 -23.366,-12.821 -43.006,0.213c-4.471,2.968 -15.158,24.117 -21.315,24.303c-2.924,0.088 24.184,0.922 28.081,0.721c12.985,-0.67 28.194,-25.416 33.052,-25.44" style="fill:#2d5959;stroke:#000;stroke-width:1px;"/><path d="M355.289,195.911c1.687,12.973 -1.204,18.827 -8.537,29.374c-1.068,1.535 -11.76,14.442 -12.908,11.766c-0.661,-1.541 -0.46,-15.427 -0.084,-17.144c1.927,-8.802 7.572,-9.857 12.882,-16.77c2.658,-3.46 6.226,-4.117 7.424,-8.353" style="fill:#2d5959;stroke:#000;stroke-width:1px;"/><path d="M667.456,145.627c12.586,23.28 5.143,54.654 -3.364,77.259c-0.475,1.261 -11.942,34.484 -14.344,29.661c-8.01,-16.076 -26.321,-42.057 -13.886,-60.404c9.359,-13.809 39.151,-28.28 29.464,-47.555" style="fill:#2d5959;stroke:#000;stroke-width:1px;"/><path d="M797.877,169.341c20.267,2.115 33.732,12.276 56.251,4.612c5.217,-1.776 10.05,-4.824 14.901,-7.279c2.128,-1.077 8.461,0.542 7.024,-1.361c-3.061,-4.051 -12.972,-4.727 -17.434,-6.494c-11.255,-4.456 -23.695,-12.881 -36.151,-6.576c-5.529,2.799 -8.55,9.369 -14.58,11.474c-3.324,1.16 -13.157,1.174 -15.446,3.486" style="fill:#2d5959;stroke:#000;stroke-width:1px;"/><path d="M842.643,194.078c0.133,26.695 27.648,30.079 46.3,41.104c3.746,2.214 8.377,4.163 10.901,7.909c0.343,0.509 3.112,7.672 4.374,7.033c1.255,-0.635 0.483,-5.635 0.476,-6.87c-0.036,-7.315 -0.43,-15.19 -4.901,-21.133c-10.454,-13.898 -21.222,-13.271 -36.243,-17.002c-5.27,-1.309 -20.907,-11.041 -20.907,-11.041Z" style="fill:#2d5959;stroke:#000;stroke-width:1px;"/><path d="M916.124,218.7c21.291,-2.885 41.698,-0.154 57.753,15.676c4.736,4.669 8.415,11.873 12.145,17.395c1.274,1.886 2.826,4.681 4.7,6.063c0.952,0.701 4.531,1.284 3.459,0.785c-8.731,-4.062 -21.098,0.72 -30.478,-0.81c-6.026,-0.983 -10.451,-3.518 -15.908,-6.104c-8,-3.792 -14.885,-18.643 -18.564,-26.028c-1.253,-2.514 -6.89,-6.28 -9.538,-3.606" style="fill:#2d5959;stroke:#000;stroke-width:1px;"/><path d="M709.997,154.085c0,0 55.858,5.184 70.132,48.49c1.82,5.523 8.916,8.645 13.746,11.751c0.788,0.506 5.978,2.303 5.991,2.905c0,0.016 -4.602,-1.518 -4.971,-1.556c-5.142,-0.529 -10.226,-1.531 -15.406,-1.505c-12.297,0.061 -30.851,3.168 -40.942,-4.801c-16.397,-12.948 -11.893,-28.408 -19.553,-43.781c-1.063,-2.135 -5.827,-11.519 -8.997,-11.503Z" style="fill:#2d5959;stroke:#000;stroke-width:1px;"/><path d="M667.632,141.049c0,0 31.755,0.359 42.273,-6.003c12.415,-7.509 23.688,-19.418 21.817,-20.158c-4.203,-1.662 -35.827,-0.277 -40.195,1.934c-10.122,5.124 -9.605,24.156 -23.895,24.227Z" style="fill:#2d5959;stroke:#000;stroke-width:1px;"/><path d="M508.079,141.263c4.217,0.629 8.444,1.199 12.652,1.887c23.391,3.826 -7.343,35.765 -10.51,42.467c-3.178,6.723 -4.24,14.17 -7.272,21.005c-0.871,1.965 1.305,5.447 -0.612,6.418c-1.475,0.746 -5.202,-7.71 -5.825,-8.741c-5.236,-8.662 -8.625,-19.602 -6.685,-29.946c2.144,-11.428 15.287,-25.156 15.242,-34.381" style="fill:#2d5959;stroke:#000;stroke-width:1px;"/><path d="M590.036,144.372c2.042,2.218 -1.397,7.467 0.047,9.659c14.787,22.438 0.777,43.739 9.324,69.171c1.892,5.628 3.123,11.374 4.772,17.022c0.78,2.672 6.615,5.22 4.503,7.033c-0.151,0.129 -16.097,-6.294 -18.172,-6.965c-20.718,-6.701 -27.908,-19.161 -25.618,-43.2c2.086,-21.904 21.535,-30.811 21.426,-52.819" style="fill:#2d5959;stroke:#000;stroke-width:1px;"/><path d="M423.537,163.05c-15.459,15.542 -39.219,11.992 -55.357,18.476c-5.013,2.014 -10.67,7.803 -14.165,11.332c-1.838,1.856 -7.014,6.163 -6.986,3.551c0.009,-0.766 9.591,-10.449 10.785,-12.205c8.723,-12.836 51.565,-10.68 62.957,-25.741c0.379,-0.501 2.766,4.587 2.766,4.587Z" style="fill:#2d5959;stroke:#000;stroke-width:1px;"/><path d="M601.982,138.734c18.247,-19.422 26.722,-11.81 47.417,-19.753c2.65,-1.017 16.288,-3.999 16.335,-8.308c0.003,-0.259 -11.606,-2.913 -12.536,-3.153c-15.796,-4.076 -34.997,-6.359 -49.987,2.753c-15.733,9.564 2.836,22.636 -4.788,30.336" style="fill:#2d5959;stroke:#000;stroke-width:1px;"/><path d="M553.684,124.294c2.681,-12.057 -7.165,-23.693 -20.273,-21.122c-2.928,0.574 -20.177,10.778 -24.032,14.671c-0.836,0.845 -1.729,1.549 -2.803,1.923c-0.499,0.175 -1.838,-0.6 -1.581,-0.138c0.597,1.07 4.291,0.522 5.145,0.274c4.789,-1.393 21.566,-2.433 23.846,-1.671c3.292,1.101 6.69,0.699 9.758,2.19c2.648,1.287 4.374,3.783 7.445,3.767" style="fill:#2d5959;stroke:#000;stroke-width:1px;"/></g><g><g><path d="M920.205,1041.72c-0.425,0.887 -21.278,25.865 -30.237,30.21c-27.095,13.141 -46.251,-2.886 -75.335,3.921c-23.555,5.513 -31.229,44.36 -53.148,50.89c-13.341,3.975 -51.068,-14.328 -69.157,-12.956c-13.997,1.062 -49.184,19.09 -65.868,15.472c-11.287,-2.448 -38.909,-13.485 -56.893,-4.165c-10.605,5.495 -30.709,20.139 -55.44,6.877c-12.174,-6.529 -24.852,-12.89 -36.902,-19.256c-21.42,-11.317 -42.232,5.998 -59.368,-11.784l-3.18,4.186c17.136,17.783 40.365,1.831 61.785,13.147c12.05,6.367 24.727,12.727 36.902,19.256c24.73,13.262 44.835,-1.382 55.44,-6.877c17.984,-9.319 45.606,1.718 56.893,4.165c16.683,3.618 51.87,-14.41 65.868,-15.471c18.089,-1.372 55.816,16.93 69.157,12.956c21.919,-6.53 29.593,-45.377 53.147,-50.89c29.085,-6.808 48.24,9.22 75.335,-3.921c9.944,-4.823 27.211,-26.851 31.508,-35.807" style="fill:#2d5959;stroke:#000;stroke-width:1px;"/></g><path d="M487.298,1125.31c-10.482,10.836 -20.03,10.667 -33.108,14.954c-0.973,0.319 -9.316,3.199 -9.343,3.068c-4.952,-24.697 27.697,-19.411 40.805,-19.168" style="fill:#2d5959;stroke:#000;stroke-width:1px;"/><path d="M422.634,1112.01c-11.079,1.409 -13.9,5.3 -23.892,7.469c-3.416,0.742 -12.901,-1.342 -16.316,-0.302c-0.425,0.13 -4.824,1.229 -4.815,1.237c0.551,0.534 0.839,-5.771 0.933,-6.009c1.455,-3.683 1.063,-9.428 6.45,-10.878c6.797,-1.829 21.214,1.942 27.197,4.867c1.478,0.723 6.905,2.771 8.383,1.465" style="fill:#2d5959;stroke:#000;stroke-width:1px;"/><path d="M395.692,1086.31c6.068,-18.766 6.27,-30.068 -5.67,-46.634c-2.897,-4.019 -6.391,-7.753 -8.513,-12.201c-0.724,-1.519 -1.108,-3.264 -1.625,-4.864c-0.29,-0.897 -0.206,-3.761 -0.224,-2.818c-0.21,11.382 -7.96,23.11 -5.74,34.95c2.163,11.54 10.864,23.822 18.576,31.824" style="fill:#2d5959;stroke:#000;stroke-width:1px;"/><path d="M440.996,1109.1c0,0 12.712,-23.323 3.613,-42.74c-0.625,-1.334 -2.733,-16.897 -2.627,-16.894c0.376,0.013 -4.374,5.208 -4.889,6.053c-2.669,4.383 -5.341,11.217 -6.478,16.308c-3.02,13.528 5.082,26.249 10.381,37.273Z" style="fill:#2d5959;stroke:#000;stroke-width:1px;"/><path d="M351.949,1078c-25.33,7.571 -23.538,12.504 -42.999,-0.796c-4.431,-3.027 -14.83,-24.32 -20.984,-24.589c-2.922,-0.128 24.195,-0.594 28.089,-0.34c12.975,0.846 27.846,25.795 32.704,25.885" style="fill:#2d5959;stroke:#000;stroke-width:1px;"/><path d="M350.108,1067.17c1.862,-12.949 -0.949,-18.841 -8.138,-29.487c-1.047,-1.55 -11.563,-14.6 -12.747,-11.941c-0.682,1.533 -0.67,15.42 -0.317,17.142c1.808,8.828 7.437,9.959 12.654,16.944c2.61,3.495 6.17,4.201 7.309,8.452" style="fill:#2d5959;stroke:#000;stroke-width:1px;"/><path d="M661.564,1121.68c12.9,-23.108 5.884,-54.58 -2.316,-77.298c-0.457,-1.267 -11.473,-34.643 -13.941,-29.853c-8.227,15.966 -26.888,41.697 -14.703,60.211c9.171,13.934 38.764,28.807 28.816,47.95" style="fill:#2d5959;stroke:#000;stroke-width:1px;"/><path d="M792.295,1099.74c20.293,-1.839 33.896,-11.817 56.308,-3.848c5.192,1.846 9.984,4.959 14.801,7.48c2.113,1.106 8.468,-0.427 7.005,1.456c-3.115,4.01 -13.035,4.551 -17.521,6.257c-11.314,4.303 -23.867,12.559 -36.236,6.085c-5.491,-2.874 -8.422,-9.484 -14.423,-11.67c-3.308,-1.205 -13.14,-1.352 -15.398,-3.695" style="fill:#2d5959;stroke:#000;stroke-width:1px;"/><path d="M837.393,1075.61c0.494,-26.691 28.053,-29.702 46.853,-40.472c3.775,-2.163 8.433,-4.05 11.007,-7.761c0.35,-0.504 3.215,-7.629 4.468,-6.973c1.247,0.652 0.407,5.641 0.384,6.876c-0.136,7.314 -0.637,15.182 -5.187,21.064c-10.643,13.755 -21.401,12.982 -36.471,16.51c-5.288,1.237 -21.054,10.756 -21.054,10.756Z" style="fill:#2d5959;stroke:#000;stroke-width:1px;"/><path d="M911.201,1051.99c21.25,3.173 41.691,0.719 57.96,-14.892c4.798,-4.604 8.575,-11.757 12.379,-17.228c1.299,-1.869 2.889,-4.643 4.783,-5.999c0.961,-0.688 4.547,-1.223 3.468,-0.738c-8.785,3.943 -21.085,-1.006 -30.486,0.396c-6.039,0.901 -10.498,3.377 -15.989,5.888c-8.051,3.683 -15.137,18.44 -18.916,25.774c-1.287,2.497 -6.974,6.186 -9.586,3.476" style="fill:#2d5959;stroke:#000;stroke-width:1px;"/><path d="M704.216,1113.8c0,0 55.924,-4.426 70.783,-47.534c1.895,-5.498 9.032,-8.523 13.904,-11.563c0.795,-0.496 6.009,-2.222 6.03,-2.825c0,-0.015 -4.622,1.457 -4.991,1.49c-5.149,0.459 -10.247,1.391 -15.426,1.295c-12.294,-0.227 -30.805,-3.586 -41.003,4.245c-16.571,12.725 -12.277,28.244 -20.145,43.513c-1.092,2.12 -5.983,11.438 -9.152,11.379Z" style="fill:#2d5959;stroke:#000;stroke-width:1px;"/><path d="M661.678,1126.26c0,0 31.757,0.071 42.188,6.575c12.312,7.677 23.423,19.738 21.541,20.452c-4.225,1.606 -35.827,-0.209 -40.165,-2.479c-10.051,-5.26 -9.276,-24.284 -23.564,-24.548Z" style="fill:#2d5959;stroke:#000;stroke-width:1px;"/><path d="M502.143,1123.89c4.225,-0.572 8.459,-1.084 12.676,-1.716c23.441,-3.508 -6.857,-35.861 -9.933,-42.604c-3.087,-6.766 -4.047,-14.227 -6.986,-21.103c-0.845,-1.976 1.378,-5.429 -0.526,-6.425c-1.464,-0.766 -5.305,7.638 -5.943,8.661c-5.353,8.59 -8.89,19.483 -7.089,29.853c1.988,11.455 14.944,25.361 14.773,34.584" style="fill:#2d5959;stroke:#000;stroke-width:1px;"/><path d="M584.134,1121.89c2.072,-2.19 -1.295,-7.486 0.179,-9.658c15.09,-22.235 1.369,-43.724 10.261,-69.039c1.968,-5.601 3.277,-11.33 5.002,-16.955c0.816,-2.661 6.685,-5.13 4.597,-6.971c-0.149,-0.131 -16.18,6.076 -18.264,6.718c-20.806,6.419 -28.165,18.781 -26.202,42.849c1.789,21.93 21.116,31.1 20.708,53.104" style="fill:#2d5959;stroke:#000;stroke-width:1px;"/><path d="M417.904,1100.95c-15.247,-15.75 -39.052,-12.522 -55.101,-19.225c-4.986,-2.082 -10.564,-7.946 -14.011,-11.523c-1.812,-1.881 -6.929,-6.257 -6.936,-3.645c-0.002,0.766 9.447,10.578 10.617,12.35c8.549,12.953 51.417,11.379 62.603,26.592c0.372,0.506 2.828,-4.549 2.828,-4.549Z" style="fill:#2d5959;stroke:#000;stroke-width:1px;"/><path d="M596.002,1127.69c17.983,19.668 26.56,12.172 47.145,20.394c2.637,1.053 16.233,4.22 16.221,8.529c0,0.259 -11.644,2.755 -12.577,2.982c-15.85,3.862 -35.08,5.884 -49.945,-3.43c-15.602,-9.776 3.142,-22.595 -4.377,-30.398" style="fill:#2d5959;stroke:#000;stroke-width:1px;"/><path d="M547.514,1141.47c2.517,12.092 -7.486,23.593 -20.558,20.845c-2.92,-0.614 -20.029,-11.051 -23.831,-14.996c-0.824,-0.856 -1.708,-1.572 -2.776,-1.961c-0.497,-0.181 -1.847,0.575 -1.583,0.117c0.611,-1.062 4.297,-0.464 5.148,-0.204c4.769,1.458 21.531,2.726 23.821,1.994c3.306,-1.056 6.698,-0.608 9.787,-2.057c2.665,-1.251 4.425,-3.723 7.495,-3.667" style="fill:#2d5959;stroke:#000;stroke-width:1px;"/></g><rect x="335.907" y="329.028" width="595.077" height="12.499" style="fill:#ffed65;"/><rect x="334.772" y="936.863" width="595.077" height="12.499" style="fill:#ffed65;"/></g></svg>