<?xml version="1.0" encoding="UTF-8" standalone="no"?><!DOCTYPE svg PUBLIC "-//W3C//DTD SVG 1.1//EN" "http://www.w3.org/Graphics/SVG/1.1/DTD/svg11.dtd"><svg width="100%" height="100%" viewBox="0 0 407 463" version="1.1" xmlns="http://www.w3.org/2000/svg" xmlns:xlink="http://www.w3.org/1999/xlink" xml:space="preserve" style="fill-rule:evenodd;clip-rule:evenodd;stroke-linecap:round;stroke-linejoin:round;stroke-miterlimit:1.5;"><rect id="Artboard1" x="0" y="0" width="406.623" height="462.963" style="fill:none;"/><circle cx="193.004" cy="223.092" r="161.007" style="fill:#2ea7b8;"/><g><path d="M170.831,217.995c0.08,3.747 5.224,25.717 2.57,28.376l0.435,-0.385c-8.922,4.758 -11.938,6.71 -15.296,17.053c-0.527,1.624 -1.055,4.833 -0.26,6.453c1.625,3.309 17.48,7.166 21.209,8.174c21.86,5.909 45.811,12.261 68.116,5.54c1.806,-0.544 4.359,-0.908 5.855,-2.19c2.263,-1.94 2.282,-5.195 3.534,-7.768c3.531,-7.256 5.083,-16.207 1.648,-23.457c-0.992,-2.095 -6.273,-5.113 -10.811,-8.812c-7.061,-5.755 -11.018,-12.14 -13.334,-19.783c-1.296,-4.274 -2.147,-8.852 -2.929,-13.696c-0.153,-0.949 0.151,-5.195 0,-6.164l-1.336,4.24c-13.18,2.381 -22.514,13.357 -34.955,17.499c-2.593,0.863 -5.687,1.371 -8.714,1.503c-1.905,0.083 -3.784,0.018 -5.495,-0.2c-2.338,-0.299 -2.801,-4.297 -5.007,-3.182c-1.069,0.54 -2.132,-1.395 -1.101,-1.395" style="fill:#d9a993;stroke:#000;stroke-width:0.3px;"/><path d="M170.831,217.995c0.08,3.747 5.224,25.717 2.57,28.376l0.435,-0.385c-8.922,4.758 -11.938,6.71 -15.296,17.053c-0.527,1.624 -1.055,4.833 -0.26,6.453c1.625,3.309 17.48,7.166 21.209,8.174c21.86,5.909 45.811,12.261 68.116,5.54c1.806,-0.544 4.359,-0.908 5.855,-2.19c2.263,-1.94 2.282,-5.195 3.534,-7.768c3.531,-7.256 5.083,-16.207 1.648,-23.457c-0.992,-2.095 -6.273,-5.113 -10.811,-8.812c-7.061,-5.755 -11.018,-12.14 -13.334,-19.783c-1.296,-4.274 -2.147,-8.852 -2.929,-13.696c-0.153,-0.949 0.151,-5.195 0,-6.164l-1.336,4.24c-13.18,2.381 -22.514,13.357 -34.955,17.499c-2.593,0.863 -5.687,1.371 -8.714,1.503c-1.905,0.083 -3.784,0.018 -5.495,-0.2c-2.338,-0.299 -2.801,-4.297 -5.007,-3.182c-1.069,0.54 -2.132,-1.395 -1.101,-1.395" style="fill:#d9a993;fill-opacity:0.364706;stroke:#a27a67;stroke-width:1px;"/><path d="M257.802,248.496c0,0 -2.138,15.138 -5.711,20.207c-12.754,18.095 -44.368,13.959 -62.518,8.511c-5.447,-1.635 -13.506,-1.943 -18.13,-5.168c-4.646,-3.24 -13.687,-16.933 -15.719,-17.968c-1.226,-0.624 -3.784,-0.414 -5.094,-0.263c-6.886,0.793 -14.961,1.626 -21.405,4.21c-2.015,0.808 -9.657,6.711 -11.051,8c-7.427,6.873 -10.654,30.969 -10.17,31.687c1.527,2.263 2.337,4.048 4.673,5.609c6.815,4.556 45.63,12.608 52.404,12.616c23.56,0.027 47.12,0.004 70.68,-0.049c2.82,-0.006 25.935,-8.259 29.336,-10.567c3.306,-2.245 22.033,-8.666 24.366,-10.774c3.402,-3.075 7.448,-3.699 11.428,-36.522c0.55,-4.541 -37.37,-9.529 -43.089,-9.529Z" style="fill:#dbfaff;"/><path d="M213.437,129.706c4.514,2.943 5.929,1.725 8.143,3.415c1.794,1.37 2.93,13.496 2.552,10.494c-1.283,-10.203 6.959,-14.839 9.48,-10.494c6.086,10.488 7.977,25.416 2.063,32.031c-5.731,6.408 1.748,23.799 -2.063,31.236c-1.425,2.782 -4.65,14.142 -5.63,16.467c-1.743,4.137 -9.967,15.918 -11.442,17.923c-6.665,9.059 -20.06,8.304 -22.253,6.416c-9.074,-7.813 -27.966,-19.296 -31.129,-25.697c-7.581,-15.341 -18.351,-30.385 -19.472,-46.345c-0.901,-12.82 -6.79,-14.976 0,-26.846c7.055,-12.333 30.548,-20.744 50.601,-21.199c13.442,-0.305 19.15,12.599 19.15,12.599Z" style="fill:#d9a993;stroke:#000;stroke-width:0.1px;"/><path d="M213.437,129.706c4.514,2.943 5.929,1.725 8.143,3.415c1.794,1.37 2.93,13.496 2.552,10.494c-1.283,-10.203 6.959,-14.839 9.48,-10.494c6.086,10.488 7.977,25.416 2.063,32.031c-5.731,6.408 1.748,23.799 -2.063,31.236c-1.425,2.782 -4.65,14.142 -5.63,16.467c-1.743,4.137 -9.967,15.918 -11.442,17.923c-6.665,9.059 -20.06,8.304 -22.253,6.416c-9.074,-7.813 -27.966,-19.296 -31.129,-25.697c-7.581,-15.341 -18.351,-30.385 -19.472,-46.345c-0.901,-12.82 -6.79,-14.976 0,-26.846c7.055,-12.333 30.548,-20.744 50.601,-21.199c13.442,-0.305 19.15,12.599 19.15,12.599Z" style="fill:#d9a993;fill-opacity:0.247059;stroke:#a27a67;stroke-width:0.95px;"/><path d="M162.33,177.481c-1.972,0.886 -6.84,5.45 -7.11,5.72" style="fill:none;stroke:#000;stroke-width:2px;"/><path d="M195.001,172.052c0.22,-0.499 0.534,-1.185 0.698,-1.724c0.166,-0.545 2.606,-3.949 3.739,-4.496c0.439,-0.212 2.243,-1.912 5.878,-2.852" style="fill:none;stroke:#000;stroke-width:1px;"/><path d="M161.564,177.685c-1.009,0 -6.661,6.096 -6.225,5.969c3.503,-1.018 11.553,-1.733 14.003,-4.071c0.491,-0.468 1.069,-0.517 1.339,-0.601c1.885,-0.592 4.106,-0.511 6.155,-0.511l0.341,0.036c-2.361,-0.856 -4.549,-1.198 -6.965,-1.714c-1.268,-0.271 -2.522,-0.6 -3.826,-0.6c-1.206,0 -3.007,-0.136 -4.062,0.563c-0.62,0.41 -0.849,0.908 -1.348,1.407" style="fill:#fff;stroke:#000;stroke-width:0.24px;"/><path d="M167.964,176.111c-3.504,-0.447 -6.306,-0.403 -5.262,3.866c0.091,0.372 0.225,0.66 0.396,0.88c0.523,0.673 1.39,0.7 2.412,0.479c0.482,-0.104 3.684,-0.919 4.926,-2.436c1.303,-1.592 -1.333,-2.644 -2.472,-2.789Z" style="fill:#4b686c;"/><path d="M167.964,176.111c-3.504,-0.447 -6.306,-0.403 -5.262,3.866c0.091,0.372 0.225,0.66 0.396,0.88c0.523,0.673 2.64,0.221 3.661,0c0.483,-0.104 1.695,-1.183 3.677,-1.957c1.916,-0.749 -1.333,-2.644 -2.472,-2.789Z" style="fill:none;stroke:#244347;stroke-opacity:0.509804;stroke-width:0.9px;"/><path d="M197.3,179.755c-3.493,-4.727 2.422,-5.358 4.991,-6.185c2.264,-0.728 10.467,-0.892 13.478,-4.887c0.319,-0.422 1.258,-1.071 1.258,-1.661" style="fill:none;stroke:#000;stroke-width:0.24px;"/><path d="M197.3,179.755c-3.493,-4.727 2.422,-5.358 4.991,-6.185c2.264,-0.728 10.467,-0.892 13.478,-4.887c0.319,-0.422 1.258,-1.071 1.258,-1.661" style="fill:none;stroke:#ba917f;stroke-opacity:0.286275;stroke-width:3.5px;"/><path d="M176.992,183.289c-6.082,0 -11.176,4.606 -19.619,4.606" style="fill:none;stroke:#000;stroke-width:0.24px;"/><path d="M176.992,183.289c-6.082,0 -11.176,4.606 -19.619,4.606" style="fill:none;stroke:#ba917f;stroke-opacity:0.443137;stroke-width:4.5px;"/><path d="M175.757,174.194c8.26,0 8.833,35.469 18.401,30.383c0.583,-0.309 0.393,-0.789 1.367,-0.726c0.829,0.053 1.432,-1.092 2.217,-1.904c0.671,-0.694 2.463,-2.231 3.113,-2.835c1.638,-1.521 2.532,-2.328 3.567,-4.466c1.688,-3.49 -2.875,-4.468 -2.875,-5.757" style="fill:none;stroke:#000;stroke-width:0.24px;"/><path d="M175.757,174.194c8.26,0 8.833,35.469 18.401,30.383c0.583,-0.309 0.393,-0.789 1.367,-0.726c0.829,0.053 1.432,-1.092 2.217,-1.904c0.671,-0.694 2.463,-2.231 3.113,-2.835c1.638,-1.521 2.532,-2.328 3.567,-4.466c1.688,-3.49 -2.875,-4.468 -2.875,-5.757" style="fill:none;stroke:#a27a67;stroke-opacity:0.32549;stroke-width:0.6px;"/><path d="M196.064,195.273c0,-1.8 1.795,-5.357 3.284,-5.357" style="fill:none;stroke:#000;stroke-width:0.24px;"/><path d="M196.064,195.273c0,-1.8 1.795,-5.357 3.284,-5.357" style="fill:none;stroke:#a27a67;stroke-opacity:0.411765;stroke-width:1px;"/><path d="M182.351,195.313c0,6.93 0.971,7.813 6.778,7.813" style="fill:none;stroke:#000;stroke-width:0.24px;"/><path d="M182.351,195.313c0,6.93 0.626,7.813 6.433,7.813" style="fill:none;stroke:#a27a67;stroke-opacity:0.278431;stroke-width:1.5px;"/><path d="M204.308,189.86c2.502,0 4.328,0.506 6.572,1.412c3.297,1.33 6.124,4.583 10.045,3.818c1.452,-0.284 4.73,-3.171 5.133,-4.821c0.173,-0.711 0.525,-1.625 0.525,-2.339c0,-0.249 -0.085,-1.481 0.085,-1.481" style="fill:none;stroke:#000;stroke-width:0.24px;"/><path d="M204.308,189.86c2.502,0 4.328,0.506 6.572,1.412c3.297,1.33 6.124,4.583 10.045,3.818c1.452,-0.284 4.73,-3.171 5.133,-4.821c0.173,-0.711 0.525,-1.625 0.525,-2.339c0,-0.249 -0.085,-1.481 0.085,-1.481" style="fill:none;stroke:#a58170;stroke-opacity:0.176471;stroke-width:5.5px;"/><path d="M180.048,198.89c0,3.113 -0.55,6.702 -2.963,8.956c-1.758,1.642 -4.792,2.299 -7.907,2.901c-1.976,0.382 -3.701,-0.059 -5.533,-0.845c-0.843,-0.362 -1.698,-0.478 -2.594,-0.478c-0.014,0 -0.083,0 -0.044,0" style="fill:none;stroke:#000;stroke-width:0.24px;"/><path d="M180.048,198.89c0,3.113 -0.55,6.702 -2.963,8.956c-1.758,1.642 -4.792,2.299 -7.907,2.901c-1.976,0.382 -3.701,-0.059 -5.533,-0.845c-0.843,-0.362 -1.698,-0.478 -2.594,-0.478c-0.014,0 -0.083,0 -0.044,0" style="fill:none;stroke:#a58170;stroke-opacity:0.235294;stroke-width:4px;"/><g><path d="M180.289,209.804c6.205,-1.424 15.78,-1.074 15.859,-1.154c0.414,-0.425 6.644,-5.234 11.199,-7.316c1.569,-0.717 3.475,-0.716 5.197,-1.084c1.602,-0.343 3.282,-0.479 4.852,-0.885c0.078,-0.02 0.614,-0.002 0.612,-0.131c-0.004,-0.291 -1.638,0.615 -1.678,0.642c-0.593,0.401 -1.198,0.816 -1.704,1.328c-2.254,2.284 -2.65,5.7 -4.228,8.34c-4.261,7.126 -4.547,8.941 -13.404,10.438c-2.108,0.356 -4.91,0.503 -7.04,0.089c-2.472,-0.48 -3.958,-2.408 -5.98,-3.764c-1.659,-1.113 -2.913,-2.844 -4.948,-3.493c-0.715,-0.228 -1.357,-0.822 -2.013,-1.156c-0.223,-0.113 -0.808,-0.041 -0.698,-0.268c0.448,-0.927 3.005,-1.364 3.974,-1.586Z" style="fill:#d48090;stroke:#000;stroke-width:0.24px;"/><path d="M180.289,209.804c6.205,-1.424 15.78,-1.074 15.859,-1.154c0.414,-0.425 6.644,-5.234 11.199,-7.316c1.569,-0.717 3.475,-0.716 5.197,-1.084c1.602,-0.343 3.282,-0.479 4.852,-0.885c0.078,-0.02 0.614,-0.002 0.612,-0.131c-0.004,-0.291 -1.638,0.615 -1.678,0.642c-0.593,0.401 -1.198,0.816 -1.704,1.328c-2.254,2.284 -2.65,5.7 -4.228,8.34c-4.261,7.126 -4.547,8.941 -13.404,10.438c-2.108,0.356 -4.91,0.503 -7.04,0.089c-2.472,-0.48 -3.958,-2.408 -5.98,-3.764c-1.659,-1.113 -2.913,-2.844 -4.948,-3.493c-0.715,-0.228 -1.357,-0.822 -2.013,-1.156c-0.223,-0.113 -0.808,-0.041 -0.698,-0.268c0.448,-0.927 3.005,-1.364 3.974,-1.586Z" style="fill:#d46f90;stroke:#000;stroke-opacity:0.258824;stroke-width:0.24px;"/><path d="M180.289,209.804c6.205,-1.424 15.78,-1.074 15.859,-1.154c0.414,-0.425 6.644,-5.234 11.199,-7.316c1.569,-0.717 3.475,-0.716 5.197,-1.084c1.602,-0.343 3.282,-0.479 4.852,-0.885c0.078,-0.02 0.614,-0.002 0.612,-0.131c-0.004,-0.291 -1.638,0.615 -1.678,0.642c-0.593,0.401 -1.198,0.816 -1.704,1.328c-2.254,2.284 -2.65,5.7 -4.228,8.34c-4.261,7.126 -4.547,8.941 -13.404,10.438c-2.108,0.356 -4.91,0.503 -7.04,0.089c-2.472,-0.48 -3.958,-2.408 -5.98,-3.764c-1.659,-1.113 -2.913,-2.844 -4.948,-3.493c-0.715,-0.228 -1.357,-0.822 -2.013,-1.156c-0.223,-0.113 -0.808,-0.041 -0.698,-0.268c0.448,-0.927 3.005,-1.364 3.974,-1.586Z" style="fill:none;stroke:url(#_Radial1);stroke-width:1.5px;"/><path d="M209.277,206.764c0,0 -4.788,6.976 -7.964,8.079c-2.029,0.705 -7.621,1.656 -12.764,0.436c-0.689,-0.164 -5.175,-2.956 -6.01,-2.956c-0.208,0 1.473,-0.758 2.014,-0.808c5.481,-0.508 9.612,0.479 13.948,-1.294c3.61,-1.476 7.564,-7.173 10.7,-8.079c3.44,-0.994 3.89,-1.954 4.525,-1.307c0.061,0.062 -4.449,5.8 -4.449,5.929Z" style="fill:#d48090;stroke:#000;stroke-width:0.24px;"/><path d="M209.277,206.764c0,0 -4.788,6.976 -7.964,8.079c-2.029,0.705 -7.621,1.656 -12.764,0.436c-0.689,-0.164 -5.175,-2.956 -6.01,-2.956c-0.208,0 1.473,-0.758 2.014,-0.808c5.481,-0.508 9.612,0.479 13.948,-1.294c3.61,-1.476 7.564,-7.173 10.7,-8.079c3.44,-0.994 3.89,-1.954 4.525,-1.307c0.061,0.062 -4.449,5.8 -4.449,5.929Z" style="fill:#7e6357;stroke:#000;stroke-width:0.24px;"/><path d="M209.277,206.764c0,0 -4.788,6.976 -7.964,8.079c-2.029,0.705 -7.621,1.656 -12.764,0.436c-0.689,-0.164 -5.175,-2.956 -6.01,-2.956c-0.208,0 1.473,-0.758 2.014,-0.808c5.481,-0.508 9.612,0.479 13.948,-1.294c3.61,-1.476 7.564,-7.173 10.7,-8.079c3.44,-0.994 3.89,-1.954 4.525,-1.307c0.061,0.062 -4.449,5.8 -4.449,5.929Z" style="fill:#7e6357;stroke:#000;stroke-width:0.24px;"/><path d="M209.277,206.764c0,0 -4.788,6.976 -7.964,8.079c-2.029,0.705 -7.621,1.656 -12.764,0.436c-0.689,-0.164 -5.175,-2.956 -6.01,-2.956c-0.208,0 1.473,-0.758 2.014,-0.808c5.481,-0.508 9.612,0.479 13.948,-1.294c3.61,-1.476 7.564,-7.173 10.7,-8.079c3.44,-0.994 3.89,-1.954 4.525,-1.307c0.061,0.062 -4.449,5.8 -4.449,5.929Z" style="fill:none;stroke:url(#_Radial2);stroke-width:2px;"/><path d="M209.277,206.764c0,0 -4.788,6.976 -7.964,8.079c-2.029,0.705 -7.621,1.656 -12.764,0.436c-0.377,-0.09 -3.112,-1.891 -3.996,-2.886c-0.732,-0.822 0.378,-0.878 0,-0.878c-0.208,0 -0.541,0.05 0,0c5.481,-0.508 9.612,0.479 13.948,-1.294c3.61,-1.476 8.005,-7.486 10.776,-8.079c0.233,-0.05 1.217,-0.612 1.382,-0.282c0.182,0.367 0.503,0.726 0.727,1.046c0.206,0.293 0.33,0.553 0.192,0.754c-0.029,0.041 -2.301,3.023 -2.301,3.104Z" style="fill:#fff;stroke:#000;stroke-width:0.24px;"/></g><path d="M195.382,172.177c-0.083,0 0.165,0 0.248,0c0.157,0 0.231,-0.041 0.379,-0.084c0.385,-0.113 0.785,-0.295 1.154,-0.446c1.185,-0.485 2.273,-1.325 3.553,-1.559c3.494,-0.638 6.387,-1.864 9.062,-4.244c0.758,-0.674 1.085,-2.229 1.767,-2.934c0.089,-0.092 0.721,-0.556 0.721,-0.61l0.161,-0.339c-3.9,0 -10.006,1.556 -11.789,2.891c-0.15,0.112 -0.315,0.23 -0.493,0.358c-0.722,0.518 -1.649,1.194 -2.561,2.28c-0.862,1.028 -1.711,2.422 -2.357,4.395" style="fill:#fff;stroke:#000;stroke-width:0.24px;"/><path d="M190.765,165.715c0,-6.492 7.429,-9.928 12.494,-12.261c1.484,-0.684 4.633,-0.221 6.36,-0.221c1.135,0 6.84,-0.058 7.342,0.397c0.154,0.14 -1.087,0.529 -1.211,0.574c-1.065,0.381 1.154,0 0,0c-3.197,0 -10.039,-0.275 -12.491,1.53c-4.773,3.514 -4.691,2.911 -8.025,5.908c-0.693,0.623 -2.663,6.098 -4.038,5.475c-0.345,-0.157 -0.165,-1.452 -0.165,-1.82" style="fill:#7d4d49;stroke:#000;stroke-width:0.24px;"/><path d="M190.765,165.715c0,-6.492 7.429,-9.928 12.494,-12.261c1.484,-0.684 4.633,-0.221 6.36,-0.221c1.135,0 6.84,-0.058 7.342,0.397c0.154,0.14 -1.087,0.529 -1.211,0.574c-1.065,0.381 1.154,0 0,0c-3.197,0 -10.039,-0.275 -12.491,1.53c-4.773,3.514 -4.691,2.911 -8.025,5.908c-0.693,0.623 -2.663,6.098 -4.038,5.475c-0.345,-0.157 -0.165,-1.452 -0.165,-1.82" style="fill:#7e6357;stroke:#000;stroke-opacity:0.462745;stroke-width:0.24px;"/><path d="M190.765,165.715c0,-6.492 7.429,-9.928 12.494,-12.261c1.484,-0.684 4.633,-0.221 6.36,-0.221c1.135,0 6.84,-0.058 7.342,0.397c0.154,0.14 -1.087,0.529 -1.211,0.574c-1.065,0.381 1.154,0 0,0c-3.197,0 -10.039,-0.275 -12.491,1.53c-4.773,3.514 -4.691,2.911 -8.025,5.908c-0.693,0.623 -2.663,6.098 -4.038,5.475c-0.345,-0.157 -0.431,-1.402 -0.431,-1.402Z" style="fill:none;stroke:#a27a67;stroke-opacity:0.890196;stroke-width:1px;"/><path d="M176.192,172.037c-2.818,0 -4.936,-1.071 -7.492,-1.727c-3.983,-1.02 -10.796,-0.722 -14.135,1.487c-1.082,0.716 -6.522,6.626 -4.715,5.51c3.297,-2.034 6.432,-4.39 7.778,-4.8c3.843,-1.171 8.745,-0.202 11.072,0c3.022,0.262 3.06,0 4.786,0c0.987,0 1.937,-0.53 0.952,-0.53" style="fill:#7e6357;stroke:#000;stroke-opacity:0.313726;stroke-width:0.24px;"/><path d="M175.777,172.28c-2.817,0 -4.935,-1.071 -7.492,-1.726c-3.982,-1.021 -10.795,-0.722 -14.134,1.486c-1.083,0.716 -6.523,6.626 -4.716,5.511c3.297,-2.035 6.433,-4.391 7.778,-4.801c3.843,-1.171 8.745,-0.201 11.072,0c3.023,0.262 3.06,0 4.786,0c0.987,0 1.938,-0.53 0.952,-0.53" style="fill:#7e6357;stroke:#a27a67;stroke-opacity:0.537255;stroke-width:1.5px;"/><path d="M174.285,224.744c-4.216,-7.563 -12.424,-16.135 -15.427,-21.75c-16.712,-31.245 -13.516,-36.719 -14.355,-43.802c-1.412,-11.928 1.554,-15.087 3.683,-18.498c2.51,-4.022 11.503,-7.058 19.986,-9.89c10.373,-3.463 21.823,-10.429 25.353,-11.013c13.123,-2.173 19.742,15.202 26.46,18.09c0.624,0.268 1.445,1.228 2.258,2.391c2.124,3.035 4.565,7.768 2.988,4.845c-2.614,-4.845 1.081,-8.882 2.981,-11.889c5.713,-9.042 8.811,31.457 3.503,35.878c-1.654,1.378 0.539,5.825 1.688,7.932c0.238,0.437 11.878,-10.96 7.305,-39.157c-0.635,-3.917 -1.659,-8.238 -4.115,-11.62c-2.027,-2.791 -6.269,-3.61 -8.381,-6.47c-2.43,-3.291 -5.652,-13.993 -8.227,-15.932c-3.716,-2.798 -8.438,-3.405 -12.731,-5.049c-1.498,-0.574 -2.685,-1.768 -4.103,-2.489c-3.346,-1.704 -14.84,-3.705 -17.612,-0.928l0.554,-0.048c-12.763,-4.746 -28.935,1.436 -39.603,9.391c-1.648,1.229 -2.608,3.318 -4.031,4.773c-3.624,3.706 -6.926,7.204 -10.181,11.236c-2.037,2.523 -5.311,6.169 -5.793,9.483c-1.308,9 -3.184,17.808 -1.638,27.298c0.388,2.381 2.736,13.095 4.229,20.245c0.817,3.907 -3.006,7.648 -4.236,11.401c-1.469,4.477 -2.037,9.255 -2.907,13.822c-0.596,3.134 1.91,6.515 2.185,9.725c0.553,6.449 -1.065,25.015 0.301,29.064c0.699,2.072 1.774,2.57 2.029,5.182c0.415,4.254 -0.078,8.633 -0.553,12.808c-0.414,3.63 -2.35,6.818 -1.713,10.727c0.555,3.402 5.006,4.751 6.1,8.308c0.983,3.196 -0.839,7.465 0.181,10.49c0.294,0.871 1.593,1.469 1.593,2.481l-0.301,1.134c0.203,6.528 -6.815,8.658 -7.99,14.411c-1.732,8.486 3.457,16.684 1.75,25.047c-0.517,2.534 -3.445,5.203 -2.625,8.26c0.536,1.995 2.352,2.747 2.752,5.206c0.536,3.287 1.592,13.69 1.021,17.004c-0.033,0.191 -0.358,1.442 -0.075,1.635c2.877,1.953 6.089,-2.521 8.954,-1.553c1.234,0.417 2.99,1.874 3.702,-0.535c0.749,-2.535 0.591,-5.653 1.18,-8.286c0.702,-3.145 2.868,-6.218 4.079,-9.17c1.212,-2.952 1.357,-6.182 2.576,-9.075c1.213,-2.878 3.334,-5.443 4.307,-8.414c1.418,-4.324 5.596,-5.943 7.472,-9.463c0.799,-1.501 1.837,-3.006 2.52,-4.558c0.273,-0.621 0.476,-2.664 0.476,-1.983c0,6.505 0.798,13.545 0,20.004c-0.45,3.637 -1.622,6.958 -1.622,10.71c0,1.923 -2.272,7.601 -0.753,9.219c0.092,0.098 1.358,-2.482 1.451,-2.616c1.834,-2.625 4.142,-5.202 4.92,-8.401c0.679,-2.792 -1.006,-4.948 -1.31,-7.651c-1.087,-9.676 2.465,-18.579 3.632,-28.132c0.943,-7.715 4.393,-30.596 2.488,-38.329c-1.331,-5.405 -11.442,-13.969 -5.121,-14.082c10.567,-0.19 12.959,-19.859 8.746,-27.417Z" style="fill:url(#_Radial3);stroke:#826253;stroke-width:0.24px;"/><path d="M169.363,218.863c-5.012,-6.949 -6.251,-9.723 -11.082,-14.861c-2.381,-2.531 -5.278,-6.833 -6.674,-9.359c-2.813,-5.09 -4.371,-9.232 -5.951,-13.006c-2.487,-5.942 -3.894,-10.512 -4.649,-14.124c-0.959,-4.595 -0.861,-7.64 -0.583,-9.987c0.424,-3.585 0.897,-8.135 1.482,-10.809c0.899,-4.109 1.981,-5.695 2.92,-7.412c4.363,-7.972 15.446,-7.306 23.346,-9.944c10.373,-3.463 21.823,-8.986 25.353,-9.57c13.123,-2.173 19.742,15.202 26.46,18.09c0.624,0.268 1.445,1.228 2.258,2.391c2.124,3.035 4.565,7.768 2.988,4.845c-2.614,-4.845 1.081,-8.882 2.981,-11.889c5.713,-9.042 10.097,33.818 3.503,35.878c-2.253,0.704 0.467,5.715 1.616,7.822c0.238,0.437 11.95,-10.85 7.377,-39.047c-0.635,-3.917 -1.659,-8.238 -4.115,-11.62c-2.027,-2.791 -6.269,-3.61 -8.381,-6.47c-2.43,-3.291 -5.652,-13.993 -8.227,-15.932c-3.716,-2.798 -8.438,-3.405 -12.731,-5.049c-1.498,-0.574 -2.685,-1.768 -4.103,-2.489c-3.346,-1.704 -14.84,-3.705 -17.612,-0.928l0.554,-0.048c-12.763,-4.746 -28.935,1.436 -39.603,9.391c-1.648,1.229 -2.608,3.318 -4.031,4.773c-3.624,3.706 -6.926,7.204 -10.181,11.236c-2.037,2.523 -5.311,6.169 -5.793,9.483c-1.308,9 -3.184,17.808 -1.638,27.298c0.388,2.381 2.736,13.095 4.229,20.245c0.817,3.907 -3.006,7.648 -4.236,11.401c-1.469,4.477 -2.037,9.255 -2.907,13.822c-0.596,3.134 1.91,6.515 2.185,9.725c0.553,6.449 -1.065,25.015 0.301,29.064c0.699,2.072 1.774,2.57 2.029,5.182c0.415,4.254 -0.078,8.633 -0.553,12.808c-0.414,3.63 -2.35,6.818 -1.713,10.727c0.555,3.402 5.006,4.751 6.1,8.308c0.983,3.196 -0.839,7.465 0.181,10.49c0.294,0.871 1.593,1.469 1.593,2.481l-0.301,1.134c0.203,6.528 -6.815,8.658 -7.99,14.411c-1.732,8.486 3.457,16.684 1.75,25.047c-0.517,2.534 -3.445,5.203 -2.625,8.26c0.536,1.995 2.352,2.747 2.752,5.206c0.536,3.287 1.592,13.69 1.021,17.004c-0.033,0.191 -0.358,1.442 -0.075,1.635c2.877,1.953 6.089,-2.521 8.954,-1.553c1.234,0.417 2.99,1.874 3.702,-0.535c0.749,-2.535 0.591,-5.653 1.18,-8.286c0.702,-3.145 2.868,-6.218 4.079,-9.17c1.212,-2.952 1.357,-6.182 2.576,-9.075c1.213,-2.878 3.334,-5.443 4.307,-8.414c1.418,-4.324 7.668,-7.846 9.544,-11.367c0.8,-1.501 -0.235,-1.102 0.448,-2.654c0.273,-0.621 0.476,-2.664 0.476,-1.983c0,6.505 -2.775,14.474 -3.573,20.932c-0.449,3.638 -3.64,14.767 -2.122,16.385c0.092,0.097 2.029,5.48 2.122,5.346c1.834,-2.625 6.791,-10.548 7.569,-13.747c0.679,-2.792 -1.006,-4.948 -1.31,-7.651c-1.087,-9.676 2.465,-18.579 3.632,-28.132c0.943,-7.715 4.393,-30.596 2.488,-38.329c-1.331,-5.405 -6.898,-7.905 -5.121,-14.082c0.691,-2.403 3.398,-8.101 5.14,-14.542c1.41,-5.216 2.174,-13.918 -1.316,-18.756Z" style="fill:url(#_Radial4);stroke:#a27a67;stroke-width:0.24px;"/><path d="M161.854,241.783c-5.012,-6.949 2.456,-17.783 -2.375,-22.92c-2.381,-2.532 -6.696,-9.312 -8.093,-11.838c-2.812,-5.09 -10.563,-14.08 -12.142,-17.853c-5.651,-13.503 -5.878,-38.755 -3.702,-44.055c1.747,-4.254 3.942,-10.173 4.882,-11.889c4.362,-7.973 19.848,-4.329 27.748,-6.967c10.373,-3.463 21.823,-5.886 25.353,-6.47c13.123,-2.173 19.742,15.202 26.46,18.09c0.624,0.268 1.445,1.228 2.258,2.391c2.124,3.035 4.565,7.768 2.988,4.845c-2.614,-4.845 1.081,-8.882 2.981,-11.889c5.713,-9.042 10.097,33.818 3.503,35.878c-2.253,0.704 0.467,5.715 1.616,7.822c0.238,0.437 11.95,-10.85 7.377,-39.047c-0.635,-3.917 -1.659,-8.238 -4.115,-11.62c-2.027,-2.791 -6.269,-3.61 -8.381,-6.47c-2.43,-3.291 -5.652,-13.993 -8.227,-15.932c-3.716,-2.798 -8.438,-3.405 -12.731,-5.049c-1.498,-0.574 -2.685,-1.768 -4.103,-2.489c-3.346,-1.704 -14.84,-3.705 -17.612,-0.928l0.554,-0.048c-12.763,-4.746 -28.935,1.436 -39.603,9.391c-1.648,1.229 -2.608,3.318 -4.031,4.773c-3.624,3.706 -6.926,7.204 -10.181,11.236c-2.037,2.523 -5.311,6.169 -5.793,9.483c-1.308,9 -3.184,17.808 -1.638,27.298c0.388,2.381 2.736,13.095 4.229,20.245c0.817,3.907 -3.006,7.648 -4.236,11.401c-1.469,4.477 -2.037,9.255 -2.907,13.822c-0.596,3.134 1.91,6.515 2.185,9.725c0.553,6.449 -1.065,25.015 0.301,29.064c0.699,2.072 1.774,2.57 2.029,5.182c0.415,4.254 -0.078,8.633 -0.553,12.808c-0.414,3.63 -2.35,6.818 -1.713,10.727c0.555,3.402 5.006,4.751 6.1,8.308c0.983,3.196 -0.839,7.465 0.181,10.49c0.294,0.871 1.593,1.469 1.593,2.481l-0.301,1.134c0.203,6.528 -6.815,8.658 -7.99,14.411c-1.732,8.486 3.457,16.684 1.75,25.047c-0.517,2.534 -3.445,5.203 -2.625,8.26c0.536,1.995 2.352,2.747 2.752,5.206c0.536,3.287 1.592,13.69 1.021,17.004c-0.033,0.191 -0.358,1.442 -0.075,1.635c2.877,1.953 6.089,-2.521 8.954,-1.553c1.234,0.417 2.99,1.874 3.702,-0.535c0.749,-2.535 0.591,-5.653 1.18,-8.286c0.702,-3.145 4.854,-1.791 6.066,-4.744c1.211,-2.952 1.1,-5.834 2.319,-8.727c1.213,-2.878 2.986,-4.739 4.862,-8.26c0.8,-1.501 0.064,6.042 0,8.26c-0.264,9.101 4.273,12.88 3.498,8.727c-2.977,-15.959 11.5,-41.462 3.063,-42.034c-8.381,-0.569 0.096,-17.235 -1.374,-25.3c-0.999,-5.48 -9.249,-16.073 -7.472,-22.251c0.692,-2.403 13.958,-13.152 10.468,-17.99Z" style="fill:url(#_Radial5);"/><path d="M147.079,241.783c-5.012,-6.949 9.138,-16.437 4.307,-21.575c-2.38,-2.531 -10.746,-10.131 -12.142,-12.658c-2.813,-5.089 -5.386,-11.358 -6.966,-15.132c-5.651,-13.503 -3.991,-49.237 -1.815,-54.537c1.747,-4.254 7.841,-15.42 8.781,-17.136c4.363,-7.973 28.715,-6.163 37.041,-6.386c10.373,-0.279 9.251,5.432 18.308,5.432c13.302,0 18.674,15.202 25.392,18.09c0.624,0.268 1.445,1.228 2.258,2.391c2.124,3.035 4.565,7.768 2.988,4.845c-2.614,-4.845 1.081,-8.882 2.981,-11.889c5.713,-9.042 10.097,33.818 3.503,35.878c-2.253,0.704 0.467,5.715 1.616,7.822c0.238,0.437 11.95,-10.85 7.377,-39.047c-0.635,-3.917 -1.659,-8.238 -4.115,-11.62c-2.027,-2.791 -6.269,-3.61 -8.381,-6.47c-2.43,-3.291 -5.652,-13.993 -8.227,-15.932c-3.716,-2.798 -8.438,-3.405 -12.731,-5.049c-1.498,-0.574 -2.685,-1.768 -4.103,-2.489c-3.346,-1.704 -14.84,-3.705 -17.612,-0.928l0.554,-0.048c-12.763,-4.746 -28.935,1.436 -39.603,9.391c-1.648,1.229 -2.608,3.318 -4.031,4.773c-3.624,3.706 -6.926,7.204 -10.181,11.236c-2.037,2.523 -5.311,6.169 -5.793,9.483c-1.308,9 -6.098,16.533 -4.552,26.023c0.388,2.381 -0.536,13.528 0.957,20.677c0.817,3.908 3.18,8.491 1.95,12.244c-1.469,4.477 -2.037,9.255 -2.907,13.822c-0.596,3.134 1.91,6.515 2.185,9.725c0.553,6.449 -1.065,25.015 0.301,29.064c0.699,2.072 1.774,2.57 2.029,5.182c0.415,4.254 -0.078,8.633 -0.553,12.808c-0.414,3.63 -2.35,6.818 -1.713,10.727c0.555,3.402 5.006,4.751 6.1,8.308c0.983,3.196 -0.839,7.465 0.181,10.49c0.294,0.871 1.593,1.469 1.593,2.481l-0.301,1.134c0.203,6.528 -6.815,8.658 -7.99,14.411c-1.732,8.486 3.457,16.684 1.75,25.047c-0.517,2.534 -3.445,5.203 -2.625,8.26c0.536,1.995 2.352,2.747 2.752,5.206c0.536,3.287 1.592,13.69 1.021,17.004c-0.033,0.191 -0.358,1.442 -0.075,1.635c2.877,1.953 12.791,-21.366 13.836,-23.845c1.213,-2.878 3.106,-9.082 4.079,-12.053c1.418,-4.323 -0.139,-31.547 -2.044,-39.28c-1.331,-5.406 -3.812,-16.214 -2.035,-22.391c0.691,-2.403 10.145,-20.286 6.655,-25.124Z" style="fill:url(#_Radial6);"/><path d="M137.64,238.467c-5.012,-6.949 11.694,-10.292 6.863,-15.429c-2.38,-2.532 -9.243,-11.213 -10.639,-13.739c-2.813,-5.09 -0.006,-13.107 -1.586,-16.881c-5.651,-13.503 -3.991,-49.237 -1.815,-54.537c1.747,-4.254 8.782,-15.369 14.184,-15.695c8.061,-0.487 22.451,-5.008 30.777,-5.232c10.373,-0.278 10.115,2.615 19.169,2.837c8.016,0.197 12.654,1.905 15.661,4.669c5.102,4.689 6.513,11.604 10.739,13.421c0.367,0.157 1.548,6.101 2.814,8.795c0.894,1.904 2.234,1.211 1.581,0c-2.614,-4.845 0.924,-10.441 2.824,-13.448c5.713,-9.042 10.097,33.818 3.503,35.878c-2.253,0.704 0.467,5.715 1.616,7.822c0.238,0.437 11.95,-10.85 7.377,-39.047c-0.635,-3.917 -1.659,-8.238 -4.115,-11.62c-2.027,-2.791 -6.269,-3.61 -8.381,-6.47c-2.43,-3.291 -5.652,-13.993 -8.227,-15.932c-3.716,-2.798 -8.438,-3.405 -12.731,-5.049c-1.498,-0.574 -2.685,-1.768 -4.103,-2.489c-3.346,-1.704 -14.84,-3.705 -17.612,-0.928l0.554,-0.048c-12.763,-4.746 -28.935,1.436 -39.603,9.391c-1.648,1.229 -2.608,3.318 -4.031,4.773c-3.624,3.706 -6.926,7.204 -10.181,11.236c-2.037,2.523 -5.311,6.169 -5.793,9.483c-1.308,9 -3.184,17.808 -1.638,27.298c0.388,2.381 -0.446,12.253 1.048,19.402c0.816,3.908 1.998,9.022 0.768,12.774c-1.469,4.477 0.101,8.725 -0.768,13.292c-0.597,3.134 4.112,20.398 4.387,23.608c0.552,6.449 -1.296,9.086 1.473,15.181c1.768,3.891 2.584,9.392 2.109,13.567c-0.414,3.63 -4.219,9.237 -3.582,13.146c0.554,3.403 0.779,6.755 1.873,10.312c0.983,3.196 -0.705,8.547 1.709,10.636c2.947,2.552 4.95,12.127 3.776,17.88c-1.732,8.486 -11.947,10.905 -7.358,21.833c3.35,7.981 -3.048,30.37 -3.619,33.684c-0.033,0.191 -0.358,1.442 -0.075,1.635c2.877,1.953 12.474,-28.282 11.052,-31.066c-4.444,-8.697 4.688,-18.354 2.784,-26.086c-0.655,-2.659 0.751,-11.796 0,-21.207c-0.231,-2.885 -2.333,-4.56 -2.784,-7.309c-1.068,-6.515 -0.635,-13.358 0,-15.566c0.221,-0.768 2.406,-4.938 2.784,-7.892c0.803,-6.281 -0.41,-13.592 -2.784,-16.883Z" style="fill:url(#_Radial7);"/><path d="M209.066,164.236c-0.404,-2.256 -6.339,-0.868 -7.085,0c-2.829,3.294 1.379,5.862 4.626,3.759c1.544,-0.999 2.834,-1.659 2.459,-3.759Z" style="fill:#4b686c;stroke:#4b686c;stroke-width:0.65px;"/><path d="M209.066,164.236c-0.792,-1.92 -5.784,-0.935 -6.657,0c-2.964,3.173 0.951,5.862 4.198,3.759c1.544,-0.999 3.272,-1.786 2.459,-3.759Z" style="fill:none;stroke:#24383a;stroke-opacity:0.372549;stroke-width:0.65px;"/><path d="M202.535,164.984c-0.428,0.578 -0.038,2.182 0.953,2.512c1.29,0.431 2.747,0.386 3.416,-0.742c1.145,-1.927 -1.981,-4.999 -4.369,-1.77Z" style="stroke:#000;stroke-width:0.65px;"/><path d="M164.265,177.669c-0.373,0.571 -0.038,2.004 0.953,2.308c1.29,0.395 2.747,0.354 3.417,-0.683c1.144,-1.77 -2.388,-4.658 -4.37,-1.625Z" style="stroke:#000;stroke-width:0.65px;"/><path d="M204.279,164.354c-0.162,0.231 -0.307,0.407 -0.382,0.647c-0.126,0.403 -0.084,0.831 0.175,0.833c4.274,0.029 0.207,-1.48 0.207,-1.48Z" style="fill:#fff;stroke:#000;stroke-width:0.24px;"/><path d="M166.17,177.112c-0.162,0.231 -0.307,0.407 -0.382,0.647c-0.126,0.403 -0.084,0.831 0.175,0.833c4.274,0.029 0.207,-1.48 0.207,-1.48Z" style="fill:#fff;stroke:#000;stroke-width:0.24px;"/><path d="M188.893,171.038c-0.441,3.334 0.644,11.441 3.498,19.181c1.39,3.771 5.72,9.317 4.287,10.867" style="fill:none;stroke:#000;stroke-width:0.1px;"/><path d="M194.497,168.823c0.869,-1.966 2.015,-3.465 3.386,-4.397c2.721,-1.849 2.995,-1.483 4.822,-1.554c5.503,-0.214 10.746,-1.306 12.83,-3.612" style="fill:none;stroke:#000;stroke-width:0.95px;"/><path d="M194.497,168.535c0.865,-1.966 1.799,-3.888 3.369,-4.397c1.541,-0.499 2.98,-1.483 4.798,-1.554c5.476,-0.214 10.693,-1.307 12.767,-3.612" style="fill:none;stroke:#7e6357;stroke-opacity:0.505882;stroke-width:3px;"/><path d="M175.541,177.631c-2.948,0 -9.255,-2.636 -11.958,-1.28c-3.011,1.51 -7.094,5.813 -10.433,5.813" style="fill:none;stroke:#000;stroke-width:0.95px;"/><path d="M175.541,177.631c-2.948,0 -9.255,-2.636 -11.958,-1.28c-3.011,1.51 -7.094,5.813 -10.433,5.813" style="fill:none;stroke:#7e6357;stroke-opacity:0.25098;stroke-width:5px;"/><g><path d="M232.168,238.52c-0.648,6.363 -4.618,18.221 -2.643,25.967" style="fill:none;stroke:#000;stroke-width:0.1px;"/><path d="M232.168,238.52c-0.648,6.363 -4.618,18.221 -2.643,25.967" style="fill:none;stroke:#7e6357;stroke-opacity:0.243137;stroke-width:0.1px;"/><path d="M179.188,249.598c6.654,2.791 11.48,13.432 11.48,16.009" style="fill:none;stroke:#000;stroke-width:0.1px;"/><path d="M179.188,249.598c6.654,2.791 11.48,13.432 11.48,16.009" style="fill:none;stroke:#7e6357;stroke-opacity:0.14902;stroke-width:0.1px;"/><path d="M170.953,260.364c6.388,1.809 12.197,7.617 18.731,7.617" style="fill:none;stroke:#000;stroke-width:0.1px;"/><path d="M170.953,260.364c6.388,1.809 12.197,7.617 18.731,7.617" style="fill:none;stroke:#7e6357;stroke-opacity:0.188235;stroke-width:0.1px;"/><path d="M228.516,269.501c9.494,0.204 13.166,-5.89 16.755,-9.604" style="fill:none;stroke:#000;stroke-width:0.1px;"/><path d="M228.516,269.501c9.494,0.204 13.166,-5.89 16.755,-9.604" style="fill:none;stroke:#7e6357;stroke-opacity:0.203922;stroke-width:0.1px;"/></g><g><path d="M232.168,238.52c-0.648,6.363 -4.618,18.221 -2.643,25.967" style="fill:none;stroke:#7e6357;stroke-opacity:0.0392157;stroke-width:8.5px;"/><path d="M232.168,238.52c-0.648,6.363 -4.618,18.221 -2.643,25.967" style="fill:none;stroke:#7e6357;stroke-opacity:0.0392157;stroke-width:8.5px;"/><path d="M179.188,249.598c6.654,2.791 11.48,13.432 11.48,16.009" style="fill:none;stroke:#7e6357;stroke-opacity:0.0392157;stroke-width:8.5px;"/><path d="M179.188,249.598c6.654,2.791 11.48,13.432 11.48,16.009" style="fill:none;stroke:#7e6357;stroke-opacity:0.0392157;stroke-width:8.5px;"/><path d="M170.953,260.364c6.388,1.809 12.469,8.409 19.004,8.409" style="fill:none;stroke:#7e6357;stroke-opacity:0.0392157;stroke-width:8.5px;"/><path d="M228.516,269.501c9.494,0.204 13.166,-5.89 16.755,-9.604" style="fill:none;stroke:#7e6357;stroke-opacity:0.0392157;stroke-width:8.5px;"/><path d="M228.516,269.501c9.494,0.204 13.166,-5.89 16.755,-9.604" style="fill:none;stroke:#7e6357;stroke-opacity:0.0392157;stroke-width:8.5px;"/></g><path d="M223.848,194.293c5.545,7.953 -5.536,32.881 -6.766,35.84" style="fill:none;stroke:#7e6357;stroke-opacity:0.337255;stroke-width:1.5px;"/><path d="M185.852,230.715c-1.229,-2.783 -3.268,-4.921 -5.425,-6.699c-3.55,-2.927 -7.42,-4.878 -8.523,-7.125c-0.652,-1.328 -1.744,-4.03 -2.706,-5.01" style="fill:none;stroke:#ba917f;stroke-opacity:0.439216;stroke-width:2px;"/><path d="M182.809,221.661c-1.565,-1.987 -6.252,-5.586 -8.88,-5.586" style="fill:#ba917f;stroke:#000;stroke-opacity:0.192157;stroke-width:0.3px;"/><path d="M226.861,210.055c2.037,-10.281 1.939,-11.555 1.683,-18.996" style="fill:#ba917f;"/><path d="M220.897,153.865c1.835,2.127 4.113,4.451 5.32,6.908c1.226,2.498 1.632,7.28 3.587,9.269" style="fill:none;stroke:#000;stroke-width:0.2px;"/><path d="M220.897,153.865c1.835,2.127 4.113,4.451 5.32,6.908c1.226,2.498 1.632,7.28 3.587,9.269" style="fill:none;stroke:#7e6357;stroke-opacity:0.14902;stroke-width:3.5px;"/><g><path d="M227.832,142.931c4.288,-11.978 6.03,9.538 4.526,12.552c-0.792,1.586 0.756,4.238 -0.004,5.76c-0.482,0.968 -1.56,-0.331 -1.11,-1.255" style="fill:none;stroke:#000;stroke-width:0.15px;"/><path d="M229.546,148.43c1.195,2.679 2.12,4.426 2.12,7.343" style="fill:none;stroke:#000;stroke-width:0.15px;"/></g><g><path d="M227.832,142.931c4.288,-11.978 6.03,9.538 4.526,12.552c-0.792,1.586 0.756,4.238 -0.004,5.76c-0.482,0.968 -1.56,-0.331 -1.11,-1.255" style="fill:none;stroke:#a3775c;stroke-opacity:0.388235;stroke-width:2.5px;"/><path d="M229.546,148.43c1.195,2.679 2.12,4.426 2.12,7.343" style="fill:none;stroke:#a3775c;stroke-opacity:0.388235;stroke-width:2.5px;"/></g><path d="M187.654,211.574c0.293,1.243 0.436,2.677 1.313,3.571" style="fill:none;stroke:#ba917f;stroke-opacity:0.439216;stroke-width:0.65px;"/><path d="M191.757,211.675c0.463,1.022 0.876,2.247 0.937,3.39c0.005,0.097 0.052,0.612 0.008,0.288" style="fill:none;stroke:#ba917f;stroke-opacity:0.439216;stroke-width:0.65px;"/><path d="M197.23,210.528c0.318,0.889 0.559,4.588 0.86,4.895" style="fill:none;stroke:#ba917f;stroke-opacity:0.439216;stroke-width:0.65px;"/><path d="M201.199,208.406c0.461,0.858 1.451,4.851 1.717,5.392" style="fill:none;stroke:#ba917f;stroke-opacity:0.439216;stroke-width:0.65px;"/><path d="M204.285,206.076c0.544,1.224 0.855,2.498 1.427,3.664c0.15,0.306 0.209,0.742 0.453,0.99" style="fill:none;stroke:#ba917f;stroke-opacity:0.439216;stroke-width:0.65px;"/><path d="M207.063,203.497c0.487,1.033 0.91,1.958 1.264,3.007c0.088,0.262 0.415,0.658 0.415,0.911" style="fill:none;stroke:#ba917f;stroke-opacity:0.439216;stroke-width:0.65px;"/><path d="M209.245,202.452c0.356,0.705 0.598,1.378 0.94,2.075c0.065,0.131 0.309,0.39 0.309,0.5" style="fill:none;stroke:#ba917f;stroke-opacity:0.439216;stroke-width:0.65px;"/><path d="M185.615,211.68c-0.004,0.201 -0.145,1.211 0.014,1.536" style="fill:none;stroke:#ba917f;stroke-opacity:0.439216;stroke-width:0.65px;"/><path d="M183.105,168.204c0.401,0.224 1.454,0.235 1.585,2.537c0.842,14.83 14.281,28.994 9.93,31.812c-3.867,2.505 -4.299,0.314 -5.055,-2.101c-0.936,-2.99 -4.457,-13.057 -5.451,-15.702c-2.02,-5.374 -2.499,-11.164 -2.017,-14.009c0.443,-2.61 1.008,-2.537 1.008,-2.537Z" style="fill:#e2ccc1;fill-opacity:0.329412;"/><path d="M192.836,173.513c0,1.191 0,2.382 0,3.573c0,0.953 1.896,4.416 2.654,3.646c1.047,-1.062 -0.762,-4.844 0.354,-5.977c1.615,-1.639 6.375,-1.196 8.442,-2.245c0.148,-0.075 1.017,-0.32 0.619,-0.718c-1.307,-1.307 -9.826,1.769 -10.212,1.383c-0.421,-0.421 -1.19,-4.712 -2.165,-3.752c-1.037,1.022 -0.12,6.183 0.193,7.434c0.053,0.213 0.285,1.206 0.461,1.206" style="fill:#e2ccc1;fill-opacity:0.356863;"/><path d="M181.773,185.022c0,-2.117 -2.597,-9.68 -5.075,-7.239c-0.317,0.313 2.825,1.878 1.679,3.008c-0.197,0.193 -0.703,0.072 -0.899,0.265c-0.206,0.204 -11.436,1.243 -13.888,2.836c-0.342,0.223 -2.237,1.318 -1.669,1.886c1,1 9.878,-2.164 11.554,-2.485c0.938,-0.18 4.181,-0.855 5.259,-0.316c0.029,0.014 2.566,3.84 2.566,1.318c0,-0.755 0,-1.509 0,-2.263" style="fill:#e2ccc1;fill-opacity:0.247059;"/><path d="M180.057,192.452c-0.368,0 -1.109,1.486 -1.313,1.793c-3.44,5.172 -3.18,5.738 -9.062,7.745c-3.783,1.29 -7.972,-9.654 -12.186,-9.538c-4.551,0.125 -0.183,0.047 0,0c5.389,-1.366 15.521,-2.702 20.793,-4.039c0.187,-0.047 1.269,-0.41 1.491,-0.188c0.639,0.639 -0.271,2.648 0.354,3.273" style="fill:#e2ccc1;fill-opacity:0.168627;"/><path d="M214.391,178.626c-2.004,0 -4.06,0.527 -5.986,1.166c-1.273,0.423 -7.984,0.281 -6.709,2.832c2.529,5.057 10.326,2.671 15.099,5.058c0.852,0.425 4.943,0.144 5.295,-3.5c0.048,-0.502 -3.132,-12.817 -1.402,-5.556c0.498,2.092 5.576,-12.202 1.402,-18.36c-0.29,-0.428 -4.767,14.264 -5.295,14.264c-0.734,0 1.27,-2.798 -0.057,0" style="fill:#e2ccc1;fill-opacity:0.172549;"/><path d="M222.093,198.317c0,4.539 0.957,10.685 -0.378,14.911c-0.94,2.973 -1.023,6.52 -2.414,9.262c-1.208,2.378 -2.357,6.968 -4.141,8.725c-12.041,11.862 3.407,-32.619 4.795,-34.027c0.554,-0.564 1.372,0.619 1.504,0.619" style="fill:#e2ccc1;fill-opacity:0.211765;"/><path d="M190.653,226.302c-1.962,-4.462 -7.011,-6.678 -11.082,-9.738c-1.991,-1.497 -4.83,-4.269 -7.363,-4.269c-0.093,0 -0.111,-0.157 -0.179,-0.09c-0.01,0.01 -1.181,-0.408 -1.118,0.09c0.433,3.437 3.506,7.02 5.24,8.157c1.641,1.076 10.363,9.287 11.373,10.826c0.944,1.441 2.256,1.931 3.705,2.656c2.303,1.152 -0.13,-6.74 -0.576,-7.632c-0.071,-0.143 -0.156,-0.719 -0.27,-0.719" style="fill:#e2ccc1;fill-opacity:0.227451;"/><path d="M194.752,146.562c-2.564,0.437 -6.074,15.657 -15.086,16.738c-5.909,0.709 -7.427,1.011 -11.553,-2.091c-4.475,-3.364 -12.312,-2.784 -13.465,-9.643c-1.156,-6.877 19.852,-15.725 25.018,-17.137c2.534,-0.693 17.574,-0.366 19.915,0.22c1.302,0.325 -4.829,11.913 -4.829,11.913Z" style="fill:#e2ccc1;fill-opacity:0.0784314;"/><path d="M223.263,159.021c0,1.771 1.065,11.227 -1.157,14.812c-1.4,2.258 -1.116,4.284 -0.433,6.179c2.044,5.67 -2.605,9.274 -5.124,7.991c-3.056,-1.556 -9.503,-1.405 -8.259,-1.405c1.674,0 6.909,5.78 8.259,6.161c2.748,0.775 4.836,-1.581 6.487,-3.461c4.182,-4.762 5.972,-8.618 4.652,-15.753c-0.344,-1.86 -1.256,-3.586 -1.571,-5.448c-0.292,-1.729 -2.196,-9.202 -2.655,-9.202" style="fill:#d89e92;fill-opacity:0.494118;"/><path d="M203.798,163.252c-5.197,-0.76 -8.02,3.62 -8.02,3.792c0,0.113 -1.566,3.112 -1.566,2.999" style="fill:none;stroke:#000;stroke-width:0.2px;"/><path d="M177.243,197.956c3.021,8.172 -6.428,14.761 -13.973,9.79c-4.698,-3.096 -6.698,-10.339 -9.739,-15.034c-0.235,-0.363 -1.899,-3.666 -1.821,-3.639c6.117,2.148 10.211,8.779 15.856,11.572c5.728,2.835 9.677,-2.689 9.677,-2.689Z" style="fill:#d89e92;fill-opacity:0.313726;"/><path d="M198.449,161.374c0,-1.337 13.392,-8.79 15.264,-5.047c2.906,5.812 -8.43,3.002 -10.636,4.088c-0.67,0.33 -4.418,2.055 -4.418,0.789" style="fill:#e3baa0;fill-opacity:0.380392;"/><path d="M158.929,173.225c0,0 -4.439,2.313 -6.257,4.114c-0.309,0.306 -2.311,1.981 -1.201,2.536c0.381,0.19 3.07,-0.247 3.503,-0.383c1.825,-0.577 2.808,-2.969 4.889,-3.497c0.595,-0.151 4.256,-1.88 3.985,-2.423c-0.777,-1.553 -3.779,-0.347 -4.919,-0.347Z" style="fill:#e3baa0;fill-opacity:0.482353;"/><path d="M225.178,237.982c0,5.292 0.702,30.287 -2.109,34.514c-1.141,1.715 -6.416,2.144 -8.341,2.541c-3.25,0.67 -7.204,0.533 -10.079,-0.904c-6.351,-3.175 -5.019,-7.869 -8.371,-11.222c-3.888,-3.887 -6.152,-10.642 -9.276,-15.384c-0.37,-0.562 -2.582,-3.334 -1.928,-3.998c0.335,-0.34 1.856,0.59 2.359,0.59c10.269,0 9.68,9.115 24.548,5.347c3.084,-0.781 6.097,-1.994 8.464,-4.398c1.561,-1.585 4.638,-5.047 4.638,-7.254" style="fill:#dbaf93;"/><path d="M230.815,203.067c0,2.892 -3.795,12.648 -5.322,15.006c-6.346,9.8 -10.457,17.408 -20.721,19.487c-2.037,0.413 -7.72,1.2 -9.38,0c-2.552,-1.844 -12.9,-8.725 -15.058,-10.883c-0.035,-0.035 -9.57,-7.138 -8.718,-6.448c15.564,12.589 19.698,20.641 29.066,21.463c11.836,1.039 18.62,-4.2 28.259,-21.463c5.67,-10.154 1.874,-17.162 1.874,-17.162Z" style="fill:#a27a67;fill-opacity:0.278431;"/><ellipse cx="272.754" cy="279.995" rx="14.244" ry="13.769" style="fill:#a6a6a6;stroke:#000;stroke-width:0.15px;"/><ellipse cx="272.698" cy="280.046" rx="11.242" ry="11.181" style="fill:#50ffff;stroke:#000;stroke-width:0.15px;"/><g><g><path d="M268.404,283.484c-3.53,-7.474 4.05,-11.014 9.653,-7.495c2.759,1.733 1.908,5.303 1.708,8.148c-0.155,2.2 0.544,3.995 0.677,3.995c0,0 -1.528,1.531 -3.941,2.43c-1.033,0.384 -2.342,0.571 -3.575,0.608c-1.239,0.037 -2.276,-0.104 -3.157,-0.357c-3.045,-0.873 -4.615,-2.537 -4.615,-2.537c4.236,-1.271 9.919,-6.213 8.274,-8.954c-1.235,-2.056 -6.766,0.744 -4.367,3.038" style="fill:#2ea7b8;"/></g></g><path d="M269.502,279.684c-0.497,0.296 -1.339,0.471 -1.415,1.03c-0.096,0.715 0.261,1.213 0.174,1.286c-0.431,0.363 -0.456,0.765 -0.337,1.31c0.053,0.242 0.861,0.953 1.027,0.388c0.042,-0.142 -0.329,-0.312 -0.449,-0.211c-0.599,0.506 0.183,1.086 0.669,1.087c0.918,0.001 1.008,-1.014 1.192,-1.644c0.091,-0.309 0.926,0.01 1.061,-0.578c0.116,-0.506 -0.661,-0.592 -0.788,-0.935c-0.045,-0.124 0.294,-0.258 0.263,-0.39c-0.065,-0.279 -0.56,-0.478 -0.748,-0.637c-0.015,-0.013 -0.074,0.005 -0.059,-0.011c0.353,-0.372 0.248,-0.832 -0.076,-0.45" style="fill:#e6e6e6;"/></g><defs><radialGradient id="_Radial1" cx="0" cy="0" r="1" gradientUnits="userSpaceOnUse" gradientTransform="matrix(20.8536,0,0,10.5728,197.155,209.749)"><stop offset="0" style="stop-color:#8f6f53;stop-opacity:0.278431"/><stop offset="1" style="stop-color:#784d37;stop-opacity:0.278431"/></radialGradient><radialGradient id="_Radial2" cx="0" cy="0" r="1" gradientUnits="userSpaceOnUse" gradientTransform="matrix(15.6026,0,0,7.62072,198.124,208.245)"><stop offset="0" style="stop-color:#8f6f53;stop-opacity:0.294118"/><stop offset="1" style="stop-color:#784d37;stop-opacity:0.294118"/></radialGradient><radialGradient id="_Radial3" cx="0" cy="0" r="1" gradientUnits="userSpaceOnUse" gradientTransform="matrix(128.935,0,0,271.286,121.842,229.332)"><stop offset="0" style="stop-color:#8f6f53;stop-opacity:1"/><stop offset="1" style="stop-color:#784d37;stop-opacity:1"/></radialGradient><radialGradient id="_Radial4" cx="0" cy="0" r="1" gradientUnits="userSpaceOnUse" gradientTransform="matrix(59.9625,0,0,135.643,181.804,229.332)"><stop offset="0" style="stop-color:#eab78a;stop-opacity:1"/><stop offset="1" style="stop-color:#bb8d76;stop-opacity:1"/></radialGradient><radialGradient id="_Radial5" cx="0" cy="0" r="1" gradientUnits="userSpaceOnUse" gradientTransform="matrix(128.935,0,0,271.286,121.842,229.332)"><stop offset="0" style="stop-color:#e0b187;stop-opacity:1"/><stop offset="1" style="stop-color:#674e42;stop-opacity:1"/></radialGradient><radialGradient id="_Radial6" cx="0" cy="0" r="1" gradientUnits="userSpaceOnUse" gradientTransform="matrix(128.935,0,0,271.286,121.842,229.332)"><stop offset="0" style="stop-color:#e8cab0;stop-opacity:1"/><stop offset="1" style="stop-color:#744c37;stop-opacity:1"/></radialGradient><radialGradient id="_Radial7" cx="0" cy="0" r="1" gradientUnits="userSpaceOnUse" gradientTransform="matrix(128.935,0,0,271.286,121.842,229.332)"><stop offset="0" style="stop-color:#ce9a6c;stop-opacity:1"/><stop offset="1" style="stop-color:#744c37;stop-opacity:1"/></radialGradient></defs></svg>