<?xml version="1.0" encoding="UTF-8" standalone="no"?><!DOCTYPE svg PUBLIC "-//W3C//DTD SVG 1.1//EN" "http://www.w3.org/Graphics/SVG/1.1/DTD/svg11.dtd"><svg width="100%" height="100%" viewBox="0 0 407 463" version="1.1" xmlns="http://www.w3.org/2000/svg" xmlns:xlink="http://www.w3.org/1999/xlink" xml:space="preserve" style="fill-rule:evenodd;clip-rule:evenodd;stroke-linecap:round;stroke-linejoin:round;stroke-miterlimit:1.5;"><rect id="Artboard1" x="0" y="0" width="406.623" height="462.963" style="fill:none;"/><circle cx="202.535" cy="225.756" r="170.079" style="fill:#2ea7b8;"/><g><path d="M181.877,220.144c0.08,3.748 5.224,25.718 2.571,28.377l0.434,-0.385c-8.922,4.757 -11.938,6.71 -15.296,17.052c-0.527,1.625 -1.055,4.833 -0.259,6.453c1.625,3.309 17.479,7.166 21.209,8.175c21.859,5.908 45.81,12.26 68.115,5.54c1.806,-0.545 4.359,-0.909 5.855,-2.191c2.263,-1.939 2.282,-5.195 3.534,-7.768c3.531,-7.256 5.083,-16.207 1.649,-23.457c-0.993,-2.094 -6.274,-5.113 -10.811,-8.811c-7.061,-5.755 -11.018,-12.14 -13.335,-19.784c-1.295,-4.274 -2.147,-8.852 -2.928,-13.696c-0.153,-0.949 0.15,-5.195 0,-6.164l-1.336,4.241c-13.18,2.38 -22.515,13.357 -34.956,17.499c-2.592,0.863 -5.686,1.37 -8.714,1.502c-1.905,0.084 -3.784,0.018 -5.495,-0.2c-2.338,-0.299 -2.801,-4.297 -5.007,-3.182c-1.068,0.54 -2.131,-1.394 -1.1,-1.394" style="fill:#d9a993;stroke:#000;stroke-width:0.3px;"/><path d="M181.877,220.144c0.08,3.748 5.224,25.718 2.571,28.377l0.434,-0.385c-8.922,4.757 -11.938,6.71 -15.296,17.052c-0.527,1.625 -1.055,4.833 -0.259,6.453c1.625,3.309 17.479,7.166 21.209,8.175c21.859,5.908 45.81,12.26 68.115,5.54c1.806,-0.545 4.359,-0.909 5.855,-2.191c2.263,-1.939 2.282,-5.195 3.534,-7.768c3.531,-7.256 5.083,-16.207 1.649,-23.457c-0.993,-2.094 -6.274,-5.113 -10.811,-8.811c-7.061,-5.755 -11.018,-12.14 -13.335,-19.784c-1.295,-4.274 -2.147,-8.852 -2.928,-13.696c-0.153,-0.949 0.15,-5.195 0,-6.164l-1.336,4.241c-13.18,2.38 -22.515,13.357 -34.956,17.499c-2.592,0.863 -5.686,1.37 -8.714,1.502c-1.905,0.084 -3.784,0.018 -5.495,-0.2c-2.338,-0.299 -2.801,-4.297 -5.007,-3.182c-1.068,0.54 -2.131,-1.394 -1.1,-1.394" style="fill:#d9a993;fill-opacity:0.364706;stroke:#a27a67;stroke-width:1px;"/><path d="M268.848,250.645c0,0 -2.138,15.139 -5.711,20.207c-12.753,18.095 -44.368,13.959 -62.517,8.512c-5.448,-1.635 -13.507,-1.943 -18.131,-5.168c-4.646,-3.241 -13.687,-16.934 -15.719,-17.969c-1.225,-0.623 -3.784,-0.414 -5.093,-0.263c-6.887,0.793 -14.961,1.626 -21.406,4.211c-2.015,0.807 -9.657,6.71 -11.05,8c-7.428,6.872 -10.655,30.969 -10.171,31.686c1.527,2.263 2.338,4.048 4.673,5.61c6.815,4.556 45.63,12.607 52.404,12.615c23.56,0.027 47.12,0.004 70.68,-0.048c2.82,-0.007 25.935,-8.26 29.336,-10.568c3.306,-2.244 22.034,-8.665 24.366,-10.774c3.403,-3.075 7.448,-3.699 11.428,-36.521c0.551,-4.542 -37.37,-9.53 -43.089,-9.53Z" style="fill:#dbfaff;"/><path d="M224.484,131.855c4.513,2.944 5.929,1.725 8.142,3.415c1.794,1.37 2.93,13.497 2.553,10.494c-1.283,-10.203 6.958,-14.839 9.48,-10.494c6.085,10.488 7.976,25.417 2.062,32.031c-5.73,6.409 1.748,23.799 -2.062,31.236c-1.425,2.782 -4.651,14.142 -5.63,16.467c-1.743,4.137 -9.967,15.918 -11.443,17.924c-6.665,9.059 -20.06,8.303 -22.253,6.415c-9.074,-7.812 -27.966,-19.296 -31.129,-25.696c-7.581,-15.342 -18.351,-30.386 -19.472,-46.346c-0.9,-12.82 -6.789,-14.976 0,-26.845c7.056,-12.334 30.548,-20.745 50.601,-21.2c13.442,-0.305 19.151,12.599 19.151,12.599Z" style="fill:#d9a993;stroke:#000;stroke-width:0.1px;"/><path d="M224.484,131.855c4.513,2.944 5.929,1.725 8.142,3.415c1.794,1.37 2.93,13.497 2.553,10.494c-1.283,-10.203 6.958,-14.839 9.48,-10.494c6.085,10.488 7.976,25.417 2.062,32.031c-5.73,6.409 1.748,23.799 -2.062,31.236c-1.425,2.782 -4.651,14.142 -5.63,16.467c-1.743,4.137 -9.967,15.918 -11.443,17.924c-6.665,9.059 -20.06,8.303 -22.253,6.415c-9.074,-7.812 -27.966,-19.296 -31.129,-25.696c-7.581,-15.342 -18.351,-30.386 -19.472,-46.346c-0.9,-12.82 -6.789,-14.976 0,-26.845c7.056,-12.334 30.548,-20.745 50.601,-21.2c13.442,-0.305 19.151,12.599 19.151,12.599Z" style="fill:#d9a993;fill-opacity:0.247059;stroke:#a27a67;stroke-width:0.95px;"/><path d="M173.376,179.631c-1.972,0.886 -6.84,5.449 -7.109,5.72" style="fill:none;stroke:#000;stroke-width:2px;"/><path d="M206.047,174.201c0.22,-0.498 0.534,-1.185 0.698,-1.723c0.166,-0.546 2.607,-3.95 3.739,-4.497c0.44,-0.212 2.243,-1.911 5.878,-2.852" style="fill:none;stroke:#000;stroke-width:1px;"/><path d="M172.61,179.835c-1.009,0 -6.661,6.095 -6.225,5.968c3.503,-1.018 11.553,-1.733 14.003,-4.07c0.491,-0.468 1.069,-0.517 1.34,-0.602c1.884,-0.592 4.105,-0.51 6.155,-0.51l0.341,0.035c-2.361,-0.856 -4.55,-1.198 -6.966,-1.714c-1.268,-0.271 -2.522,-0.6 -3.825,-0.6c-1.206,0 -3.007,-0.136 -4.063,0.563c-0.62,0.41 -0.849,0.908 -1.347,1.408" style="fill:#fff;stroke:#000;stroke-width:0.24px;"/><path d="M179.01,178.26c-3.504,-0.447 -6.305,-0.403 -5.262,3.866c0.091,0.372 0.225,0.661 0.396,0.88c0.523,0.674 1.391,0.701 2.412,0.48c0.483,-0.105 3.684,-0.92 4.926,-2.437c1.303,-1.592 -1.333,-2.643 -2.472,-2.789Z" style="fill:#4b686c;"/><path d="M179.01,178.26c-3.504,-0.447 -6.305,-0.403 -5.262,3.866c0.091,0.372 0.225,0.661 0.396,0.88c0.523,0.674 2.64,0.221 3.662,0c0.482,-0.104 1.695,-1.183 3.676,-1.957c1.916,-0.749 -1.333,-2.643 -2.472,-2.789Z" style="fill:none;stroke:#244347;stroke-opacity:0.509804;stroke-width:0.9px;"/><path d="M208.346,181.904c-3.493,-4.727 2.423,-5.358 4.992,-6.184c2.263,-0.729 10.467,-0.893 13.478,-4.888c0.318,-0.422 1.257,-1.071 1.257,-1.661" style="fill:none;stroke:#000;stroke-width:0.24px;"/><path d="M208.346,181.904c-3.493,-4.727 2.423,-5.358 4.992,-6.184c2.263,-0.729 10.467,-0.893 13.478,-4.888c0.318,-0.422 1.257,-1.071 1.257,-1.661" style="fill:none;stroke:#ba917f;stroke-opacity:0.286275;stroke-width:3.5px;"/><path d="M188.039,185.438c-6.083,0 -11.177,4.606 -19.619,4.606" style="fill:none;stroke:#000;stroke-width:0.24px;"/><path d="M188.039,185.438c-6.083,0 -11.177,4.606 -19.619,4.606" style="fill:none;stroke:#ba917f;stroke-opacity:0.443137;stroke-width:4.5px;"/><path d="M186.804,176.343c8.26,0 8.833,35.469 18.401,30.384c0.582,-0.31 0.393,-0.79 1.366,-0.727c0.829,0.054 1.432,-1.092 2.217,-1.904c0.672,-0.694 2.463,-2.23 3.114,-2.835c1.638,-1.521 2.532,-2.327 3.566,-4.466c1.688,-3.49 -2.875,-4.468 -2.875,-5.757" style="fill:none;stroke:#000;stroke-width:0.24px;"/><path d="M186.804,176.343c8.26,0 8.833,35.469 18.401,30.384c0.582,-0.31 0.393,-0.79 1.366,-0.727c0.829,0.054 1.432,-1.092 2.217,-1.904c0.672,-0.694 2.463,-2.23 3.114,-2.835c1.638,-1.521 2.532,-2.327 3.566,-4.466c1.688,-3.49 -2.875,-4.468 -2.875,-5.757" style="fill:none;stroke:#a27a67;stroke-opacity:0.32549;stroke-width:0.6px;"/><path d="M207.111,197.422c0,-1.799 1.795,-5.357 3.283,-5.357" style="fill:none;stroke:#000;stroke-width:0.24px;"/><path d="M207.111,197.422c0,-1.799 1.795,-5.357 3.283,-5.357" style="fill:none;stroke:#a27a67;stroke-opacity:0.411765;stroke-width:1px;"/><path d="M193.398,197.462c0,6.931 0.97,7.813 6.777,7.813" style="fill:none;stroke:#000;stroke-width:0.24px;"/><path d="M193.398,197.462c0,6.931 0.625,7.813 6.433,7.813" style="fill:none;stroke:#a27a67;stroke-opacity:0.278431;stroke-width:1.5px;"/><path d="M215.355,192.009c2.501,0 4.327,0.506 6.571,1.412c3.297,1.331 6.125,4.583 10.045,3.818c1.453,-0.284 4.731,-3.171 5.133,-4.82c0.174,-0.711 0.526,-1.626 0.526,-2.339c0,-0.25 -0.086,-1.481 0.085,-1.481" style="fill:none;stroke:#000;stroke-width:0.24px;"/><path d="M215.355,192.009c2.501,0 4.327,0.506 6.571,1.412c3.297,1.331 6.125,4.583 10.045,3.818c1.453,-0.284 4.731,-3.171 5.133,-4.82c0.174,-0.711 0.526,-1.626 0.526,-2.339c0,-0.25 -0.086,-1.481 0.085,-1.481" style="fill:none;stroke:#a58170;stroke-opacity:0.176471;stroke-width:5.5px;"/><path d="M191.095,201.039c0,3.113 -0.551,6.703 -2.964,8.957c-1.758,1.641 -4.791,2.298 -7.907,2.9c-1.976,0.382 -3.701,-0.059 -5.533,-0.845c-0.843,-0.361 -1.697,-0.477 -2.594,-0.477c-0.013,0 -0.082,0 -0.043,0" style="fill:none;stroke:#000;stroke-width:0.24px;"/><path d="M191.095,201.039c0,3.113 -0.551,6.703 -2.964,8.957c-1.758,1.641 -4.791,2.298 -7.907,2.9c-1.976,0.382 -3.701,-0.059 -5.533,-0.845c-0.843,-0.361 -1.697,-0.477 -2.594,-0.477c-0.013,0 -0.082,0 -0.043,0" style="fill:none;stroke:#a58170;stroke-opacity:0.235294;stroke-width:4px;"/><g><path d="M191.335,211.953c6.206,-1.424 15.78,-1.073 15.859,-1.154c0.414,-0.424 6.644,-5.234 11.199,-7.315c1.57,-0.718 3.476,-0.717 5.198,-1.085c1.602,-0.342 3.281,-0.479 4.851,-0.884c0.078,-0.02 0.615,-0.003 0.613,-0.132c-0.004,-0.29 -1.639,0.615 -1.679,0.642c-0.593,0.401 -1.198,0.816 -1.704,1.328c-2.254,2.284 -2.649,5.701 -4.227,8.34c-4.261,7.126 -4.548,8.941 -13.405,10.438c-2.108,0.356 -4.909,0.503 -7.039,0.09c-2.472,-0.48 -3.959,-2.409 -5.981,-3.765c-1.659,-1.113 -2.913,-2.844 -4.947,-3.493c-0.716,-0.228 -1.358,-0.822 -2.014,-1.156c-0.222,-0.113 -0.808,-0.041 -0.698,-0.268c0.449,-0.927 3.005,-1.364 3.974,-1.586Z" style="fill:#d48090;stroke:#000;stroke-width:0.24px;"/><path d="M191.335,211.953c6.206,-1.424 15.78,-1.073 15.859,-1.154c0.414,-0.424 6.644,-5.234 11.199,-7.315c1.57,-0.718 3.476,-0.717 5.198,-1.085c1.602,-0.342 3.281,-0.479 4.851,-0.884c0.078,-0.02 0.615,-0.003 0.613,-0.132c-0.004,-0.29 -1.639,0.615 -1.679,0.642c-0.593,0.401 -1.198,0.816 -1.704,1.328c-2.254,2.284 -2.649,5.701 -4.227,8.34c-4.261,7.126 -4.548,8.941 -13.405,10.438c-2.108,0.356 -4.909,0.503 -7.039,0.09c-2.472,-0.48 -3.959,-2.409 -5.981,-3.765c-1.659,-1.113 -2.913,-2.844 -4.947,-3.493c-0.716,-0.228 -1.358,-0.822 -2.014,-1.156c-0.222,-0.113 -0.808,-0.041 -0.698,-0.268c0.449,-0.927 3.005,-1.364 3.974,-1.586Z" style="fill:#d46f90;stroke:#000;stroke-opacity:0.258824;stroke-width:0.24px;"/><path d="M191.335,211.953c6.206,-1.424 15.78,-1.073 15.859,-1.154c0.414,-0.424 6.644,-5.234 11.199,-7.315c1.57,-0.718 3.476,-0.717 5.198,-1.085c1.602,-0.342 3.281,-0.479 4.851,-0.884c0.078,-0.02 0.615,-0.003 0.613,-0.132c-0.004,-0.29 -1.639,0.615 -1.679,0.642c-0.593,0.401 -1.198,0.816 -1.704,1.328c-2.254,2.284 -2.649,5.701 -4.227,8.34c-4.261,7.126 -4.548,8.941 -13.405,10.438c-2.108,0.356 -4.909,0.503 -7.039,0.09c-2.472,-0.48 -3.959,-2.409 -5.981,-3.765c-1.659,-1.113 -2.913,-2.844 -4.947,-3.493c-0.716,-0.228 -1.358,-0.822 -2.014,-1.156c-0.222,-0.113 -0.808,-0.041 -0.698,-0.268c0.449,-0.927 3.005,-1.364 3.974,-1.586Z" style="fill:none;stroke:url(#_Radial1);stroke-width:1.5px;"/><path d="M220.324,208.914c0,0 -4.789,6.975 -7.964,8.078c-2.03,0.705 -7.622,1.656 -12.765,0.436c-0.689,-0.163 -5.174,-2.956 -6.009,-2.956c-0.208,0 1.472,-0.757 2.013,-0.808c5.481,-0.508 9.612,0.479 13.948,-1.294c3.61,-1.476 7.565,-7.173 10.701,-8.079c3.439,-0.993 3.889,-1.954 4.524,-1.307c0.062,0.062 -4.448,5.801 -4.448,5.93Z" style="fill:#d48090;stroke:#000;stroke-width:0.24px;"/><path d="M220.324,208.914c0,0 -4.789,6.975 -7.964,8.078c-2.03,0.705 -7.622,1.656 -12.765,0.436c-0.689,-0.163 -5.174,-2.956 -6.009,-2.956c-0.208,0 1.472,-0.757 2.013,-0.808c5.481,-0.508 9.612,0.479 13.948,-1.294c3.61,-1.476 7.565,-7.173 10.701,-8.079c3.439,-0.993 3.889,-1.954 4.524,-1.307c0.062,0.062 -4.448,5.801 -4.448,5.93Z" style="fill:#7e6357;stroke:#000;stroke-width:0.24px;"/><path d="M220.324,208.914c0,0 -4.789,6.975 -7.964,8.078c-2.03,0.705 -7.622,1.656 -12.765,0.436c-0.689,-0.163 -5.174,-2.956 -6.009,-2.956c-0.208,0 1.472,-0.757 2.013,-0.808c5.481,-0.508 9.612,0.479 13.948,-1.294c3.61,-1.476 7.565,-7.173 10.701,-8.079c3.439,-0.993 3.889,-1.954 4.524,-1.307c0.062,0.062 -4.448,5.801 -4.448,5.93Z" style="fill:#7e6357;stroke:#000;stroke-width:0.24px;"/><path d="M220.324,208.914c0,0 -4.789,6.975 -7.964,8.078c-2.03,0.705 -7.622,1.656 -12.765,0.436c-0.689,-0.163 -5.174,-2.956 -6.009,-2.956c-0.208,0 1.472,-0.757 2.013,-0.808c5.481,-0.508 9.612,0.479 13.948,-1.294c3.61,-1.476 7.565,-7.173 10.701,-8.079c3.439,-0.993 3.889,-1.954 4.524,-1.307c0.062,0.062 -4.448,5.801 -4.448,5.93Z" style="fill:none;stroke:url(#_Radial2);stroke-width:2px;"/><path d="M220.324,208.914c0,0 -4.789,6.975 -7.964,8.078c-2.03,0.705 -7.622,1.656 -12.765,0.436c-0.377,-0.089 -3.111,-1.891 -3.996,-2.885c-0.732,-0.823 0.378,-0.879 0,-0.879c-0.208,0 -0.541,0.051 0,0c5.481,-0.508 9.612,0.479 13.948,-1.294c3.61,-1.476 8.005,-7.486 10.777,-8.079c0.232,-0.049 1.216,-0.611 1.381,-0.281c0.183,0.366 0.503,0.726 0.727,1.045c0.206,0.293 0.33,0.553 0.192,0.754c-0.028,0.041 -2.3,3.023 -2.3,3.105Z" style="fill:#fff;stroke:#000;stroke-width:0.24px;"/></g><path d="M206.428,174.326c-0.082,0 0.166,0 0.248,0c0.158,0 0.231,-0.041 0.379,-0.084c0.386,-0.113 0.785,-0.295 1.154,-0.446c1.186,-0.484 2.274,-1.324 3.553,-1.558c3.494,-0.639 6.388,-1.865 9.063,-4.245c0.757,-0.674 1.084,-2.229 1.766,-2.934c0.089,-0.092 0.721,-0.556 0.721,-0.61l0.161,-0.338c-3.899,0 -10.006,1.555 -11.789,2.891c-0.149,0.112 -0.315,0.23 -0.493,0.357c-0.722,0.518 -1.649,1.195 -2.56,2.28c-0.863,1.028 -1.711,2.423 -2.358,4.396" style="fill:#fff;stroke:#000;stroke-width:0.24px;"/><path d="M201.811,167.864c0,-6.491 7.429,-9.927 12.494,-12.261c1.484,-0.683 4.633,-0.221 6.36,-0.221c1.135,0 6.841,-0.058 7.343,0.398c0.153,0.139 -1.088,0.529 -1.211,0.573c-1.065,0.381 1.154,0 0,0c-3.198,0 -10.039,-0.275 -12.492,1.53c-4.772,3.514 -4.691,2.911 -8.025,5.909c-0.693,0.623 -2.663,6.098 -4.037,5.474c-0.346,-0.157 -0.166,-1.451 -0.166,-1.82" style="fill:#7d4d49;stroke:#000;stroke-width:0.24px;"/><path d="M201.811,167.864c0,-6.491 7.429,-9.927 12.494,-12.261c1.484,-0.683 4.633,-0.221 6.36,-0.221c1.135,0 6.841,-0.058 7.343,0.398c0.153,0.139 -1.088,0.529 -1.211,0.573c-1.065,0.381 1.154,0 0,0c-3.198,0 -10.039,-0.275 -12.492,1.53c-4.772,3.514 -4.691,2.911 -8.025,5.909c-0.693,0.623 -2.663,6.098 -4.037,5.474c-0.346,-0.157 -0.166,-1.451 -0.166,-1.82" style="fill:#7e6357;stroke:#000;stroke-opacity:0.462745;stroke-width:0.24px;"/><path d="M201.811,167.864c0,-6.491 7.429,-9.927 12.494,-12.261c1.484,-0.683 4.633,-0.221 6.36,-0.221c1.135,0 6.841,-0.058 7.343,0.398c0.153,0.139 -1.088,0.529 -1.211,0.573c-1.065,0.381 1.154,0 0,0c-3.198,0 -10.039,-0.275 -12.492,1.53c-4.772,3.514 -4.691,2.911 -8.025,5.909c-0.693,0.623 -2.663,6.098 -4.037,5.474c-0.346,-0.157 -0.432,-1.402 -0.432,-1.402Z" style="fill:none;stroke:#a27a67;stroke-opacity:0.890196;stroke-width:1px;"/><path d="M187.238,174.186c-2.817,0 -4.935,-1.071 -7.492,-1.726c-3.982,-1.021 -10.795,-0.722 -14.134,1.486c-1.083,0.716 -6.523,6.626 -4.716,5.511c3.297,-2.035 6.433,-4.391 7.778,-4.801c3.843,-1.171 8.745,-0.202 11.072,0c3.023,0.262 3.06,0 4.786,0c0.987,0 1.938,-0.53 0.952,-0.53" style="fill:#7e6357;stroke:#000;stroke-opacity:0.313726;stroke-width:0.24px;"/><path d="M186.823,174.43c-2.817,0 -4.935,-1.072 -7.492,-1.727c-3.982,-1.021 -10.795,-0.722 -14.134,1.487c-1.083,0.716 -6.522,6.625 -4.715,5.51c3.297,-2.035 6.432,-4.39 7.778,-4.8c3.842,-1.171 8.745,-0.202 11.071,0c3.023,0.262 3.06,0 4.786,0c0.987,0 1.938,-0.531 0.952,-0.531" style="fill:#7e6357;stroke:#a27a67;stroke-opacity:0.537255;stroke-width:1.5px;"/><path d="M185.331,226.894c-4.215,-7.563 -12.424,-16.136 -15.427,-21.751c-16.712,-31.245 -13.516,-36.719 -14.354,-43.802c-1.413,-11.928 1.553,-15.087 3.682,-18.498c2.511,-4.022 11.503,-7.057 19.987,-9.889c10.372,-3.463 21.823,-10.429 25.353,-11.014c13.122,-2.172 19.742,15.203 26.459,18.09c0.625,0.269 1.445,1.229 2.258,2.391c2.124,3.035 4.565,7.768 2.989,4.845c-2.614,-4.845 1.08,-8.881 2.98,-11.889c5.714,-9.042 8.812,31.458 3.504,35.879c-1.655,1.378 0.539,5.824 1.687,7.931c0.239,0.437 11.879,-10.959 7.306,-39.157c-0.635,-3.916 -1.66,-8.237 -4.116,-11.62c-2.027,-2.791 -6.269,-3.61 -8.381,-6.47c-2.429,-3.29 -5.652,-13.993 -8.227,-15.932c-3.715,-2.797 -8.438,-3.405 -12.731,-5.049c-1.497,-0.574 -2.685,-1.767 -4.102,-2.489c-3.347,-1.703 -14.841,-3.704 -17.612,-0.927l0.553,-0.049c-12.763,-4.746 -28.935,1.436 -39.603,9.392c-1.647,1.228 -2.608,3.317 -4.031,4.772c-3.624,3.706 -6.925,7.205 -10.18,11.236c-2.038,2.523 -5.312,6.169 -5.794,9.483c-1.307,9.001 -3.184,17.808 -1.637,27.298c0.388,2.381 2.735,13.096 4.229,20.245c0.816,3.908 -3.006,7.649 -4.237,11.401c-1.468,4.477 -2.037,9.255 -2.906,13.822c-0.597,3.134 1.909,6.515 2.184,9.725c0.553,6.449 -1.064,25.015 0.301,29.064c0.699,2.072 1.774,2.57 2.029,5.183c0.415,4.253 -0.078,8.633 -0.553,12.808c-0.414,3.629 -2.349,6.817 -1.712,10.726c0.554,3.403 5.005,4.751 6.099,8.308c0.983,3.196 -0.839,7.465 0.181,10.491c0.294,0.87 1.593,1.468 1.593,2.481l-0.301,1.133c0.204,6.528 -6.815,8.658 -7.989,14.411c-1.733,8.486 3.457,16.685 1.749,25.048c-0.517,2.534 -3.445,5.203 -2.624,8.259c0.535,1.995 2.351,2.747 2.752,5.206c0.535,3.288 1.591,13.69 1.02,17.004c-0.033,0.192 -0.358,1.443 -0.075,1.635c2.878,1.953 6.089,-2.52 8.955,-1.552c1.233,0.417 2.989,1.873 3.701,-0.536c0.749,-2.534 0.592,-5.652 1.18,-8.286c0.703,-3.144 2.868,-6.217 4.08,-9.17c1.211,-2.952 1.356,-6.181 2.575,-9.074c1.213,-2.879 3.334,-5.444 4.308,-8.415c1.417,-4.323 5.595,-5.942 7.471,-9.463c0.8,-1.501 1.837,-3.006 2.52,-4.558c0.274,-0.621 0.476,-2.663 0.476,-1.983c0,6.506 0.798,13.545 0,20.004c-0.449,3.638 -1.622,6.958 -1.622,10.711c0,1.922 -2.271,7.601 -0.753,9.218c0.092,0.098 1.358,-2.482 1.452,-2.616c1.833,-2.624 4.141,-5.201 4.919,-8.401c0.679,-2.792 -1.006,-4.948 -1.309,-7.651c-1.088,-9.676 2.465,-18.578 3.632,-28.132c0.942,-7.715 4.392,-30.596 2.488,-38.328c-1.332,-5.406 -11.443,-13.969 -5.122,-14.083c10.567,-0.19 12.959,-19.859 8.746,-27.416Z" style="fill:url(#_Radial3);stroke:#826253;stroke-width:0.24px;"/><path d="M180.41,221.012c-5.012,-6.949 -6.252,-9.723 -11.083,-14.86c-2.38,-2.532 -5.277,-6.834 -6.674,-9.36c-2.813,-5.09 -4.371,-9.232 -5.95,-13.005c-2.487,-5.943 -3.895,-10.513 -4.649,-14.125c-0.96,-4.595 -0.862,-7.639 -0.584,-9.987c0.425,-3.584 0.897,-8.134 1.482,-10.808c0.899,-4.11 1.981,-5.696 2.921,-7.412c4.363,-7.973 15.445,-7.307 23.346,-9.944c10.372,-3.463 21.823,-8.986 25.353,-9.571c13.122,-2.172 19.742,15.203 26.459,18.09c0.625,0.269 1.445,1.229 2.258,2.391c2.124,3.035 4.565,7.768 2.989,4.845c-2.614,-4.845 1.08,-8.881 2.98,-11.889c5.714,-9.042 10.097,33.818 3.504,35.879c-2.253,0.704 0.466,5.714 1.615,7.821c0.238,0.438 11.951,-10.849 7.378,-39.047c-0.635,-3.916 -1.66,-8.237 -4.116,-11.62c-2.027,-2.791 -6.269,-3.61 -8.381,-6.47c-2.429,-3.29 -5.652,-13.993 -8.227,-15.932c-3.715,-2.797 -8.438,-3.405 -12.731,-5.049c-1.497,-0.574 -2.685,-1.767 -4.102,-2.489c-3.347,-1.703 -14.841,-3.704 -17.612,-0.927l0.553,-0.049c-12.763,-4.746 -28.935,1.436 -39.603,9.392c-1.647,1.228 -2.608,3.317 -4.031,4.772c-3.624,3.706 -6.925,7.205 -10.18,11.236c-2.038,2.523 -5.312,6.169 -5.794,9.483c-1.307,9.001 -3.184,17.808 -1.637,27.298c0.388,2.381 2.735,13.096 4.229,20.245c0.816,3.908 -3.006,7.649 -4.237,11.401c-1.468,4.477 -2.037,9.255 -2.906,13.822c-0.597,3.134 1.909,6.515 2.184,9.725c0.553,6.449 -1.064,25.015 0.301,29.064c0.699,2.072 1.774,2.57 2.029,5.183c0.415,4.253 -0.078,8.633 -0.553,12.808c-0.414,3.629 -2.349,6.817 -1.712,10.726c0.554,3.403 5.005,4.751 6.099,8.308c0.983,3.196 -0.839,7.465 0.181,10.491c0.294,0.87 1.593,1.468 1.593,2.481l-0.301,1.133c0.204,6.528 -6.815,8.658 -7.989,14.411c-1.733,8.486 3.457,16.685 1.749,25.048c-0.517,2.534 -3.445,5.203 -2.624,8.259c0.535,1.995 2.351,2.747 2.752,5.206c0.535,3.288 1.591,13.69 1.02,17.004c-0.033,0.192 -0.358,1.443 -0.075,1.635c2.878,1.953 6.089,-2.52 8.955,-1.552c1.233,0.417 2.989,1.873 3.701,-0.536c0.749,-2.534 0.592,-5.652 1.18,-8.286c0.703,-3.144 2.868,-6.217 4.08,-9.17c1.211,-2.952 1.356,-6.181 2.575,-9.074c1.213,-2.879 3.334,-5.444 4.308,-8.415c1.417,-4.323 7.668,-7.846 9.544,-11.366c0.799,-1.501 -0.236,-1.103 0.447,-2.655c0.274,-0.621 0.476,-2.663 0.476,-1.983c0,6.506 -2.775,14.474 -3.573,20.933c-0.449,3.638 -3.64,14.766 -2.121,16.384c0.091,0.098 2.028,5.48 2.121,5.346c1.834,-2.624 6.791,-10.547 7.569,-13.747c0.679,-2.792 -1.006,-4.948 -1.309,-7.651c-1.088,-9.676 2.465,-18.578 3.632,-28.132c0.942,-7.715 4.392,-30.596 2.488,-38.328c-1.332,-5.406 -6.899,-7.905 -5.122,-14.083c0.691,-2.403 3.399,-8.1 5.14,-14.542c1.411,-5.216 2.175,-13.918 -1.315,-18.756Z" style="fill:url(#_Radial4);stroke:#a27a67;stroke-width:0.24px;"/><path d="M172.9,243.932c-5.012,-6.948 2.456,-17.783 -2.375,-22.92c-2.38,-2.532 -6.696,-9.311 -8.092,-11.838c-2.813,-5.089 -10.563,-14.079 -12.143,-17.853c-5.651,-13.503 -5.877,-38.754 -3.701,-44.055c1.746,-4.254 3.942,-10.172 4.881,-11.889c4.363,-7.972 19.848,-4.329 27.749,-6.967c10.372,-3.463 21.823,-5.885 25.353,-6.47c13.122,-2.172 19.742,15.203 26.459,18.09c0.625,0.269 1.445,1.229 2.258,2.391c2.124,3.035 4.565,7.768 2.989,4.845c-2.614,-4.845 1.08,-8.881 2.98,-11.889c5.714,-9.042 10.097,33.818 3.504,35.879c-2.253,0.704 0.466,5.714 1.615,7.821c0.238,0.438 11.951,-10.849 7.378,-39.047c-0.635,-3.916 -1.66,-8.237 -4.116,-11.62c-2.027,-2.791 -6.269,-3.61 -8.381,-6.47c-2.429,-3.29 -5.652,-13.993 -8.227,-15.932c-3.715,-2.797 -8.438,-3.405 -12.731,-5.049c-1.497,-0.574 -2.685,-1.767 -4.102,-2.489c-3.347,-1.703 -14.841,-3.704 -17.612,-0.927l0.553,-0.049c-12.763,-4.746 -28.935,1.436 -39.603,9.392c-1.647,1.228 -2.608,3.317 -4.031,4.772c-3.624,3.706 -6.925,7.205 -10.18,11.236c-2.038,2.523 -5.312,6.169 -5.794,9.483c-1.307,9.001 -3.184,17.808 -1.637,27.298c0.388,2.381 2.735,13.096 4.229,20.245c0.816,3.908 -3.006,7.649 -4.237,11.401c-1.468,4.477 -2.037,9.255 -2.906,13.822c-0.597,3.134 1.909,6.515 2.184,9.725c0.553,6.449 -1.064,25.015 0.301,29.064c0.699,2.072 1.774,2.57 2.029,5.183c0.415,4.253 -0.078,8.633 -0.553,12.808c-0.414,3.629 -2.349,6.817 -1.712,10.726c0.554,3.403 5.005,4.751 6.099,8.308c0.983,3.196 -0.839,7.465 0.181,10.491c0.294,0.87 1.593,1.468 1.593,2.481l-0.301,1.133c0.204,6.528 -6.815,8.658 -7.989,14.411c-1.733,8.486 3.457,16.685 1.749,25.048c-0.517,2.534 -3.445,5.203 -2.624,8.259c0.535,1.995 2.351,2.747 2.752,5.206c0.535,3.288 1.591,13.69 1.02,17.004c-0.033,0.192 -0.358,1.443 -0.075,1.635c2.878,1.953 6.089,-2.52 8.955,-1.552c1.233,0.417 2.989,1.873 3.701,-0.536c0.749,-2.534 0.592,-5.652 1.18,-8.286c0.703,-3.144 4.854,-1.791 6.066,-4.744c1.212,-2.952 1.1,-5.834 2.319,-8.727c1.213,-2.878 2.987,-4.739 4.862,-8.259c0.8,-1.501 0.065,6.042 0,8.259c-0.263,9.102 4.273,12.88 3.499,8.727c-2.978,-15.959 11.499,-41.461 3.062,-42.034c-8.381,-0.568 0.096,-17.235 -1.374,-25.3c-0.999,-5.48 -9.248,-16.073 -7.471,-22.25c0.691,-2.403 13.957,-13.153 10.467,-17.991Z" style="fill:url(#_Radial5);"/><path d="M158.125,243.932c-5.012,-6.948 9.139,-16.437 4.308,-21.574c-2.381,-2.532 -10.747,-10.132 -12.143,-12.658c-2.813,-5.09 -5.386,-11.359 -6.965,-15.133c-5.651,-13.503 -3.992,-49.236 -1.816,-54.537c1.747,-4.254 7.842,-15.419 8.781,-17.136c4.363,-7.972 28.716,-6.163 37.042,-6.386c10.373,-0.278 9.25,5.432 18.308,5.432c13.301,0 18.674,15.203 25.391,18.09c0.625,0.269 1.445,1.229 2.258,2.391c2.124,3.035 4.565,7.768 2.989,4.845c-2.614,-4.845 1.08,-8.881 2.98,-11.889c5.714,-9.042 10.097,33.818 3.504,35.879c-2.253,0.704 0.466,5.714 1.615,7.821c0.238,0.438 11.951,-10.849 7.378,-39.047c-0.635,-3.916 -1.66,-8.237 -4.116,-11.62c-2.027,-2.791 -6.269,-3.61 -8.381,-6.47c-2.429,-3.29 -5.652,-13.993 -8.227,-15.932c-3.715,-2.797 -8.438,-3.405 -12.731,-5.049c-1.497,-0.574 -2.685,-1.767 -4.102,-2.489c-3.347,-1.703 -14.841,-3.704 -17.612,-0.927l0.553,-0.049c-12.763,-4.746 -28.935,1.436 -39.603,9.392c-1.647,1.228 -2.608,3.317 -4.031,4.772c-3.624,3.706 -6.925,7.205 -10.18,11.236c-2.038,2.523 -5.312,6.169 -5.794,9.483c-1.307,9.001 -6.098,16.533 -4.551,26.023c0.388,2.382 -0.537,13.528 0.957,20.677c0.816,3.908 3.18,8.492 1.949,12.244c-1.468,4.477 -2.037,9.255 -2.906,13.822c-0.597,3.134 1.909,6.515 2.184,9.725c0.553,6.449 -1.064,25.015 0.301,29.064c0.699,2.072 1.774,2.57 2.029,5.183c0.415,4.253 -0.078,8.633 -0.553,12.808c-0.414,3.629 -2.349,6.817 -1.712,10.726c0.554,3.403 5.005,4.751 6.099,8.308c0.983,3.196 -0.839,7.465 0.181,10.491c0.294,0.87 1.593,1.468 1.593,2.481l-0.301,1.133c0.204,6.528 -6.815,8.658 -7.989,14.411c-1.733,8.486 3.457,16.685 1.749,25.048c-0.517,2.534 -3.445,5.203 -2.624,8.259c0.535,1.995 2.351,2.747 2.752,5.206c0.535,3.288 1.591,13.69 1.02,17.004c-0.033,0.192 -0.358,1.443 -0.075,1.635c2.878,1.953 12.792,-21.366 13.836,-23.845c1.213,-2.878 3.106,-9.082 4.08,-12.052c1.417,-4.324 -0.14,-31.548 -2.045,-39.28c-1.331,-5.406 -3.812,-16.214 -2.035,-22.392c0.691,-2.403 10.145,-20.286 6.655,-25.124Z" style="fill:url(#_Radial6);"/><path d="M148.686,240.616c-5.012,-6.949 11.695,-10.291 6.864,-15.429c-2.381,-2.531 -9.244,-11.213 -10.64,-13.739c-2.813,-5.09 -0.006,-13.107 -1.585,-16.881c-5.651,-13.503 -3.992,-49.236 -1.816,-54.537c1.747,-4.254 8.783,-15.368 14.185,-15.695c8.06,-0.487 22.45,-5.008 30.776,-5.231c10.373,-0.279 10.115,2.614 19.17,2.836c8.015,0.197 12.654,1.906 15.66,4.669c5.102,4.689 6.513,11.604 10.74,13.421c0.366,0.158 1.547,6.101 2.813,8.796c0.895,1.904 2.235,1.21 1.582,0c-2.614,-4.846 0.923,-10.441 2.823,-13.449c5.714,-9.042 10.097,33.818 3.504,35.879c-2.253,0.704 0.466,5.714 1.615,7.821c0.238,0.438 11.951,-10.849 7.378,-39.047c-0.635,-3.916 -1.66,-8.237 -4.116,-11.62c-2.027,-2.791 -6.269,-3.61 -8.381,-6.47c-2.429,-3.29 -5.652,-13.993 -8.227,-15.932c-3.715,-2.797 -8.438,-3.405 -12.731,-5.049c-1.497,-0.574 -2.685,-1.767 -4.102,-2.489c-3.347,-1.703 -14.841,-3.704 -17.612,-0.927l0.553,-0.049c-12.763,-4.746 -28.935,1.436 -39.603,9.392c-1.647,1.228 -2.608,3.317 -4.031,4.772c-3.624,3.706 -6.925,7.205 -10.18,11.236c-2.038,2.523 -5.312,6.169 -5.794,9.483c-1.307,9.001 -3.184,17.808 -1.637,27.298c0.388,2.381 -0.446,12.253 1.047,19.402c0.816,3.908 1.999,9.022 0.768,12.775c-1.468,4.477 0.101,8.724 -0.768,13.291c-0.597,3.134 4.112,20.398 4.387,23.608c0.553,6.449 -1.296,9.087 1.473,15.181c1.768,3.891 2.585,9.393 2.109,13.568c-0.413,3.629 -4.219,9.236 -3.582,13.145c0.555,3.403 0.78,6.755 1.874,10.312c0.983,3.196 -0.706,8.547 1.708,10.637c2.948,2.551 4.951,12.126 3.776,17.879c-1.732,8.486 -11.946,10.905 -7.358,21.834c3.351,7.98 -3.048,30.369 -3.619,33.683c-0.033,0.192 -0.358,1.443 -0.075,1.635c2.878,1.953 12.475,-28.282 11.052,-31.065c-4.444,-8.698 4.689,-18.354 2.784,-26.087c-0.655,-2.658 0.752,-11.795 0,-21.206c-0.23,-2.886 -2.333,-4.561 -2.784,-7.31c-1.068,-6.515 -0.635,-13.358 0,-15.566c0.221,-0.768 2.407,-4.938 2.784,-7.891c0.803,-6.282 -0.41,-13.593 -2.784,-16.884Z" style="fill:url(#_Radial7);"/><path d="M220.112,166.385c-0.404,-2.256 -6.339,-0.867 -7.084,0c-2.83,3.294 1.379,5.862 4.625,3.76c1.544,-1 2.835,-1.659 2.459,-3.76Z" style="fill:#4b686c;stroke:#4b686c;stroke-width:0.65px;"/><path d="M220.112,166.385c-0.791,-1.92 -5.783,-0.935 -6.657,0c-2.964,3.174 0.952,5.862 4.198,3.76c1.544,-1 3.272,-1.787 2.459,-3.76Z" style="fill:none;stroke:#24383a;stroke-opacity:0.372549;stroke-width:0.65px;"/><path d="M213.581,167.134c-0.427,0.578 -0.038,2.181 0.953,2.512c1.29,0.43 2.747,0.385 3.417,-0.743c1.144,-1.926 -1.982,-4.998 -4.37,-1.769Z" style="stroke:#000;stroke-width:0.65px;"/><path d="M175.311,179.818c-0.373,0.572 -0.037,2.004 0.954,2.308c1.289,0.396 2.746,0.354 3.416,-0.682c1.144,-1.77 -2.388,-4.659 -4.37,-1.626Z" style="stroke:#000;stroke-width:0.65px;"/><path d="M214.808,166.908c-0.161,0.231 -0.306,0.407 -0.381,0.647c-0.126,0.403 -0.085,0.831 0.175,0.833c4.273,0.03 0.206,-1.48 0.206,-1.48Z" style="fill:#fff;stroke:#000;stroke-width:0.24px;"/><path d="M176.322,179.654c-0.161,0.231 -0.306,0.407 -0.382,0.647c-0.125,0.403 -0.084,0.831 0.175,0.833c4.274,0.029 0.207,-1.48 0.207,-1.48Z" style="fill:#fff;stroke:#000;stroke-width:0.24px;"/><path d="M199.939,173.188c-0.441,3.333 0.645,11.44 3.498,19.181c1.391,3.771 5.721,9.316 4.287,10.867" style="fill:none;stroke:#000;stroke-width:0.1px;"/><path d="M205.543,170.973c0.87,-1.966 2.015,-3.466 3.386,-4.397c2.721,-1.849 2.995,-1.484 4.822,-1.555c5.503,-0.214 10.746,-1.306 12.831,-3.611" style="fill:none;stroke:#000;stroke-width:0.95px;"/><path d="M205.543,169.724c0.866,-1.965 1.8,-3.888 3.37,-4.396c1.541,-0.5 2.98,-1.484 4.798,-1.555c5.475,-0.214 10.692,-1.306 12.766,-3.612" style="fill:none;stroke:#7e6357;stroke-opacity:0.505882;stroke-width:3px;"/><path d="M186.588,179.781c-2.949,0 -9.256,-2.636 -11.959,-1.281c-3.011,1.511 -7.093,5.813 -10.433,5.813" style="fill:none;stroke:#000;stroke-width:0.95px;"/><path d="M186.588,179.781c-2.988,-1.7 -7.486,-0.802 -11.959,-1.281c-3.388,-0.362 -7.34,4.09 -10.433,5.813" style="fill:none;stroke:#7e6357;stroke-opacity:0.25098;stroke-width:5px;"/><g><path d="M243.214,240.669c-0.647,6.364 -4.618,18.221 -2.642,25.968" style="fill:none;stroke:#000;stroke-width:0.1px;"/><path d="M243.214,240.669c-0.647,6.364 -4.618,18.221 -2.642,25.968" style="fill:none;stroke:#7e6357;stroke-opacity:0.243137;stroke-width:0.1px;"/><path d="M190.234,251.747c6.654,2.791 11.48,13.432 11.48,16.01" style="fill:none;stroke:#000;stroke-width:0.1px;"/><path d="M190.234,251.747c6.654,2.791 11.48,13.432 11.48,16.01" style="fill:none;stroke:#7e6357;stroke-opacity:0.14902;stroke-width:0.1px;"/><path d="M182,262.513c6.388,1.81 12.196,7.617 18.73,7.617" style="fill:none;stroke:#000;stroke-width:0.1px;"/><path d="M182,262.513c6.388,1.81 12.196,7.617 18.73,7.617" style="fill:none;stroke:#7e6357;stroke-opacity:0.188235;stroke-width:0.1px;"/><path d="M239.562,271.65c9.494,0.205 13.166,-5.889 16.756,-9.603" style="fill:none;stroke:#000;stroke-width:0.1px;"/><path d="M239.562,271.65c9.494,0.205 13.166,-5.889 16.756,-9.603" style="fill:none;stroke:#7e6357;stroke-opacity:0.203922;stroke-width:0.1px;"/></g><g><path d="M243.214,240.669c-0.647,6.364 -4.618,18.221 -2.642,25.968" style="fill:none;stroke:#7e6357;stroke-opacity:0.0392157;stroke-width:8.5px;"/><path d="M243.214,240.669c-0.647,6.364 -4.618,18.221 -2.642,25.968" style="fill:none;stroke:#7e6357;stroke-opacity:0.0392157;stroke-width:2px;"/><path d="M190.234,251.747c6.654,2.791 11.48,13.432 11.48,16.01" style="fill:none;stroke:#7e6357;stroke-opacity:0.0392157;stroke-width:8.5px;"/><path d="M190.234,251.747c6.654,2.791 11.48,13.432 11.48,16.01" style="fill:none;stroke:#7e6357;stroke-opacity:0.0392157;stroke-width:2.5px;"/><path d="M182,262.513c6.388,1.81 12.469,8.41 19.003,8.41" style="fill:none;stroke:#7e6357;stroke-opacity:0.0392157;stroke-width:4px;"/><path d="M239.562,271.65c9.494,0.205 13.166,-5.889 16.756,-9.603" style="fill:none;stroke:#7e6357;stroke-opacity:0.0392157;stroke-width:8.5px;"/><path d="M239.562,271.65c9.494,0.205 13.166,-5.889 16.756,-9.603" style="fill:none;stroke:#7e6357;stroke-opacity:0.0392157;stroke-width:0.9px;"/></g><path d="M234.894,198.268c5.545,7.548 -5.536,31.206 -6.766,34.014" style="fill:none;stroke:#7e6357;stroke-opacity:0.156863;stroke-width:1.5px;"/><path d="M196.898,232.865c-1.179,-2.573 -3.134,-4.549 -5.202,-6.193c-3.404,-2.705 -7.115,-4.508 -8.173,-6.586c-0.625,-1.227 -1.672,-3.724 -2.594,-4.63" style="fill:none;stroke:#ba917f;stroke-opacity:0.317647;stroke-width:2px;"/><path d="M193.855,223.81c-1.565,-1.987 -6.251,-5.586 -8.88,-5.586" style="fill:#ba917f;stroke:#000;stroke-opacity:0.192157;stroke-width:0.3px;"/><path d="M237.907,212.205c2.038,-10.282 1.94,-11.555 1.684,-18.996" style="fill:#ba917f;"/><path d="M231.943,156.014c1.836,2.127 4.114,4.452 5.32,6.908c1.227,2.498 1.633,7.28 3.587,9.27" style="fill:none;stroke:#000;stroke-width:0.2px;"/><path d="M231.943,156.014c1.836,2.127 4.114,4.452 5.32,6.908c1.227,2.498 1.633,7.28 3.587,9.27" style="fill:none;stroke:#7e6357;stroke-opacity:0.14902;stroke-width:3.5px;"/><g><path d="M238.879,145.081c4.287,-11.979 6.029,9.537 4.525,12.551c-0.791,1.587 0.756,4.239 -0.003,5.761c-0.483,0.967 -1.561,-0.332 -1.11,-1.256" style="fill:none;stroke:#000;stroke-width:0.15px;"/><path d="M240.593,150.579c1.194,2.68 2.12,4.426 2.12,7.343" style="fill:none;stroke:#000;stroke-width:0.15px;"/></g><g><path d="M238.879,145.081c4.287,-11.979 6.029,9.537 4.525,12.551c-0.791,1.587 0.756,4.239 -0.003,5.761c-0.483,0.967 -1.561,-0.332 -1.11,-1.256" style="fill:none;stroke:#a3775c;stroke-opacity:0.388235;stroke-width:2.5px;"/><path d="M240.593,150.579c1.194,2.68 2.12,4.426 2.12,7.343" style="fill:none;stroke:#a3775c;stroke-opacity:0.388235;stroke-width:2.5px;"/></g><path d="M198.7,213.723c0.293,1.243 0.436,2.677 1.314,3.571" style="fill:none;stroke:#ba917f;stroke-opacity:0.439216;stroke-width:0.65px;"/><path d="M202.803,213.824c0.463,1.022 0.876,2.247 0.938,3.391c0.005,0.096 0.051,0.611 0.007,0.287" style="fill:none;stroke:#ba917f;stroke-opacity:0.439216;stroke-width:0.65px;"/><path d="M208.276,212.678c0.319,0.889 0.559,4.587 0.861,4.894" style="fill:none;stroke:#ba917f;stroke-opacity:0.439216;stroke-width:0.65px;"/><path d="M212.245,210.555c0.461,0.859 1.452,4.851 1.717,5.392" style="fill:none;stroke:#ba917f;stroke-opacity:0.439216;stroke-width:0.65px;"/><path d="M215.332,208.226c0.543,1.223 0.854,2.498 1.426,3.663c0.15,0.306 0.21,0.743 0.453,0.991" style="fill:none;stroke:#ba917f;stroke-opacity:0.439216;stroke-width:0.65px;"/><path d="M218.11,205.646c0.486,1.034 0.909,1.959 1.263,3.007c0.088,0.262 0.416,0.658 0.416,0.912" style="fill:none;stroke:#ba917f;stroke-opacity:0.439216;stroke-width:0.65px;"/><path d="M220.291,204.601c0.356,0.705 0.598,1.378 0.941,2.075c0.064,0.131 0.309,0.39 0.309,0.5" style="fill:none;stroke:#ba917f;stroke-opacity:0.439216;stroke-width:0.65px;"/><path d="M196.662,213.83c-0.005,0.201 -0.146,1.21 0.014,1.535" style="fill:none;stroke:#ba917f;stroke-opacity:0.439216;stroke-width:0.65px;"/><path d="M194.151,170.353c0.402,0.225 1.455,0.235 1.586,2.538c0.842,14.83 14.28,28.993 9.929,31.812c-3.867,2.505 -4.299,0.314 -5.055,-2.101c-0.936,-2.99 -4.457,-13.057 -5.451,-15.703c-2.019,-5.374 -2.499,-11.164 -2.016,-14.008c0.443,-2.61 1.007,-2.538 1.007,-2.538Z" style="fill:#e2ccc1;fill-opacity:0.329412;"/><path d="M203.883,175.662c0,1.191 0,2.382 0,3.573c0,0.953 1.895,4.416 2.654,3.646c1.046,-1.062 -0.763,-4.843 0.354,-5.977c1.614,-1.639 6.374,-1.195 8.441,-2.245c0.149,-0.075 1.017,-0.32 0.619,-0.718c-1.307,-1.307 -9.826,1.769 -10.212,1.383c-0.421,-0.421 -1.19,-4.712 -2.165,-3.751c-1.037,1.022 -0.119,6.182 0.193,7.433c0.054,0.214 0.285,1.207 0.462,1.207" style="fill:#e2ccc1;fill-opacity:0.356863;"/><path d="M192.819,187.172c0,-2.118 -2.597,-9.68 -5.074,-7.24c-0.318,0.313 2.825,1.878 1.678,3.008c-0.197,0.194 -0.702,0.072 -0.898,0.266c-0.207,0.203 -11.436,1.243 -13.889,2.836c-0.342,0.222 -2.237,1.318 -1.669,1.886c1,0.999 9.879,-2.164 11.554,-2.485c0.939,-0.18 4.182,-0.856 5.26,-0.317c0.029,0.015 2.565,3.84 2.565,1.318c0,-0.754 0,-1.508 0,-2.263" style="fill:#e2ccc1;fill-opacity:0.247059;"/><path d="M191.104,194.601c-0.369,0 -1.11,1.487 -1.314,1.794c-3.44,5.172 -3.18,5.738 -9.062,7.744c-3.783,1.291 -7.972,-9.653 -12.185,-9.538c-4.552,0.125 -0.184,0.047 0,0c5.388,-1.365 15.52,-2.702 20.793,-4.038c0.186,-0.047 1.269,-0.411 1.49,-0.189c0.64,0.639 -0.271,2.648 0.354,3.273" style="fill:#e2ccc1;fill-opacity:0.168627;"/><path d="M225.437,180.775c-2.004,0 -4.059,0.527 -5.986,1.167c-1.273,0.422 -7.984,0.28 -6.708,2.832c2.528,5.056 10.326,2.67 15.099,5.057c0.851,0.426 4.942,0.144 5.294,-3.5c0.049,-0.502 -3.131,-12.817 -1.402,-5.556c0.499,2.093 5.577,-12.202 1.402,-18.36c-0.29,-0.428 -4.767,14.264 -5.294,14.264c-0.734,0 1.269,-2.798 -0.058,0" style="fill:#e2ccc1;fill-opacity:0.172549;"/><path d="M233.139,200.467c0,4.538 0.957,10.685 -0.378,14.91c-0.94,2.973 -1.023,6.521 -2.414,9.262c-1.207,2.378 -2.356,6.968 -4.14,8.726c-12.042,11.862 3.406,-32.62 4.794,-34.028c0.555,-0.563 1.373,0.619 1.504,0.619" style="fill:#e2ccc1;fill-opacity:0.211765;"/><path d="M201.699,228.451c-1.962,-4.462 -7.01,-6.677 -11.082,-9.738c-1.991,-1.497 -4.83,-4.269 -7.362,-4.269c-0.094,0 -0.112,-0.157 -0.18,-0.09c-0.01,0.01 -1.18,-0.408 -1.118,0.09c0.434,3.437 3.506,7.02 5.241,8.158c1.64,1.075 10.363,9.286 11.372,10.826c0.945,1.44 2.256,1.931 3.706,2.656c2.303,1.151 -0.131,-6.741 -0.577,-7.633c-0.071,-0.143 -0.155,-0.719 -0.269,-0.719" style="fill:#e2ccc1;fill-opacity:0.196078;"/><path d="M205.798,148.711c-2.563,0.437 -6.073,15.658 -15.086,16.739c-5.909,0.708 -7.427,1.01 -11.552,-2.091c-4.476,-3.364 -12.313,-2.784 -13.466,-9.644c-1.155,-6.877 19.853,-15.725 25.018,-17.137c2.535,-0.692 17.574,-0.365 19.915,0.22c1.303,0.326 -4.829,11.913 -4.829,11.913Z" style="fill:#e2ccc1;fill-opacity:0.0784314;"/><path d="M234.309,161.171c0,1.77 1.066,11.226 -1.157,14.812c-1.4,2.257 -1.116,4.284 -0.432,6.179c2.043,5.67 -2.606,9.273 -5.125,7.991c-3.056,-1.557 -9.503,-1.406 -8.259,-1.406c1.674,0 6.909,5.78 8.259,6.161c2.748,0.775 4.837,-1.581 6.488,-3.461c4.181,-4.762 5.971,-8.618 4.651,-15.753c-0.344,-1.86 -1.256,-3.586 -1.57,-5.448c-0.293,-1.729 -2.196,-9.202 -2.655,-9.202" style="fill:#d89e92;fill-opacity:0.494118;"/><path d="M214.844,165.402c-5.196,-0.761 -8.02,3.619 -8.02,3.791c0,0.113 -1.566,3.112 -1.566,2.999" style="fill:none;stroke:#000;stroke-width:0.2px;"/><path d="M188.289,200.105c3.021,8.172 -6.428,14.761 -13.973,9.79c-4.698,-3.096 -6.697,-10.339 -9.739,-15.034c-0.235,-0.363 -1.898,-3.665 -1.821,-3.638c6.117,2.148 10.211,8.778 15.856,11.572c5.728,2.834 9.677,-2.69 9.677,-2.69Z" style="fill:#d89e92;fill-opacity:0.313726;"/><path d="M209.495,163.523c0,-1.337 13.393,-8.79 15.264,-5.046c2.906,5.811 -8.429,3.001 -10.635,4.088c-0.67,0.33 -4.418,2.055 -4.418,0.788" style="fill:#e3baa0;fill-opacity:0.380392;"/><path d="M169.975,175.374c0,0 -4.439,2.314 -6.256,4.114c-0.309,0.306 -2.312,1.981 -1.201,2.536c0.38,0.191 3.069,-0.246 3.502,-0.383c1.826,-0.577 2.808,-2.969 4.889,-3.496c0.595,-0.151 4.257,-1.88 3.985,-2.424c-0.776,-1.552 -3.779,-0.347 -4.919,-0.347Z" style="fill:#e3baa0;fill-opacity:0.482353;"/><path d="M236.224,240.131c0,5.292 0.702,30.287 -2.109,34.514c-1.141,1.715 -6.415,2.144 -8.341,2.541c-3.25,0.67 -7.204,0.534 -10.079,-0.904c-6.35,-3.175 -5.018,-7.869 -8.371,-11.222c-3.887,-3.887 -6.151,-10.642 -9.275,-15.383c-0.371,-0.563 -2.583,-3.334 -1.929,-3.998c0.336,-0.341 1.856,0.589 2.359,0.589c10.27,0 9.681,9.116 24.549,5.348c3.084,-0.782 6.096,-1.995 8.464,-4.399c1.561,-1.584 4.637,-5.046 4.637,-7.254" style="fill:#dbaf93;"/><path d="M241.861,205.217c0,2.891 -3.794,12.647 -5.321,15.005c-6.347,9.801 -10.457,17.408 -20.722,19.488c-2.037,0.412 -7.72,1.199 -9.38,0c-2.551,-1.845 -12.899,-8.725 -15.057,-10.883c-0.036,-0.036 -9.571,-7.138 -8.718,-6.449c15.564,12.59 19.698,20.641 29.066,21.464c11.836,1.038 18.619,-4.201 28.259,-21.464c5.669,-10.153 1.873,-17.161 1.873,-17.161Z" style="fill:#a27a67;fill-opacity:0.278431;"/><ellipse cx="283.801" cy="282.144" rx="14.244" ry="13.769" style="fill:#a6a6a6;stroke:#000;stroke-width:0.15px;"/><ellipse cx="283.745" cy="282.196" rx="11.242" ry="11.181" style="fill:#50ffff;stroke:#000;stroke-width:0.15px;"/><g><g><path d="M279.45,285.634c-3.529,-7.474 4.05,-11.014 9.653,-7.495c2.759,1.733 1.909,5.302 1.708,8.147c-0.155,2.2 0.544,3.996 0.678,3.996c0,0 -1.528,1.53 -3.942,2.429c-1.033,0.384 -2.341,0.571 -3.575,0.608c-1.239,0.037 -2.276,-0.104 -3.157,-0.356c-3.045,-0.874 -4.615,-2.537 -4.615,-2.537c4.236,-1.272 9.92,-6.214 8.274,-8.955c-1.235,-2.055 -6.766,0.744 -4.367,3.039" style="fill:#2ea7b8;"/></g></g><path d="M280.549,281.833c-0.498,0.296 -1.34,0.472 -1.415,1.03c-0.097,0.715 0.26,1.213 0.173,1.286c-0.43,0.364 -0.456,0.766 -0.336,1.311c0.052,0.241 0.86,0.953 1.027,0.387c0.041,-0.142 -0.33,-0.311 -0.449,-0.211c-0.6,0.506 0.182,1.087 0.669,1.087c0.917,0.002 1.007,-1.014 1.192,-1.643c0.091,-0.309 0.926,0.01 1.061,-0.579c0.116,-0.505 -0.662,-0.592 -0.788,-0.935c-0.046,-0.123 0.293,-0.257 0.262,-0.39c-0.064,-0.279 -0.559,-0.477 -0.747,-0.637c-0.015,-0.012 -0.074,0.005 -0.059,-0.011c0.352,-0.372 0.247,-0.832 -0.076,-0.45" style="fill:#e6e6e6;"/></g><defs><radialGradient id="_Radial1" cx="0" cy="0" r="1" gradientUnits="userSpaceOnUse" gradientTransform="matrix(20.8536,0,0,10.5728,208.201,211.899)"><stop offset="0" style="stop-color:#8f6f53;stop-opacity:0.278431"/><stop offset="1" style="stop-color:#784d37;stop-opacity:0.278431"/></radialGradient><radialGradient id="_Radial2" cx="0" cy="0" r="1" gradientUnits="userSpaceOnUse" gradientTransform="matrix(15.6026,0,0,7.62072,209.17,210.394)"><stop offset="0" style="stop-color:#8f6f53;stop-opacity:0.294118"/><stop offset="1" style="stop-color:#784d37;stop-opacity:0.294118"/></radialGradient><radialGradient id="_Radial3" cx="0" cy="0" r="1" gradientUnits="userSpaceOnUse" gradientTransform="matrix(128.935,0,0,271.286,132.888,231.482)"><stop offset="0" style="stop-color:#8f6f53;stop-opacity:1"/><stop offset="1" style="stop-color:#784d37;stop-opacity:1"/></radialGradient><radialGradient id="_Radial4" cx="0" cy="0" r="1" gradientUnits="userSpaceOnUse" gradientTransform="matrix(59.9625,0,0,135.643,192.851,231.482)"><stop offset="0" style="stop-color:#eab78a;stop-opacity:1"/><stop offset="1" style="stop-color:#bb8d76;stop-opacity:1"/></radialGradient><radialGradient id="_Radial5" cx="0" cy="0" r="1" gradientUnits="userSpaceOnUse" gradientTransform="matrix(128.935,0,0,271.286,132.888,231.482)"><stop offset="0" style="stop-color:#e0b187;stop-opacity:1"/><stop offset="1" style="stop-color:#674e42;stop-opacity:1"/></radialGradient><radialGradient id="_Radial6" cx="0" cy="0" r="1" gradientUnits="userSpaceOnUse" gradientTransform="matrix(128.935,0,0,271.286,132.888,231.482)"><stop offset="0" style="stop-color:#e8cab0;stop-opacity:1"/><stop offset="1" style="stop-color:#744c37;stop-opacity:1"/></radialGradient><radialGradient id="_Radial7" cx="0" cy="0" r="1" gradientUnits="userSpaceOnUse" gradientTransform="matrix(128.935,0,0,271.286,132.888,231.482)"><stop offset="0" style="stop-color:#ce9a6c;stop-opacity:1"/><stop offset="1" style="stop-color:#744c37;stop-opacity:1"/></radialGradient></defs></svg>