<?xml version="1.0" encoding="UTF-8" standalone="no"?><!DOCTYPE svg PUBLIC "-//W3C//DTD SVG 1.1//EN" "http://www.w3.org/Graphics/SVG/1.1/DTD/svg11.dtd"><svg width="100%" height="100%" viewBox="0 0 537 807" version="1.1" xmlns="http://www.w3.org/2000/svg" xmlns:xlink="http://www.w3.org/1999/xlink" xml:space="preserve" style="fill-rule:evenodd;clip-rule:evenodd;stroke-linejoin:round;stroke-miterlimit:1.41421;"><rect id="Artboard1" x="0" y="0" width="536.831" height="806.992" style="fill:none;"/><g><g><path d="M246.622,323.814c18.336,-0.561 57.225,9.59 73.043,22.761c39.112,32.565 46.157,98.993 48.638,180.099c2.206,72.111 4.122,135.137 -18.873,169.555c-17.682,26.465 -55.324,41.972 -78.614,43.968c-28.987,2.485 -71.552,-7.486 -94.08,-29.315c-35.075,-33.988 -36.923,-103.745 -39.168,-177.149c-2.274,-74.337 -0.554,-148.325 38.052,-186.588c18.57,-18.405 48.881,-22.654 71.002,-23.331Z" style="fill:#737373;fill-opacity:0.368627;"/><path d="M255.418,303.568c18.401,-0.563 57.434,9.848 73.316,23.334c39.27,33.346 46.38,101.323 48.919,184.318c2.257,73.789 4.218,138.282 -18.837,173.486c-17.729,27.07 -55.419,44.226 -78.866,44.943c-22.722,0.696 -71.81,-7.703 -94.431,-30.054c-35.221,-34.799 -37.117,-106.18 -39.414,-181.292c-2.327,-76.067 -0.646,-151.774 38.074,-190.904c18.625,-18.822 49.041,-23.152 71.239,-23.831Z" style="fill:#f2f2f2;"/><path d="M255.366,307.093c18.375,-0.562 57.352,9.754 73.209,23.126c39.208,33.063 46.294,100.478 48.812,182.787c2.239,73.18 4.183,137.141 -18.847,172.059c-17.71,26.851 -55.352,43.874 -78.766,44.59c-22.69,0.694 -71.709,-7.625 -94.294,-29.787c-35.164,-34.505 -37.042,-105.296 -39.321,-179.789c-2.308,-75.438 -0.613,-150.522 38.062,-189.337c18.603,-18.671 48.977,-22.971 71.145,-23.649Z" style="fill:#fff;"/><path d="M254.199,316.742c18.143,-0.555 56.624,9.515 72.277,22.579c38.702,32.3 45.678,98.182 48.138,178.622c2.188,71.519 4.089,134.026 -18.662,168.159c-17.494,26.247 -54.665,42.895 -77.784,43.602c-22.403,0.685 -70.799,-7.43 -93.092,-29.081c-34.709,-33.711 -36.542,-102.895 -38.769,-175.696c-2.255,-73.725 -0.559,-147.105 37.639,-185.051c18.374,-18.253 48.365,-22.464 70.253,-23.134Z" style="fill:#f2f2f2;"/><path d="M255.308,313.28c18.337,-0.561 57.226,9.59 73.044,22.761c39.111,32.564 46.156,98.993 48.637,180.099c2.206,72.111 4.122,135.137 -18.872,169.555c-17.682,26.465 -55.287,42.464 -78.614,43.968c-35.604,2.296 -71.552,-7.486 -94.08,-29.315c-35.076,-33.988 -36.923,-103.745 -39.169,-177.15c-2.274,-74.336 -0.554,-148.324 38.053,-186.587c18.57,-18.405 48.881,-22.654 71.001,-23.331Z" style="fill:#f2f2f2;"/><path d="M159.188,379.204c7.993,-21.822 14.77,-24.456 27.867,-37.719c0.94,-0.952 2.828,-0.309 5.745,-0.237c87.426,2.163 116.406,74.954 127.637,105.349c32.687,88.467 54.347,188.753 54.683,187.676c0.375,-1.2 0.084,-205.797 -22.517,-258.355c-13.097,-30.458 -29.689,-41.264 -44.046,-47.098c-32.677,-13.279 -59.926,-12.337 -71.402,-10.772c-69.55,9.488 -77.967,61.156 -77.967,61.156Z" style="fill:#fff;"/><path d="M272.621,668.389c8.673,2.709 13.498,12.005 10.767,20.746c-2.73,8.74 -11.988,13.637 -20.662,10.927c-8.673,-2.709 -13.498,-12.005 -10.767,-20.745c2.73,-8.741 11.989,-13.637 20.662,-10.928Z" style="fill:#ccc;"/></g></g></svg>