<?xml version="1.0" encoding="UTF-8" standalone="no"?><!DOCTYPE svg PUBLIC "-//W3C//DTD SVG 1.1//EN" "http://www.w3.org/Graphics/SVG/1.1/DTD/svg11.dtd"><svg width="100%" height="100%" viewBox="0 0 427 309" version="1.1" xmlns="http://www.w3.org/2000/svg" xmlns:xlink="http://www.w3.org/1999/xlink" xml:space="preserve" style="fill-rule:evenodd;clip-rule:evenodd;stroke-linecap:round;stroke-linejoin:round;stroke-miterlimit:1.5;"><g id="Group"><g><path id="Path" d="M94.102,181.164l-0.055,0.009l-0.057,0.009l-0.093,0.017l-0.126,0.024l-0.161,0.033l-0.086,0.018l-0.097,0.021l-0.104,0.024l-0.112,0.027l-0.118,0.028l-0.125,0.032l-0.132,0.034l-0.139,0.037l-0.144,0.04l-0.151,0.042l-0.158,0.046l-0.163,0.049l-0.169,0.052l-0.176,0.055l-0.18,0.059l-0.186,0.062l-0.192,0.066l-0.196,0.069l-0.202,0.074l-0.207,0.076l-0.211,0.081l-0.216,0.085l-0.221,0.089l-0.225,0.092l-0.23,0.098l-0.233,0.101l-0.238,0.106l-0.241,0.11l-0.245,0.115l-0.252,0.12l-0.123,0.06l-0.127,0.063l-0.127,0.064l-0.128,0.065l-0.129,0.066l-0.13,0.068l-0.131,0.068l-0.131,0.07l-0.133,0.072l-0.133,0.072l-0.133,0.074l-0.134,0.075l-0.135,0.077l-0.136,0.077l-0.136,0.079l-0.137,0.081l-0.138,0.081l-0.138,0.084l-0.139,0.084l-0.139,0.086l-0.14,0.087l-0.14,0.089l-0.141,0.09l-0.141,0.091l-0.142,0.093l-0.143,0.094l-0.142,0.096l-0.144,0.097l-0.143,0.099l-0.145,0.1l-0.144,0.102l-0.145,0.103l-0.145,0.105l-0.146,0.106l-0.146,0.108l-0.146,0.11l-0.147,0.11l-0.146,0.113l-0.147,0.114l-0.148,0.116l-0.148,0.117l-0.147,0.119l-0.148,0.121l-0.149,0.122l-0.148,0.124l-0.149,0.125l-0.149,0.127l-0.148,0.129l-0.149,0.131l-0.149,0.132l-0.15,0.134l-0.149,0.136l-0.149,0.137l-0.15,0.14l-0.149,0.141l-0.15,0.142l-0.149,0.145l-0.149,0.146l-0.15,0.149l-0.149,0.15l-0.149,0.152l-0.15,0.153l-0.149,0.156l-0.149,0.157l-0.148,0.16l-0.149,0.161l-0.149,0.163l-0.148,0.165l-0.148,0.167l-0.148,0.169l-0.148,0.171l-0.148,0.173l-0.147,0.175l-0.147,0.177l-0.147,0.179l-0.146,0.181l-0.147,0.183l-0.146,0.185l-0.145,0.187l-0.145,0.189l-0.145,0.192l-0.144,0.193l-0.144,0.196l-0.144,0.197l-0.143,0.2l-0.143,0.202l-0.142,0.204l-0.142,0.206l-0.141,0.209l-0.141,0.211l-0.14,0.212l-0.14,0.216l-0.139,0.217l-0.139,0.22l-0.138,0.221l-0.137,0.225l-0.137,0.226l-0.136,0.229l-0.136,0.231l-0.135,0.233l-0.134,0.236l-0.133,0.238l-0.133,0.241l-0.132,0.243l-0.131,0.245l-0.131,0.248l-0.129,0.25l-0.129,0.253l-0.128,0.255l-0.127,0.257l-0.127,0.26l-0.125,0.263l-0.125,0.265l-0.124,0.267l-0.123,0.27l-0.122,0.273l-0.12,0.275l-0.12,0.278l-0.119,0.28l-0.118,0.283l-0.117,0.286l-0.116,0.288l-0.115,0.291l-0.114,0.293l-0.113,0.296l-0.112,0.299l-0.11,0.302l-0.11,0.304l-0.108,0.307l-0.107,0.31l-0.106,0.312l-0.105,0.315l-0.103,0.318l-0.102,0.321l-0.101,0.323l-0.1,0.327l-0.098,0.329l-0.097,0.332l-0.096,0.335l-0.095,0.337l-0.093,0.341l-0.091,0.343l-0.091,0.347l-0.089,0.349l-0.087,0.352l-0.086,0.355l-0.084,0.358l-0.083,0.361l-0.082,0.365l-0.08,0.366l-0.079,0.37l-0.076,0.374l-0.076,0.376l-0.073,0.379l-0.073,0.382l-0.07,0.385l-0.069,0.388l-0.067,0.391l-0.066,0.395l-0.064,0.397l-0.062,0.401l-0.06,0.404l-0.059,0.407l-0.056,0.41l-0.055,0.413l-0.054,0.417l-0.051,0.419l-0.05,0.423l-0.047,0.426l-0.046,0.43l-0.044,0.432l-0.042,0.438l-0.098,1.052l-0.095,1.042l-0.092,1.03l-0.09,1.018l-0.086,1.007l-0.084,0.995l-0.081,0.983l-0.078,0.972l-0.076,0.961l-0.073,0.949l-0.07,0.938l-0.068,0.927l-0.065,0.916l-0.063,0.905l-0.06,0.894l-0.057,0.884l-0.056,0.872l-0.053,0.862l-0.05,0.851l-0.048,0.84l-0.046,0.831l-0.044,0.819l-0.041,0.81l-0.039,0.799l-0.037,0.789l-0.035,0.779l-0.033,0.769l-0.031,0.759l-0.029,0.749l-0.026,0.74l-0.025,0.73l-0.023,0.72l-0.021,0.71l-0.019,0.701l-0.017,0.692l-0.016,0.683l-0.013,0.673l-0.012,0.664l-0.01,0.655l-0.009,0.646l-0.007,0.637l-0.005,0.628l-0.004,0.62l-0.002,0.61l-0.001,0.602l0.001,0.594l0.002,0.585l0.003,0.577l0.005,0.568l0.007,0.56l0.007,0.552l0.009,0.544l0.01,0.536l0.012,0.528l0.012,0.521l0.014,0.512l0.014,0.505l0.016,0.497l0.017,0.49l0.018,0.482l0.019,0.475l0.019,0.467l0.021,0.46l0.022,0.454l0.022,0.446l0.023,0.439l0.024,0.432l0.025,0.426l0.025,0.418l0.027,0.412l0.026,0.406l0.028,0.399l0.028,0.393l0.028,0.386l0.029,0.38l0.03,0.374l0.03,0.368l0.031,0.362l0.03,0.355l0.032,0.351l0.031,0.344l0.032,0.339l0.032,0.333l0.032,0.326l0.066,0.641l0.066,0.618l0.066,0.598l0.066,0.578l0.067,0.56l0.065,0.542l0.066,0.524l0.064,0.507l0.125,0.97l0.119,0.911l0.057,0.436l0.054,0.425l0.052,0.413l0.049,0.403l0.045,0.394l0.043,0.385l0.039,0.375l0.018,0.188l0.017,0.185l0.016,0.183l0.014,0.182l0.014,0.18l0.012,0.171l-4.988,0.344l-0.011,-0.155l-0.011,-0.15l-0.013,-0.154l-0.013,-0.156l-0.015,-0.16l-0.016,-0.161l-0.035,-0.341l-0.039,-0.352l-0.042,-0.367l-0.047,-0.382l-0.05,-0.398l-0.052,-0.414l-0.056,-0.429l-0.119,-0.912l-0.127,-0.979l-0.065,-0.519l-0.067,-0.537l-0.068,-0.557l-0.068,-0.576l-0.069,-0.597l-0.068,-0.618l-0.068,-0.639l-0.068,-0.66l-0.033,-0.341l-0.033,-0.344l-0.033,-0.351l-0.033,-0.356l-0.032,-0.363l-0.032,-0.368l-0.032,-0.374l-0.031,-0.381l-0.03,-0.386l-0.031,-0.393l-0.029,-0.399l-0.029,-0.406l-0.028,-0.412l-0.028,-0.418l-0.027,-0.426l-0.026,-0.431l-0.026,-0.439l-0.024,-0.446l-0.024,-0.452l-0.023,-0.459l-0.023,-0.467l-0.021,-0.473l-0.02,-0.481l-0.02,-0.488l-0.018,-0.495l-0.017,-0.503l-0.016,-0.51l-0.015,-0.518l-0.014,-0.525l-0.013,-0.533l-0.012,-0.541l-0.01,-0.549l-0.009,-0.557l-0.008,-0.564l-0.006,-0.573l-0.005,-0.581l-0.004,-0.589l-0.002,-0.598l-0.001,-0.606l0.001,-0.614l0.002,-0.623l0.004,-0.631l0.005,-0.641l0.007,-0.649l0.009,-0.657l0.011,-0.667l0.012,-0.676l0.014,-0.685l0.015,-0.694l0.018,-0.703l0.019,-0.712l0.021,-0.722l0.024,-0.731l0.025,-0.741l0.027,-0.751l0.029,-0.76l0.031,-0.77l0.034,-0.779l0.035,-0.79l0.037,-0.8l0.04,-0.809l0.042,-0.82l0.044,-0.83l0.047,-0.841l0.048,-0.85l0.052,-0.861l0.053,-0.872l0.056,-0.882l0.058,-0.893l0.061,-0.904l0.063,-0.915l0.066,-0.925l0.068,-0.936l0.071,-0.948l0.074,-0.959l0.076,-0.969l0.079,-0.982l0.082,-0.992l0.085,-1.004l0.087,-1.016l0.09,-1.027l0.093,-1.038l0.096,-1.051l0.099,-1.064l0.044,-0.459l0.047,-0.458l0.048,-0.455l0.051,-0.452l0.052,-0.449l0.055,-0.445l0.057,-0.443l0.058,-0.439l0.061,-0.437l0.062,-0.433l0.064,-0.43l0.067,-0.428l0.068,-0.424l0.07,-0.421l0.071,-0.419l0.074,-0.415l0.076,-0.412l0.077,-0.41l0.079,-0.406l0.081,-0.404l0.082,-0.4l0.085,-0.398l0.086,-0.394l0.088,-0.392l0.089,-0.389l0.091,-0.386l0.093,-0.384l0.094,-0.38l0.096,-0.377l0.098,-0.375l0.099,-0.372l0.101,-0.369l0.103,-0.366l0.103,-0.363l0.106,-0.361l0.107,-0.358l0.108,-0.355l0.11,-0.352l0.112,-0.35l0.113,-0.347l0.114,-0.344l0.116,-0.341l0.117,-0.339l0.118,-0.336l0.12,-0.333l0.121,-0.33l0.123,-0.328l0.124,-0.326l0.125,-0.322l0.126,-0.32l0.128,-0.317l0.129,-0.315l0.13,-0.312l0.131,-0.31l0.133,-0.306l0.134,-0.305l0.134,-0.301l0.136,-0.299l0.138,-0.297l0.138,-0.294l0.139,-0.291l0.141,-0.289l0.141,-0.287l0.143,-0.284l0.143,-0.281l0.145,-0.279l0.146,-0.276l0.146,-0.274l0.148,-0.272l0.148,-0.269l0.149,-0.266l0.151,-0.264l0.151,-0.262l0.152,-0.259l0.153,-0.257l0.153,-0.254l0.155,-0.252l0.155,-0.25l0.156,-0.247l0.157,-0.245l0.157,-0.243l0.159,-0.24l0.159,-0.238l0.159,-0.235l0.161,-0.234l0.161,-0.231l0.161,-0.228l0.162,-0.227l0.163,-0.224l0.164,-0.221l0.164,-0.22l0.164,-0.217l0.165,-0.215l0.166,-0.213l0.166,-0.211l0.166,-0.208l0.167,-0.206l0.167,-0.204l0.168,-0.202l0.168,-0.2l0.169,-0.197l0.169,-0.196l0.169,-0.193l0.169,-0.191l0.17,-0.189l0.17,-0.187l0.171,-0.185l0.17,-0.182l0.171,-0.181l0.171,-0.178l0.171,-0.177l0.172,-0.174l0.171,-0.173l0.172,-0.17l0.172,-0.168l0.172,-0.167l0.172,-0.164l0.172,-0.162l0.172,-0.161l0.172,-0.158l0.172,-0.157l0.172,-0.154l0.172,-0.153l0.172,-0.15l0.172,-0.149l0.171,-0.147l0.172,-0.145l0.172,-0.143l0.171,-0.141l0.171,-0.14l0.171,-0.137l0.171,-0.136l0.171,-0.134l0.17,-0.132l0.17,-0.131l0.17,-0.128l0.17,-0.127l0.169,-0.125l0.169,-0.123l0.168,-0.122l0.168,-0.119l0.168,-0.119l0.168,-0.116l0.166,-0.115l0.167,-0.113l0.166,-0.111l0.166,-0.11l0.165,-0.108l0.164,-0.106l0.164,-0.105l0.164,-0.103l0.163,-0.102l0.162,-0.1l0.161,-0.098l0.161,-0.097l0.161,-0.095l0.16,-0.094l0.159,-0.092l0.158,-0.091l0.158,-0.089l0.157,-0.088l0.156,-0.086l0.155,-0.085l0.155,-0.084l0.154,-0.082l0.153,-0.08l0.152,-0.079l0.151,-0.078l0.15,-0.076l0.15,-0.075l0.149,-0.073l0.15,-0.074l0.29,-0.139l0.288,-0.135l0.285,-0.13l0.28,-0.125l0.276,-0.119l0.271,-0.115l0.267,-0.11l0.262,-0.105l0.257,-0.101l0.252,-0.096l0.247,-0.092l0.242,-0.088l0.236,-0.083l0.23,-0.079l0.225,-0.075l0.219,-0.072l0.213,-0.067l0.207,-0.064l0.2,-0.06l0.194,-0.056l0.188,-0.053l0.181,-0.05l0.174,-0.046l0.167,-0.043l0.16,-0.04l0.153,-0.038l0.145,-0.034l0.138,-0.032l0.13,-0.028l0.127,-0.028l0.216,-0.044l0.189,-0.036l0.154,-0.027l0.123,-0.02l0.091,-0.014l0.743,4.944Z" style="fill:#404040;"/><path id="Path1" d="M155.966,88.845l0.036,0.405l0.037,0.4l0.038,0.395l0.039,0.389l0.04,0.385l0.041,0.38l0.043,0.375l0.044,0.37l0.045,0.365l0.046,0.361l0.047,0.356l0.049,0.351l0.049,0.346l0.052,0.341l0.052,0.337l0.053,0.333l0.055,0.327l0.056,0.324l0.057,0.318l0.059,0.315l0.059,0.31l0.061,0.305l0.063,0.301l0.063,0.297l0.065,0.293l0.066,0.288l0.067,0.284l0.069,0.28l0.07,0.276l0.071,0.272l0.072,0.268l0.074,0.263l0.075,0.26l0.076,0.256l0.078,0.252l0.079,0.249l0.08,0.244l0.081,0.241l0.083,0.237l0.084,0.233l0.085,0.23l0.087,0.227l0.088,0.223l0.089,0.219l0.091,0.216l0.091,0.213l0.093,0.21l0.095,0.206l0.096,0.203l0.097,0.201l0.098,0.197l0.1,0.194l0.101,0.192l0.103,0.188l0.104,0.186l0.105,0.183l0.107,0.18l0.108,0.178l0.11,0.176l0.111,0.173l0.113,0.17l0.114,0.169l0.116,0.166l0.117,0.164l0.119,0.162l0.121,0.16l0.122,0.157l0.124,0.156l0.126,0.155l0.127,0.152l0.129,0.151l0.132,0.149l0.133,0.147l0.134,0.146l0.137,0.144l0.139,0.143l0.141,0.142l0.143,0.14l0.145,0.139l0.147,0.138l0.149,0.136l0.152,0.136l0.154,0.134l0.156,0.134l0.158,0.132l0.161,0.131l0.163,0.131l0.165,0.129l0.168,0.129l0.171,0.128l0.172,0.127l0.176,0.127l0.178,0.125l0.181,0.126l0.183,0.124l0.186,0.124l0.188,0.123l0.191,0.123l0.194,0.122l0.197,0.122l0.199,0.121l0.202,0.121l0.205,0.121l0.208,0.12l0.211,0.12l0.213,0.119l0.216,0.119l0.22,0.119l0.221,0.119l0.225,0.119l0.228,0.118l0.231,0.119l0.233,0.118l0.237,0.118l0.239,0.118l0.243,0.118l0.245,0.119l0.249,0.118l0.251,0.118l0.254,0.119l0.257,0.118l0.261,0.119l0.263,0.119l0.266,0.12l0.27,0.119l0.272,0.12l1.981,0.866l-5.563,46.267l-4.964,-0.597l5.121,-42.592l-0.267,-0.123l-0.273,-0.127l-0.27,-0.127l-0.268,-0.128l-0.266,-0.128l-0.264,-0.129l-0.261,-0.129l-0.259,-0.129l-0.258,-0.131l-0.255,-0.131l-0.253,-0.131l-0.251,-0.132l-0.248,-0.134l-0.247,-0.134l-0.245,-0.135l-0.242,-0.135l-0.241,-0.137l-0.238,-0.138l-0.237,-0.139l-0.234,-0.14l-0.233,-0.142l-0.23,-0.142l-0.228,-0.144l-0.227,-0.146l-0.224,-0.146l-0.222,-0.148l-0.221,-0.15l-0.218,-0.151l-0.216,-0.153l-0.215,-0.155l-0.212,-0.156l-0.21,-0.158l-0.208,-0.159l-0.207,-0.162l-0.204,-0.163l-0.202,-0.165l-0.2,-0.168l-0.198,-0.169l-0.196,-0.171l-0.194,-0.173l-0.191,-0.176l-0.19,-0.177l-0.187,-0.18l-0.186,-0.182l-0.183,-0.184l-0.181,-0.186l-0.179,-0.189l-0.176,-0.191l-0.175,-0.193l-0.172,-0.196l-0.17,-0.198l-0.167,-0.2l-0.166,-0.203l-0.163,-0.205l-0.161,-0.208l-0.158,-0.21l-0.156,-0.212l-0.154,-0.215l-0.152,-0.218l-0.149,-0.22l-0.147,-0.223l-0.145,-0.225l-0.142,-0.228l-0.141,-0.23l-0.137,-0.233l-0.136,-0.235l-0.133,-0.239l-0.131,-0.24l-0.129,-0.244l-0.126,-0.246l-0.124,-0.248l-0.122,-0.252l-0.12,-0.254l-0.118,-0.257l-0.115,-0.26l-0.113,-0.262l-0.111,-0.265l-0.109,-0.268l-0.107,-0.271l-0.105,-0.274l-0.102,-0.277l-0.101,-0.279l-0.099,-0.283l-0.096,-0.285l-0.095,-0.289l-0.092,-0.292l-0.091,-0.294l-0.089,-0.298l-0.087,-0.301l-0.085,-0.305l-0.083,-0.307l-0.081,-0.311l-0.08,-0.314l-0.078,-0.317l-0.076,-0.321l-0.074,-0.325l-0.072,-0.327l-0.071,-0.332l-0.07,-0.334l-0.067,-0.339l-0.066,-0.342l-0.064,-0.346l-0.063,-0.349l-0.061,-0.353l-0.06,-0.357l-0.058,-0.361l-0.057,-0.365l-0.055,-0.369l-0.053,-0.373l-0.052,-0.377l-0.051,-0.381l-0.049,-0.385l-0.048,-0.389l-0.047,-0.393l-0.045,-0.398l-0.044,-0.402l-0.042,-0.407l-0.041,-0.411l-0.04,-0.415l-0.039,-0.42l-0.037,-0.424l-0.036,-0.424l4.983,-0.419l0.034,0.415Z" style="fill:#404040;"/><path id="Path2" d="M208.459,5.575l0.5,0.003l0.502,0.006l0.503,0.008l0.255,0.006l0.254,0.006l0.255,0.007l0.255,0.009l0.255,0.008l0.256,0.01l0.257,0.011l0.257,0.012l0.257,0.013l0.258,0.014l0.258,0.015l0.259,0.016l0.259,0.018l0.259,0.018l0.26,0.02l0.261,0.021l0.26,0.022l0.261,0.024l0.261,0.024l0.262,0.027l0.262,0.027l0.262,0.029l0.262,0.031l0.263,0.032l0.263,0.033l0.263,0.035l0.263,0.037l0.263,0.038l0.264,0.04l0.264,0.042l0.264,0.043l0.264,0.045l0.264,0.047l0.264,0.048l0.264,0.051l0.265,0.052l0.264,0.054l0.264,0.056l0.265,0.059l0.264,0.06l0.265,0.062l0.264,0.064l0.264,0.066l0.264,0.069l0.264,0.07l0.264,0.073l0.264,0.075l0.264,0.077l0.263,0.079l0.264,0.082l0.263,0.084l0.263,0.087l0.262,0.089l0.263,0.091l0.262,0.094l0.261,0.096l0.262,0.099l0.261,0.101l0.26,0.104l0.261,0.107l0.26,0.109l0.259,0.112l0.259,0.115l0.258,0.117l0.258,0.12l0.257,0.123l0.257,0.126l0.256,0.129l0.256,0.132l0.255,0.134l0.254,0.137l0.254,0.141l0.253,0.143l0.252,0.147l0.251,0.149l0.251,0.153l0.249,0.155l0.249,0.159l0.248,0.162l0.248,0.165l0.246,0.168l0.245,0.171l0.245,0.175l0.243,0.178l0.242,0.181l0.239,0.183l0.123,0.095l0.12,0.095l0.119,0.095l0.12,0.096l0.119,0.097l0.119,0.098l0.119,0.098l0.118,0.1l0.118,0.1l0.118,0.101l0.117,0.102l0.117,0.103l0.117,0.103l0.117,0.105l0.116,0.105l0.116,0.107l0.115,0.107l0.116,0.108l0.115,0.109l0.114,0.11l0.114,0.11l0.114,0.112l0.114,0.112l0.113,0.113l0.113,0.115l0.113,0.115l0.112,0.116l0.112,0.117l0.112,0.117l0.111,0.119l0.111,0.12l0.111,0.12l0.11,0.122l0.11,0.122l0.109,0.123l0.11,0.124l0.108,0.125l0.109,0.126l0.108,0.127l0.107,0.128l0.108,0.129l0.107,0.129l0.106,0.131l0.106,0.131l0.106,0.133l0.106,0.133l0.105,0.135l0.104,0.135l0.104,0.136l0.104,0.137l0.104,0.138l0.103,0.139l0.102,0.14l0.103,0.141l0.101,0.142l0.102,0.143l0.101,0.144l0.1,0.144l0.101,0.146l0.099,0.147l0.1,0.147l0.099,0.149l0.098,0.15l0.098,0.15l0.098,0.152l0.097,0.152l0.097,0.154l0.097,0.154l0.096,0.156l0.095,0.156l0.095,0.158l0.095,0.158l0.094,0.16l0.094,0.16l0.094,0.162l0.093,0.162l0.092,0.163l0.092,0.165l0.092,0.165l0.091,0.167l0.091,0.167l0.09,0.169l0.09,0.169l0.089,0.171l0.089,0.172l0.089,0.172l0.088,0.174l0.087,0.175l0.087,0.175l0.087,0.177l0.086,0.178l0.086,0.179l0.085,0.18l0.085,0.181l0.084,0.182l0.084,0.183l0.084,0.184l0.083,0.185l0.082,0.186l0.082,0.188l0.082,0.188l0.081,0.189l0.08,0.191l0.08,0.192l0.08,0.192l0.079,0.194l0.079,0.195l0.078,0.196l0.077,0.197l0.078,0.198l0.076,0.199l0.077,0.201l0.075,0.201l0.076,0.203l0.074,0.203l0.075,0.205l0.073,0.206l0.074,0.207l0.072,0.208l0.073,0.209l0.071,0.211l0.072,0.211l0.07,0.213l0.071,0.214l0.069,0.215l0.07,0.216l0.068,0.217l0.069,0.218l0.067,0.22l0.068,0.221l0.066,0.221l0.066,0.223l0.066,0.225l0.065,0.225l0.065,0.227l0.064,0.227l0.064,0.229l0.063,0.23l0.062,0.231l0.062,0.233l0.062,0.234l0.061,0.234l0.06,0.236l0.06,0.238l0.059,0.238l0.059,0.24l0.059,0.241l0.057,0.242l0.058,0.243l0.056,0.245l0.057,0.245l0.055,0.247l0.055,0.249l0.055,0.249l0.054,0.251l0.053,0.252l0.053,0.253l0.053,0.255l0.051,0.255l0.052,0.257l0.05,0.258l0.051,0.26l0.049,0.261l0.049,0.262l0.049,0.263l0.048,0.265l0.047,0.265l0.047,0.268l0.046,0.268l0.046,0.27l0.045,0.271l0.045,0.272l0.044,0.274l0.043,0.276l0.085,0.552l0.083,0.56l0.08,0.564l0.079,0.57l0.075,0.575l0.074,0.58l0.071,0.586l0.069,0.591l0.066,0.597l0.064,0.602l0.062,0.608l0.059,0.613l0.057,0.619l0.054,0.624l0.052,0.63l0.049,0.636l0.047,0.641l0.044,0.647l0.042,0.653l0.04,0.659l0.037,0.664l0.034,0.671l0.032,0.676l0.029,0.682l0.026,0.688l0.024,0.694l0.022,0.699l0.019,0.706l0.016,0.712l0.013,0.718l0.011,0.724l0.008,0.73l0.006,0.732l-5,0.037l-0.006,-0.723l-0.008,-0.711l-0.01,-0.705l-0.013,-0.698l-0.016,-0.693l-0.018,-0.686l-0.021,-0.68l-0.023,-0.673l-0.026,-0.668l-0.028,-0.661l-0.031,-0.655l-0.033,-0.649l-0.036,-0.643l-0.038,-0.637l-0.041,-0.631l-0.042,-0.625l-0.046,-0.619l-0.047,-0.613l-0.05,-0.607l-0.053,-0.601l-0.054,-0.596l-0.057,-0.589l-0.059,-0.584l-0.062,-0.578l-0.063,-0.572l-0.066,-0.566l-0.068,-0.561l-0.07,-0.554l-0.073,-0.55l-0.074,-0.543l-0.077,-0.538l-0.079,-0.532l-0.081,-0.529l-0.041,-0.26l-0.042,-0.259l-0.042,-0.259l-0.043,-0.257l-0.043,-0.256l-0.044,-0.254l-0.045,-0.253l-0.044,-0.252l-0.046,-0.251l-0.046,-0.248l-0.046,-0.248l-0.047,-0.246l-0.047,-0.245l-0.048,-0.244l-0.048,-0.242l-0.049,-0.241l-0.05,-0.24l-0.049,-0.238l-0.051,-0.237l-0.05,-0.235l-0.052,-0.235l-0.051,-0.232l-0.052,-0.232l-0.053,-0.23l-0.053,-0.229l-0.054,-0.228l-0.054,-0.227l-0.054,-0.225l-0.055,-0.223l-0.056,-0.223l-0.056,-0.221l-0.056,-0.22l-0.057,-0.219l-0.057,-0.217l-0.058,-0.216l-0.058,-0.215l-0.058,-0.214l-0.059,-0.212l-0.06,-0.211l-0.06,-0.21l-0.06,-0.208l-0.06,-0.208l-0.062,-0.206l-0.061,-0.204l-0.062,-0.204l-0.063,-0.202l-0.062,-0.201l-0.064,-0.2l-0.063,-0.199l-0.064,-0.197l-0.065,-0.196l-0.065,-0.195l-0.065,-0.194l-0.066,-0.193l-0.066,-0.191l-0.066,-0.19l-0.067,-0.189l-0.067,-0.188l-0.068,-0.186l-0.068,-0.186l-0.068,-0.184l-0.069,-0.183l-0.069,-0.182l-0.07,-0.18l-0.07,-0.18l-0.07,-0.178l-0.071,-0.177l-0.071,-0.176l-0.071,-0.175l-0.072,-0.174l-0.072,-0.172l-0.073,-0.172l-0.072,-0.17l-0.074,-0.169l-0.073,-0.168l-0.074,-0.167l-0.074,-0.166l-0.075,-0.164l-0.075,-0.164l-0.075,-0.162l-0.076,-0.162l-0.075,-0.16l-0.077,-0.159l-0.076,-0.158l-0.077,-0.157l-0.077,-0.156l-0.078,-0.154l-0.078,-0.154l-0.078,-0.153l-0.079,-0.151l-0.078,-0.15l-0.08,-0.15l-0.079,-0.148l-0.08,-0.147l-0.08,-0.147l-0.08,-0.145l-0.081,-0.144l-0.081,-0.143l-0.081,-0.142l-0.082,-0.141l-0.082,-0.14l-0.082,-0.139l-0.082,-0.138l-0.083,-0.137l-0.083,-0.136l-0.083,-0.135l-0.084,-0.133l-0.084,-0.133l-0.084,-0.132l-0.084,-0.131l-0.085,-0.13l-0.085,-0.129l-0.085,-0.128l-0.086,-0.127l-0.085,-0.126l-0.086,-0.125l-0.087,-0.124l-0.086,-0.124l-0.087,-0.122l-0.087,-0.121l-0.087,-0.12l-0.088,-0.12l-0.088,-0.118l-0.088,-0.118l-0.088,-0.117l-0.089,-0.115l-0.089,-0.115l-0.089,-0.114l-0.089,-0.113l-0.089,-0.112l-0.09,-0.111l-0.09,-0.111l-0.09,-0.109l-0.091,-0.109l-0.091,-0.107l-0.091,-0.107l-0.091,-0.106l-0.091,-0.105l-0.092,-0.104l-0.092,-0.104l-0.092,-0.102l-0.092,-0.102l-0.093,-0.101l-0.092,-0.1l-0.093,-0.099l-0.093,-0.098l-0.094,-0.098l-0.094,-0.096l-0.093,-0.096l-0.094,-0.095l-0.095,-0.095l-0.094,-0.093l-0.095,-0.093l-0.095,-0.092l-0.095,-0.091l-0.095,-0.09l-0.096,-0.09l-0.096,-0.088l-0.096,-0.088l-0.096,-0.088l-0.096,-0.086l-0.097,-0.086l-0.096,-0.085l-0.097,-0.084l-0.098,-0.083l-0.097,-0.083l-0.097,-0.082l-0.098,-0.081l-0.098,-0.081l-0.099,-0.08l-0.098,-0.079l-0.098,-0.078l-0.099,-0.078l-0.097,-0.075l-0.201,-0.154l-0.199,-0.149l-0.2,-0.146l-0.201,-0.144l-0.202,-0.14l-0.202,-0.139l-0.203,-0.135l-0.204,-0.133l-0.205,-0.131l-0.205,-0.128l-0.206,-0.125l-0.207,-0.123l-0.208,-0.121l-0.208,-0.118l-0.209,-0.116l-0.21,-0.113l-0.211,-0.111l-0.211,-0.109l-0.212,-0.107l-0.213,-0.104l-0.213,-0.102l-0.214,-0.1l-0.215,-0.097l-0.215,-0.096l-0.217,-0.093l-0.216,-0.091l-0.218,-0.089l-0.218,-0.087l-0.219,-0.085l-0.219,-0.083l-0.22,-0.081l-0.221,-0.079l-0.221,-0.077l-0.222,-0.075l-0.223,-0.074l-0.223,-0.071l-0.224,-0.07l-0.224,-0.067l-0.225,-0.066l-0.225,-0.064l-0.226,-0.062l-0.227,-0.061l-0.227,-0.059l-0.228,-0.057l-0.228,-0.055l-0.228,-0.054l-0.23,-0.052l-0.229,-0.05l-0.23,-0.049l-0.231,-0.047l-0.231,-0.046l-0.231,-0.044l-0.232,-0.043l-0.232,-0.041l-0.232,-0.039l-0.233,-0.039l-0.234,-0.036l-0.233,-0.036l-0.234,-0.034l-0.234,-0.032l-0.235,-0.032l-0.235,-0.03l-0.235,-0.028l-0.235,-0.028l-0.236,-0.026l-0.236,-0.025l-0.236,-0.023l-0.236,-0.023l-0.237,-0.021l-0.237,-0.02l-0.237,-0.019l-0.237,-0.018l-0.237,-0.017l-0.237,-0.016l-0.237,-0.015l-0.238,-0.014l-0.237,-0.013l-0.238,-0.012l-0.238,-0.011l-0.237,-0.01l-0.238,-0.009l-0.238,-0.008l-0.237,-0.008l-0.238,-0.006l-0.238,-0.006l-0.235,-0.005l-0.477,-0.009l-0.475,-0.005l-0.474,-0.003l-0.473,0l-0.473,0.002l-0.472,0.003l-0.47,0.006l-0.47,0.007l-0.469,0.008l-0.467,0.01l-0.465,0.01l-0.929,0.023l-0.92,0.024l-0.912,0.024l-0.454,0.011l-0.451,0.01l-0.449,0.01l-0.447,0.008l-0.444,0.007l-0.442,0.005l-0.439,0.003l-0.426,0.001l-0.163,0.001l-0.158,0.003l-0.162,0.004l-0.167,0.005l-0.172,0.006l-0.175,0.008l-0.37,0.017l-0.385,0.018l-0.399,0.017l-0.209,0.008l-0.211,0.007l-0.216,0.006l-0.212,0.004l-0.392,0.006l-0.383,0.007l-0.382,0.009l-0.382,0.009l-0.38,0.01l-0.379,0.011l-0.378,0.012l-0.376,0.014l-0.376,0.014l-0.374,0.015l-0.374,0.017l-0.372,0.017l-0.371,0.019l-0.369,0.02l-0.369,0.021l-0.367,0.021l-0.367,0.023l-0.365,0.024l-0.363,0.026l-0.363,0.026l-0.361,0.027l-0.36,0.029l-0.359,0.03l-0.358,0.03l-0.356,0.032l-0.355,0.033l-0.354,0.035l-0.352,0.035l-0.351,0.037l-0.35,0.037l-0.349,0.039l-0.347,0.04l-0.346,0.042l-0.344,0.042l-0.343,0.044l-0.342,0.045l-0.34,0.046l-0.34,0.047l-0.337,0.048l-0.336,0.05l-0.335,0.051l-0.334,0.052l-0.332,0.054l-0.331,0.054l-0.329,0.056l-0.327,0.058l-0.327,0.058l-0.325,0.06l-0.323,0.061l-0.322,0.062l-0.32,0.063l-0.319,0.065l-0.318,0.066l-0.316,0.068l-0.314,0.068l-0.313,0.07l-0.312,0.072l-0.31,0.072l-0.308,0.074l-0.307,0.075l-0.305,0.077l-0.304,0.078l-0.302,0.079l-0.3,0.081l-0.299,0.081l-0.298,0.084l-0.295,0.084l-0.295,0.086l-0.292,0.087l-0.291,0.089l-0.289,0.09l-0.288,0.092l-0.286,0.092l-0.284,0.094l-0.283,0.096l-0.281,0.097l-0.279,0.098l-0.278,0.1l-0.276,0.101l-0.274,0.102l-0.273,0.104l-0.271,0.105l-0.269,0.107l-0.268,0.108l-0.265,0.11l-0.264,0.111l-0.263,0.112l-0.26,0.114l-0.259,0.115l-0.257,0.117l-0.256,0.118l-0.253,0.119l-0.252,0.121l-0.25,0.123l-0.248,0.124l-0.247,0.125l-0.245,0.127l-0.243,0.128l-0.241,0.13l-0.239,0.131l-0.238,0.132l-0.236,0.135l-0.234,0.135l-0.232,0.137l-0.23,0.139l-0.229,0.14l-0.227,0.142l-0.224,0.143l-0.224,0.145l-0.221,0.146l-0.219,0.147l-0.218,0.15l-0.216,0.15l-0.214,0.153l-0.212,0.153l-0.211,0.156l-0.208,0.157l-0.207,0.158l-0.205,0.16l-0.203,0.162l-0.201,0.163l-0.199,0.165l-0.198,0.166l-0.195,0.168l-0.194,0.17l-0.192,0.171l-0.19,0.173l-0.189,0.175l-0.186,0.176l-0.185,0.178l-0.183,0.179l-0.181,0.181l-0.179,0.183l-0.177,0.185l-0.175,0.186l-0.174,0.188l-0.172,0.19l-0.17,0.191l-0.168,0.193l-0.166,0.195l-0.164,0.197l-0.163,0.198l-0.16,0.2l-0.159,0.203l-0.157,0.203l-0.155,0.206l-0.153,0.208l-0.152,0.209l-0.149,0.212l-0.148,0.213l-0.145,0.215l-0.144,0.217l-0.142,0.219l-0.14,0.221l-0.139,0.222l-0.136,0.225l-0.135,0.227l-0.132,0.229l-0.131,0.23l-0.129,0.233l-0.127,0.235l-0.125,0.237l-0.123,0.239l-0.121,0.241l-0.119,0.243l-0.117,0.245l-0.116,0.247l-0.113,0.25l-0.111,0.251l-0.11,0.254l-0.107,0.256l-0.106,0.258l-0.103,0.261l-0.102,0.262l-0.099,0.265l-0.098,0.267l-0.096,0.269l-0.093,0.272l-0.091,0.274l-0.09,0.276l-0.087,0.278l-0.086,0.281l-0.083,0.283l-0.081,0.286l-0.079,0.287l-0.077,0.291l-0.075,0.292l-0.072,0.295l-0.071,0.298l-0.068,0.299l-0.067,0.303l-0.064,0.304l-0.062,0.307l-0.059,0.31l-0.058,0.312l-0.055,0.314l-0.053,0.317l-0.051,0.32l-0.049,0.322l-0.046,0.324l-0.045,0.327l-0.041,0.33l-0.04,0.332l-0.037,0.334l-0.035,0.338l-0.033,0.339l-0.03,0.343l-0.028,0.345l-0.026,0.347l-0.023,0.35l-0.021,0.353l-0.019,0.355l-0.016,0.358l-0.014,0.361l-0.011,0.363l-0.009,0.366l-0.006,0.368l-0.004,0.372l-0.002,0.373l0.001,0.377l0.003,0.379l0.006,0.382l0.009,0.384l0.01,0.388l0.014,0.39l0.016,0.392l0.018,0.396l0.021,0.398l0.024,0.401l0.026,0.403l0.029,0.406l0.031,0.409l0.034,0.412l0.036,0.415l0.04,0.417l0.041,0.42l0.045,0.423l0.047,0.426l0.049,0.428l0.053,0.431l0.055,0.434l0.058,0.437l0.06,0.44l0.063,0.442l0.066,0.445l0.068,0.448l0.072,0.451l0.074,0.454l0.077,0.456l0.079,0.46l0.082,0.462l0.085,0.465l0.088,0.468l0.091,0.471l0.093,0.474l0.098,0.482l-4.901,0.989l-0.1,-0.493l-0.098,-0.496l-0.095,-0.493l-0.092,-0.491l-0.089,-0.488l-0.087,-0.486l-0.083,-0.483l-0.081,-0.48l-0.078,-0.478l-0.075,-0.475l-0.072,-0.473l-0.07,-0.47l-0.067,-0.468l-0.064,-0.465l-0.061,-0.463l-0.058,-0.46l-0.056,-0.458l-0.052,-0.455l-0.051,-0.452l-0.047,-0.451l-0.044,-0.447l-0.042,-0.445l-0.039,-0.443l-0.036,-0.441l-0.034,-0.438l-0.031,-0.435l-0.028,-0.433l-0.025,-0.431l-0.023,-0.428l-0.019,-0.426l-0.018,-0.423l-0.014,-0.421l-0.012,-0.419l-0.009,-0.416l-0.006,-0.414l-0.004,-0.412l-0.001,-0.409l0.002,-0.407l0.004,-0.405l0.007,-0.402l0.01,-0.4l0.012,-0.397l0.015,-0.396l0.018,-0.393l0.021,-0.39l0.023,-0.389l0.025,-0.386l0.029,-0.384l0.031,-0.381l0.033,-0.38l0.036,-0.377l0.039,-0.374l0.042,-0.373l0.044,-0.37l0.047,-0.368l0.049,-0.366l0.052,-0.364l0.055,-0.361l0.057,-0.359l0.06,-0.357l0.062,-0.355l0.065,-0.353l0.068,-0.35l0.07,-0.348l0.073,-0.346l0.075,-0.344l0.078,-0.341l0.081,-0.339l0.083,-0.338l0.086,-0.335l0.088,-0.332l0.091,-0.331l0.093,-0.328l0.096,-0.327l0.098,-0.324l0.101,-0.322l0.104,-0.319l0.106,-0.318l0.108,-0.315l0.111,-0.313l0.114,-0.312l0.116,-0.308l0.119,-0.307l0.121,-0.305l0.124,-0.302l0.126,-0.3l0.128,-0.298l0.131,-0.296l0.134,-0.294l0.136,-0.291l0.138,-0.29l0.141,-0.287l0.143,-0.285l0.146,-0.283l0.148,-0.28l0.15,-0.279l0.153,-0.276l0.156,-0.274l0.157,-0.272l0.16,-0.27l0.163,-0.268l0.164,-0.265l0.167,-0.263l0.17,-0.262l0.171,-0.258l0.174,-0.257l0.177,-0.255l0.178,-0.252l0.181,-0.25l0.183,-0.248l0.186,-0.246l0.187,-0.244l0.19,-0.241l0.192,-0.24l0.194,-0.237l0.196,-0.235l0.199,-0.233l0.2,-0.23l0.203,-0.229l0.205,-0.226l0.207,-0.224l0.209,-0.222l0.211,-0.22l0.214,-0.218l0.215,-0.216l0.217,-0.213l0.22,-0.211l0.221,-0.209l0.224,-0.207l0.225,-0.205l0.227,-0.203l0.23,-0.201l0.231,-0.198l0.233,-0.197l0.235,-0.194l0.237,-0.192l0.239,-0.191l0.241,-0.188l0.242,-0.186l0.245,-0.184l0.246,-0.182l0.248,-0.18l0.25,-0.177l0.252,-0.176l0.253,-0.174l0.256,-0.172l0.257,-0.169l0.259,-0.168l0.26,-0.166l0.262,-0.164l0.264,-0.162l0.266,-0.159l0.267,-0.158l0.269,-0.156l0.271,-0.154l0.272,-0.152l0.274,-0.151l0.276,-0.148l0.277,-0.146l0.279,-0.145l0.281,-0.142l0.282,-0.141l0.283,-0.139l0.285,-0.137l0.287,-0.135l0.288,-0.133l0.29,-0.132l0.292,-0.129l0.293,-0.128l0.294,-0.126l0.296,-0.125l0.297,-0.122l0.299,-0.121l0.301,-0.119l0.301,-0.117l0.304,-0.116l0.305,-0.114l0.306,-0.112l0.307,-0.11l0.309,-0.109l0.311,-0.107l0.312,-0.105l0.313,-0.104l0.315,-0.102l0.316,-0.101l0.317,-0.098l0.319,-0.098l0.321,-0.095l0.321,-0.094l0.323,-0.092l0.324,-0.091l0.326,-0.089l0.327,-0.088l0.328,-0.086l0.33,-0.085l0.331,-0.083l0.332,-0.081l0.333,-0.08l0.335,-0.078l0.336,-0.077l0.338,-0.076l0.338,-0.074l0.34,-0.072l0.341,-0.071l0.343,-0.07l0.343,-0.068l0.345,-0.067l0.346,-0.065l0.348,-0.064l0.348,-0.062l0.35,-0.061l0.351,-0.06l0.352,-0.058l0.353,-0.057l0.355,-0.055l0.356,-0.055l0.357,-0.052l0.358,-0.052l0.359,-0.05l0.36,-0.049l0.362,-0.047l0.362,-0.046l0.364,-0.045l0.365,-0.044l0.366,-0.042l0.367,-0.041l0.369,-0.04l0.369,-0.038l0.371,-0.037l0.371,-0.036l0.373,-0.035l0.374,-0.034l0.374,-0.032l0.376,-0.031l0.377,-0.03l0.378,-0.028l0.379,-0.028l0.38,-0.026l0.381,-0.025l0.383,-0.024l0.383,-0.023l0.384,-0.022l0.385,-0.02l0.386,-0.02l0.387,-0.018l0.389,-0.017l0.389,-0.016l0.39,-0.015l0.391,-0.014l0.392,-0.012l0.393,-0.012l0.394,-0.011l0.395,-0.009l0.396,-0.009l0.397,-0.007l0.391,-0.006l0.186,-0.004l0.181,-0.005l0.182,-0.006l0.182,-0.006l0.376,-0.017l0.379,-0.018l0.383,-0.017l0.197,-0.009l0.198,-0.007l0.199,-0.006l0.202,-0.005l0.205,-0.004l0.195,-0.001l0.422,-0.001l0.417,-0.003l0.422,-0.005l0.427,-0.006l0.433,-0.008l0.437,-0.009l0.442,-0.011l0.447,-0.01l0.907,-0.024l0.924,-0.024l0.938,-0.023l0.476,-0.011l0.479,-0.01l0.482,-0.009l0.485,-0.007l0.489,-0.005l0.491,-0.004l0.495,-0.002l0.497,0Z" style="fill:#404040;"/><path id="Path3" d="M245.499,90.525l-0.026,0.065l-0.015,0.04l-0.015,0.045l-0.016,0.048l-0.015,0.054l-0.016,0.057l-0.015,0.062l-0.016,0.066l-0.014,0.069l-0.015,0.074l-0.014,0.077l-0.013,0.081l-0.013,0.084l-0.012,0.088l-0.011,0.091l-0.01,0.094l-0.01,0.097l-0.008,0.1l-0.008,0.103l-0.007,0.107l-0.006,0.108l-0.005,0.111l-0.005,0.114l-0.003,0.116l-0.002,0.119l-0.002,0.12l0,0.123l0,0.125l0.001,0.128l0.002,0.129l0.003,0.13l0.004,0.133l0.004,0.135l0.006,0.136l0.006,0.138l0.007,0.137l0.016,0.286l0.019,0.289l0.021,0.294l0.024,0.299l0.027,0.303l0.028,0.307l0.03,0.31l0.032,0.314l0.033,0.316l0.035,0.317l0.072,0.644l0.074,0.647l0.075,0.65l0.074,0.648l0.036,0.325l0.035,0.324l0.034,0.322l0.032,0.321l0.031,0.319l0.029,0.318l0.027,0.316l0.025,0.313l0.022,0.311l0.019,0.309l0.016,0.303l0.006,0.155l0.006,0.152l0.005,0.151l0.004,0.15l0.003,0.149l0.002,0.149l0,0.148l0,0.148l-0.002,0.147l-0.003,0.146l-0.005,0.146l-0.005,0.145l-0.008,0.145l-0.009,0.145l-0.01,0.144l-0.012,0.143l-0.014,0.144l-0.016,0.143l-0.018,0.143l-0.021,0.143l-0.023,0.143l-0.025,0.143l-0.028,0.143l-0.031,0.144l-0.034,0.144l-0.037,0.144l-0.042,0.145l-0.045,0.146l-0.05,0.146l-0.054,0.146l-0.06,0.148l-0.065,0.148l-0.072,0.149l-0.068,0.13l-0.141,0.256l-0.131,0.235l-0.131,0.234l-0.131,0.233l-0.131,0.23l-0.131,0.228l-0.132,0.227l-0.131,0.225l-0.131,0.223l-0.131,0.221l-0.132,0.22l-0.131,0.218l-0.132,0.216l-0.131,0.214l-0.131,0.213l-0.132,0.211l-0.131,0.209l-0.132,0.207l-0.131,0.206l-0.131,0.204l-0.132,0.202l-0.131,0.201l-0.132,0.198l-0.131,0.198l-0.131,0.195l-0.132,0.194l-0.131,0.192l-0.131,0.191l-0.131,0.189l-0.132,0.187l-0.131,0.186l-0.131,0.184l-0.131,0.182l-0.131,0.181l-0.13,0.179l-0.131,0.178l-0.131,0.176l-0.131,0.174l-0.13,0.173l-0.131,0.171l-0.13,0.17l-0.131,0.168l-0.13,0.167l-0.13,0.165l-0.13,0.164l-0.13,0.162l-0.13,0.16l-0.13,0.159l-0.129,0.158l-0.13,0.156l-0.129,0.154l-0.129,0.154l-0.129,0.151l-0.129,0.15l-0.129,0.149l-0.129,0.147l-0.128,0.146l-0.129,0.144l-0.128,0.143l-0.128,0.142l-0.128,0.14l-0.128,0.138l-0.127,0.137l-0.128,0.136l-0.127,0.135l-0.127,0.133l-0.127,0.131l-0.126,0.131l-0.127,0.129l-0.126,0.127l-0.126,0.126l-0.126,0.125l-0.125,0.124l-0.128,0.124l-0.248,0.238l-0.249,0.236l-0.249,0.23l-0.247,0.225l-0.246,0.219l-0.245,0.215l-0.245,0.21l-0.243,0.205l-0.241,0.2l-0.241,0.195l-0.24,0.19l-0.238,0.186l-0.237,0.181l-0.235,0.177l-0.235,0.172l-0.232,0.167l-0.232,0.163l-0.23,0.159l-0.228,0.154l-0.227,0.151l-0.225,0.146l-0.224,0.141l-0.222,0.138l-0.22,0.134l-0.218,0.129l-0.217,0.126l-0.215,0.122l-0.213,0.118l-0.211,0.114l-0.21,0.111l-0.207,0.107l-0.205,0.103l-0.203,0.1l-0.202,0.096l-0.199,0.093l-0.196,0.089l-0.195,0.087l-0.193,0.083l-0.19,0.079l-0.188,0.077l-0.185,0.074l-0.183,0.07l-0.181,0.068l-0.178,0.065l-0.176,0.062l-0.173,0.059l-0.17,0.056l-0.168,0.054l-0.165,0.051l-0.163,0.049l-0.16,0.046l-0.157,0.044l-0.154,0.042l-0.151,0.039l-0.149,0.037l-0.118,0.028l3.674,25.214l0.085,0.017l0.377,0.078l0.409,0.086l0.44,0.094l0.472,0.103l0.502,0.112l0.531,0.121l0.562,0.13l0.59,0.139l0.618,0.148l0.645,0.158l0.335,0.083l0.34,0.085l0.347,0.088l0.353,0.09l0.36,0.093l0.367,0.095l0.373,0.098l0.379,0.1l0.386,0.103l0.391,0.106l0.398,0.108l0.404,0.111l0.41,0.114l0.416,0.116l0.422,0.12l0.428,0.122l0.433,0.124l0.439,0.128l0.445,0.13l0.45,0.133l0.456,0.137l0.461,0.139l0.467,0.141l0.472,0.145l0.477,0.148l0.482,0.151l0.487,0.154l0.493,0.156l0.497,0.16l0.502,0.163l0.507,0.166l0.512,0.169l0.516,0.173l0.521,0.175l0.526,0.179l0.53,0.181l0.535,0.185l0.539,0.189l0.543,0.191l0.547,0.195l0.552,0.198l0.555,0.201l0.56,0.205l0.564,0.208l0.567,0.212l0.572,0.215l0.575,0.218l0.578,0.222l0.583,0.225l0.586,0.229l0.589,0.232l0.593,0.236l0.596,0.239l0.6,0.243l0.603,0.247l0.606,0.25l0.609,0.254l0.612,0.257l0.615,0.262l0.618,0.265l0.621,0.268l0.623,0.273l0.626,0.276l0.629,0.28l0.631,0.284l0.634,0.288l0.637,0.291l0.638,0.296l0.641,0.299l0.643,0.303l0.646,0.308l0.647,0.311l0.65,0.315l0.651,0.32l0.653,0.323l0.655,0.327l0.657,0.332l0.659,0.335l0.66,0.34l0.662,0.344l0.662,0.347l0.333,0.177l0.333,0.176l0.333,0.178l0.333,0.179l0.334,0.18l0.333,0.18l0.334,0.182l0.335,0.183l0.335,0.185l0.335,0.185l0.335,0.186l0.336,0.187l0.335,0.189l0.334,0.188l-2.456,4.355l-0.329,-0.185l-0.327,-0.184l-0.326,-0.182l-0.326,-0.181l-0.326,-0.18l-0.325,-0.179l-0.325,-0.178l-0.325,-0.177l-0.325,-0.176l-0.324,-0.175l-0.325,-0.174l-0.323,-0.173l-0.324,-0.171l-0.322,-0.171l-0.646,-0.339l-0.644,-0.335l-0.643,-0.33l-0.641,-0.327l-0.639,-0.323l-0.638,-0.318l-0.636,-0.315l-0.634,-0.311l-0.633,-0.307l-0.63,-0.303l-0.629,-0.299l-0.626,-0.296l-0.624,-0.291l-0.623,-0.288l-0.619,-0.284l-0.618,-0.28l-0.615,-0.277l-0.613,-0.273l-0.61,-0.269l-0.608,-0.265l-0.605,-0.262l-0.602,-0.259l-0.599,-0.254l-0.597,-0.251l-0.593,-0.248l-0.591,-0.244l-0.588,-0.24l-0.584,-0.237l-0.581,-0.233l-0.578,-0.23l-0.575,-0.227l-0.571,-0.223l-0.568,-0.219l-0.564,-0.216l-0.561,-0.213l-0.557,-0.21l-0.553,-0.206l-0.55,-0.203l-0.545,-0.2l-0.542,-0.196l-0.538,-0.193l-0.533,-0.19l-0.53,-0.186l-0.525,-0.184l-0.521,-0.18l-0.517,-0.177l-0.512,-0.175l-0.508,-0.17l-0.504,-0.168l-0.498,-0.165l-0.494,-0.162l-0.49,-0.159l-0.484,-0.155l-0.48,-0.153l-0.474,-0.15l-0.47,-0.147l-0.465,-0.144l-0.459,-0.141l-0.455,-0.138l-0.448,-0.135l-0.444,-0.133l-0.438,-0.129l-0.433,-0.127l-0.427,-0.124l-0.422,-0.122l-0.416,-0.118l-0.41,-0.116l-0.405,-0.113l-0.398,-0.111l-0.393,-0.108l-0.386,-0.105l-0.381,-0.103l-0.374,-0.1l-0.368,-0.097l-0.362,-0.095l-0.356,-0.093l-0.349,-0.09l-0.343,-0.087l-0.336,-0.085l-0.329,-0.082l-0.322,-0.08l-0.626,-0.153l-0.598,-0.144l-0.57,-0.134l-0.541,-0.125l-0.512,-0.117l-0.482,-0.107l-0.452,-0.099l-0.422,-0.09l-0.39,-0.082l-0.358,-0.074l-0.326,-0.066l-0.293,-0.058l-0.26,-0.051l-0.223,-0.042l-0.35,-0.065l-0.206,-0.037l-1.856,-0.32l-4.991,-34.252l3.016,0.119l0.016,0l0.031,0l0.046,-0.001l0.059,-0.002l0.074,-0.004l0.086,-0.007l0.1,-0.009l0.119,-0.012l0.056,-0.007l0.065,-0.008l0.067,-0.01l0.071,-0.01l0.074,-0.011l0.077,-0.013l0.08,-0.014l0.083,-0.015l0.086,-0.016l0.089,-0.018l0.092,-0.019l0.094,-0.021l0.098,-0.023l0.101,-0.024l0.103,-0.025l0.106,-0.028l0.109,-0.029l0.112,-0.031l0.114,-0.033l0.117,-0.036l0.12,-0.037l0.122,-0.039l0.125,-0.041l0.128,-0.044l0.13,-0.046l0.132,-0.048l0.135,-0.051l0.138,-0.053l0.14,-0.055l0.143,-0.058l0.145,-0.061l0.147,-0.064l0.15,-0.066l0.152,-0.069l0.154,-0.072l0.157,-0.075l0.159,-0.078l0.161,-0.082l0.163,-0.084l0.166,-0.087l0.168,-0.091l0.17,-0.094l0.172,-0.098l0.174,-0.1l0.176,-0.105l0.178,-0.108l0.18,-0.112l0.182,-0.115l0.184,-0.119l0.186,-0.124l0.188,-0.127l0.19,-0.131l0.191,-0.135l0.194,-0.139l0.195,-0.143l0.197,-0.148l0.198,-0.151l0.201,-0.157l0.202,-0.16l0.204,-0.166l0.205,-0.169l0.207,-0.175l0.208,-0.179l0.21,-0.184l0.212,-0.188l0.213,-0.194l0.214,-0.199l0.216,-0.203l0.219,-0.211l0.107,-0.104l0.109,-0.108l0.11,-0.109l0.11,-0.11l0.11,-0.111l0.111,-0.113l0.111,-0.115l0.112,-0.115l0.111,-0.117l0.112,-0.118l0.112,-0.12l0.113,-0.121l0.113,-0.122l0.113,-0.124l0.113,-0.126l0.114,-0.126l0.114,-0.128l0.114,-0.13l0.114,-0.131l0.115,-0.132l0.115,-0.134l0.115,-0.135l0.116,-0.137l0.115,-0.138l0.116,-0.14l0.117,-0.141l0.116,-0.143l0.117,-0.144l0.117,-0.146l0.117,-0.147l0.117,-0.149l0.117,-0.15l0.118,-0.152l0.118,-0.154l0.118,-0.155l0.118,-0.156l0.119,-0.159l0.119,-0.16l0.119,-0.161l0.119,-0.163l0.119,-0.165l0.119,-0.166l0.12,-0.168l0.12,-0.169l0.119,-0.171l0.12,-0.173l0.121,-0.175l0.12,-0.176l0.12,-0.178l0.121,-0.179l0.121,-0.182l0.121,-0.182l0.121,-0.185l0.121,-0.187l0.121,-0.188l0.121,-0.189l0.122,-0.192l0.121,-0.193l0.122,-0.195l0.121,-0.197l0.122,-0.199l0.122,-0.2l0.122,-0.202l0.122,-0.204l0.122,-0.206l0.122,-0.208l0.122,-0.209l0.123,-0.212l0.122,-0.213l0.123,-0.215l0.122,-0.216l0.122,-0.219l0.123,-0.221l0.112,-0.204l0.004,-0.007l0.003,-0.007l0.005,-0.014l0.007,-0.019l0.007,-0.025l0.009,-0.031l0.009,-0.035l0.01,-0.042l0.01,-0.046l0.01,-0.051l0.01,-0.057l0.01,-0.06l0.009,-0.065l0.009,-0.069l0.008,-0.074l0.008,-0.077l0.006,-0.081l0.007,-0.085l0.005,-0.088l0.005,-0.092l0.003,-0.095l0.003,-0.098l0.002,-0.101l0.002,-0.104l0,-0.107l0,-0.11l-0.002,-0.112l-0.002,-0.115l-0.003,-0.117l-0.004,-0.12l-0.004,-0.122l-0.006,-0.121l-0.013,-0.258l-0.016,-0.262l-0.019,-0.271l-0.022,-0.277l-0.024,-0.283l-0.027,-0.289l-0.028,-0.295l-0.031,-0.301l-0.032,-0.304l-0.033,-0.309l-0.035,-0.312l-0.072,-0.638l-0.075,-0.647l-0.075,-0.656l-0.074,-0.659l-0.036,-0.334l-0.036,-0.333l-0.033,-0.333l-0.033,-0.334l-0.031,-0.333l-0.028,-0.332l-0.027,-0.332l-0.024,-0.331l-0.022,-0.33l-0.018,-0.326l-0.008,-0.166l-0.008,-0.164l-0.006,-0.163l-0.006,-0.162l-0.004,-0.162l-0.004,-0.162l-0.002,-0.161l-0.002,-0.161l0,-0.16l0,-0.16l0.002,-0.159l0.004,-0.159l0.004,-0.159l0.006,-0.157l0.007,-0.158l0.009,-0.157l0.01,-0.156l0.012,-0.156l0.013,-0.155l0.016,-0.155l0.017,-0.155l0.019,-0.154l0.021,-0.154l0.023,-0.154l0.025,-0.153l0.027,-0.153l0.03,-0.153l0.033,-0.152l0.035,-0.152l0.039,-0.153l0.041,-0.152l0.044,-0.152l0.049,-0.151l0.051,-0.152l0.056,-0.151l0.048,-0.122l4.651,1.836Z" style="fill:#404040;"/><path d="M160.607,157.607c1.962,0 4.818,2.979 6.682,3.911c4.375,2.188 8.322,3.103 13.102,4.094c11.979,2.483 27.276,-1.983 38.981,-3.958c2.748,-0.464 5.53,-4.047 8.045,-4.047" style="fill:none;stroke:#404040;stroke-width:3px;"/><path d="M155.375,159.565c0,5.363 15.21,12.552 19.419,13.425c11.761,2.437 42.473,-2.416 53.31,-6.198c3.734,-1.304 9.694,-7.308 12.169,-7.308" style="fill:none;stroke:#404040;stroke-width:3px;"/><path d="M149.581,62.141c13.191,1.93 59.38,29.457 111.695,29.481c14.774,0.007 26.162,-19.044 18.271,-20.864c-4.474,-1.032 -27.092,-8.617 -35.517,-8.617" style="fill:none;stroke:#404040;stroke-width:5px;"/><path d="M244.895,59.947c-5.186,3.153 -8.055,6.88 -42.65,2.996c-18.549,-2.083 -43.271,0 -54.36,0" style="fill:none;stroke:#404040;stroke-width:5px;"/><path d="M281.798,171.235c-4.242,3.807 -8.352,16.555 -10.303,22.317c-6.605,19.505 -7.858,38.401 -11.18,58.086c-0.647,3.836 -11.553,48.714 11.18,47.663" style="fill:none;stroke:#404040;stroke-width:2px;"/><path d="M281.695,171.122c5.095,0 20.417,3.035 22.474,7.149c1.806,3.611 -3.305,10.111 -4.552,13.06c-2.681,6.341 -29.618,88.389 -28.607,90.054c6.293,10.365 0,21.475 0,17.995" style="fill:none;stroke:#404040;stroke-width:2px;"/><path d="M304.607,184.655c6.774,4.516 10.927,14.831 13.771,22.358c6.968,18.443 6.767,38.465 9.924,57.409c0.778,4.667 3.484,8.985 3.484,13.531" style="fill:none;stroke:#404040;stroke-width:5px;"/><path d="M303.305,176.738c-4.877,-4.898 -11.578,-14.463 -14.467,-20.203c-2.743,-5.45 -5.238,-11.041 -8.716,-16.319c-1.558,-2.365 -7.878,-5.099 -10.502,-6.411c-14.156,-7.078 -31.949,-3.571 -47.617,-3.571" style="fill:none;stroke:#404040;stroke-width:2.5px;"/><path d="M166.227,131.232c-16.196,0 -34.831,-0.141 -44.818,14.875c-2.897,4.356 -5.829,8.424 -7.045,13.346c-0.668,2.701 -8.622,5.951 -8.622,8.338" style="fill:none;stroke:#404040;stroke-width:2.5px;"/><path d="M93.254,178.926c0,8.224 -0.583,15.957 0,24.176c0.678,9.556 9.688,37.945 13.078,48.77c2.769,8.841 6.289,10.948 9.195,21.088" style="fill:none;stroke:#404040;stroke-width:2px;"/><path d="M115.282,172.979c-1.001,-3.985 -17.643,-11.424 -21.61,5.179" style="fill:none;stroke:#404040;stroke-width:2px;"/><path d="M115.676,174.212c0,10.321 -0.659,20.984 0,31.297c1.092,17.053 9.466,34.763 12.224,51.315c1.047,6.281 7.632,35.057 -7.626,40.246c-7.81,2.656 -3.449,-19.161 -4.598,-24.593" style="fill:none;stroke:#404040;stroke-width:2px;"/><path d="M165.583,155.766c-5.778,0 -10.742,3.381 -14.476,7.06c-1.395,1.373 -32.149,9.46 -34.35,9.46" style="fill:none;stroke:#404040;stroke-width:5px;"/><path d="M218.177,107.859c-3.312,0 -29.156,-0.221 -29.684,0c-8.901,3.72 25.838,10.293 26.476,10.22c10.476,-1.212 3.208,-10.22 3.208,-10.22Z" style="fill:none;stroke:#404040;stroke-width:2.5px;"/><path d="M63.629,286.25c12.008,0 17.826,-0.328 29.508,1.779c2.666,0.481 17.588,4.911 20.288,3.54c1.919,-0.974 -0.605,-7.714 0.154,-11.396c0.36,-1.746 1.692,-3.68 1.692,-5.362" style="fill:none;stroke:#404040;stroke-width:3px;"/><path d="M280.492,302.938c0,-1.764 9.372,-5.516 10.896,-6.214c6.396,-2.929 13.333,-3.985 19.695,-7.192c5.584,-2.815 11.822,-10.43 18.349,-10.43" style="fill:none;stroke:#404040;stroke-width:3px;"/><path d="M330.444,273.328c-1.86,-2.086 -19.358,6.366 -32.564,14.355c-5.223,3.16 -17.114,5.97 -19.55,8.37c-0.95,0.936 1.984,7.163 1.984,5.828" style="fill:none;stroke:#404040;stroke-width:3px;"/><path d="M112.188,284.903c-7.135,0 -16.171,-3.647 -31.418,-3.791c-4.753,-0.045 -15.398,1.363 -17.051,1.363" style="fill:none;stroke:#404040;stroke-width:3px;"/><path d="M272.19,277.218c0,5.347 4.598,15.876 6.093,21.038" style="fill:none;stroke:#404040;stroke-width:3px;"/><path d="M119.796,298.388c0,1.917 -0.048,3.865 -0.048,5.763" style="fill:none;stroke:#404040;stroke-width:3px;"/><path d="M268.717,300.278c0,1.12 0,3.328 0,4.369" style="fill:none;stroke:#404040;stroke-width:3px;"/><path d="M64.787,285.975c0,4.943 -5.812,17.358 -5.812,18.723" style="fill:none;stroke:#404040;stroke-width:3px;"/><path d="M114.869,293.223c0,1.747 0.183,3.623 -0.105,5.333c-0.34,2.013 -1.84,4.118 -1.84,6.093" style="fill:none;stroke:#404040;stroke-width:3px;"/><path d="M281.451,303.846c0,0.507 0.18,0.934 0.394,1.361c0.037,0.074 0.547,0.516 0.3,0.516" style="fill:none;stroke:#404040;stroke-width:3px;"/><path d="M330.018,278.752c0,6.7 4.446,11.408 6.205,17.057c0.358,1.152 1.089,5.137 0.947,5.137" style="fill:none;stroke:#404040;stroke-width:3px;"/><path d="M154.451,68.204c-1.495,0 -3.953,-2.859 -5.448,-2.859c-4.516,0 -6.32,3.503 -4.681,8.765c0.699,2.247 5.527,3.889 6.941,6.045c2.389,3.644 -3.448,8.386 3.188,8.386" style="fill:none;stroke:#404040;stroke-width:3px;"/><path d="M151.78,71.453c-0.615,0.132 0.01,1.326 0.317,1.584c1.166,0.981 3.097,0.809 3.646,2.491c0.362,1.109 0.57,2.494 0.241,3.639c-0.053,0.186 -0.487,2.289 -0.047,2.289" style="fill:none;stroke:#404040;stroke-width:1px;"/></g></g></svg>