<?xml version="1.0" encoding="UTF-8" standalone="no"?><!DOCTYPE svg PUBLIC "-//W3C//DTD SVG 1.1//EN" "http://www.w3.org/Graphics/SVG/1.1/DTD/svg11.dtd"><svg width="100%" height="100%" viewBox="0 0 775 642" version="1.1" xmlns="http://www.w3.org/2000/svg" xmlns:xlink="http://www.w3.org/1999/xlink" xml:space="preserve" style="fill-rule:evenodd;clip-rule:evenodd;stroke-linecap:round;stroke-linejoin:round;stroke-miterlimit:1.5;"><rect id="Artboard1" x="0" y="0" width="774.058" height="637.921" style="fill:none;"/><circle cx="376.542" cy="312.99" r="302.083" style="fill:#d1f1f1;"/><path d="M334.458,188.107c9.201,57.626 -48.998,58.446 -50.757,88.705c-3.349,57.624 101.979,143.831 122.237,139.292c26.516,-5.941 46.304,-46.27 73.177,-44.937c18.911,0.938 93.147,54.41 90.714,78.779c-2.432,24.369 -65.898,76.241 -137.219,67.853c-49.811,-5.858 -118.249,-53.56 -164.769,-105.433c-46.52,-51.873 -95.731,-140.858 -82.44,-206.223c7.713,-37.934 41.47,-85.642 80.571,-98.472c17.82,-5.847 64.299,54.21 68.486,80.436Z" style="fill:#0d0d0d;stroke:#0d0d0d;stroke-width:3.13px;"/></svg>