<?xml version="1.0" encoding="UTF-8" standalone="no"?><!DOCTYPE svg PUBLIC "-//W3C//DTD SVG 1.1//EN" "http://www.w3.org/Graphics/SVG/1.1/DTD/svg11.dtd"><svg width="100%" height="100%" viewBox="0 0 186 154" version="1.1" xmlns="http://www.w3.org/2000/svg" xmlns:xlink="http://www.w3.org/1999/xlink" xml:space="preserve" style="fill-rule:evenodd;clip-rule:evenodd;stroke-linecap:round;stroke-linejoin:round;stroke-miterlimit:1.5;"><rect id="Artboard1" x="0" y="0" width="185.774" height="153.101" style="fill:none;"/><path d="M80.27,45.146c2.208,13.83 -11.76,14.027 -12.182,21.289c-0.803,13.83 24.475,34.519 29.337,33.43c6.364,-1.426 11.113,-11.105 17.563,-10.785c4.538,0.225 22.355,13.059 21.771,18.907c-0.584,5.849 -15.816,18.298 -32.933,16.285c-11.954,-1.406 -28.379,-12.855 -39.544,-25.304c-11.165,-12.45 -22.976,-33.806 -19.786,-49.494c1.851,-9.104 9.953,-20.554 19.337,-23.633c4.277,-1.403 15.432,13.01 16.437,19.305Z" style="stroke:#000;stroke-width:0.75px;"/></svg>