<?xml version="1.0" encoding="UTF-8" standalone="no"?><!DOCTYPE svg PUBLIC "-//W3C//DTD SVG 1.1//EN" "http://www.w3.org/Graphics/SVG/1.1/DTD/svg11.dtd"><svg width="100%" height="100%" viewBox="0 0 842 596" version="1.1" xmlns="http://www.w3.org/2000/svg" xmlns:xlink="http://www.w3.org/1999/xlink" xml:space="preserve" style="fill-rule:evenodd;clip-rule:evenodd;stroke-linejoin:round;stroke-miterlimit:1.41421;"><g><path d="M793.622,217.588c0,-48.753 -39.581,-88.334 -88.335,-88.334l-568.599,0c-48.753,0 -88.334,39.581 -88.334,88.334l0,176.67c0,48.753 39.581,88.335 88.334,88.335l568.599,0c48.754,0 88.335,-39.582 88.335,-88.335l0,-176.67Z" style="fill:#fff;"/><rect x="154.224" y="154.97" width="540.725" height="302.381" style="fill:#404040;"/><path d="M153.891,419.021c45.077,-68.762 62.781,-95.999 125.053,-154.479c52.649,-49.443 162.093,-109.799 167.72,-109.799c4.532,0 -292.773,-0.627 -292.773,0c0,22.985 0,264.278 0,264.278Z" style="fill:#595959;"/><rect x="110.979" y="262.25" width="9.587" height="89.606" style="fill:#595959;"/><ellipse cx="79.983" cy="308.549" rx="7.952" ry="8.795" style="fill:#595959;"/><ellipse cx="744.724" cy="298.726" rx="35.202" ry="36.04" style="fill:#d9d9d9;"/><ellipse cx="744.966" cy="298.899" rx="32.516" ry="32.563" style="fill:#e6e6e6;"/></g></svg>