<?xml version="1.0" encoding="UTF-8" standalone="no"?><!DOCTYPE svg PUBLIC "-//W3C//DTD SVG 1.1//EN" "http://www.w3.org/Graphics/SVG/1.1/DTD/svg11.dtd"><svg width="100%" height="100%" viewBox="0 0 395 255" version="1.1" xmlns="http://www.w3.org/2000/svg" xmlns:xlink="http://www.w3.org/1999/xlink" xml:space="preserve" style="fill-rule:evenodd;clip-rule:evenodd;"><g id="Group"><path id="Path" d="M53,46.499l63,0c0,0 -13,46.793 18,46.793c31,0 24,-46.793 24,-46.793l90,0l-2,55.948c0,0 -51,-18.31 -51,18.31c0,36.621 51,23.397 51,23.397l-6,50.861l-72,0c0,0 8,60.017 -30,60.017c-38,0 -22,-60.017 -22,-60.017l-63,0l0,-50.861c0,0 -51,13.224 -51,-23.397c0,-36.62 51,-18.31 51,-18.31l0,-55.948Z" style="fill:none;stroke:#4a4a4a;stroke-width:2.02px;"/><path id="Path1" d="M392.273,47.23l0,54.849c0,0 -46,-11.319 -46,15.671c0,26.989 46,20.894 46,20.894l0,55.356l-55,0c0,0 18,-36 -18,-36c-36,0 -23,36 -23,36l-55.273,0l5.273,-51c0,0 -51.273,10 -51.273,-25.25c0,-35.251 51.273,-15.671 51.273,-15.671l0,-54.849l50,0c0,0 -13,-44.402 23,-44.402c36,0 18,44.402 18,44.402l55,0Z" style="fill:#4a4a4a;"/><path d="M391.68,103.993l-0.151,-0.036l-0.214,-0.048l-0.272,-0.061l-0.328,-0.072l-0.383,-0.081l-0.436,-0.091l-0.236,-0.047l-0.248,-0.05l-0.261,-0.051l-0.272,-0.053l-0.284,-0.054l-0.295,-0.055l-0.306,-0.056l-0.317,-0.057l-0.327,-0.058l-0.337,-0.058l-0.347,-0.059l-0.357,-0.059l-0.365,-0.059l-0.375,-0.06l-0.384,-0.059l-0.392,-0.059l-0.401,-0.058l-0.408,-0.058l-0.416,-0.058l-0.424,-0.056l-0.431,-0.056l-0.437,-0.054l-0.445,-0.054l-0.45,-0.051l-0.457,-0.051l-0.463,-0.049l-0.468,-0.046l-0.473,-0.045l-0.479,-0.043l-0.483,-0.041l-0.487,-0.038l-0.493,-0.036l-0.246,-0.017l-0.249,-0.016l-0.249,-0.016l-0.25,-0.015l-0.251,-0.014l-0.251,-0.014l-0.253,-0.012l-0.253,-0.012l-0.254,-0.011l-0.255,-0.01l-0.255,-0.01l-0.256,-0.009l-0.256,-0.007l-0.257,-0.007l-0.257,-0.006l-0.258,-0.005l-0.259,-0.004l-0.258,-0.004l-0.259,-0.002l-0.26,-0.001l-0.259,0l-0.26,0l-0.26,0.002l-0.26,0.003l-0.261,0.004l-0.26,0.005l-0.261,0.006l-0.261,0.007l-0.26,0.008l-0.261,0.01l-0.261,0.01l-0.26,0.012l-0.26,0.013l-0.26,0.014l-0.26,0.015l-0.26,0.017l-0.259,0.018l-0.26,0.019l-0.258,0.02l-0.259,0.022l-0.258,0.023l-0.257,0.024l-0.257,0.026l-0.257,0.027l-0.256,0.028l-0.255,0.03l-0.255,0.031l-0.254,0.032l-0.253,0.034l-0.252,0.036l-0.252,0.037l-0.251,0.038l-0.25,0.04l-0.249,0.041l-0.249,0.043l-0.247,0.044l-0.246,0.046l-0.246,0.048l-0.244,0.049l-0.243,0.05l-0.242,0.052l-0.241,0.054l-0.239,0.055l-0.239,0.057l-0.237,0.059l-0.236,0.06l-0.234,0.062l-0.233,0.063l-0.232,0.065l-0.23,0.067l-0.228,0.069l-0.228,0.07l-0.225,0.072l-0.224,0.074l-0.223,0.075l-0.22,0.077l-0.219,0.079l-0.218,0.081l-0.215,0.082l-0.214,0.084l-0.212,0.086l-0.21,0.088l-0.208,0.089l-0.206,0.091l-0.205,0.093l-0.202,0.095l-0.2,0.097l-0.199,0.098l-0.196,0.1l-0.194,0.103l-0.192,0.104l-0.19,0.105l-0.191,0.11l-0.09,0.052l-0.092,0.055l-0.092,0.056l-0.092,0.056l-0.091,0.056l-0.09,0.057l-0.09,0.057l-0.089,0.058l-0.089,0.058l-0.088,0.059l-0.087,0.059l-0.087,0.06l-0.086,0.06l-0.086,0.061l-0.085,0.061l-0.085,0.062l-0.084,0.062l-0.083,0.062l-0.083,0.063l-0.082,0.064l-0.082,0.064l-0.081,0.064l-0.081,0.065l-0.079,0.066l-0.08,0.066l-0.078,0.066l-0.078,0.067l-0.078,0.068l-0.077,0.067l-0.076,0.069l-0.075,0.069l-0.076,0.069l-0.074,0.07l-0.074,0.071l-0.073,0.071l-0.072,0.071l-0.072,0.072l-0.072,0.073l-0.071,0.073l-0.07,0.074l-0.069,0.074l-0.069,0.074l-0.068,0.075l-0.068,0.076l-0.067,0.077l-0.066,0.076l-0.066,0.078l-0.065,0.078l-0.064,0.078l-0.064,0.079l-0.063,0.08l-0.063,0.08l-0.062,0.081l-0.061,0.081l-0.061,0.082l-0.06,0.082l-0.059,0.084l-0.059,0.083l-0.058,0.085l-0.058,0.085l-0.057,0.085l-0.056,0.086l-0.055,0.087l-0.055,0.087l-0.055,0.088l-0.053,0.089l-0.053,0.089l-0.052,0.09l-0.052,0.09l-0.051,0.092l-0.05,0.091l-0.05,0.093l-0.049,0.093l-0.048,0.094l-0.048,0.095l-0.047,0.095l-0.046,0.096l-0.046,0.097l-0.045,0.097l-0.044,0.098l-0.043,0.099l-0.043,0.099l-0.042,0.1l-0.042,0.101l-0.041,0.102l-0.04,0.102l-0.039,0.104l-0.039,0.104l-0.038,0.104l-0.037,0.106l-0.036,0.106l-0.036,0.107l-0.035,0.108l-0.034,0.109l-0.034,0.109l-0.033,0.111l-0.032,0.11l-0.031,0.112l-0.031,0.113l-0.029,0.114l-0.029,0.114l-0.028,0.115l-0.028,0.116l-0.027,0.117l-0.025,0.118l-0.025,0.118l-0.025,0.12l-0.023,0.12l-0.023,0.121l-0.022,0.122l-0.021,0.123l-0.02,0.124l-0.019,0.124l-0.019,0.126l-0.017,0.127l-0.017,0.127l-0.016,0.128l-0.015,0.13l-0.014,0.13l-0.014,0.131l-0.012,0.132l-0.012,0.133l-0.011,0.134l-0.009,0.135l-0.009,0.135l-0.008,0.137l-0.007,0.137l-0.006,0.139l-0.006,0.14l-0.004,0.14l-0.003,0.142l-0.003,0.142l-0.001,0.143l-0.001,0.145l0.001,0.144l0.001,0.144l0.003,0.142l0.003,0.142l0.004,0.141l0.006,0.141l0.006,0.139l0.007,0.139l0.008,0.138l0.009,0.137l0.01,0.136l0.01,0.135l0.012,0.135l0.012,0.134l0.014,0.133l0.014,0.132l0.015,0.132l0.016,0.131l0.017,0.129l0.018,0.13l0.019,0.128l0.019,0.128l0.02,0.127l0.021,0.126l0.022,0.126l0.023,0.124l0.024,0.124l0.024,0.123l0.026,0.123l0.026,0.121l0.027,0.121l0.027,0.121l0.029,0.119l0.029,0.119l0.03,0.118l0.031,0.118l0.032,0.117l0.032,0.116l0.033,0.115l0.034,0.115l0.035,0.114l0.036,0.113l0.036,0.113l0.037,0.112l0.038,0.111l0.038,0.111l0.039,0.11l0.04,0.109l0.041,0.109l0.041,0.108l0.043,0.108l0.043,0.107l0.043,0.106l0.045,0.106l0.045,0.105l0.045,0.104l0.047,0.104l0.047,0.103l0.048,0.103l0.049,0.102l0.049,0.101l0.05,0.101l0.051,0.1l0.051,0.1l0.052,0.099l0.053,0.098l0.053,0.098l0.055,0.098l0.054,0.097l0.056,0.096l0.056,0.096l0.057,0.095l0.057,0.095l0.059,0.094l0.058,0.093l0.06,0.093l0.06,0.093l0.061,0.092l0.062,0.092l0.062,0.091l0.062,0.09l0.064,0.09l0.064,0.09l0.065,0.088l0.065,0.089l0.066,0.088l0.067,0.087l0.068,0.087l0.067,0.087l0.069,0.086l0.07,0.085l0.069,0.085l0.071,0.085l0.071,0.084l0.072,0.083l0.072,0.083l0.073,0.083l0.074,0.082l0.074,0.082l0.075,0.081l0.076,0.081l0.076,0.08l0.077,0.08l0.077,0.079l0.078,0.079l0.079,0.078l0.079,0.079l0.08,0.077l0.08,0.077l0.081,0.077l0.082,0.076l0.082,0.076l0.083,0.075l0.083,0.075l0.084,0.074l0.085,0.074l0.085,0.074l0.086,0.073l0.086,0.072l0.087,0.073l0.087,0.071l0.089,0.072l0.088,0.071l0.089,0.07l0.09,0.07l0.088,0.068l0.185,0.14l0.184,0.136l0.187,0.134l0.188,0.133l0.191,0.131l0.193,0.129l0.195,0.128l0.197,0.126l0.199,0.125l0.201,0.122l0.203,0.121l0.205,0.12l0.207,0.117l0.209,0.116l0.211,0.115l0.212,0.112l0.214,0.112l0.216,0.109l0.218,0.108l0.219,0.106l0.221,0.105l0.223,0.103l0.224,0.101l0.226,0.1l0.227,0.099l0.229,0.097l0.231,0.095l0.231,0.093l0.234,0.092l0.234,0.091l0.236,0.089l0.237,0.087l0.239,0.086l0.239,0.085l0.241,0.083l0.242,0.081l0.243,0.08l0.245,0.079l0.245,0.077l0.246,0.075l0.248,0.075l0.248,0.072l0.249,0.072l0.25,0.069l0.251,0.069l0.252,0.067l0.252,0.066l0.254,0.064l0.254,0.063l0.254,0.061l0.256,0.061l0.256,0.058l0.256,0.058l0.257,0.056l0.258,0.055l0.258,0.054l0.258,0.052l0.259,0.051l0.259,0.05l0.26,0.049l0.26,0.047l0.26,0.046l0.26,0.045l0.26,0.044l0.261,0.042l0.261,0.042l0.261,0.04l0.261,0.039l0.261,0.038l0.26,0.037l0.261,0.035l0.261,0.035l0.261,0.033l0.26,0.033l0.26,0.031l0.26,0.03l0.26,0.029l0.26,0.029l0.259,0.027l0.259,0.026l0.258,0.025l0.258,0.024l0.257,0.024l0.257,0.022l0.257,0.021l0.256,0.021l0.255,0.019l0.255,0.019l0.254,0.018l0.253,0.017l0.252,0.016l0.252,0.015l0.251,0.014l0.25,0.014l0.249,0.012l0.248,0.012l0.246,0.011l0.493,0.02l0.488,0.017l0.483,0.014l0.478,0.012l0.473,0.009l0.468,0.006l0.463,0.004l0.456,0.001l0.451,0l0.444,-0.003l0.437,-0.005l0.431,-0.007l0.423,-0.008l0.416,-0.01l0.408,-0.012l0.401,-0.013l0.392,-0.014l0.383,-0.016l0.375,-0.017l0.365,-0.017l0.357,-0.019l0.346,-0.019l0.337,-0.02l0.327,-0.021l0.316,-0.021l0.306,-0.021l0.295,-0.022l0.283,-0.022l0.273,-0.021l0.26,-0.022l0.248,-0.021l0.235,-0.021l0.436,-0.041l0.382,-0.038l0.328,-0.034l0.272,-0.03l0.213,-0.025l0.151,-0.018l2.376,-0.3l0,59.624l-60.205,0l1.456,-2.975l0.054,-0.113l0.076,-0.162l0.096,-0.207l0.114,-0.251l0.13,-0.295l0.07,-0.16l0.074,-0.172l0.078,-0.181l0.08,-0.191l0.083,-0.2l0.086,-0.21l0.088,-0.218l0.091,-0.226l0.092,-0.236l0.095,-0.243l0.096,-0.252l0.097,-0.259l0.098,-0.267l0.1,-0.274l0.1,-0.281l0.101,-0.288l0.102,-0.295l0.101,-0.301l0.102,-0.308l0.101,-0.314l0.101,-0.319l0.1,-0.325l0.099,-0.331l0.098,-0.336l0.097,-0.34l0.096,-0.346l0.095,-0.352l0.045,-0.174l0.046,-0.178l0.045,-0.179l0.045,-0.179l0.044,-0.181l0.044,-0.182l0.043,-0.182l0.043,-0.183l0.041,-0.184l0.041,-0.185l0.041,-0.186l0.039,-0.187l0.039,-0.187l0.038,-0.188l0.037,-0.188l0.037,-0.19l0.035,-0.19l0.035,-0.19l0.034,-0.192l0.033,-0.191l0.032,-0.192l0.031,-0.193l0.03,-0.193l0.028,-0.193l0.028,-0.194l0.027,-0.194l0.026,-0.195l0.025,-0.195l0.023,-0.195l0.022,-0.196l0.021,-0.195l0.02,-0.196l0.019,-0.196l0.018,-0.196l0.016,-0.196l0.015,-0.197l0.013,-0.196l0.012,-0.196l0.011,-0.196l0.01,-0.197l0.008,-0.196l0.006,-0.196l0.006,-0.196l0.003,-0.196l0.003,-0.196l0,-0.195l0,-0.195l-0.003,-0.195l-0.004,-0.195l-0.005,-0.194l-0.007,-0.194l-0.009,-0.193l-0.01,-0.193l-0.012,-0.193l-0.014,-0.192l-0.015,-0.192l-0.017,-0.191l-0.019,-0.191l-0.021,-0.19l-0.022,-0.189l-0.024,-0.189l-0.026,-0.189l-0.028,-0.187l-0.029,-0.187l-0.032,-0.186l-0.033,-0.185l-0.035,-0.185l-0.037,-0.184l-0.039,-0.182l-0.041,-0.182l-0.043,-0.181l-0.045,-0.181l-0.047,-0.179l-0.049,-0.179l-0.051,-0.177l-0.052,-0.177l-0.055,-0.175l-0.057,-0.175l-0.059,-0.173l-0.062,-0.173l-0.063,-0.171l-0.065,-0.171l-0.068,-0.169l-0.069,-0.168l-0.072,-0.167l-0.074,-0.166l-0.077,-0.165l-0.078,-0.164l-0.081,-0.162l-0.085,-0.165l-0.04,-0.077l-0.043,-0.08l-0.044,-0.079l-0.044,-0.08l-0.045,-0.079l-0.045,-0.079l-0.046,-0.078l-0.047,-0.078l-0.047,-0.078l-0.047,-0.078l-0.049,-0.077l-0.049,-0.077l-0.049,-0.077l-0.051,-0.076l-0.05,-0.076l-0.052,-0.076l-0.052,-0.075l-0.052,-0.076l-0.054,-0.074l-0.054,-0.075l-0.054,-0.074l-0.055,-0.074l-0.056,-0.074l-0.057,-0.073l-0.057,-0.073l-0.058,-0.073l-0.058,-0.072l-0.06,-0.072l-0.06,-0.072l-0.06,-0.071l-0.062,-0.071l-0.062,-0.071l-0.062,-0.07l-0.064,-0.071l-0.064,-0.07l-0.064,-0.069l-0.066,-0.069l-0.066,-0.069l-0.067,-0.068l-0.068,-0.069l-0.068,-0.068l-0.069,-0.067l-0.07,-0.067l-0.071,-0.067l-0.071,-0.067l-0.073,-0.066l-0.073,-0.066l-0.073,-0.066l-0.075,-0.065l-0.075,-0.065l-0.076,-0.064l-0.077,-0.065l-0.078,-0.063l-0.078,-0.064l-0.08,-0.063l-0.08,-0.063l-0.081,-0.062l-0.082,-0.063l-0.082,-0.061l-0.084,-0.062l-0.084,-0.061l-0.085,-0.061l-0.086,-0.06l-0.087,-0.06l-0.088,-0.059l-0.089,-0.06l-0.089,-0.058l-0.09,-0.059l-0.092,-0.058l-0.092,-0.057l-0.093,-0.058l-0.094,-0.057l-0.095,-0.056l-0.096,-0.056l-0.097,-0.056l-0.098,-0.055l-0.098,-0.055l-0.1,-0.055l-0.101,-0.054l-0.101,-0.054l-0.103,-0.053l-0.103,-0.052l-0.105,-0.053l-0.105,-0.052l-0.106,-0.051l-0.108,-0.051l-0.108,-0.051l-0.11,-0.05l-0.11,-0.05l-0.111,-0.049l-0.113,-0.049l-0.113,-0.048l-0.115,-0.048l-0.115,-0.048l-0.117,-0.047l-0.117,-0.046l-0.119,-0.046l-0.12,-0.045l-0.12,-0.045l-0.122,-0.045l-0.123,-0.044l-0.124,-0.043l-0.125,-0.043l-0.126,-0.043l-0.127,-0.042l-0.128,-0.041l-0.129,-0.041l-0.131,-0.04l-0.131,-0.04l-0.133,-0.039l-0.133,-0.039l-0.135,-0.038l-0.136,-0.038l-0.137,-0.037l-0.138,-0.036l-0.139,-0.036l-0.141,-0.036l-0.141,-0.035l-0.143,-0.034l-0.144,-0.033l-0.145,-0.033l-0.146,-0.033l-0.147,-0.032l-0.148,-0.031l-0.15,-0.03l-0.151,-0.03l-0.152,-0.03l-0.153,-0.029l-0.154,-0.028l-0.155,-0.027l-0.157,-0.027l-0.158,-0.026l-0.159,-0.026l-0.16,-0.025l-0.161,-0.024l-0.163,-0.024l-0.163,-0.023l-0.165,-0.022l-0.166,-0.022l-0.168,-0.021l-0.168,-0.02l-0.17,-0.02l-0.171,-0.019l-0.172,-0.018l-0.174,-0.017l-0.174,-0.017l-0.176,-0.016l-0.178,-0.016l-0.178,-0.014l-0.18,-0.014l-0.18,-0.014l-0.183,-0.012l-0.183,-0.012l-0.185,-0.011l-0.186,-0.01l-0.187,-0.01l-0.188,-0.009l-0.19,-0.008l-0.191,-0.007l-0.192,-0.007l-0.193,-0.006l-0.195,-0.005l-0.196,-0.004l-0.197,-0.004l-0.199,-0.002l-0.2,-0.002l-0.201,-0.002l-0.203,0l-0.202,0l-0.201,0.002l-0.201,0.002l-0.199,0.002l-0.198,0.004l-0.196,0.004l-0.196,0.005l-0.194,0.006l-0.193,0.007l-0.193,0.007l-0.191,0.008l-0.189,0.009l-0.189,0.01l-0.187,0.01l-0.187,0.011l-0.185,0.012l-0.184,0.012l-0.183,0.014l-0.182,0.014l-0.181,0.015l-0.179,0.015l-0.179,0.016l-0.177,0.017l-0.177,0.018l-0.175,0.018l-0.174,0.019l-0.173,0.019l-0.172,0.021l-0.17,0.021l-0.17,0.022l-0.169,0.022l-0.167,0.023l-0.166,0.024l-0.166,0.024l-0.164,0.025l-0.163,0.026l-0.162,0.026l-0.161,0.027l-0.16,0.028l-0.159,0.028l-0.158,0.029l-0.157,0.029l-0.155,0.031l-0.155,0.03l-0.154,0.032l-0.152,0.032l-0.152,0.032l-0.15,0.034l-0.15,0.034l-0.148,0.034l-0.147,0.035l-0.147,0.036l-0.145,0.036l-0.145,0.037l-0.143,0.037l-0.142,0.038l-0.141,0.038l-0.141,0.039l-0.139,0.04l-0.138,0.04l-0.138,0.041l-0.136,0.041l-0.135,0.042l-0.135,0.043l-0.133,0.042l-0.132,0.044l-0.132,0.044l-0.13,0.044l-0.13,0.045l-0.128,0.046l-0.128,0.046l-0.127,0.047l-0.125,0.047l-0.125,0.047l-0.124,0.048l-0.123,0.049l-0.122,0.049l-0.121,0.049l-0.12,0.051l-0.119,0.05l-0.118,0.051l-0.118,0.051l-0.116,0.052l-0.116,0.053l-0.114,0.053l-0.114,0.053l-0.113,0.054l-0.112,0.054l-0.111,0.055l-0.11,0.055l-0.109,0.055l-0.109,0.056l-0.108,0.057l-0.106,0.057l-0.106,0.057l-0.105,0.058l-0.104,0.058l-0.104,0.059l-0.102,0.059l-0.102,0.059l-0.101,0.06l-0.1,0.06l-0.099,0.061l-0.099,0.061l-0.097,0.061l-0.097,0.062l-0.096,0.062l-0.095,0.063l-0.095,0.063l-0.093,0.063l-0.093,0.064l-0.092,0.064l-0.092,0.065l-0.09,0.065l-0.09,0.065l-0.089,0.066l-0.088,0.066l-0.088,0.066l-0.086,0.067l-0.086,0.067l-0.086,0.068l-0.084,0.067l-0.084,0.069l-0.083,0.068l-0.082,0.069l-0.082,0.069l-0.081,0.07l-0.08,0.07l-0.08,0.07l-0.079,0.071l-0.078,0.071l-0.077,0.071l-0.077,0.072l-0.076,0.072l-0.075,0.072l-0.075,0.073l-0.074,0.073l-0.073,0.073l-0.073,0.074l-0.072,0.074l-0.071,0.074l-0.071,0.075l-0.07,0.074l-0.07,0.076l-0.068,0.075l-0.069,0.076l-0.067,0.076l-0.067,0.077l-0.066,0.077l-0.066,0.077l-0.065,0.077l-0.064,0.078l-0.064,0.078l-0.061,0.075l-0.127,0.161l-0.122,0.158l-0.12,0.16l-0.117,0.161l-0.115,0.162l-0.113,0.164l-0.11,0.164l-0.109,0.166l-0.106,0.166l-0.103,0.168l-0.102,0.169l-0.099,0.17l-0.097,0.171l-0.096,0.171l-0.093,0.173l-0.09,0.174l-0.089,0.175l-0.087,0.176l-0.085,0.177l-0.082,0.177l-0.081,0.179l-0.079,0.179l-0.076,0.181l-0.075,0.181l-0.073,0.182l-0.071,0.183l-0.069,0.183l-0.067,0.185l-0.065,0.185l-0.063,0.186l-0.062,0.186l-0.06,0.187l-0.057,0.188l-0.056,0.189l-0.055,0.189l-0.052,0.19l-0.051,0.19l-0.049,0.191l-0.047,0.191l-0.046,0.192l-0.044,0.192l-0.042,0.193l-0.041,0.194l-0.038,0.193l-0.038,0.194l-0.035,0.194l-0.035,0.195l-0.032,0.195l-0.031,0.195l-0.03,0.196l-0.028,0.195l-0.026,0.196l-0.025,0.196l-0.023,0.196l-0.022,0.196l-0.021,0.197l-0.019,0.196l-0.018,0.197l-0.016,0.196l-0.016,0.196l-0.013,0.197l-0.013,0.196l-0.011,0.196l-0.009,0.196l-0.009,0.196l-0.007,0.195l-0.006,0.196l-0.005,0.195l-0.004,0.195l-0.002,0.195l-0.001,0.194l-0.001,0.194l0.001,0.193l0.002,0.194l0.003,0.192l0.005,0.192l0.005,0.192l0.006,0.191l0.007,0.191l0.009,0.19l0.009,0.189l0.01,0.189l0.011,0.188l0.012,0.188l0.013,0.187l0.013,0.186l0.015,0.185l0.015,0.184l0.016,0.184l0.017,0.183l0.018,0.181l0.018,0.181l0.019,0.18l0.02,0.179l0.02,0.178l0.021,0.177l0.022,0.176l0.022,0.175l0.023,0.172l0.048,0.346l0.049,0.34l0.052,0.334l0.053,0.329l0.055,0.324l0.056,0.319l0.057,0.312l0.059,0.306l0.059,0.3l0.06,0.294l0.061,0.287l0.061,0.28l0.061,0.273l0.062,0.265l0.061,0.258l0.06,0.25l0.061,0.243l0.059,0.234l0.059,0.225l0.057,0.217l0.057,0.208l0.055,0.2l0.053,0.189l0.052,0.181l0.05,0.17l0.047,0.159l0.089,0.293l0.079,0.249l0.066,0.205l0.053,0.16l0.038,0.111l0.966,2.756l-60.311,0l5.233,-50.611l-0.224,0.032l-0.305,0.041l-0.317,0.043l-0.331,0.042l-0.343,0.044l-0.356,0.043l-0.369,0.043l-0.38,0.043l-0.391,0.043l-0.403,0.043l-0.414,0.042l-0.425,0.041l-0.435,0.04l-0.445,0.039l-0.456,0.037l-0.465,0.037l-0.474,0.034l-0.483,0.033l-0.492,0.031l-0.5,0.029l-0.509,0.027l-0.516,0.024l-0.523,0.022l-0.266,0.01l-0.266,0.009l-0.269,0.009l-0.27,0.007l-0.271,0.007l-0.274,0.007l-0.275,0.005l-0.276,0.004l-0.278,0.004l-0.28,0.003l-0.281,0.002l-0.283,0.001l-0.283,0l-0.286,0l-0.286,-0.002l-0.288,-0.003l-0.289,-0.004l-0.291,-0.004l-0.291,-0.006l-0.293,-0.007l-0.294,-0.008l-0.295,-0.009l-0.296,-0.01l-0.297,-0.012l-0.298,-0.012l-0.299,-0.014l-0.299,-0.015l-0.301,-0.016l-0.302,-0.018l-0.302,-0.018l-0.303,-0.02l-0.304,-0.022l-0.304,-0.022l-0.305,-0.024l-0.306,-0.026l-0.307,-0.027l-0.306,-0.028l-0.308,-0.03l-0.308,-0.031l-0.308,-0.032l-0.309,-0.035l-0.309,-0.035l-0.31,-0.038l-0.31,-0.038l-0.31,-0.041l-0.31,-0.042l-0.311,-0.044l-0.31,-0.045l-0.311,-0.047l-0.311,-0.049l-0.311,-0.05l-0.312,-0.053l-0.311,-0.054l-0.311,-0.056l-0.311,-0.057l-0.311,-0.06l-0.31,-0.061l-0.311,-0.064l-0.31,-0.065l-0.31,-0.067l-0.31,-0.069l-0.31,-0.071l-0.309,-0.073l-0.309,-0.076l-0.308,-0.077l-0.308,-0.079l-0.307,-0.081l-0.307,-0.084l-0.306,-0.086l-0.306,-0.088l-0.305,-0.09l-0.305,-0.092l-0.303,-0.095l-0.303,-0.097l-0.303,-0.099l-0.301,-0.101l-0.301,-0.104l-0.299,-0.106l-0.299,-0.109l-0.298,-0.111l-0.297,-0.114l-0.295,-0.116l-0.295,-0.118l-0.294,-0.122l-0.292,-0.123l-0.291,-0.127l-0.29,-0.128l-0.289,-0.132l-0.287,-0.134l-0.287,-0.137l-0.284,-0.14l-0.284,-0.142l-0.279,-0.144l-0.143,-0.075l-0.14,-0.074l-0.139,-0.075l-0.14,-0.076l-0.138,-0.077l-0.139,-0.077l-0.138,-0.078l-0.137,-0.078l-0.138,-0.08l-0.136,-0.08l-0.137,-0.081l-0.136,-0.081l-0.135,-0.083l-0.135,-0.083l-0.135,-0.084l-0.134,-0.084l-0.133,-0.086l-0.134,-0.086l-0.132,-0.086l-0.132,-0.088l-0.132,-0.088l-0.132,-0.09l-0.13,-0.09l-0.13,-0.09l-0.13,-0.092l-0.13,-0.092l-0.128,-0.093l-0.128,-0.094l-0.128,-0.095l-0.127,-0.095l-0.127,-0.096l-0.126,-0.097l-0.125,-0.098l-0.125,-0.099l-0.125,-0.099l-0.124,-0.1l-0.123,-0.102l-0.123,-0.101l-0.122,-0.103l-0.121,-0.104l-0.121,-0.104l-0.12,-0.105l-0.12,-0.106l-0.119,-0.107l-0.118,-0.108l-0.118,-0.109l-0.117,-0.109l-0.117,-0.11l-0.115,-0.111l-0.116,-0.112l-0.114,-0.113l-0.114,-0.114l-0.113,-0.114l-0.113,-0.116l-0.111,-0.116l-0.112,-0.117l-0.11,-0.118l-0.11,-0.119l-0.109,-0.119l-0.108,-0.121l-0.107,-0.121l-0.107,-0.123l-0.106,-0.123l-0.105,-0.124l-0.105,-0.125l-0.104,-0.126l-0.103,-0.126l-0.102,-0.128l-0.101,-0.128l-0.101,-0.13l-0.1,-0.13l-0.099,-0.131l-0.098,-0.132l-0.098,-0.133l-0.096,-0.134l-0.096,-0.135l-0.095,-0.135l-0.094,-0.137l-0.093,-0.137l-0.093,-0.138l-0.092,-0.139l-0.09,-0.141l-0.09,-0.14l-0.089,-0.142l-0.088,-0.143l-0.087,-0.144l-0.087,-0.144l-0.085,-0.146l-0.085,-0.146l-0.083,-0.147l-0.083,-0.149l-0.082,-0.149l-0.08,-0.15l-0.08,-0.151l-0.079,-0.152l-0.078,-0.152l-0.077,-0.154l-0.076,-0.154l-0.076,-0.156l-0.074,-0.156l-0.073,-0.157l-0.072,-0.158l-0.071,-0.16l-0.071,-0.16l-0.069,-0.161l-0.068,-0.161l-0.067,-0.163l-0.067,-0.164l-0.065,-0.164l-0.064,-0.165l-0.063,-0.167l-0.062,-0.167l-0.062,-0.168l-0.06,-0.169l-0.059,-0.17l-0.058,-0.171l-0.057,-0.172l-0.056,-0.173l-0.054,-0.173l-0.054,-0.175l-0.053,-0.175l-0.052,-0.177l-0.05,-0.177l-0.05,-0.178l-0.048,-0.179l-0.047,-0.18l-0.046,-0.181l-0.045,-0.182l-0.044,-0.183l-0.043,-0.184l-0.042,-0.184l-0.041,-0.186l-0.039,-0.186l-0.039,-0.188l-0.037,-0.188l-0.036,-0.189l-0.035,-0.19l-0.034,-0.191l-0.033,-0.192l-0.031,-0.193l-0.031,-0.194l-0.029,-0.195l-0.028,-0.195l-0.027,-0.197l-0.026,-0.197l-0.025,-0.199l-0.023,-0.199l-0.023,-0.201l-0.021,-0.201l-0.02,-0.202l-0.019,-0.203l-0.017,-0.205l-0.017,-0.205l-0.015,-0.205l-0.014,-0.207l-0.013,-0.208l-0.011,-0.209l-0.011,-0.21l-0.009,-0.211l-0.008,-0.211l-0.007,-0.213l-0.005,-0.213l-0.004,-0.215l-0.004,-0.216l-0.001,-0.216l-0.001,-0.217l0.001,-0.218l0.001,-0.216l0.004,-0.215l0.004,-0.214l0.005,-0.212l0.007,-0.212l0.008,-0.21l0.009,-0.21l0.011,-0.208l0.011,-0.207l0.013,-0.206l0.014,-0.205l0.016,-0.203l0.016,-0.203l0.018,-0.201l0.018,-0.201l0.021,-0.199l0.021,-0.198l0.022,-0.197l0.024,-0.196l0.025,-0.194l0.025,-0.194l0.028,-0.193l0.028,-0.191l0.029,-0.19l0.031,-0.19l0.032,-0.188l0.033,-0.187l0.034,-0.186l0.035,-0.185l0.037,-0.184l0.037,-0.182l0.039,-0.182l0.04,-0.181l0.041,-0.179l0.042,-0.179l0.043,-0.177l0.045,-0.177l0.045,-0.175l0.047,-0.174l0.048,-0.173l0.049,-0.172l0.05,-0.171l0.051,-0.17l0.052,-0.169l0.054,-0.168l0.054,-0.166l0.056,-0.166l0.057,-0.165l0.057,-0.163l0.059,-0.163l0.06,-0.161l0.061,-0.16l0.062,-0.16l0.064,-0.158l0.064,-0.157l0.065,-0.156l0.067,-0.155l0.067,-0.154l0.069,-0.153l0.069,-0.152l0.071,-0.151l0.071,-0.15l0.073,-0.148l0.074,-0.148l0.074,-0.146l0.076,-0.146l0.077,-0.144l0.078,-0.144l0.078,-0.142l0.08,-0.141l0.081,-0.14l0.082,-0.14l0.082,-0.138l0.084,-0.137l0.085,-0.136l0.085,-0.134l0.087,-0.134l0.088,-0.133l0.088,-0.132l0.089,-0.13l0.091,-0.13l0.091,-0.128l0.092,-0.128l0.093,-0.126l0.094,-0.125l0.095,-0.124l0.096,-0.124l0.097,-0.122l0.097,-0.121l0.098,-0.12l0.1,-0.119l0.1,-0.117l0.101,-0.117l0.102,-0.116l0.102,-0.115l0.104,-0.113l0.104,-0.113l0.105,-0.111l0.106,-0.111l0.106,-0.109l0.108,-0.108l0.108,-0.108l0.109,-0.106l0.11,-0.105l0.11,-0.104l0.111,-0.103l0.112,-0.102l0.113,-0.101l0.114,-0.1l0.114,-0.099l0.115,-0.098l0.115,-0.097l0.116,-0.096l0.117,-0.095l0.118,-0.094l0.118,-0.093l0.119,-0.091l0.119,-0.091l0.121,-0.09l0.12,-0.089l0.122,-0.088l0.122,-0.086l0.122,-0.086l0.124,-0.085l0.124,-0.084l0.124,-0.083l0.125,-0.082l0.126,-0.081l0.126,-0.079l0.127,-0.079l0.127,-0.078l0.128,-0.078l0.128,-0.076l0.129,-0.075l0.13,-0.074l0.13,-0.073l0.13,-0.073l0.131,-0.071l0.132,-0.07l0.132,-0.07l0.132,-0.069l0.133,-0.067l0.133,-0.067l0.134,-0.066l0.135,-0.065l0.134,-0.064l0.136,-0.064l0.135,-0.062l0.137,-0.061l0.136,-0.061l0.137,-0.06l0.138,-0.059l0.137,-0.058l0.139,-0.057l0.138,-0.056l0.139,-0.056l0.14,-0.054l0.14,-0.054l0.14,-0.053l0.14,-0.052l0.141,-0.052l0.142,-0.05l0.141,-0.05l0.142,-0.049l0.143,-0.048l0.142,-0.047l0.143,-0.047l0.144,-0.045l0.144,-0.045l0.144,-0.044l0.144,-0.044l0.145,-0.042l0.147,-0.043l0.288,-0.081l0.292,-0.078l0.294,-0.076l0.294,-0.072l0.295,-0.07l0.297,-0.067l0.297,-0.064l0.299,-0.062l0.299,-0.058l0.3,-0.056l0.301,-0.053l0.302,-0.051l0.303,-0.048l0.303,-0.046l0.304,-0.043l0.305,-0.04l0.306,-0.038l0.306,-0.036l0.306,-0.033l0.308,-0.031l0.307,-0.029l0.308,-0.026l0.309,-0.024l0.309,-0.022l0.31,-0.02l0.31,-0.017l0.31,-0.016l0.31,-0.013l0.311,-0.011l0.311,-0.01l0.311,-0.007l0.312,-0.005l0.311,-0.003l0.311,-0.002l0.312,0l0.312,0.003l0.311,0.004l0.312,0.006l0.311,0.007l0.312,0.01l0.311,0.011l0.311,0.012l0.311,0.015l0.31,0.016l0.311,0.017l0.31,0.019l0.309,0.021l0.31,0.022l0.309,0.023l0.308,0.025l0.308,0.027l0.308,0.027l0.306,0.029l0.307,0.031l0.306,0.032l0.305,0.033l0.304,0.034l0.304,0.035l0.303,0.037l0.302,0.037l0.301,0.039l0.301,0.04l0.299,0.041l0.299,0.042l0.298,0.044l0.296,0.044l0.296,0.045l0.295,0.046l0.293,0.047l0.293,0.047l0.291,0.049l0.29,0.049l0.289,0.051l0.288,0.051l0.286,0.051l0.285,0.053l0.284,0.053l0.282,0.054l0.28,0.054l0.28,0.055l0.277,0.056l0.277,0.056l0.274,0.057l0.273,0.057l0.271,0.057l0.27,0.059l0.269,0.058l0.53,0.118l0.523,0.12l0.515,0.12l0.508,0.122l0.5,0.122l0.491,0.123l0.482,0.123l0.473,0.123l0.464,0.123l0.455,0.122l0.444,0.122l0.435,0.121l0.424,0.121l0.413,0.118l0.402,0.118l0.391,0.116l0.379,0.114l0.367,0.112l0.355,0.109l0.343,0.107l0.33,0.104l0.316,0.102l0.304,0.098l0.137,0.045l0,-54.037l49.439,0l-0.048,-0.211l-0.06,-0.277l-0.063,-0.289l-0.063,-0.299l-0.064,-0.31l-0.064,-0.321l-0.066,-0.332l-0.065,-0.341l-0.066,-0.351l-0.065,-0.361l-0.066,-0.37l-0.065,-0.38l-0.064,-0.388l-0.064,-0.397l-0.063,-0.405l-0.061,-0.413l-0.061,-0.422l-0.058,-0.429l-0.058,-0.436l-0.055,-0.443l-0.053,-0.451l-0.051,-0.455l-0.025,-0.233l-0.024,-0.232l-0.024,-0.234l-0.022,-0.236l-0.022,-0.237l-0.022,-0.239l-0.02,-0.24l-0.02,-0.241l-0.019,-0.243l-0.019,-0.244l-0.017,-0.245l-0.017,-0.247l-0.015,-0.248l-0.015,-0.249l-0.014,-0.25l-0.013,-0.251l-0.012,-0.253l-0.011,-0.253l-0.01,-0.255l-0.009,-0.256l-0.008,-0.257l-0.007,-0.257l-0.005,-0.259l-0.005,-0.26l-0.003,-0.26l-0.003,-0.261l-0.001,-0.262l0.001,-0.263l0.001,-0.264l0.003,-0.264l0.004,-0.265l0.005,-0.266l0.007,-0.267l0.008,-0.267l0.009,-0.267l0.011,-0.269l0.012,-0.268l0.014,-0.269l0.015,-0.27l0.017,-0.27l0.018,-0.271l0.02,-0.27l0.022,-0.272l0.023,-0.271l0.025,-0.272l0.026,-0.272l0.028,-0.272l0.03,-0.273l0.032,-0.273l0.033,-0.272l0.035,-0.273l0.037,-0.273l0.039,-0.273l0.041,-0.273l0.042,-0.274l0.045,-0.273l0.046,-0.273l0.049,-0.272l0.05,-0.273l0.053,-0.273l0.054,-0.272l0.057,-0.272l0.059,-0.272l0.06,-0.271l0.064,-0.272l0.065,-0.271l0.067,-0.27l0.07,-0.27l0.072,-0.27l0.075,-0.269l0.076,-0.269l0.079,-0.268l0.082,-0.268l0.084,-0.267l0.086,-0.266l0.089,-0.266l0.091,-0.265l0.094,-0.264l0.097,-0.263l0.099,-0.263l0.102,-0.262l0.104,-0.261l0.107,-0.26l0.11,-0.259l0.113,-0.258l0.115,-0.257l0.118,-0.256l0.121,-0.255l0.124,-0.254l0.126,-0.253l0.13,-0.251l0.133,-0.25l0.134,-0.247l0.07,-0.126l0.07,-0.124l0.07,-0.123l0.071,-0.123l0.072,-0.122l0.073,-0.122l0.074,-0.122l0.074,-0.122l0.075,-0.121l0.076,-0.121l0.076,-0.12l0.078,-0.12l0.078,-0.119l0.079,-0.12l0.08,-0.118l0.08,-0.119l0.082,-0.118l0.082,-0.117l0.083,-0.117l0.084,-0.117l0.084,-0.116l0.086,-0.116l0.086,-0.115l0.087,-0.115l0.088,-0.114l0.089,-0.114l0.089,-0.114l0.091,-0.113l0.091,-0.112l0.092,-0.112l0.093,-0.112l0.094,-0.111l0.095,-0.11l0.095,-0.11l0.097,-0.11l0.097,-0.109l0.098,-0.108l0.099,-0.108l0.1,-0.107l0.1,-0.107l0.102,-0.106l0.102,-0.106l0.104,-0.105l0.104,-0.105l0.105,-0.104l0.105,-0.103l0.107,-0.103l0.108,-0.102l0.109,-0.102l0.109,-0.101l0.11,-0.1l0.111,-0.1l0.113,-0.099l0.113,-0.098l0.113,-0.098l0.115,-0.098l0.116,-0.096l0.116,-0.096l0.118,-0.095l0.118,-0.095l0.119,-0.094l0.121,-0.093l0.121,-0.093l0.122,-0.092l0.123,-0.091l0.123,-0.091l0.125,-0.089l0.126,-0.09l0.126,-0.088l0.128,-0.088l0.128,-0.087l0.129,-0.086l0.13,-0.086l0.131,-0.084l0.132,-0.084l0.133,-0.084l0.134,-0.082l0.135,-0.082l0.136,-0.081l0.136,-0.08l0.138,-0.08l0.138,-0.079l0.139,-0.078l0.141,-0.077l0.141,-0.076l0.142,-0.076l0.143,-0.074l0.144,-0.074l0.145,-0.074l0.146,-0.072l0.146,-0.072l0.148,-0.07l0.149,-0.07l0.149,-0.069l0.151,-0.068l0.151,-0.068l0.152,-0.066l0.153,-0.066l0.155,-0.065l0.155,-0.064l0.156,-0.063l0.157,-0.062l0.158,-0.062l0.159,-0.06l0.159,-0.06l0.161,-0.059l0.162,-0.058l0.162,-0.057l0.164,-0.056l0.164,-0.055l0.166,-0.055l0.166,-0.053l0.168,-0.053l0.168,-0.052l0.169,-0.05l0.17,-0.05l0.172,-0.049l0.172,-0.048l0.173,-0.047l0.174,-0.047l0.175,-0.045l0.176,-0.044l0.176,-0.044l0.178,-0.042l0.179,-0.042l0.18,-0.04l0.181,-0.04l0.181,-0.039l0.183,-0.038l0.184,-0.036l0.184,-0.036l0.186,-0.035l0.186,-0.034l0.188,-0.033l0.189,-0.032l0.189,-0.031l0.191,-0.03l0.191,-0.029l0.193,-0.028l0.193,-0.027l0.194,-0.027l0.196,-0.025l0.196,-0.024l0.198,-0.023l0.198,-0.022l0.2,-0.021l0.2,-0.02l0.202,-0.02l0.202,-0.018l0.204,-0.017l0.204,-0.016l0.206,-0.015l0.206,-0.014l0.208,-0.013l0.208,-0.012l0.21,-0.011l0.211,-0.01l0.211,-0.009l0.213,-0.008l0.214,-0.007l0.215,-0.006l0.216,-0.004l0.216,-0.004l0.218,-0.003l0.219,-0.001l0.22,-0.001l0.22,0.001l0.219,0.001l0.218,0.003l0.216,0.004l0.216,0.004l0.214,0.006l0.213,0.007l0.212,0.008l0.211,0.009l0.21,0.01l0.208,0.011l0.208,0.012l0.206,0.013l0.205,0.014l0.204,0.015l0.203,0.016l0.202,0.017l0.201,0.019l0.2,0.019l0.198,0.02l0.198,0.021l0.196,0.022l0.195,0.024l0.195,0.024l0.193,0.025l0.192,0.026l0.191,0.027l0.189,0.029l0.189,0.029l0.188,0.03l0.187,0.031l0.185,0.032l0.185,0.033l0.183,0.034l0.183,0.035l0.181,0.036l0.18,0.037l0.18,0.038l0.178,0.039l0.177,0.04l0.176,0.041l0.175,0.042l0.174,0.042l0.173,0.044l0.172,0.045l0.171,0.045l0.17,0.047l0.168,0.047l0.168,0.048l0.167,0.05l0.166,0.05l0.164,0.051l0.164,0.052l0.163,0.053l0.161,0.054l0.161,0.055l0.16,0.056l0.158,0.056l0.158,0.058l0.156,0.058l0.156,0.06l0.154,0.06l0.154,0.061l0.152,0.062l0.152,0.063l0.15,0.064l0.15,0.065l0.148,0.065l0.148,0.067l0.146,0.067l0.145,0.068l0.145,0.069l0.143,0.07l0.143,0.071l0.141,0.071l0.141,0.073l0.139,0.073l0.138,0.074l0.138,0.075l0.136,0.076l0.135,0.076l0.135,0.078l0.133,0.078l0.133,0.079l0.131,0.08l0.13,0.081l0.13,0.081l0.128,0.082l0.128,0.083l0.126,0.084l0.125,0.085l0.125,0.085l0.123,0.086l0.123,0.087l0.121,0.088l0.12,0.088l0.12,0.089l0.118,0.09l0.118,0.091l0.116,0.091l0.116,0.092l0.114,0.093l0.114,0.093l0.112,0.094l0.112,0.095l0.11,0.096l0.11,0.096l0.108,0.097l0.108,0.098l0.106,0.098l0.106,0.099l0.105,0.099l0.103,0.1l0.103,0.101l0.102,0.102l0.101,0.102l0.099,0.103l0.099,0.103l0.098,0.104l0.097,0.105l0.096,0.105l0.095,0.106l0.093,0.106l0.093,0.107l0.093,0.107l0.091,0.108l0.09,0.109l0.089,0.109l0.088,0.11l0.088,0.11l0.086,0.111l0.085,0.111l0.085,0.112l0.083,0.113l0.083,0.112l0.082,0.114l0.081,0.113l0.079,0.115l0.079,0.115l0.078,0.115l0.077,0.115l0.077,0.117l0.075,0.116l0.075,0.117l0.073,0.118l0.073,0.118l0.071,0.118l0.071,0.119l0.07,0.119l0.069,0.12l0.068,0.12l0.068,0.12l0.067,0.121l0.065,0.121l0.065,0.122l0.064,0.122l0.063,0.122l0.062,0.123l0.061,0.123l0.061,0.123l0.06,0.124l0.058,0.124l0.058,0.125l0.058,0.124l0.056,0.125l0.056,0.126l0.055,0.126l0.054,0.126l0.053,0.126l0.052,0.127l0.052,0.126l0.051,0.128l0.05,0.127l0.05,0.131l0.095,0.253l0.093,0.258l0.09,0.258l0.087,0.26l0.085,0.26l0.081,0.261l0.078,0.262l0.076,0.263l0.073,0.264l0.07,0.265l0.067,0.265l0.065,0.266l0.062,0.267l0.059,0.267l0.057,0.268l0.054,0.268l0.051,0.269l0.05,0.27l0.046,0.27l0.044,0.27l0.042,0.271l0.04,0.271l0.037,0.272l0.035,0.272l0.033,0.272l0.03,0.272l0.028,0.273l0.026,0.273l0.024,0.273l0.022,0.273l0.02,0.273l0.018,0.274l0.016,0.273l0.013,0.274l0.012,0.273l0.01,0.274l0.008,0.273l0.007,0.274l0.004,0.273l0.003,0.273l0,0.273l0,0.273l-0.003,0.272l-0.004,0.272l-0.006,0.272l-0.008,0.272l-0.009,0.271l-0.01,0.271l-0.012,0.271l-0.014,0.27l-0.015,0.27l-0.017,0.269l-0.018,0.268l-0.019,0.268l-0.021,0.268l-0.022,0.267l-0.023,0.266l-0.025,0.266l-0.025,0.265l-0.027,0.264l-0.029,0.264l-0.029,0.262l-0.031,0.262l-0.031,0.261l-0.033,0.261l-0.034,0.259l-0.035,0.258l-0.035,0.258l-0.037,0.256l-0.038,0.256l-0.039,0.254l-0.039,0.254l-0.04,0.252l-0.042,0.251l-0.042,0.25l-0.043,0.249l-0.043,0.247l-0.044,0.247l-0.045,0.245l-0.046,0.243l-0.047,0.243l-0.046,0.241l-0.048,0.239l-0.048,0.239l-0.049,0.236l-0.049,0.236l-0.05,0.233l-0.05,0.233l-0.051,0.232l-0.102,0.455l-0.104,0.449l-0.105,0.443l-0.106,0.436l-0.107,0.428l-0.108,0.42l-0.108,0.413l-0.108,0.405l-0.108,0.396l-0.108,0.387l-0.107,0.379l-0.107,0.37l-0.106,0.36l-0.105,0.35l-0.104,0.341l-0.102,0.33l-0.101,0.321l-0.099,0.309l-0.096,0.299l-0.095,0.288l-0.092,0.276l-0.003,0.01l54.152,0l0,59.385l-2.593,-0.622Zm-72.607,-99.164l-0.2,0.001l-0.198,0.002l-0.197,0.004l-0.196,0.004l-0.195,0.005l-0.194,0.007l-0.192,0.007l-0.192,0.008l-0.19,0.009l-0.189,0.01l-0.188,0.011l-0.186,0.011l-0.186,0.013l-0.184,0.013l-0.183,0.015l-0.183,0.015l-0.181,0.016l-0.179,0.018l-0.179,0.018l-0.178,0.018l-0.176,0.02l-0.176,0.021l-0.174,0.021l-0.173,0.022l-0.172,0.023l-0.171,0.024l-0.17,0.025l-0.168,0.026l-0.168,0.026l-0.167,0.028l-0.165,0.028l-0.164,0.028l-0.164,0.03l-0.162,0.031l-0.161,0.031l-0.16,0.032l-0.159,0.033l-0.158,0.034l-0.157,0.034l-0.156,0.035l-0.154,0.036l-0.154,0.037l-0.153,0.037l-0.151,0.039l-0.151,0.039l-0.149,0.039l-0.149,0.041l-0.147,0.041l-0.147,0.042l-0.145,0.042l-0.145,0.044l-0.143,0.044l-0.143,0.045l-0.141,0.045l-0.141,0.046l-0.139,0.047l-0.139,0.048l-0.137,0.048l-0.137,0.049l-0.135,0.05l-0.135,0.05l-0.134,0.051l-0.132,0.051l-0.132,0.053l-0.131,0.053l-0.13,0.053l-0.129,0.055l-0.128,0.054l-0.127,0.056l-0.126,0.056l-0.125,0.057l-0.124,0.057l-0.124,0.058l-0.122,0.059l-0.122,0.059l-0.121,0.06l-0.119,0.061l-0.119,0.061l-0.118,0.062l-0.117,0.062l-0.117,0.063l-0.115,0.063l-0.115,0.064l-0.114,0.065l-0.112,0.065l-0.112,0.066l-0.112,0.067l-0.11,0.066l-0.109,0.068l-0.109,0.068l-0.108,0.069l-0.107,0.069l-0.106,0.07l-0.106,0.07l-0.104,0.071l-0.104,0.072l-0.103,0.072l-0.102,0.072l-0.102,0.073l-0.1,0.074l-0.1,0.074l-0.099,0.075l-0.099,0.075l-0.097,0.076l-0.097,0.076l-0.096,0.077l-0.095,0.077l-0.095,0.078l-0.094,0.078l-0.093,0.079l-0.092,0.08l-0.092,0.08l-0.091,0.08l-0.09,0.081l-0.089,0.081l-0.089,0.082l-0.088,0.083l-0.088,0.083l-0.086,0.083l-0.086,0.084l-0.085,0.084l-0.085,0.085l-0.084,0.085l-0.083,0.086l-0.082,0.087l-0.082,0.086l-0.081,0.088l-0.081,0.087l-0.08,0.089l-0.079,0.088l-0.078,0.089l-0.078,0.09l-0.077,0.09l-0.077,0.091l-0.076,0.091l-0.075,0.091l-0.075,0.092l-0.073,0.093l-0.074,0.092l-0.072,0.094l-0.073,0.093l-0.071,0.095l-0.071,0.094l-0.07,0.095l-0.07,0.096l-0.068,0.096l-0.069,0.096l-0.067,0.097l-0.068,0.097l-0.066,0.098l-0.066,0.098l-0.065,0.098l-0.065,0.099l-0.064,0.099l-0.063,0.1l-0.063,0.1l-0.063,0.101l-0.061,0.101l-0.061,0.101l-0.061,0.102l-0.06,0.102l-0.059,0.103l-0.059,0.102l-0.058,0.104l-0.057,0.101l-0.115,0.211l-0.111,0.21l-0.109,0.212l-0.107,0.213l-0.105,0.214l-0.102,0.216l-0.1,0.217l-0.098,0.219l-0.096,0.22l-0.094,0.221l-0.092,0.222l-0.089,0.224l-0.087,0.225l-0.086,0.226l-0.083,0.228l-0.081,0.228l-0.079,0.23l-0.077,0.23l-0.076,0.232l-0.073,0.233l-0.071,0.233l-0.069,0.235l-0.067,0.236l-0.066,0.236l-0.063,0.237l-0.062,0.238l-0.059,0.239l-0.058,0.24l-0.056,0.24l-0.054,0.241l-0.052,0.242l-0.051,0.243l-0.048,0.243l-0.047,0.243l-0.046,0.244l-0.043,0.245l-0.042,0.245l-0.04,0.246l-0.038,0.245l-0.037,0.247l-0.035,0.247l-0.033,0.246l-0.032,0.248l-0.03,0.247l-0.029,0.248l-0.027,0.248l-0.026,0.248l-0.024,0.248l-0.023,0.248l-0.021,0.248l-0.019,0.248l-0.018,0.248l-0.017,0.248l-0.016,0.248l-0.014,0.248l-0.012,0.248l-0.012,0.247l-0.01,0.247l-0.008,0.247l-0.008,0.247l-0.006,0.246l-0.005,0.246l-0.004,0.245l-0.002,0.245l-0.001,0.245l-0.001,0.244l0.001,0.244l0.002,0.243l0.004,0.242l0.004,0.242l0.005,0.241l0.007,0.24l0.007,0.24l0.008,0.238l0.01,0.238l0.01,0.237l0.011,0.237l0.012,0.235l0.013,0.234l0.014,0.234l0.015,0.232l0.016,0.232l0.016,0.23l0.017,0.229l0.018,0.228l0.019,0.227l0.019,0.226l0.02,0.224l0.021,0.224l0.021,0.221l0.022,0.221l0.023,0.219l0.023,0.216l0.048,0.433l0.051,0.425l0.052,0.419l0.054,0.412l0.056,0.405l0.057,0.398l0.058,0.391l0.059,0.383l0.061,0.376l0.06,0.367l0.062,0.359l0.062,0.35l0.062,0.342l0.062,0.332l0.062,0.322l0.061,0.313l0.062,0.303l0.06,0.293l0.06,0.282l0.058,0.272l0.057,0.26l0.056,0.25l0.055,0.238l0.052,0.226l0.051,0.214l0.048,0.201l0.047,0.189l0.043,0.175l0.08,0.315l0.068,0.259l0.055,0.202l0.039,0.143l0.758,2.667l-50.648,0l0,55.733l-2.842,-1.065l-0.17,-0.062l-0.239,-0.086l-0.304,-0.108l-0.366,-0.128l-0.429,-0.147l-0.234,-0.08l-0.25,-0.083l-0.264,-0.088l-0.277,-0.09l-0.291,-0.095l-0.304,-0.097l-0.317,-0.1l-0.329,-0.103l-0.341,-0.105l-0.353,-0.108l-0.365,-0.109l-0.376,-0.112l-0.387,-0.113l-0.398,-0.114l-0.408,-0.116l-0.418,-0.116l-0.428,-0.118l-0.437,-0.118l-0.447,-0.118l-0.455,-0.118l-0.464,-0.119l-0.473,-0.118l-0.48,-0.117l-0.488,-0.117l-0.495,-0.116l-0.503,-0.115l-0.51,-0.114l-0.256,-0.055l-0.259,-0.056l-0.26,-0.055l-0.261,-0.055l-0.263,-0.055l-0.265,-0.053l-0.266,-0.054l-0.267,-0.052l-0.269,-0.052l-0.269,-0.052l-0.271,-0.051l-0.273,-0.05l-0.273,-0.049l-0.275,-0.049l-0.275,-0.048l-0.277,-0.047l-0.278,-0.046l-0.278,-0.046l-0.28,-0.044l-0.28,-0.044l-0.282,-0.043l-0.282,-0.042l-0.283,-0.041l-0.283,-0.04l-0.284,-0.039l-0.285,-0.038l-0.286,-0.036l-0.286,-0.036l-0.287,-0.035l-0.287,-0.033l-0.288,-0.033l-0.288,-0.031l-0.288,-0.03l-0.289,-0.028l-0.289,-0.028l-0.289,-0.026l-0.29,-0.025l-0.29,-0.023l-0.289,-0.022l-0.29,-0.021l-0.291,-0.019l-0.29,-0.018l-0.29,-0.016l-0.29,-0.015l-0.29,-0.013l-0.289,-0.012l-0.29,-0.011l-0.289,-0.008l-0.29,-0.007l-0.288,-0.006l-0.289,-0.003l-0.288,-0.003l-0.288,0l-0.287,0.001l-0.287,0.004l-0.286,0.004l-0.286,0.007l-0.285,0.009l-0.284,0.01l-0.284,0.012l-0.283,0.014l-0.282,0.016l-0.281,0.018l-0.281,0.02l-0.28,0.022l-0.278,0.023l-0.278,0.026l-0.277,0.028l-0.275,0.03l-0.275,0.032l-0.273,0.034l-0.272,0.036l-0.271,0.039l-0.27,0.04l-0.268,0.043l-0.267,0.045l-0.266,0.047l-0.264,0.049l-0.263,0.051l-0.262,0.054l-0.259,0.056l-0.259,0.058l-0.256,0.061l-0.255,0.063l-0.253,0.065l-0.252,0.068l-0.252,0.07l-0.122,0.036l-0.124,0.036l-0.123,0.037l-0.123,0.038l-0.123,0.038l-0.121,0.039l-0.122,0.039l-0.121,0.041l-0.121,0.04l-0.12,0.042l-0.119,0.041l-0.119,0.043l-0.119,0.043l-0.118,0.044l-0.117,0.044l-0.117,0.045l-0.117,0.046l-0.116,0.046l-0.115,0.047l-0.115,0.048l-0.115,0.048l-0.114,0.049l-0.113,0.049l-0.113,0.05l-0.112,0.051l-0.112,0.051l-0.111,0.052l-0.111,0.053l-0.11,0.053l-0.109,0.054l-0.109,0.055l-0.109,0.055l-0.108,0.056l-0.107,0.057l-0.107,0.057l-0.106,0.058l-0.105,0.058l-0.105,0.059l-0.105,0.06l-0.104,0.061l-0.103,0.061l-0.103,0.062l-0.102,0.062l-0.101,0.064l-0.101,0.064l-0.1,0.064l-0.1,0.065l-0.099,0.066l-0.099,0.067l-0.097,0.067l-0.098,0.068l-0.096,0.069l-0.096,0.07l-0.096,0.07l-0.095,0.071l-0.094,0.071l-0.094,0.072l-0.093,0.073l-0.092,0.074l-0.092,0.075l-0.091,0.075l-0.09,0.076l-0.09,0.076l-0.089,0.078l-0.089,0.078l-0.088,0.079l-0.087,0.079l-0.087,0.081l-0.086,0.081l-0.086,0.082l-0.085,0.083l-0.084,0.083l-0.083,0.084l-0.083,0.086l-0.083,0.086l-0.081,0.086l-0.081,0.087l-0.081,0.089l-0.079,0.089l-0.079,0.09l-0.079,0.09l-0.078,0.092l-0.077,0.092l-0.076,0.094l-0.076,0.094l-0.075,0.095l-0.075,0.095l-0.074,0.097l-0.073,0.098l-0.072,0.098l-0.072,0.099l-0.071,0.101l-0.071,0.101l-0.07,0.102l-0.069,0.103l-0.068,0.103l-0.068,0.105l-0.067,0.106l-0.067,0.106l-0.065,0.108l-0.065,0.109l-0.065,0.109l-0.063,0.11l-0.063,0.112l-0.062,0.112l-0.062,0.114l-0.061,0.114l-0.06,0.115l-0.059,0.117l-0.059,0.117l-0.058,0.119l-0.057,0.119l-0.056,0.121l-0.056,0.121l-0.055,0.123l-0.054,0.123l-0.053,0.125l-0.053,0.126l-0.052,0.127l-0.051,0.128l-0.05,0.129l-0.05,0.13l-0.049,0.131l-0.047,0.133l-0.048,0.133l-0.046,0.135l-0.046,0.135l-0.044,0.137l-0.044,0.138l-0.043,0.139l-0.043,0.141l-0.041,0.141l-0.041,0.143l-0.039,0.143l-0.039,0.145l-0.038,0.147l-0.037,0.147l-0.036,0.148l-0.036,0.15l-0.034,0.151l-0.034,0.152l-0.033,0.154l-0.031,0.154l-0.031,0.156l-0.03,0.157l-0.029,0.158l-0.028,0.16l-0.028,0.16l-0.026,0.162l-0.025,0.164l-0.024,0.164l-0.024,0.166l-0.022,0.167l-0.022,0.168l-0.02,0.17l-0.019,0.171l-0.019,0.172l-0.017,0.173l-0.017,0.175l-0.015,0.176l-0.015,0.177l-0.013,0.179l-0.012,0.18l-0.012,0.181l-0.01,0.182l-0.009,0.184l-0.008,0.185l-0.007,0.187l-0.006,0.187l-0.005,0.19l-0.004,0.19l-0.003,0.192l-0.001,0.193l-0.001,0.195l0.001,0.194l0.001,0.194l0.003,0.192l0.004,0.191l0.005,0.191l0.006,0.189l0.007,0.188l0.008,0.187l0.009,0.186l0.01,0.185l0.012,0.183l0.012,0.183l0.014,0.182l0.014,0.18l0.016,0.18l0.016,0.178l0.018,0.178l0.018,0.176l0.02,0.175l0.02,0.174l0.022,0.173l0.022,0.173l0.024,0.171l0.024,0.17l0.026,0.169l0.026,0.168l0.027,0.167l0.029,0.166l0.029,0.165l0.03,0.164l0.031,0.163l0.032,0.162l0.033,0.161l0.034,0.16l0.035,0.159l0.036,0.158l0.037,0.157l0.037,0.156l0.039,0.156l0.039,0.154l0.04,0.153l0.041,0.152l0.042,0.152l0.043,0.15l0.044,0.149l0.045,0.149l0.045,0.148l0.046,0.146l0.048,0.146l0.048,0.145l0.048,0.144l0.05,0.143l0.051,0.142l0.051,0.141l0.052,0.14l0.053,0.139l0.054,0.139l0.054,0.138l0.056,0.136l0.056,0.136l0.057,0.135l0.058,0.135l0.058,0.133l0.059,0.132l0.061,0.132l0.06,0.131l0.062,0.13l0.062,0.128l0.064,0.129l0.064,0.127l0.064,0.127l0.066,0.126l0.066,0.125l0.067,0.124l0.067,0.123l0.069,0.123l0.069,0.122l0.07,0.121l0.07,0.12l0.072,0.119l0.072,0.119l0.072,0.118l0.074,0.117l0.074,0.116l0.075,0.116l0.076,0.115l0.076,0.114l0.077,0.113l0.077,0.113l0.079,0.112l0.079,0.111l0.08,0.11l0.08,0.11l0.081,0.109l0.082,0.108l0.083,0.108l0.083,0.107l0.084,0.106l0.084,0.105l0.085,0.105l0.086,0.104l0.086,0.104l0.088,0.102l0.087,0.102l0.089,0.102l0.089,0.1l0.09,0.1l0.09,0.099l0.091,0.099l0.092,0.098l0.092,0.097l0.093,0.097l0.093,0.096l0.095,0.095l0.094,0.095l0.096,0.094l0.096,0.093l0.097,0.093l0.097,0.092l0.098,0.091l0.098,0.091l0.099,0.09l0.1,0.09l0.1,0.089l0.101,0.088l0.102,0.088l0.102,0.087l0.102,0.086l0.104,0.086l0.104,0.085l0.104,0.085l0.105,0.083l0.106,0.084l0.106,0.083l0.106,0.082l0.108,0.081l0.107,0.081l0.109,0.08l0.109,0.08l0.109,0.079l0.11,0.079l0.111,0.078l0.111,0.077l0.112,0.077l0.112,0.076l0.112,0.076l0.114,0.075l0.113,0.074l0.115,0.074l0.114,0.073l0.116,0.073l0.116,0.072l0.116,0.072l0.117,0.071l0.117,0.07l0.118,0.07l0.118,0.069l0.119,0.069l0.119,0.068l0.12,0.068l0.12,0.067l0.121,0.066l0.121,0.066l0.121,0.066l0.123,0.065l0.12,0.063l0.249,0.128l0.248,0.125l0.25,0.122l0.251,0.12l0.253,0.119l0.255,0.116l0.257,0.114l0.258,0.112l0.259,0.11l0.261,0.107l0.263,0.106l0.264,0.103l0.265,0.102l0.267,0.1l0.268,0.097l0.269,0.096l0.271,0.093l0.271,0.092l0.273,0.089l0.274,0.088l0.276,0.085l0.276,0.084l0.277,0.082l0.278,0.08l0.279,0.078l0.28,0.076l0.281,0.075l0.282,0.072l0.282,0.071l0.284,0.069l0.284,0.067l0.284,0.066l0.286,0.063l0.285,0.062l0.287,0.06l0.287,0.059l0.287,0.057l0.288,0.055l0.289,0.053l0.288,0.052l0.289,0.05l0.29,0.049l0.289,0.047l0.29,0.046l0.29,0.043l0.29,0.043l0.29,0.041l0.291,0.039l0.29,0.038l0.29,0.036l0.29,0.035l0.29,0.034l0.29,0.032l0.29,0.03l0.29,0.03l0.289,0.028l0.289,0.026l0.289,0.026l0.288,0.024l0.288,0.022l0.288,0.022l0.287,0.02l0.287,0.019l0.285,0.017l0.286,0.017l0.285,0.015l0.284,0.014l0.283,0.014l0.283,0.011l0.282,0.011l0.281,0.01l0.28,0.009l0.279,0.007l0.279,0.007l0.277,0.005l0.276,0.005l0.276,0.003l0.274,0.003l0.273,0.002l0.272,0l0.271,0l0.269,-0.001l0.268,-0.002l0.267,-0.003l0.266,-0.003l0.264,-0.004l0.263,-0.006l0.261,-0.006l0.26,-0.006l0.258,-0.008l0.257,-0.008l0.255,-0.008l0.252,-0.01l0.503,-0.021l0.494,-0.023l0.487,-0.026l0.48,-0.027l0.471,-0.03l0.463,-0.032l0.455,-0.033l0.446,-0.035l0.436,-0.036l0.427,-0.037l0.418,-0.039l0.407,-0.039l0.397,-0.04l0.386,-0.041l0.375,-0.041l0.364,-0.041l0.352,-0.042l0.341,-0.041l0.328,-0.041l0.316,-0.041l0.303,-0.041l0.29,-0.039l0.277,-0.039l0.263,-0.038l0.249,-0.037l0.234,-0.035l0.221,-0.034l0.204,-0.033l0.366,-0.059l0.303,-0.051l0.237,-0.042l0.168,-0.03l2.774,-0.521l-5.321,51.46l50.368,0l-0.022,-0.08l-0.064,-0.247l-0.065,-0.254l-0.065,-0.264l-0.066,-0.272l-0.067,-0.281l-0.066,-0.288l-0.067,-0.297l-0.066,-0.304l-0.066,-0.311l-0.065,-0.319l-0.065,-0.326l-0.063,-0.333l-0.063,-0.34l-0.061,-0.346l-0.059,-0.353l-0.058,-0.358l-0.056,-0.365l-0.055,-0.37l-0.051,-0.374l-0.025,-0.192l-0.025,-0.192l-0.024,-0.192l-0.023,-0.194l-0.022,-0.195l-0.022,-0.196l-0.021,-0.198l-0.02,-0.199l-0.019,-0.2l-0.019,-0.201l-0.017,-0.202l-0.017,-0.203l-0.016,-0.204l-0.015,-0.205l-0.015,-0.206l-0.013,-0.208l-0.012,-0.208l-0.011,-0.209l-0.01,-0.21l-0.009,-0.211l-0.008,-0.212l-0.007,-0.212l-0.006,-0.214l-0.005,-0.214l-0.003,-0.215l-0.003,-0.216l-0.001,-0.216l0.001,-0.217l0.001,-0.218l0.003,-0.218l0.004,-0.219l0.005,-0.22l0.007,-0.22l0.008,-0.221l0.01,-0.222l0.011,-0.221l0.013,-0.223l0.014,-0.222l0.015,-0.224l0.017,-0.223l0.019,-0.224l0.02,-0.225l0.022,-0.224l0.024,-0.225l0.025,-0.226l0.027,-0.225l0.029,-0.226l0.03,-0.226l0.033,-0.226l0.034,-0.227l0.036,-0.226l0.038,-0.227l0.039,-0.227l0.042,-0.226l0.044,-0.227l0.045,-0.227l0.048,-0.227l0.05,-0.227l0.051,-0.226l0.054,-0.227l0.056,-0.226l0.058,-0.227l0.061,-0.226l0.062,-0.226l0.065,-0.226l0.067,-0.225l0.069,-0.225l0.072,-0.225l0.074,-0.225l0.076,-0.224l0.079,-0.223l0.081,-0.224l0.084,-0.222l0.086,-0.223l0.089,-0.222l0.091,-0.221l0.094,-0.221l0.096,-0.22l0.1,-0.219l0.101,-0.218l0.105,-0.218l0.107,-0.218l0.11,-0.216l0.112,-0.215l0.116,-0.215l0.118,-0.214l0.121,-0.213l0.124,-0.212l0.127,-0.21l0.13,-0.21l0.133,-0.209l0.135,-0.208l0.139,-0.206l0.142,-0.205l0.145,-0.204l0.147,-0.203l0.151,-0.201l0.154,-0.2l0.155,-0.197l0.082,-0.101l0.08,-0.098l0.082,-0.098l0.082,-0.098l0.083,-0.098l0.083,-0.096l0.085,-0.097l0.085,-0.096l0.086,-0.096l0.087,-0.095l0.087,-0.095l0.089,-0.095l0.089,-0.094l0.09,-0.094l0.091,-0.093l0.092,-0.093l0.092,-0.092l0.094,-0.092l0.094,-0.092l0.095,-0.091l0.095,-0.091l0.097,-0.09l0.097,-0.089l0.099,-0.09l0.099,-0.089l0.1,-0.088l0.1,-0.088l0.102,-0.087l0.102,-0.087l0.103,-0.086l0.105,-0.086l0.104,-0.086l0.106,-0.084l0.107,-0.085l0.107,-0.084l0.108,-0.083l0.11,-0.083l0.109,-0.082l0.111,-0.082l0.112,-0.081l0.112,-0.081l0.114,-0.08l0.114,-0.079l0.115,-0.079l0.116,-0.079l0.116,-0.078l0.118,-0.077l0.118,-0.077l0.12,-0.076l0.12,-0.076l0.121,-0.075l0.122,-0.074l0.122,-0.074l0.124,-0.073l0.124,-0.073l0.126,-0.072l0.126,-0.071l0.127,-0.071l0.128,-0.071l0.128,-0.069l0.13,-0.069l0.13,-0.069l0.132,-0.068l0.132,-0.067l0.133,-0.066l0.134,-0.066l0.135,-0.066l0.136,-0.064l0.136,-0.064l0.138,-0.064l0.138,-0.063l0.139,-0.062l0.14,-0.061l0.142,-0.061l0.141,-0.06l0.143,-0.06l0.144,-0.058l0.144,-0.059l0.146,-0.057l0.146,-0.057l0.147,-0.056l0.149,-0.056l0.149,-0.054l0.15,-0.054l0.15,-0.054l0.152,-0.053l0.153,-0.052l0.153,-0.051l0.155,-0.051l0.155,-0.05l0.156,-0.049l0.158,-0.049l0.158,-0.048l0.159,-0.047l0.16,-0.046l0.16,-0.046l0.162,-0.045l0.163,-0.044l0.163,-0.044l0.165,-0.043l0.166,-0.042l0.166,-0.041l0.167,-0.041l0.169,-0.04l0.169,-0.039l0.17,-0.039l0.171,-0.038l0.172,-0.037l0.173,-0.036l0.174,-0.036l0.175,-0.034l0.176,-0.034l0.176,-0.034l0.178,-0.032l0.179,-0.032l0.18,-0.031l0.18,-0.03l0.182,-0.03l0.182,-0.029l0.184,-0.028l0.185,-0.027l0.185,-0.026l0.187,-0.026l0.187,-0.025l0.189,-0.024l0.189,-0.023l0.19,-0.023l0.192,-0.022l0.192,-0.021l0.194,-0.02l0.194,-0.019l0.196,-0.019l0.196,-0.018l0.197,-0.017l0.199,-0.016l0.199,-0.015l0.201,-0.015l0.201,-0.013l0.203,-0.013l0.203,-0.012l0.205,-0.012l0.206,-0.01l0.206,-0.01l0.208,-0.009l0.209,-0.008l0.209,-0.007l0.211,-0.006l0.212,-0.006l0.213,-0.004l0.214,-0.004l0.215,-0.003l0.216,-0.002l0.217,-0.002l0.218,0l0.219,0l0.217,0.002l0.215,0.002l0.215,0.003l0.214,0.004l0.212,0.004l0.211,0.006l0.21,0.006l0.209,0.007l0.208,0.008l0.206,0.009l0.206,0.01l0.204,0.01l0.203,0.012l0.203,0.012l0.2,0.013l0.2,0.013l0.199,0.015l0.198,0.015l0.196,0.017l0.196,0.017l0.194,0.017l0.193,0.019l0.192,0.019l0.191,0.021l0.19,0.021l0.189,0.022l0.188,0.022l0.186,0.024l0.186,0.024l0.185,0.025l0.183,0.025l0.182,0.027l0.182,0.027l0.18,0.028l0.179,0.029l0.178,0.03l0.178,0.03l0.176,0.031l0.175,0.032l0.174,0.033l0.173,0.033l0.172,0.035l0.17,0.035l0.17,0.035l0.169,0.037l0.168,0.037l0.167,0.038l0.165,0.039l0.165,0.039l0.164,0.041l0.163,0.041l0.161,0.041l0.161,0.043l0.16,0.043l0.158,0.044l0.158,0.045l0.157,0.045l0.156,0.046l0.154,0.047l0.154,0.047l0.153,0.049l0.152,0.049l0.15,0.049l0.15,0.051l0.149,0.051l0.148,0.052l0.147,0.053l0.145,0.053l0.145,0.054l0.144,0.055l0.143,0.055l0.142,0.056l0.141,0.057l0.141,0.057l0.139,0.059l0.138,0.059l0.137,0.059l0.136,0.06l0.136,0.061l0.134,0.062l0.133,0.062l0.133,0.063l0.131,0.064l0.131,0.064l0.129,0.065l0.129,0.066l0.128,0.066l0.127,0.067l0.126,0.068l0.124,0.068l0.124,0.069l0.123,0.07l0.122,0.07l0.122,0.071l0.12,0.071l0.119,0.072l0.118,0.073l0.118,0.074l0.116,0.074l0.116,0.074l0.114,0.076l0.114,0.076l0.113,0.076l0.111,0.077l0.111,0.078l0.11,0.078l0.109,0.079l0.108,0.08l0.108,0.08l0.106,0.08l0.105,0.082l0.104,0.081l0.104,0.083l0.102,0.083l0.102,0.083l0.101,0.084l0.099,0.085l0.099,0.085l0.098,0.086l0.097,0.086l0.096,0.087l0.095,0.087l0.095,0.088l0.093,0.089l0.092,0.088l0.092,0.09l0.091,0.09l0.089,0.09l0.089,0.091l0.088,0.092l0.087,0.091l0.086,0.093l0.085,0.093l0.084,0.093l0.084,0.093l0.082,0.095l0.082,0.094l0.081,0.095l0.079,0.096l0.079,0.096l0.078,0.096l0.077,0.097l0.077,0.097l0.075,0.098l0.074,0.098l0.074,0.099l0.073,0.098l0.071,0.099l0.071,0.1l0.07,0.1l0.07,0.1l0.068,0.101l0.067,0.101l0.067,0.101l0.066,0.102l0.065,0.103l0.064,0.102l0.063,0.102l0.062,0.104l0.062,0.103l0.061,0.104l0.059,0.104l0.059,0.104l0.059,0.105l0.057,0.105l0.057,0.105l0.057,0.108l0.107,0.209l0.106,0.213l0.103,0.214l0.099,0.214l0.097,0.216l0.093,0.217l0.09,0.217l0.087,0.219l0.084,0.219l0.081,0.219l0.078,0.221l0.075,0.221l0.073,0.222l0.069,0.222l0.067,0.223l0.064,0.224l0.061,0.224l0.059,0.224l0.056,0.225l0.053,0.225l0.051,0.226l0.048,0.226l0.046,0.226l0.043,0.226l0.041,0.227l0.038,0.227l0.036,0.227l0.034,0.228l0.031,0.227l0.029,0.228l0.027,0.227l0.025,0.228l0.022,0.228l0.021,0.228l0.018,0.228l0.016,0.228l0.014,0.227l0.012,0.228l0.011,0.228l0.008,0.227l0.006,0.227l0.005,0.227l0.003,0.227l0,0.227l0,0.226l-0.003,0.227l-0.004,0.226l-0.006,0.225l-0.008,0.225l-0.009,0.225l-0.011,0.225l-0.013,0.224l-0.013,0.223l-0.016,0.224l-0.017,0.222l-0.018,0.223l-0.02,0.221l-0.021,0.221l-0.022,0.221l-0.024,0.22l-0.025,0.22l-0.027,0.219l-0.027,0.218l-0.029,0.217l-0.03,0.217l-0.031,0.216l-0.032,0.216l-0.033,0.214l-0.035,0.214l-0.035,0.213l-0.036,0.212l-0.038,0.211l-0.038,0.211l-0.039,0.209l-0.041,0.209l-0.04,0.207l-0.042,0.207l-0.043,0.206l-0.043,0.205l-0.045,0.203l-0.045,0.203l-0.045,0.201l-0.047,0.201l-0.047,0.199l-0.047,0.198l-0.048,0.197l-0.049,0.196l-0.05,0.194l-0.049,0.194l-0.051,0.193l-0.102,0.379l-0.104,0.374l-0.105,0.369l-0.106,0.364l-0.108,0.357l-0.108,0.351l-0.109,0.345l-0.109,0.339l-0.109,0.331l-0.11,0.325l-0.109,0.318l-0.108,0.31l-0.108,0.303l-0.108,0.295l-0.106,0.287l-0.105,0.28l-0.103,0.271l-0.102,0.262l-0.1,0.254l-0.035,0.088l49.946,0l0,-51.136l-0.044,0.004l-0.26,0.022l-0.273,0.023l-0.285,0.022l-0.296,0.023l-0.308,0.023l-0.319,0.022l-0.33,0.022l-0.341,0.021l-0.351,0.021l-0.361,0.02l-0.372,0.02l-0.38,0.018l-0.39,0.018l-0.4,0.016l-0.408,0.015l-0.416,0.013l-0.425,0.012l-0.434,0.011l-0.441,0.009l-0.448,0.007l-0.456,0.005l-0.463,0.003l-0.469,0l-0.476,-0.001l-0.483,-0.004l-0.488,-0.007l-0.495,-0.009l-0.499,-0.012l-0.505,-0.015l-0.511,-0.018l-0.513,-0.02l-0.26,-0.012l-0.261,-0.013l-0.261,-0.013l-0.262,-0.014l-0.263,-0.015l-0.265,-0.016l-0.265,-0.017l-0.266,-0.018l-0.267,-0.018l-0.268,-0.02l-0.268,-0.02l-0.269,-0.022l-0.271,-0.022l-0.27,-0.024l-0.272,-0.024l-0.272,-0.026l-0.273,-0.027l-0.273,-0.027l-0.274,-0.029l-0.274,-0.03l-0.275,-0.031l-0.276,-0.032l-0.276,-0.033l-0.276,-0.034l-0.276,-0.036l-0.277,-0.036l-0.278,-0.038l-0.277,-0.039l-0.278,-0.041l-0.278,-0.041l-0.278,-0.043l-0.278,-0.044l-0.279,-0.046l-0.278,-0.047l-0.279,-0.048l-0.278,-0.049l-0.279,-0.051l-0.278,-0.052l-0.279,-0.054l-0.278,-0.054l-0.279,-0.057l-0.278,-0.058l-0.277,-0.059l-0.278,-0.061l-0.278,-0.062l-0.277,-0.064l-0.276,-0.065l-0.277,-0.067l-0.276,-0.068l-0.276,-0.07l-0.275,-0.072l-0.275,-0.073l-0.274,-0.075l-0.274,-0.076l-0.273,-0.078l-0.273,-0.08l-0.272,-0.082l-0.271,-0.083l-0.271,-0.085l-0.27,-0.087l-0.269,-0.088l-0.268,-0.091l-0.268,-0.092l-0.266,-0.094l-0.266,-0.096l-0.265,-0.097l-0.264,-0.1l-0.263,-0.102l-0.262,-0.103l-0.261,-0.105l-0.26,-0.108l-0.259,-0.109l-0.258,-0.112l-0.256,-0.113l-0.256,-0.116l-0.254,-0.117l-0.253,-0.12l-0.251,-0.122l-0.251,-0.124l-0.248,-0.126l-0.248,-0.129l-0.246,-0.13l-0.244,-0.133l-0.243,-0.135l-0.242,-0.138l-0.24,-0.139l-0.238,-0.142l-0.237,-0.145l-0.235,-0.146l-0.233,-0.149l-0.231,-0.152l-0.23,-0.154l-0.228,-0.156l-0.226,-0.159l-0.224,-0.162l-0.222,-0.164l-0.217,-0.164l-0.112,-0.086l-0.109,-0.085l-0.108,-0.086l-0.107,-0.086l-0.107,-0.087l-0.107,-0.087l-0.106,-0.088l-0.105,-0.089l-0.105,-0.089l-0.105,-0.091l-0.104,-0.09l-0.103,-0.092l-0.102,-0.092l-0.102,-0.093l-0.102,-0.093l-0.101,-0.094l-0.1,-0.095l-0.1,-0.096l-0.099,-0.096l-0.098,-0.096l-0.098,-0.098l-0.097,-0.098l-0.096,-0.099l-0.096,-0.1l-0.095,-0.1l-0.095,-0.101l-0.094,-0.102l-0.093,-0.102l-0.092,-0.103l-0.092,-0.104l-0.091,-0.105l-0.091,-0.105l-0.09,-0.106l-0.089,-0.107l-0.088,-0.107l-0.088,-0.108l-0.086,-0.109l-0.087,-0.11l-0.085,-0.11l-0.085,-0.111l-0.084,-0.111l-0.083,-0.113l-0.082,-0.113l-0.082,-0.113l-0.08,-0.115l-0.08,-0.115l-0.08,-0.116l-0.078,-0.117l-0.078,-0.117l-0.077,-0.118l-0.076,-0.119l-0.075,-0.12l-0.074,-0.12l-0.074,-0.121l-0.072,-0.122l-0.072,-0.122l-0.071,-0.124l-0.07,-0.124l-0.069,-0.124l-0.069,-0.125l-0.067,-0.127l-0.067,-0.126l-0.066,-0.128l-0.065,-0.128l-0.063,-0.129l-0.064,-0.129l-0.062,-0.131l-0.061,-0.131l-0.06,-0.132l-0.06,-0.132l-0.058,-0.133l-0.057,-0.134l-0.057,-0.135l-0.056,-0.135l-0.054,-0.136l-0.054,-0.137l-0.053,-0.138l-0.051,-0.138l-0.051,-0.139l-0.05,-0.139l-0.049,-0.141l-0.047,-0.141l-0.047,-0.141l-0.046,-0.143l-0.045,-0.143l-0.044,-0.144l-0.042,-0.144l-0.042,-0.145l-0.041,-0.146l-0.04,-0.147l-0.038,-0.147l-0.038,-0.148l-0.037,-0.149l-0.035,-0.149l-0.035,-0.15l-0.033,-0.15l-0.033,-0.152l-0.031,-0.152l-0.03,-0.153l-0.03,-0.153l-0.028,-0.154l-0.027,-0.155l-0.026,-0.155l-0.025,-0.157l-0.024,-0.157l-0.023,-0.157l-0.022,-0.158l-0.02,-0.159l-0.02,-0.16l-0.018,-0.16l-0.018,-0.161l-0.016,-0.162l-0.015,-0.162l-0.014,-0.163l-0.013,-0.164l-0.012,-0.164l-0.011,-0.165l-0.009,-0.166l-0.009,-0.166l-0.007,-0.167l-0.006,-0.167l-0.005,-0.169l-0.004,-0.169l-0.003,-0.17l-0.002,-0.17l-0.001,-0.171l0.001,-0.171l0.002,-0.171l0.003,-0.169l0.004,-0.169l0.005,-0.168l0.006,-0.167l0.007,-0.166l0.009,-0.166l0.009,-0.165l0.011,-0.164l0.012,-0.163l0.013,-0.163l0.014,-0.162l0.015,-0.161l0.017,-0.16l0.017,-0.16l0.019,-0.158l0.019,-0.158l0.021,-0.157l0.022,-0.157l0.023,-0.155l0.024,-0.155l0.025,-0.155l0.026,-0.153l0.027,-0.152l0.029,-0.152l0.029,-0.151l0.031,-0.15l0.031,-0.15l0.033,-0.149l0.034,-0.148l0.035,-0.147l0.035,-0.147l0.037,-0.145l0.038,-0.145l0.039,-0.144l0.041,-0.144l0.041,-0.142l0.042,-0.142l0.043,-0.141l0.044,-0.14l0.046,-0.14l0.046,-0.139l0.047,-0.137l0.049,-0.138l0.049,-0.136l0.05,-0.135l0.052,-0.135l0.052,-0.134l0.054,-0.134l0.054,-0.132l0.055,-0.132l0.057,-0.13l0.057,-0.131l0.058,-0.129l0.06,-0.128l0.06,-0.128l0.061,-0.126l0.062,-0.127l0.063,-0.125l0.064,-0.124l0.065,-0.124l0.066,-0.123l0.067,-0.122l0.068,-0.121l0.068,-0.12l0.07,-0.12l0.07,-0.119l0.072,-0.118l0.072,-0.117l0.073,-0.116l0.074,-0.116l0.075,-0.114l0.076,-0.114l0.076,-0.113l0.078,-0.113l0.078,-0.111l0.079,-0.111l0.08,-0.109l0.081,-0.109l0.081,-0.109l0.083,-0.107l0.083,-0.106l0.083,-0.106l0.085,-0.105l0.086,-0.104l0.086,-0.103l0.087,-0.103l0.088,-0.102l0.088,-0.1l0.09,-0.1l0.09,-0.1l0.09,-0.098l0.092,-0.097l0.092,-0.097l0.093,-0.096l0.093,-0.095l0.095,-0.095l0.095,-0.093l0.095,-0.093l0.097,-0.092l0.097,-0.091l0.097,-0.09l0.098,-0.09l0.099,-0.089l0.1,-0.088l0.1,-0.087l0.101,-0.087l0.101,-0.085l0.102,-0.085l0.103,-0.084l0.103,-0.084l0.104,-0.082l0.104,-0.082l0.105,-0.081l0.106,-0.081l0.106,-0.079l0.106,-0.079l0.107,-0.078l0.108,-0.077l0.109,-0.077l0.108,-0.076l0.11,-0.075l0.109,-0.074l0.111,-0.074l0.111,-0.072l0.111,-0.073l0.112,-0.071l0.112,-0.071l0.113,-0.07l0.114,-0.069l0.113,-0.069l0.114,-0.068l0.118,-0.068l0.228,-0.131l0.233,-0.13l0.234,-0.127l0.236,-0.124l0.238,-0.121l0.239,-0.119l0.241,-0.116l0.243,-0.114l0.244,-0.111l0.245,-0.109l0.247,-0.106l0.249,-0.104l0.25,-0.101l0.251,-0.099l0.252,-0.096l0.254,-0.094l0.255,-0.092l0.256,-0.089l0.257,-0.087l0.258,-0.085l0.26,-0.083l0.26,-0.081l0.262,-0.078l0.263,-0.076l0.263,-0.075l0.265,-0.072l0.265,-0.07l0.267,-0.068l0.267,-0.066l0.268,-0.064l0.269,-0.062l0.27,-0.06l0.27,-0.058l0.271,-0.057l0.272,-0.054l0.272,-0.053l0.273,-0.051l0.274,-0.049l0.274,-0.047l0.274,-0.045l0.275,-0.044l0.276,-0.042l0.276,-0.041l0.277,-0.038l0.276,-0.038l0.277,-0.035l0.278,-0.034l0.278,-0.032l0.278,-0.031l0.278,-0.029l0.278,-0.028l0.279,-0.027l0.279,-0.024l0.279,-0.024l0.279,-0.022l0.278,-0.02l0.279,-0.019l0.279,-0.018l0.279,-0.017l0.279,-0.015l0.279,-0.014l0.278,-0.012l0.279,-0.011l0.278,-0.01l0.278,-0.009l0.278,-0.008l0.277,-0.006l0.277,-0.006l0.277,-0.004l0.277,-0.003l0.276,-0.002l0.275,0l0.275,0l0.275,0.001l0.274,0.003l0.273,0.003l0.273,0.004l0.272,0.006l0.272,0.006l0.271,0.007l0.27,0.009l0.269,0.009l0.269,0.01l0.268,0.01l0.267,0.012l0.266,0.013l0.265,0.013l0.264,0.014l0.264,0.015l0.262,0.015l0.261,0.017l0.26,0.017l0.261,0.018l0.513,0.037l0.51,0.04l0.505,0.043l0.5,0.045l0.494,0.046l0.488,0.049l0.482,0.051l0.476,0.053l0.47,0.054l0.463,0.055l0.455,0.057l0.448,0.058l0.441,0.059l0.433,0.059l0.425,0.061l0.416,0.06l0.408,0.062l0.399,0.061l0.39,0.062l0.38,0.062l0.371,0.061l0.361,0.061l0.351,0.061l0.34,0.06l0.33,0.059l0.319,0.059l0.308,0.057l0.296,0.057l0.284,0.055l0.273,0.053l0.084,0.017l0,-50.37l-55.945,0l1.134,-2.859l0.056,-0.144l0.078,-0.204l0.097,-0.259l0.116,-0.315l0.132,-0.368l0.071,-0.201l0.075,-0.215l0.079,-0.226l0.081,-0.239l0.084,-0.25l0.087,-0.261l0.089,-0.272l0.092,-0.283l0.094,-0.294l0.095,-0.303l0.097,-0.314l0.098,-0.323l0.1,-0.333l0.101,-0.342l0.101,-0.351l0.102,-0.36l0.103,-0.368l0.103,-0.376l0.102,-0.384l0.103,-0.391l0.102,-0.399l0.101,-0.407l0.101,-0.412l0.1,-0.42l0.098,-0.426l0.097,-0.433l0.048,-0.216l0.047,-0.22l0.047,-0.221l0.046,-0.222l0.046,-0.223l0.046,-0.225l0.045,-0.226l0.044,-0.227l0.044,-0.229l0.043,-0.229l0.042,-0.231l0.042,-0.232l0.041,-0.232l0.04,-0.234l0.039,-0.235l0.039,-0.235l0.038,-0.237l0.037,-0.237l0.036,-0.239l0.035,-0.239l0.035,-0.24l0.033,-0.24l0.033,-0.241l0.031,-0.242l0.031,-0.243l0.029,-0.243l0.029,-0.244l0.027,-0.244l0.026,-0.245l0.025,-0.245l0.024,-0.246l0.023,-0.246l0.022,-0.246l0.02,-0.247l0.019,-0.247l0.018,-0.247l0.017,-0.247l0.015,-0.248l0.014,-0.248l0.012,-0.248l0.011,-0.248l0.01,-0.248l0.008,-0.248l0.007,-0.248l0.005,-0.248l0.004,-0.248l0.003,-0.248l0,-0.247l0,-0.247l-0.003,-0.248l-0.004,-0.247l-0.005,-0.246l-0.008,-0.246l-0.009,-0.246l-0.01,-0.246l-0.013,-0.245l-0.014,-0.244l-0.016,-0.244l-0.017,-0.244l-0.02,-0.243l-0.021,-0.242l-0.023,-0.242l-0.025,-0.241l-0.027,-0.24l-0.029,-0.239l-0.03,-0.239l-0.033,-0.238l-0.034,-0.237l-0.037,-0.236l-0.038,-0.236l-0.041,-0.234l-0.042,-0.233l-0.045,-0.232l-0.047,-0.232l-0.048,-0.23l-0.051,-0.229l-0.053,-0.228l-0.055,-0.226l-0.057,-0.226l-0.06,-0.224l-0.061,-0.223l-0.064,-0.222l-0.066,-0.22l-0.068,-0.219l-0.07,-0.218l-0.073,-0.216l-0.075,-0.215l-0.077,-0.213l-0.081,-0.215l-0.039,-0.103l-0.042,-0.105l-0.041,-0.104l-0.043,-0.104l-0.043,-0.104l-0.043,-0.104l-0.044,-0.103l-0.045,-0.102l-0.045,-0.103l-0.046,-0.101l-0.047,-0.102l-0.047,-0.101l-0.048,-0.101l-0.048,-0.1l-0.049,-0.099l-0.05,-0.1l-0.05,-0.099l-0.051,-0.098l-0.051,-0.098l-0.052,-0.098l-0.053,-0.098l-0.053,-0.096l-0.054,-0.096l-0.054,-0.097l-0.055,-0.095l-0.056,-0.095l-0.057,-0.095l-0.057,-0.094l-0.058,-0.094l-0.058,-0.093l-0.059,-0.093l-0.06,-0.092l-0.06,-0.092l-0.061,-0.092l-0.062,-0.091l-0.062,-0.09l-0.063,-0.09l-0.063,-0.09l-0.065,-0.089l-0.065,-0.089l-0.065,-0.088l-0.067,-0.088l-0.067,-0.087l-0.068,-0.087l-0.068,-0.086l-0.069,-0.087l-0.07,-0.085l-0.07,-0.085l-0.072,-0.084l-0.072,-0.084l-0.072,-0.084l-0.074,-0.083l-0.074,-0.083l-0.075,-0.082l-0.075,-0.081l-0.077,-0.082l-0.077,-0.08l-0.078,-0.08l-0.078,-0.08l-0.079,-0.079l-0.08,-0.079l-0.081,-0.078l-0.082,-0.078l-0.082,-0.077l-0.084,-0.077l-0.084,-0.076l-0.084,-0.076l-0.086,-0.075l-0.086,-0.074l-0.088,-0.075l-0.088,-0.073l-0.088,-0.074l-0.09,-0.072l-0.091,-0.072l-0.091,-0.072l-0.092,-0.071l-0.093,-0.071l-0.094,-0.07l-0.095,-0.069l-0.095,-0.069l-0.097,-0.069l-0.097,-0.068l-0.099,-0.067l-0.098,-0.067l-0.101,-0.066l-0.101,-0.066l-0.101,-0.065l-0.103,-0.065l-0.104,-0.064l-0.104,-0.063l-0.106,-0.063l-0.106,-0.063l-0.108,-0.062l-0.108,-0.061l-0.109,-0.061l-0.111,-0.06l-0.111,-0.059l-0.112,-0.059l-0.113,-0.059l-0.114,-0.058l-0.116,-0.057l-0.116,-0.056l-0.117,-0.056l-0.118,-0.056l-0.119,-0.055l-0.121,-0.054l-0.121,-0.053l-0.122,-0.053l-0.123,-0.053l-0.125,-0.051l-0.125,-0.051l-0.127,-0.051l-0.127,-0.049l-0.129,-0.049l-0.129,-0.049l-0.131,-0.048l-0.132,-0.047l-0.133,-0.046l-0.134,-0.046l-0.135,-0.045l-0.136,-0.044l-0.137,-0.044l-0.139,-0.043l-0.139,-0.042l-0.141,-0.042l-0.142,-0.041l-0.142,-0.04l-0.145,-0.039l-0.145,-0.039l-0.146,-0.038l-0.147,-0.037l-0.149,-0.037l-0.15,-0.035l-0.151,-0.035l-0.152,-0.035l-0.153,-0.033l-0.155,-0.033l-0.155,-0.032l-0.157,-0.031l-0.158,-0.03l-0.159,-0.03l-0.161,-0.029l-0.161,-0.028l-0.163,-0.027l-0.164,-0.026l-0.166,-0.026l-0.166,-0.024l-0.168,-0.024l-0.169,-0.023l-0.17,-0.022l-0.171,-0.022l-0.173,-0.02l-0.174,-0.02l-0.175,-0.019l-0.176,-0.018l-0.178,-0.017l-0.178,-0.016l-0.18,-0.015l-0.182,-0.015l-0.182,-0.013l-0.184,-0.013l-0.185,-0.012l-0.187,-0.01l-0.188,-0.01l-0.189,-0.009l-0.19,-0.008l-0.191,-0.007l-0.193,-0.007l-0.194,-0.005l-0.196,-0.004l-0.197,-0.004l-0.198,-0.002l-0.199,-0.001l-0.201,-0.001l-0.2,0.001Z" style="fill:#4a4a4a;"/></g></svg>