<?xml version="1.0" encoding="UTF-8" standalone="no"?><!DOCTYPE svg PUBLIC "-//W3C//DTD SVG 1.1//EN" "http://www.w3.org/Graphics/SVG/1.1/DTD/svg11.dtd"><svg width="100%" height="100%" viewBox="0 0 365 264" version="1.1" xmlns="http://www.w3.org/2000/svg" xmlns:xlink="http://www.w3.org/1999/xlink" xml:space="preserve" style="fill-rule:evenodd;clip-rule:evenodd;stroke-linecap:round;stroke-linejoin:round;"><g id="Group-2"><g id="Group"><path id="Rectangle" d="M295.125,178.037l-291.749,0l0,-175.599l291.749,0l0,175.599Zm-273.458,-157.307l0,139.015l255.166,0l0,-139.015l-255.166,0Z" style="fill:#4a4a4a;"/><g id="Rectangle1"><rect x="21.667" y="19.815" width="255.166" height="140.844" style="fill:#fff;"/><path d="M285.979,10.669l0,159.136l-273.458,0l0,-159.136l273.458,0Zm-255.166,18.292l0,122.553l236.875,0l0,-122.553l-236.875,0Z" style="fill:#4a4a4a;"/></g></g><path id="Path-2" d="M137.818,168.891l0,36.583c0,0 -27.437,5.487 -30.181,7.316c-2.744,1.829 -2.744,5.488 -2.744,5.488l89.629,0c0,0 0,-3.659 -3.659,-5.488c-3.658,-1.829 -28.351,-7.316 -28.351,-7.316l0,-36.583l-24.694,0Z" style="fill:#4a4a4a;"/><path d="M167.085,201.819l0.363,0.083l0.931,0.214l1.002,0.231l1.063,0.247l1.116,0.26l1.161,0.273l1.197,0.283l1.225,0.292l1.246,0.299l1.256,0.305l0.631,0.154l0.631,0.155l0.629,0.155l0.626,0.156l0.624,0.156l0.62,0.156l0.614,0.156l0.608,0.155l0.601,0.155l0.593,0.154l0.584,0.154l0.574,0.152l0.563,0.15l0.551,0.15l0.538,0.147l0.524,0.146l0.51,0.145l0.495,0.142l0.48,0.14l0.462,0.138l0.442,0.135l0.22,0.068l0.212,0.067l0.208,0.066l0.203,0.066l0.2,0.066l0.195,0.065l0.191,0.065l0.187,0.065l0.183,0.066l0.18,0.065l0.176,0.066l0.174,0.067l0.172,0.067l0.171,0.07l0.17,0.072l0.171,0.076l0.174,0.08l0.167,0.081l0.146,0.074l0.134,0.071l0.133,0.072l0.132,0.073l0.13,0.074l0.128,0.076l0.127,0.077l0.125,0.078l0.124,0.079l0.121,0.081l0.121,0.082l0.119,0.082l0.117,0.084l0.115,0.085l0.113,0.086l0.112,0.086l0.11,0.088l0.109,0.089l0.107,0.089l0.104,0.09l0.104,0.092l0.102,0.091l0.099,0.092l0.098,0.093l0.096,0.094l0.095,0.095l0.093,0.094l0.091,0.096l0.089,0.096l0.087,0.096l0.086,0.096l0.085,0.098l0.082,0.097l0.08,0.097l0.079,0.098l0.078,0.098l0.075,0.098l0.074,0.098l0.073,0.099l0.07,0.098l0.069,0.098l0.075,0.109l0.123,0.186l0.124,0.196l0.117,0.196l0.112,0.194l0.106,0.193l0.1,0.192l0.095,0.19l0.089,0.188l0.085,0.187l0.079,0.183l0.074,0.182l0.07,0.179l0.066,0.177l0.061,0.173l0.057,0.17l0.053,0.168l0.049,0.164l0.046,0.16l0.042,0.157l0.038,0.153l0.036,0.15l0.033,0.145l0.03,0.142l0.027,0.137l0.024,0.133l0.022,0.129l0.02,0.124l0.018,0.119l0.017,0.127l0.025,0.202l0.019,0.196l0.014,0.174l0.009,0.153l0.006,0.138l0.102,4.76l-98.948,0l0.076,-4.724l0.004,-0.116l0.006,-0.132l0.009,-0.153l0.013,-0.172l0.017,-0.192l0.023,-0.21l0.027,-0.216l0.018,-0.131l0.018,-0.124l0.02,-0.128l0.023,-0.132l0.024,-0.136l0.026,-0.14l0.029,-0.143l0.032,-0.147l0.033,-0.15l0.037,-0.154l0.039,-0.156l0.042,-0.16l0.046,-0.163l0.048,-0.166l0.052,-0.169l0.056,-0.172l0.059,-0.174l0.063,-0.177l0.067,-0.179l0.071,-0.182l0.076,-0.183l0.08,-0.186l0.084,-0.187l0.09,-0.189l0.095,-0.191l0.099,-0.193l0.106,-0.193l0.111,-0.194l0.117,-0.195l0.123,-0.196l0.121,-0.185l0.074,-0.108l0.069,-0.098l0.07,-0.099l0.072,-0.097l0.073,-0.098l0.076,-0.098l0.076,-0.097l0.079,-0.097l0.08,-0.097l0.083,-0.097l0.083,-0.096l0.086,-0.095l0.088,-0.096l0.089,-0.094l0.091,-0.095l0.093,-0.093l0.095,-0.093l0.096,-0.092l0.099,-0.092l0.1,-0.091l0.102,-0.089l0.104,-0.09l0.106,-0.088l0.107,-0.087l0.11,-0.086l0.111,-0.085l0.113,-0.084l0.115,-0.082l0.116,-0.082l0.128,-0.086l0.114,-0.074l0.119,-0.073l0.114,-0.067l0.124,-0.071l0.191,-0.102l0.2,-0.1l0.193,-0.09l0.189,-0.085l0.187,-0.079l0.188,-0.077l0.189,-0.074l0.19,-0.072l0.193,-0.071l0.197,-0.07l0.2,-0.07l0.205,-0.069l0.208,-0.069l0.213,-0.069l0.218,-0.069l0.222,-0.07l0.226,-0.069l0.232,-0.07l0.236,-0.07l0.242,-0.071l0.245,-0.071l0.251,-0.071l0.254,-0.072l0.263,-0.073l0.529,-0.144l0.549,-0.148l0.565,-0.148l0.58,-0.15l0.595,-0.152l0.608,-0.153l0.62,-0.153l0.632,-0.155l0.642,-0.155l0.651,-0.156l0.658,-0.156l0.666,-0.156l0.671,-0.157l0.677,-0.156l0.679,-0.155l0.682,-0.155l0.683,-0.155l0.683,-0.153l0.682,-0.152l0.679,-0.15l0.677,-0.15l1.336,-0.292l1.309,-0.283l1.271,-0.273l1.224,-0.26l1.168,-0.247l1.103,-0.231l1.026,-0.214l0.687,-0.142l0,-37.422l33.84,0l0,37.501Zm-24.694,-28.355l0,35.755l-3.977,0.799l-0.87,0.176l-0.621,0.127l-0.735,0.151l-0.838,0.172l-0.932,0.193l-1.016,0.212l-1.09,0.228l-1.155,0.244l-1.21,0.257l-1.255,0.27l-1.291,0.279l-1.319,0.289l-0.665,0.146l-0.668,0.148l-0.671,0.149l-0.67,0.151l-0.67,0.151l-0.668,0.152l-0.665,0.152l-0.172,0.04l56.334,0l-0.231,-0.058l-0.618,-0.152l-0.618,-0.152l-0.619,-0.151l-1.238,-0.301l-1.228,-0.295l-1.209,-0.288l-1.183,-0.28l-1.147,-0.269l-1.104,-0.258l-1.052,-0.243l-0.991,-0.229l-0.922,-0.212l-0.845,-0.193l-0.758,-0.172l-1.229,-0.278l-0.784,-0.176l-3.852,-0.859l0,-35.675l-15.548,0Z" style="fill:#4a4a4a;"/><g id="Rectangle-2"><path id="path-5" d="M323.477,122.197c0,-6.071 -4.929,-11 -11,-11l-68.544,0c-6.071,0 -11,4.929 -11,11l0,96.412c0,6.071 4.929,11 11,11l68.544,0c6.071,0 11,-4.929 11,-11l0,-96.412Z" style="stroke:#9a9a9a;stroke-width:14px;"/><path id="path-51" d="M323.477,122.197c0,-6.071 -4.929,-11 -11,-11l-68.544,0c-6.071,0 -11,4.929 -11,11l0,96.412c0,6.071 4.929,11 11,11l68.544,0c6.071,0 11,-4.929 11,-11l0,-96.412Z" style="fill:#fff;stroke:#4a4a4a;stroke-width:12px;"/></g><path id="Rectangle-3" d="M339.607,169.976c0,-1.104 -0.896,-2 -2,-2l-34.995,0c-1.103,0 -2,0.896 -2,2l0,81.056c0,1.103 0.897,2 2,2l34.995,0c1.104,0 2,-0.897 2,-2l0,-81.056Z" style="fill:#9b9b9b;"/><path d="M337.873,159.48l0.267,0.01l0.267,0.017l0.264,0.023l0.263,0.031l0.261,0.036l0.261,0.043l0.26,0.05l0.257,0.056l0.253,0.062l0.251,0.068l0.251,0.075l0.247,0.08l0.242,0.085l0.243,0.093l0.239,0.097l0.234,0.103l0.232,0.108l0.229,0.114l0.225,0.119l0.222,0.124l0.216,0.128l0.214,0.134l0.215,0.141l0.205,0.143l0.203,0.147l0.201,0.154l0.195,0.158l0.19,0.16l0.189,0.168l0.182,0.17l0.18,0.175l0.174,0.179l0.171,0.183l0.168,0.19l0.16,0.189l0.158,0.195l0.155,0.202l0.147,0.202l0.143,0.207l0.14,0.212l0.133,0.213l0.128,0.216l0.125,0.224l0.119,0.226l0.114,0.229l0.108,0.231l0.103,0.234l0.098,0.241l0.091,0.24l0.086,0.243l0.08,0.247l0.074,0.249l0.069,0.252l0.062,0.257l0.056,0.256l0.049,0.257l0.044,0.26l0.036,0.263l0.03,0.261l0.024,0.266l0.017,0.267l0.01,0.267l0.003,0.214l0,81.16l-0.003,0.214l-0.01,0.267l-0.017,0.267l-0.024,0.266l-0.03,0.261l-0.036,0.263l-0.044,0.26l-0.049,0.256l-0.056,0.257l-0.062,0.257l-0.069,0.252l-0.074,0.249l-0.08,0.246l-0.086,0.244l-0.091,0.241l-0.098,0.239l-0.103,0.235l-0.107,0.23l-0.115,0.23l-0.119,0.227l-0.125,0.222l-0.128,0.217l-0.133,0.213l-0.139,0.211l-0.144,0.208l-0.148,0.202l-0.154,0.201l-0.158,0.196l-0.16,0.19l-0.168,0.188l-0.171,0.184l-0.175,0.179l-0.179,0.175l-0.182,0.169l-0.188,0.168l-0.192,0.162l-0.195,0.157l-0.2,0.154l-0.203,0.147l-0.205,0.143l-0.214,0.14l-0.215,0.135l-0.217,0.128l-0.221,0.124l-0.225,0.119l-0.228,0.113l-0.233,0.109l-0.236,0.103l-0.237,0.097l-0.241,0.092l-0.244,0.086l-0.248,0.08l-0.248,0.074l-0.253,0.069l-0.254,0.062l-0.256,0.056l-0.26,0.05l-0.259,0.042l-0.261,0.037l-0.266,0.031l-0.264,0.023l-0.266,0.017l-0.266,0.01l-0.213,0.003l-35.103,0l-0.213,-0.003l-0.266,-0.01l-0.266,-0.017l-0.264,-0.023l-0.265,-0.031l-0.262,-0.037l-0.258,-0.042l-0.261,-0.05l-0.255,-0.056l-0.255,-0.062l-0.253,-0.069l-0.248,-0.074l-0.247,-0.08l-0.245,-0.086l-0.241,-0.092l-0.236,-0.097l-0.237,-0.103l-0.233,-0.109l-0.228,-0.113l-0.225,-0.119l-0.221,-0.124l-0.217,-0.128l-0.215,-0.135l-0.214,-0.14l-0.205,-0.143l-0.202,-0.147l-0.201,-0.154l-0.195,-0.157l-0.192,-0.162l-0.188,-0.168l-0.182,-0.169l-0.179,-0.175l-0.175,-0.179l-0.171,-0.184l-0.168,-0.188l-0.162,-0.192l-0.156,-0.194l-0.153,-0.199l-0.149,-0.204l-0.143,-0.208l-0.14,-0.211l-0.133,-0.213l-0.128,-0.217l-0.124,-0.222l-0.12,-0.227l-0.114,-0.23l-0.108,-0.23l-0.103,-0.235l-0.098,-0.239l-0.091,-0.241l-0.086,-0.244l-0.08,-0.246l-0.074,-0.249l-0.068,-0.252l-0.063,-0.257l-0.056,-0.257l-0.049,-0.256l-0.043,-0.26l-0.037,-0.263l-0.03,-0.261l-0.024,-0.266l-0.017,-0.267l-0.01,-0.267l-0.003,-0.214l0,-81.16l0.003,-0.214l0.01,-0.267l0.017,-0.267l0.024,-0.266l0.03,-0.261l0.037,-0.263l0.043,-0.26l0.049,-0.257l0.056,-0.256l0.063,-0.257l0.068,-0.252l0.074,-0.249l0.08,-0.247l0.086,-0.243l0.091,-0.24l0.098,-0.241l0.103,-0.234l0.108,-0.231l0.114,-0.229l0.119,-0.226l0.125,-0.224l0.128,-0.216l0.133,-0.213l0.14,-0.212l0.143,-0.207l0.149,-0.203l0.154,-0.201l0.155,-0.193l0.162,-0.191l0.169,-0.19l0.17,-0.183l0.174,-0.179l0.18,-0.175l0.183,-0.17l0.188,-0.168l0.19,-0.16l0.195,-0.158l0.202,-0.154l0.202,-0.147l0.205,-0.143l0.215,-0.141l0.214,-0.134l0.216,-0.128l0.222,-0.124l0.225,-0.119l0.229,-0.114l0.232,-0.108l0.236,-0.103l0.237,-0.097l0.242,-0.092l0.244,-0.086l0.246,-0.08l0.25,-0.075l0.252,-0.068l0.253,-0.062l0.257,-0.056l0.261,-0.05l0.26,-0.043l0.261,-0.036l0.263,-0.031l0.264,-0.023l0.267,-0.017l0.267,-0.01l0.213,-0.003l35.101,0l0.213,0.003Zm-28.762,16.995l0,68.058l21.997,0l0,-68.058l-21.997,0Z" style="fill:#9b9b9b;"/><path id="Rectangle-31" d="M338.2,170.891c0,-1.104 -0.896,-2 -2,-2l-32.673,0c-1.104,0 -2,0.896 -2,2l0,78.311c0,1.104 0.896,2 2,2l32.673,0c1.104,0 2,-0.896 2,-2l0,-78.311Z" style="fill:#4a4a4a;"/><path d="M336.465,160.467l0.266,0.01l0.262,0.017l0.263,0.023l0.263,0.03l0.259,0.036l0.26,0.043l0.256,0.05l0.254,0.055l0.252,0.061l0.252,0.069l0.249,0.074l0.244,0.079l0.241,0.085l0.24,0.091l0.236,0.097l0.235,0.103l0.23,0.107l0.227,0.113l0.223,0.118l0.22,0.123l0.218,0.129l0.212,0.132l0.21,0.138l0.205,0.143l0.202,0.147l0.199,0.153l0.192,0.155l0.191,0.16l0.187,0.167l0.183,0.17l0.177,0.173l0.173,0.177l0.17,0.183l0.167,0.187l0.159,0.189l0.157,0.195l0.152,0.199l0.147,0.2l0.143,0.207l0.137,0.208l0.132,0.212l0.129,0.217l0.125,0.223l0.117,0.223l0.113,0.226l0.108,0.231l0.101,0.232l0.097,0.236l0.091,0.241l0.086,0.244l0.08,0.244l0.073,0.246l0.068,0.25l0.062,0.254l0.056,0.257l0.049,0.256l0.042,0.255l0.037,0.262l0.03,0.264l0.023,0.259l0.017,0.266l0.01,0.265l0.003,0.21l0,78.422l-0.003,0.21l-0.01,0.264l-0.017,0.266l-0.023,0.26l-0.03,0.263l-0.037,0.262l-0.042,0.256l-0.049,0.256l-0.056,0.256l-0.062,0.254l-0.068,0.25l-0.073,0.247l-0.08,0.244l-0.086,0.243l-0.091,0.241l-0.097,0.236l-0.101,0.232l-0.108,0.231l-0.113,0.226l-0.117,0.223l-0.125,0.223l-0.129,0.218l-0.132,0.212l-0.137,0.207l-0.143,0.207l-0.147,0.201l-0.151,0.198l-0.158,0.195l-0.16,0.19l-0.167,0.187l-0.169,0.182l-0.173,0.177l-0.177,0.173l-0.182,0.17l-0.188,0.166l-0.191,0.162l-0.193,0.155l-0.198,0.152l-0.202,0.147l-0.206,0.143l-0.209,0.138l-0.212,0.132l-0.218,0.129l-0.22,0.123l-0.223,0.118l-0.227,0.113l-0.23,0.108l-0.234,0.102l-0.236,0.097l-0.241,0.091l-0.241,0.085l-0.245,0.08l-0.249,0.074l-0.249,0.067l-0.254,0.062l-0.255,0.056l-0.255,0.049l-0.26,0.043l-0.259,0.036l-0.261,0.03l-0.264,0.024l-0.264,0.016l-0.265,0.01l-0.211,0.003l-32.781,0l-0.211,-0.003l-0.264,-0.01l-0.265,-0.016l-0.264,-0.024l-0.261,-0.03l-0.259,-0.036l-0.259,-0.043l-0.257,-0.049l-0.255,-0.056l-0.253,-0.062l-0.249,-0.067l-0.248,-0.074l-0.245,-0.08l-0.243,-0.085l-0.24,-0.091l-0.236,-0.097l-0.234,-0.102l-0.23,-0.108l-0.227,-0.113l-0.223,-0.118l-0.22,-0.123l-0.217,-0.128l-0.213,-0.133l-0.209,-0.138l-0.206,-0.143l-0.202,-0.147l-0.198,-0.152l-0.195,-0.157l-0.191,-0.161l-0.184,-0.164l-0.182,-0.169l-0.179,-0.175l-0.174,-0.178l-0.17,-0.182l-0.164,-0.185l-0.162,-0.191l-0.156,-0.195l-0.151,-0.197l-0.148,-0.202l-0.143,-0.207l-0.137,-0.207l-0.133,-0.214l-0.129,-0.218l-0.123,-0.219l-0.118,-0.225l-0.113,-0.226l-0.107,-0.229l-0.102,-0.234l-0.098,-0.238l-0.09,-0.239l-0.085,-0.241l-0.081,-0.246l-0.073,-0.247l-0.068,-0.253l-0.062,-0.251l-0.055,-0.254l-0.05,-0.258l-0.042,-0.258l-0.037,-0.26l-0.03,-0.261l-0.023,-0.265l-0.017,-0.263l-0.01,-0.264l-0.003,-0.213l0,-78.417l0.003,-0.212l0.01,-0.265l0.017,-0.263l0.023,-0.265l0.03,-0.261l0.037,-0.26l0.042,-0.257l0.05,-0.259l0.055,-0.254l0.062,-0.252l0.068,-0.252l0.073,-0.246l0.081,-0.247l0.085,-0.241l0.09,-0.238l0.098,-0.239l0.102,-0.234l0.107,-0.229l0.113,-0.226l0.119,-0.225l0.122,-0.219l0.128,-0.217l0.134,-0.214l0.137,-0.208l0.143,-0.207l0.148,-0.202l0.151,-0.197l0.157,-0.195l0.161,-0.19l0.164,-0.185l0.17,-0.183l0.174,-0.178l0.179,-0.175l0.182,-0.17l0.185,-0.163l0.19,-0.161l0.194,-0.156l0.199,-0.153l0.202,-0.147l0.205,-0.143l0.21,-0.138l0.213,-0.133l0.217,-0.128l0.22,-0.123l0.223,-0.118l0.227,-0.113l0.23,-0.107l0.235,-0.103l0.236,-0.097l0.239,-0.09l0.243,-0.086l0.244,-0.079l0.248,-0.074l0.252,-0.069l0.251,-0.061l0.254,-0.055l0.258,-0.05l0.259,-0.043l0.259,-0.036l0.262,-0.03l0.264,-0.023l0.262,-0.017l0.266,-0.01l0.212,-0.003l32.778,0l0.213,0.003Zm-26.511,16.85l0,65.459l19.819,0l0,-65.459l-19.819,0Z" style="fill:#4a4a4a;"/><path id="Rectangle-4" d="M335.909,174.216c0,-0.44 -0.356,-0.796 -0.796,-0.796l-30.046,0c-0.44,0 -0.796,0.356 -0.796,0.796l0,65.523c0,0.439 0.356,0.796 0.796,0.796l30.046,0c0.44,0 0.796,-0.357 0.796,-0.796l0,-65.523Z" style="fill:#fff;"/><path d="M335.595,164.73l0.479,0.036l0.476,0.061l0.47,0.084l0.461,0.106l0.456,0.13l0.444,0.151l0.432,0.17l0.423,0.191l0.412,0.211l0.398,0.229l0.385,0.247l0.372,0.264l0.356,0.281l0.342,0.296l0.328,0.312l0.312,0.327l0.299,0.345l0.28,0.358l0.262,0.367l0.248,0.386l0.23,0.401l0.21,0.41l0.191,0.423l0.171,0.432l0.15,0.443l0.129,0.455l0.108,0.465l0.084,0.47l0.06,0.473l0.036,0.48l0.01,0.373l0,65.741l-0.01,0.373l-0.036,0.48l-0.06,0.473l-0.084,0.47l-0.108,0.464l-0.129,0.456l-0.15,0.443l-0.171,0.432l-0.191,0.423l-0.21,0.41l-0.23,0.4l-0.248,0.386l-0.262,0.368l-0.281,0.358l-0.298,0.344l-0.313,0.329l-0.328,0.311l-0.34,0.295l-0.356,0.281l-0.373,0.265l-0.387,0.248l-0.397,0.228l-0.408,0.209l-0.424,0.192l-0.436,0.172l-0.443,0.15l-0.453,0.129l-0.465,0.107l-0.467,0.084l-0.475,0.061l-0.484,0.036l-0.37,0.01l-30.264,0l-0.37,-0.01l-0.483,-0.036l-0.476,-0.061l-0.467,-0.084l-0.464,-0.107l-0.454,-0.129l-0.443,-0.15l-0.436,-0.172l-0.424,-0.192l-0.407,-0.209l-0.398,-0.228l-0.387,-0.248l-0.371,-0.264l-0.357,-0.28l-0.341,-0.297l-0.329,-0.313l-0.313,-0.329l-0.295,-0.34l-0.282,-0.358l-0.265,-0.372l-0.247,-0.386l-0.229,-0.398l-0.209,-0.407l-0.191,-0.424l-0.172,-0.436l-0.15,-0.444l-0.129,-0.453l-0.108,-0.464l-0.083,-0.467l-0.061,-0.476l-0.036,-0.483l-0.01,-0.37l0,-65.741l0.01,-0.37l0.036,-0.484l0.061,-0.475l0.083,-0.467l0.108,-0.465l0.129,-0.453l0.15,-0.443l0.172,-0.437l0.191,-0.422l0.209,-0.408l0.229,-0.398l0.248,-0.386l0.264,-0.372l0.281,-0.357l0.296,-0.342l0.312,-0.327l0.329,-0.314l0.343,-0.297l0.357,-0.281l0.37,-0.263l0.385,-0.247l0.398,-0.229l0.412,-0.211l0.423,-0.191l0.432,-0.17l0.444,-0.151l0.456,-0.13l0.462,-0.106l0.469,-0.084l0.476,-0.061l0.479,-0.036l0.372,-0.01l30.266,0l0.372,0.01Zm-22.625,17.389l0,49.717l14.24,0l0,-49.717l-14.24,0Z" style="fill:#fff;"/></g></svg>