<?xml version="1.0" encoding="UTF-8" standalone="no"?><!DOCTYPE svg PUBLIC "-//W3C//DTD SVG 1.1//EN" "http://www.w3.org/Graphics/SVG/1.1/DTD/svg11.dtd"><svg width="100%" height="100%" viewBox="0 0 365 264" version="1.1" xmlns="http://www.w3.org/2000/svg" xmlns:xlink="http://www.w3.org/1999/xlink" xml:space="preserve" style="fill-rule:evenodd;clip-rule:evenodd;stroke-linecap:round;stroke-linejoin:round;"><g id="Group.-2"><g id="Group"><path id="Rectangle" d="M255.255,17.747l-241.88,0l0,123.284l197.824,0l0,16.494l-214.318,0l0,-156.271l258.374,0l0,16.493Z" style="fill:#4a4a4a;"/><rect id="Rectangle1" x="247.008" y="1.33" width="16.494" height="66.407" style="fill:#4a4a4a;"/><path id="Rectangle2" d="M246.889,13.658l0,6.313l-230.239,0l0,118.837l193.435,0l0,6.313l-199.748,0l0,-131.463l236.552,0Z" style="fill:#4a4a4a;"/><rect id="Rectangle3" x="243.732" y="16.815" width="6.313" height="51.002" style="fill:#4a4a4a;"/></g><path id="Path.-2" d="M119.89,149.278l0,32.507c0,0 -24.38,4.876 -26.818,6.501c-2.438,1.625 -2.438,4.876 -2.438,4.876l79.641,0c0,0 0,-3.251 -3.251,-4.876c-3.25,-1.625 -25.192,-6.501 -25.192,-6.501l0,-32.507l-21.942,0Z" style="fill:#4a4a4a;"/><path d="M145.895,178.537l0.323,0.074l0.828,0.19l0.89,0.205l0.944,0.219l0.992,0.232l1.031,0.242l1.064,0.252l1.089,0.259l1.107,0.266l1.117,0.271l1.118,0.274l0.561,0.138l0.557,0.139l0.554,0.139l0.55,0.138l0.546,0.139l0.541,0.138l0.534,0.137l0.527,0.137l0.518,0.137l0.51,0.135l0.5,0.134l0.49,0.132l0.478,0.132l0.466,0.129l0.453,0.128l0.44,0.127l0.426,0.124l0.411,0.123l0.396,0.121l0.377,0.118l0.188,0.06l0.181,0.058l0.177,0.059l0.173,0.058l0.17,0.058l0.166,0.057l0.163,0.058l0.16,0.059l0.157,0.058l0.154,0.059l0.153,0.061l0.151,0.062l0.152,0.064l0.152,0.067l0.154,0.071l0.149,0.072l0.129,0.066l0.12,0.063l0.118,0.063l0.117,0.065l0.116,0.067l0.114,0.067l0.112,0.068l0.112,0.07l0.109,0.07l0.108,0.072l0.108,0.072l0.105,0.074l0.104,0.074l0.102,0.076l0.101,0.076l0.1,0.077l0.098,0.078l0.096,0.079l0.095,0.079l0.093,0.08l0.092,0.081l0.09,0.082l0.089,0.082l0.087,0.082l0.085,0.083l0.084,0.085l0.083,0.084l0.08,0.084l0.08,0.086l0.078,0.085l0.076,0.086l0.075,0.086l0.073,0.087l0.079,0.095l0.131,0.165l0.133,0.174l0.127,0.175l0.121,0.175l0.116,0.175l0.11,0.174l0.105,0.173l0.099,0.173l0.094,0.172l0.089,0.17l0.084,0.169l0.08,0.167l0.075,0.166l0.07,0.163l0.066,0.162l0.062,0.159l0.058,0.157l0.055,0.154l0.05,0.151l0.047,0.149l0.044,0.146l0.041,0.142l0.037,0.14l0.035,0.136l0.031,0.133l0.029,0.129l0.027,0.125l0.024,0.123l0.022,0.117l0.02,0.115l0.019,0.121l0.028,0.196l0.023,0.192l0.017,0.174l0.012,0.154l0.008,0.136l0.006,0.123l0.09,4.229l-87.922,0l0.068,-4.197l0.004,-0.103l0.005,-0.117l0.008,-0.136l0.011,-0.154l0.016,-0.17l0.02,-0.186l0.025,-0.203l0.029,-0.206l0.02,-0.123l0.02,-0.118l0.021,-0.121l0.024,-0.124l0.026,-0.127l0.027,-0.13l0.03,-0.134l0.033,-0.137l0.035,-0.139l0.037,-0.142l0.041,-0.145l0.043,-0.148l0.046,-0.15l0.049,-0.152l0.053,-0.155l0.056,-0.157l0.059,-0.159l0.064,-0.161l0.067,-0.164l0.071,-0.165l0.075,-0.166l0.08,-0.168l0.084,-0.17l0.089,-0.171l0.093,-0.171l0.099,-0.173l0.104,-0.173l0.109,-0.174l0.114,-0.174l0.121,-0.175l0.126,-0.174l0.132,-0.173l0.13,-0.163l0.079,-0.096l0.073,-0.085l0.075,-0.086l0.076,-0.085l0.078,-0.084l0.079,-0.085l0.081,-0.084l0.083,-0.082l0.084,-0.083l0.086,-0.082l0.087,-0.082l0.089,-0.08l0.091,-0.08l0.092,-0.079l0.094,-0.078l0.096,-0.078l0.097,-0.076l0.099,-0.076l0.1,-0.074l0.103,-0.074l0.103,-0.072l0.114,-0.077l0.101,-0.065l0.122,-0.076l0.179,-0.103l0.186,-0.1l0.178,-0.088l0.171,-0.08l0.168,-0.076l0.167,-0.07l0.166,-0.068l0.168,-0.066l0.169,-0.064l0.172,-0.063l0.174,-0.063l0.178,-0.062l0.182,-0.061l0.185,-0.062l0.189,-0.061l0.193,-0.061l0.198,-0.062l0.202,-0.062l0.205,-0.062l0.21,-0.062l0.218,-0.064l0.437,-0.125l0.457,-0.128l0.473,-0.129l0.488,-0.131l0.502,-0.132l0.516,-0.134l0.528,-0.134l0.54,-0.136l0.552,-0.137l0.561,-0.137l0.57,-0.138l0.578,-0.138l0.586,-0.139l0.591,-0.139l0.597,-0.139l0.601,-0.139l0.603,-0.138l0.606,-0.138l0.607,-0.137l0.607,-0.136l0.607,-0.135l1.203,-0.266l1.188,-0.259l1.163,-0.252l1.13,-0.242l1.087,-0.232l1.038,-0.219l0.98,-0.205l0.912,-0.19l0.611,-0.127l0,-33.252l30.068,0l0,33.322Zm-21.942,-25.195l0,31.77l-3.534,0.711l-0.771,0.156l-1.208,0.247l-0.743,0.153l-0.828,0.171l-0.903,0.188l-0.968,0.203l-1.027,0.217l-1.075,0.229l-1.115,0.239l-1.148,0.248l-1.171,0.256l-1.186,0.263l-0.595,0.132l-0.596,0.134l-0.595,0.134l-0.594,0.135l-0.59,0.135l-0.153,0.036l50.057,0l-0.206,-0.052l-0.547,-0.135l-1.102,-0.27l-1.1,-0.266l-1.09,-0.262l-1.075,-0.257l-1.051,-0.248l-1.019,-0.239l-0.981,-0.229l-0.935,-0.217l-0.88,-0.203l-0.82,-0.188l-0.751,-0.172l-0.673,-0.153l-1.092,-0.247l-0.696,-0.156l-3.424,-0.764l0,-31.699l-13.815,0Z" style="fill:#4a4a4a;"/><g id="Rectangle.-2"><path id="path.-5" d="M300.646,71.335c0,-2.152 -1.747,-3.9 -3.899,-3.9l-82.206,0c-2.153,0 -3.9,1.748 -3.9,3.9l0,117.468c0,2.152 1.747,3.899 3.9,3.899l71.26,0" style="fill:none;stroke:#4d4d4d;stroke-width:5.03px;"/><path id="path.-51" d="M300.646,127.209l0,-55.874" style="fill:none;stroke:#4d4d4d;stroke-width:5.03px;"/></g><g><path id="Rectangle.-3" d="M328.223,124.158l0.104,0.003l0.104,0.006l0.104,0.008l0.103,0.011l0.102,0.014l0.102,0.016l0.1,0.018l0.1,0.021l0.1,0.024l0.098,0.025l0.098,0.029l0.096,0.03l0.095,0.033l0.094,0.035l0.093,0.037l0.092,0.039l0.091,0.042l0.09,0.043l0.088,0.046l0.087,0.048l0.085,0.049l0.085,0.052l0.082,0.053l0.082,0.056l0.08,0.057l0.078,0.06l0.077,0.06l0.075,0.063l0.075,0.065l0.072,0.066l0.07,0.067l0.069,0.07l0.068,0.071l0.065,0.073l0.065,0.075l0.062,0.075l0.06,0.078l0.059,0.079l0.056,0.08l0.055,0.082l0.053,0.084l0.051,0.084l0.049,0.086l0.048,0.088l0.045,0.089l0.042,0.089l0.041,0.092l0.039,0.092l0.037,0.094l0.034,0.095l0.032,0.095l0.03,0.098l0.027,0.097l0.025,0.1l0.023,0.099l0.02,0.101l0.017,0.101l0.016,0.102l0.012,0.103l0.01,0.103l0.008,0.104l0.005,0.104l0.002,0.092l0.679,82.65l-0.001,0.091l-0.003,0.105l-0.006,0.104l-0.008,0.103l-0.011,0.103l-0.013,0.102l-0.017,0.102l-0.018,0.101l-0.021,0.1l-0.023,0.099l-0.026,0.099l-0.028,0.097l-0.031,0.096l-0.032,0.096l-0.035,0.094l-0.037,0.093l-0.04,0.092l-0.041,0.091l-0.044,0.089l-0.046,0.089l-0.047,0.087l-0.05,0.085l-0.052,0.084l-0.053,0.083l-0.055,0.081l-0.058,0.08l-0.059,0.079l-0.061,0.077l-0.063,0.075l-0.064,0.074l-0.066,0.072l-0.068,0.071l-0.07,0.069l-0.071,0.068l-0.073,0.065l-0.074,0.064l-0.076,0.062l-0.078,0.061l-0.078,0.058l-0.081,0.057l-0.082,0.055l-0.083,0.053l-0.085,0.051l-0.086,0.049l-0.088,0.047l-0.088,0.045l-0.09,0.043l-0.092,0.041l-0.092,0.039l-0.094,0.036l-0.095,0.034l-0.095,0.032l-0.097,0.03l-0.098,0.028l-0.099,0.024l-0.099,0.023l-0.101,0.02l-0.102,0.018l-0.102,0.015l-0.103,0.013l-0.103,0.01l-0.104,0.007l-0.104,0.005l-0.091,0.002l-38.522,0.316l-0.092,0l-0.104,-0.003l-0.104,-0.006l-0.104,-0.008l-0.102,-0.011l-0.103,-0.014l-0.101,-0.016l-0.101,-0.018l-0.1,-0.021l-0.099,-0.023l-0.099,-0.026l-0.097,-0.028l-0.097,-0.031l-0.095,-0.032l-0.094,-0.035l-0.093,-0.038l-0.092,-0.039l-0.091,-0.041l-0.089,-0.044l-0.088,-0.046l-0.087,-0.047l-0.086,-0.05l-0.084,-0.052l-0.084,-0.053l-0.081,-0.056l-0.079,-0.057l-0.079,-0.059l-0.077,-0.061l-0.075,-0.063l-0.074,-0.064l-0.072,-0.066l-0.071,-0.068l-0.069,-0.07l-0.068,-0.071l-0.065,-0.073l-0.064,-0.074l-0.062,-0.076l-0.061,-0.077l-0.058,-0.079l-0.057,-0.081l-0.055,-0.082l-0.053,-0.083l-0.051,-0.085l-0.049,-0.086l-0.047,-0.088l-0.045,-0.088l-0.043,-0.091l-0.041,-0.091l-0.039,-0.092l-0.036,-0.094l-0.035,-0.094l-0.032,-0.097l-0.029,-0.096l-0.028,-0.098l-0.025,-0.099l-0.022,-0.1l-0.02,-0.1l-0.018,-0.102l-0.015,-0.102l-0.013,-0.103l-0.01,-0.103l-0.007,-0.103l-0.005,-0.105l-0.002,-0.092l-0.679,-82.65l0,-0.091l0.003,-0.104l0.006,-0.104l0.008,-0.104l0.011,-0.103l0.014,-0.102l0.016,-0.101l0.018,-0.102l0.021,-0.1l0.024,-0.099l0.025,-0.098l0.028,-0.098l0.031,-0.096l0.033,-0.095l0.035,-0.095l0.037,-0.093l0.039,-0.091l0.042,-0.092l0.043,-0.089l0.046,-0.088l0.047,-0.087l0.05,-0.086l0.052,-0.084l0.053,-0.082l0.056,-0.082l0.057,-0.08l0.059,-0.078l0.061,-0.077l0.063,-0.076l0.065,-0.074l0.066,-0.072l0.067,-0.07l0.07,-0.069l0.071,-0.068l0.073,-0.066l0.074,-0.064l0.076,-0.062l0.077,-0.06l0.08,-0.059l0.08,-0.057l0.082,-0.054l0.083,-0.053l0.085,-0.052l0.086,-0.049l0.088,-0.047l0.089,-0.045l0.09,-0.043l0.091,-0.041l0.092,-0.038l0.094,-0.037l0.095,-0.034l0.096,-0.032l0.096,-0.03l0.098,-0.027l0.099,-0.025l0.1,-0.023l0.101,-0.02l0.101,-0.018l0.102,-0.015l0.103,-0.012l0.103,-0.01l0.104,-0.008l0.104,-0.005l0.092,-0.002l38.521,-0.316l0.092,0Zm-38.467,4.512l0.677,82.426l38.298,-0.314l-0.677,-82.427l-38.298,0.315Z" style="fill:#4d4d4d;"/><path d="M328.965,206.104l-38.379,0.189l-0.092,3.599l38.38,-0.189l0.091,-3.599Z" style="fill:#999;stroke:#4d4d4d;stroke-width:4px;stroke-miterlimit:1.5;"/><path d="M327.451,126.631l-38.379,0.232l-0.088,3.61l38.38,-0.232l0.087,-3.61Z" style="fill:#999;stroke:#4d4d4d;stroke-width:4px;stroke-miterlimit:1.5;"/></g><path d="M283.047,162.04c-27.952,-14.579 -46.19,-24.093 -46.19,-24.093" style="fill:none;stroke:#e13000;stroke-width:2.5px;stroke-linejoin:miter;stroke-miterlimit:2;stroke-dasharray:2.5,10,0,0;"/><path d="M351.868,197.959c-24.1,-12.028 -49.957,-25.732 -50.84,-26.262" style="fill:none;stroke:#e13000;stroke-width:2.5px;stroke-linejoin:miter;stroke-miterlimit:2;stroke-dasharray:2.5,10,0,0;"/><path d="M205.504,118.114c-30.697,-17.785 -71.861,-41.635 -71.861,-41.635" style="fill:none;stroke:#e13000;stroke-width:2.5px;stroke-linejoin:miter;stroke-miterlimit:2;stroke-dasharray:2.5,10,0,0;"/></g></svg>