<?xml version="1.0" encoding="UTF-8" standalone="no"?><!DOCTYPE svg PUBLIC "-//W3C//DTD SVG 1.1//EN" "http://www.w3.org/Graphics/SVG/1.1/DTD/svg11.dtd"><svg width="100%" height="100%" viewBox="0 0 365 264" version="1.1" xmlns="http://www.w3.org/2000/svg" xmlns:xlink="http://www.w3.org/1999/xlink" xml:space="preserve" style="fill-rule:evenodd;clip-rule:evenodd;stroke-linecap:round;stroke-linejoin:round;"><g id="Group-2"><g id="Group"><path id="Rectangle" d="M303.105,5.864l0,156.03l-259.239,0l0,-156.03l259.239,0Zm-242.986,139.777l226.733,0l0,-123.524l-226.733,0l0,123.524Z" style="fill:#4a4a4a;"/><g id="Rectangle1"><rect x="60.119" y="21.304" width="226.732" height="125.15" style="fill:#999;"/><path d="M289.963,149.565l-232.954,0l0,-131.372l232.954,0l0,131.372Zm-226.733,-125.15l0,118.928l220.511,0l0,-118.928l-220.511,0Z" style="fill:#4a4a4a;"/></g></g><path id="Path-2" d="M163.327,153.768l0,32.506c0,0 -24.379,4.876 -26.817,6.502c-2.438,1.625 -2.438,4.876 -2.438,4.876l79.64,0c0,0 0,-3.251 -3.25,-4.876c-3.251,-1.626 -25.193,-6.502 -25.193,-6.502l0,-32.506l-21.942,0Z" style="fill:#4a4a4a;"/><path d="M189.333,183.027l0.322,0.074l0.828,0.19l0.89,0.205l0.945,0.219l0.991,0.231l1.032,0.243l1.063,0.251l1.089,0.26l1.107,0.266l1.117,0.27l1.119,0.275l0.56,0.138l0.557,0.139l0.554,0.138l0.551,0.139l0.546,0.138l0.54,0.138l0.534,0.138l0.527,0.137l0.519,0.136l0.51,0.135l0.5,0.134l0.489,0.133l0.479,0.131l0.466,0.13l0.453,0.128l0.44,0.126l0.426,0.125l0.411,0.122l0.396,0.121l0.377,0.118l0.188,0.06l0.181,0.059l0.177,0.058l0.173,0.058l0.169,0.058l0.167,0.058l0.163,0.058l0.159,0.058l0.157,0.059l0.155,0.059l0.152,0.06l0.152,0.062l0.151,0.064l0.152,0.067l0.155,0.072l0.148,0.072l0.13,0.066l0.119,0.062l0.119,0.064l0.117,0.065l0.115,0.066l0.114,0.067l0.113,0.069l0.111,0.069l0.11,0.071l0.108,0.071l0.107,0.073l0.105,0.073l0.104,0.075l0.103,0.075l0.101,0.076l0.099,0.078l0.098,0.078l0.096,0.078l0.095,0.08l0.093,0.08l0.092,0.08l0.09,0.082l0.089,0.082l0.087,0.083l0.086,0.083l0.084,0.084l0.082,0.085l0.081,0.084l0.079,0.085l0.078,0.086l0.077,0.086l0.074,0.085l0.073,0.087l0.08,0.096l0.131,0.164l0.133,0.175l0.127,0.175l0.121,0.174l0.116,0.175l0.109,0.174l0.105,0.174l0.099,0.173l0.094,0.171l0.089,0.171l0.085,0.169l0.079,0.167l0.075,0.166l0.071,0.163l0.066,0.162l0.062,0.159l0.058,0.156l0.054,0.154l0.051,0.152l0.047,0.149l0.044,0.145l0.04,0.143l0.038,0.139l0.034,0.136l0.032,0.133l0.029,0.129l0.026,0.126l0.025,0.122l0.021,0.118l0.02,0.115l0.019,0.121l0.028,0.196l0.023,0.192l0.017,0.173l0.013,0.155l0.008,0.135l0.005,0.123l0.091,4.23l-87.921,0l0.067,-4.197l0.003,-0.104l0.005,-0.117l0.008,-0.135l0.012,-0.154l0.015,-0.17l0.02,-0.187l0.025,-0.202l0.03,-0.207l0.019,-0.123l0.02,-0.117l0.022,-0.121l0.023,-0.124l0.026,-0.127l0.028,-0.131l0.03,-0.134l0.032,-0.136l0.035,-0.139l0.038,-0.143l0.04,-0.144l0.043,-0.148l0.047,-0.15l0.049,-0.152l0.052,-0.155l0.056,-0.158l0.06,-0.159l0.063,-0.161l0.067,-0.163l0.071,-0.165l0.075,-0.166l0.08,-0.169l0.084,-0.169l0.089,-0.171l0.094,-0.172l0.098,-0.172l0.104,-0.174l0.109,-0.174l0.115,-0.174l0.12,-0.174l0.126,-0.174l0.132,-0.173l0.131,-0.164l0.079,-0.095l0.073,-0.086l0.074,-0.085l0.076,-0.085l0.079,-0.085l0.079,-0.084l0.081,-0.084l0.082,-0.083l0.084,-0.082l0.086,-0.082l0.088,-0.082l0.089,-0.081l0.09,-0.079l0.093,-0.079l0.094,-0.079l0.096,-0.077l0.097,-0.076l0.098,-0.076l0.101,-0.075l0.102,-0.073l0.103,-0.072l0.114,-0.077l0.102,-0.066l0.121,-0.075l0.18,-0.104l0.186,-0.099l0.177,-0.088l0.171,-0.081l0.168,-0.075l0.167,-0.071l0.167,-0.068l0.167,-0.066l0.169,-0.064l0.172,-0.063l0.175,-0.062l0.178,-0.062l0.181,-0.062l0.186,-0.061l0.189,-0.061l0.193,-0.062l0.197,-0.061l0.202,-0.062l0.206,-0.062l0.21,-0.062l0.217,-0.064l0.437,-0.126l0.458,-0.127l0.472,-0.13l0.488,-0.13l0.503,-0.133l0.515,-0.133l0.529,-0.135l0.54,-0.135l0.551,-0.137l0.561,-0.137l0.571,-0.138l0.578,-0.139l0.585,-0.138l0.592,-0.139l0.596,-0.139l0.601,-0.139l0.604,-0.138l0.606,-0.138l0.607,-0.137l0.606,-0.136l0.607,-0.135l1.204,-0.266l1.187,-0.26l1.163,-0.252l1.13,-0.242l1.088,-0.231l1.038,-0.219l0.979,-0.206l0.913,-0.19l0.61,-0.126l0,-33.252l30.069,0l0,33.322Zm-21.942,-25.196l0,31.771l-3.534,0.71l-0.772,0.157l-1.207,0.246l-0.744,0.154l-0.828,0.171l-0.902,0.188l-0.969,0.203l-1.026,0.217l-1.075,0.228l-1.116,0.24l-1.147,0.248l-1.171,0.256l-1.187,0.262l-0.594,0.133l-0.596,0.133l-0.596,0.135l-0.593,0.135l-0.591,0.135l-0.152,0.035l50.056,0l-0.206,-0.051l-0.547,-0.135l-1.102,-0.27l-1.099,-0.267l-1.091,-0.262l-1.074,-0.256l-1.051,-0.248l-1.02,-0.24l-0.981,-0.229l-0.934,-0.216l-0.881,-0.204l-0.819,-0.188l-0.751,-0.171l-0.674,-0.153l-1.091,-0.247l-0.697,-0.156l-3.423,-0.764l0,-31.7l-13.815,0Z" style="fill:#4a4a4a;"/><g id="Rectangle-2"><path id="path-5" d="M332.831,90.554c0,-2.152 -1.747,-3.9 -3.899,-3.9l-82.206,0c-2.153,0 -3.9,1.748 -3.9,3.9l0,117.467c0,2.153 1.747,3.9 3.9,3.9l82.206,0c2.152,0 3.899,-1.747 3.899,-3.9l0,-117.467Z" style="fill:#999;stroke:#4d4d4d;stroke-width:5.03px;"/></g><g><path id="Rectangle-3" d="M307.562,172.505c-0.009,-1.104 -0.913,-1.992 -2.017,-1.983l-38.494,0.316c-1.104,0.009 -1.993,0.913 -1.984,2.016l0.679,82.623c0.009,1.104 0.913,1.993 2.016,1.984l38.495,-0.316c1.104,-0.009 1.993,-0.913 1.984,-2.017l-0.679,-82.623Z" style="fill:#999;"/><path d="M305.633,168.424l0.104,0.003l0.104,0.006l0.104,0.008l0.103,0.011l0.102,0.013l0.102,0.016l0.101,0.019l0.1,0.021l0.099,0.023l0.098,0.026l0.098,0.028l0.096,0.031l0.095,0.032l0.094,0.035l0.093,0.037l0.093,0.04l0.091,0.041l0.089,0.044l0.088,0.045l0.087,0.048l0.086,0.05l0.084,0.052l0.082,0.053l0.082,0.055l0.08,0.058l0.078,0.059l0.077,0.061l0.076,0.062l0.074,0.065l0.072,0.067l0.071,0.067l0.068,0.069l0.068,0.072l0.066,0.073l0.064,0.074l0.062,0.076l0.06,0.077l0.059,0.08l0.057,0.08l0.055,0.082l0.052,0.083l0.052,0.085l0.049,0.086l0.047,0.087l0.045,0.089l0.043,0.09l0.041,0.091l0.038,0.093l0.037,0.094l0.034,0.094l0.032,0.096l0.03,0.097l0.027,0.098l0.025,0.099l0.023,0.1l0.02,0.1l0.018,0.102l0.015,0.102l0.012,0.102l0.01,0.104l0.008,0.104l0.005,0.104l0.002,0.091l0.679,82.65l-0.001,0.092l-0.003,0.104l-0.006,0.104l-0.008,0.104l-0.011,0.102l-0.013,0.103l-0.016,0.102l-0.019,0.101l-0.021,0.099l-0.023,0.1l-0.026,0.098l-0.028,0.098l-0.03,0.096l-0.033,0.095l-0.035,0.095l-0.037,0.092l-0.039,0.092l-0.042,0.091l-0.044,0.09l-0.045,0.088l-0.048,0.087l-0.05,0.086l-0.051,0.084l-0.054,0.083l-0.055,0.081l-0.057,0.08l-0.06,0.078l-0.061,0.077l-0.062,0.076l-0.065,0.073l-0.066,0.073l-0.068,0.071l-0.07,0.068l-0.071,0.068l-0.073,0.066l-0.074,0.063l-0.076,0.063l-0.078,0.06l-0.078,0.059l-0.081,0.056l-0.082,0.055l-0.083,0.053l-0.085,0.051l-0.086,0.05l-0.088,0.047l-0.088,0.045l-0.09,0.043l-0.091,0.04l-0.093,0.039l-0.094,0.037l-0.094,0.034l-0.096,0.032l-0.097,0.03l-0.098,0.027l-0.099,0.025l-0.1,0.023l-0.1,0.02l-0.101,0.018l-0.103,0.015l-0.102,0.012l-0.104,0.01l-0.103,0.008l-0.105,0.005l-0.092,0.002l-38.521,0.316l-0.091,0l-0.105,-0.003l-0.104,-0.006l-0.103,-0.008l-0.103,-0.011l-0.102,-0.014l-0.102,-0.016l-0.101,-0.018l-0.1,-0.021l-0.099,-0.024l-0.099,-0.026l-0.097,-0.028l-0.096,-0.03l-0.096,-0.033l-0.094,-0.035l-0.093,-0.037l-0.092,-0.039l-0.091,-0.042l-0.089,-0.043l-0.089,-0.046l-0.086,-0.048l-0.086,-0.049l-0.084,-0.052l-0.083,-0.053l-0.081,-0.056l-0.08,-0.057l-0.079,-0.059l-0.077,-0.062l-0.075,-0.062l-0.074,-0.064l-0.072,-0.067l-0.071,-0.068l-0.069,-0.069l-0.067,-0.071l-0.066,-0.073l-0.064,-0.074l-0.062,-0.076l-0.061,-0.078l-0.058,-0.079l-0.057,-0.08l-0.055,-0.082l-0.053,-0.084l-0.051,-0.084l-0.049,-0.087l-0.047,-0.087l-0.045,-0.089l-0.043,-0.09l-0.041,-0.091l-0.039,-0.093l-0.036,-0.093l-0.034,-0.095l-0.033,-0.096l-0.029,-0.097l-0.028,-0.098l-0.025,-0.099l-0.022,-0.099l-0.02,-0.1l-0.018,-0.102l-0.015,-0.102l-0.013,-0.103l-0.01,-0.103l-0.007,-0.104l-0.005,-0.105l-0.002,-0.091l-0.679,-82.65l0,-0.091l0.003,-0.105l0.006,-0.104l0.008,-0.103l0.011,-0.103l0.014,-0.103l0.016,-0.101l0.018,-0.101l0.021,-0.1l0.024,-0.099l0.025,-0.099l0.029,-0.097l0.03,-0.097l0.033,-0.095l0.035,-0.094l0.037,-0.093l0.039,-0.092l0.042,-0.091l0.043,-0.089l0.046,-0.088l0.047,-0.087l0.05,-0.086l0.052,-0.084l0.053,-0.083l0.056,-0.081l0.057,-0.08l0.059,-0.079l0.062,-0.077l0.062,-0.075l0.064,-0.074l0.067,-0.072l0.068,-0.071l0.069,-0.069l0.071,-0.067l0.073,-0.066l0.075,-0.064l0.075,-0.062l0.078,-0.061l0.079,-0.058l0.08,-0.057l0.082,-0.055l0.084,-0.053l0.084,-0.051l0.087,-0.049l0.087,-0.047l0.089,-0.045l0.09,-0.043l0.091,-0.041l0.092,-0.039l0.094,-0.036l0.095,-0.034l0.096,-0.033l0.097,-0.029l0.097,-0.028l0.099,-0.025l0.1,-0.022l0.101,-0.02l0.101,-0.018l0.102,-0.015l0.103,-0.013l0.103,-0.01l0.104,-0.007l0.105,-0.005l0.091,-0.002l38.521,-0.317l0.092,0.001Zm-38.467,4.511l0.677,82.427l38.299,-0.315l-0.678,-82.426l-38.298,0.314Z" style="fill:#4d4d4d;"/><path d="M306.376,250.37l-38.38,0.189l-0.092,3.599l38.38,-0.189l0.092,-3.599Z" style="fill:#999;stroke:#4d4d4d;stroke-width:4px;stroke-miterlimit:1.5;"/><path d="M304.862,170.896l-38.38,0.233l-0.088,3.61l38.38,-0.232l0.088,-3.611Z" style="fill:#999;stroke:#4d4d4d;stroke-width:4px;stroke-miterlimit:1.5;"/></g></g></svg>