<?xml version="1.0" encoding="UTF-8" standalone="no"?><!DOCTYPE svg PUBLIC "-//W3C//DTD SVG 1.1//EN" "http://www.w3.org/Graphics/SVG/1.1/DTD/svg11.dtd"><svg width="100%" height="100%" viewBox="0 0 532 647" version="1.1" xmlns="http://www.w3.org/2000/svg" xmlns:xlink="http://www.w3.org/1999/xlink" xml:space="preserve" style="fill-rule:evenodd;clip-rule:evenodd;stroke-linecap:round;stroke-linejoin:round;stroke-miterlimit:1.5;"><g id="Group"><g><g><g id="Path-5"><path d="M193,412l137,128.786l-33.307,53.47l-103.693,-100.256l0,-82Z" style="fill:#e63200;"/><path d="M331.923,540.535l-34.939,56.09l-105.484,-101.989l0,-86.105l140.423,132.004Zm-137.423,-47.171l101.901,98.523l31.676,-50.85l-133.577,-125.568l0,77.895Z" style="fill:#4a4a4a;"/></g><g id="Path-9"><path d="M272,488l-56,26" style="fill:#737373;"/><path d="M272.632,489.361l-56,25.999l-1.264,-2.721l56,-26l1.264,2.722Z" style="fill:#4a4a4a;"/></g><g id="Path-10"><path d="M250,466l-55,27" style="fill:#737373;"/><path d="M250.661,467.347l-55,27l-1.322,-2.693l55,-27l1.322,2.693Z" style="fill:#4a4a4a;"/></g></g><path id="Path-6" d="M351.552,514.782l39.357,108.653l-115.15,-18.362l75.793,-90.291Z" style="fill:#737373;"/><path d="M393.186,625.317l-120.279,-19.18l79.169,-94.313l41.11,113.493Zm-114.575,-21.308l110.021,17.544l-37.605,-103.814l-72.416,86.27Z" style="fill:#4a4a4a;"/><g id="Path-7"><path d="M325,536l-65,25" style="fill:#737373;"/><path d="M325.538,537.4l-65,25l-1.076,-2.8l65,-25l1.076,2.8Z" style="fill:#4a4a4a;"/></g><g id="Path-8"><path d="M299,511l-63,25" style="fill:#737373;"/><path d="M299.553,512.394l-63,25l-1.106,-2.788l63,-25l1.106,2.788Z" style="fill:#4a4a4a;"/></g><g id="Path-11"><path d="M228,446l-34,17" style="fill:#737373;"/><path d="M228.671,447.342l-34,17l-1.342,-2.684l34,-17l1.342,2.684Z" style="fill:#4a4a4a;"/></g></g><g id="Path-3"><path d="M193,304l326,0l-50.844,47l-17.945,-15l-15.951,15l-17.945,-15l-16.948,15l-16.948,-15l-15.951,15l-16.948,-15l-13.957,15l-15.951,-15l-15.951,15l-13.958,-15l-16.948,15l-13.957,-15l-15.951,15l-13.957,-15l-12.96,15l-13.958,-15l-8.972,15l0,-47Z" style="fill:#666;"/><path d="M468.206,352.997l-17.936,-14.993l-15.952,15l-17.975,-15.026l-16.976,15.025l-16.917,-14.973l-15.951,15l-16.878,-14.937l-13.987,15.033l-16.022,-15.067l-16.022,15.067l-13.988,-15.033l-16.948,15l-13.927,-14.967l-15.951,15l-13.845,-14.88l-12.96,15l-13.736,-14.762l-10.735,17.946l0,-53.93l331.332,0l-54.626,50.497Zm-273.706,-47.497l0,40.07l7.21,-12.054l14.178,15.238l12.961,-15l14.069,15.12l15.951,-15l13.988,15.033l16.948,-15l13.926,14.967l15.881,-14.933l15.88,14.933l13.926,-14.967l17.019,15.063l15.951,-15l16.979,15.027l16.92,-14.975l17.914,14.974l15.951,-15l17.954,15.007l47.062,-43.503l-320.668,0Z" style="fill:#4a4a4a;"/></g><path id="Combined-Shape" d="M99.321,16.001l0.321,0.001l0.32,0.003l0.321,0.004l0.32,0.005l0.319,0.005l0.32,0.007l0.319,0.009l0.319,0.009l0.319,0.01l0.319,0.011l0.318,0.013l0.318,0.013l0.318,0.015l0.318,0.015l0.317,0.017l0.317,0.018l0.317,0.018l0.317,0.02l0.316,0.021l0.316,0.022l0.316,0.023l0.316,0.024l0.315,0.025l0.315,0.026l0.315,0.027l0.314,0.028l0.315,0.03l0.314,0.03l0.313,0.031l0.314,0.033l0.313,0.033l0.313,0.035l0.312,0.035l0.312,0.037l0.312,0.037l0.312,0.039l0.311,0.039l0.312,0.041l0.31,0.042l0.311,0.042l0.31,0.044l0.31,0.045l0.31,0.045l0.309,0.047l0.309,0.048l0.309,0.049l0.308,0.049l0.308,0.051l0.308,0.052l0.307,0.053l0.308,0.053l0.306,0.055l0.307,0.056l0.306,0.057l0.306,0.058l0.306,0.058l0.305,0.06l0.305,0.061l0.304,0.062l0.304,0.062l0.304,0.064l0.304,0.065l0.303,0.066l0.303,0.066l0.303,0.068l0.302,0.069l0.302,0.069l0.301,0.071l0.302,0.071l0.3,0.073l0.301,0.073l0.3,0.075l0.3,0.075l0.299,0.077l0.299,0.077l0.299,0.079l0.299,0.079l0.298,0.08l0.297,0.081l0.297,0.083l0.297,0.083l0.297,0.084l0.296,0.085l0.296,0.086l0.295,0.087l0.295,0.087l0.295,0.089l0.295,0.09l0.293,0.091l0.294,0.091l0.293,0.093l0.293,0.093l0.292,0.095l0.293,0.095l0.291,0.097l0.291,0.097l0.291,0.098l0.291,0.099l0.29,0.1l0.29,0.101l0.289,0.102l0.289,0.103l0.288,0.103l0.288,0.105l0.288,0.105l0.287,0.107l0.287,0.107l0.286,0.108l0.287,0.109l0.285,0.11l0.285,0.111l0.285,0.112l0.285,0.113l0.284,0.114l0.283,0.114l0.283,0.116l0.283,0.116l0.282,0.117l0.282,0.118l0.282,0.119l0.281,0.12l0.28,0.121l0.28,0.121l0.28,0.123l0.279,0.123l0.279,0.125l0.278,0.125l0.278,0.126l0.278,0.127l0.277,0.127l0.277,0.129l0.276,0.13l0.275,0.13l0.276,0.131l0.275,0.132l0.274,0.133l0.274,0.134l0.273,0.135l0.273,0.135l0.273,0.137l0.272,0.137l0.272,0.138l0.271,0.139l0.27,0.14l0.271,0.14l0.269,0.142l0.27,0.142l0.269,0.143l0.268,0.144l0.268,0.145l0.267,0.145l0.267,0.147l0.266,0.147l0.266,0.148l0.266,0.149l0.265,0.15l0.265,0.151l0.264,0.151l0.263,0.152l0.263,0.154l0.263,0.153l0.262,0.155l0.261,0.156l0.261,0.156l0.261,0.157l0.26,0.158l0.26,0.159l0.259,0.159l0.258,0.161l0.258,0.161l0.258,0.162l0.257,0.163l0.257,0.163l0.256,0.165l0.255,0.165l0.255,0.166l0.255,0.167l0.254,0.167l0.253,0.169l0.253,0.169l0.252,0.169l0.252,0.171l0.252,0.172l0.251,0.172l0.25,0.173l0.25,0.174l0.249,0.174l0.249,0.176l0.248,0.176l0.248,0.177l0.247,0.177l0.246,0.179l0.246,0.179l0.246,0.18l0.245,0.18l0.244,0.182l0.244,0.182l0.244,0.183l0.242,0.184l0.243,0.184l0.241,0.185l0.242,0.186l0.24,0.187l0.24,0.188l0.24,0.188l0.239,0.189l0.238,0.189l0.238,0.191l0.237,0.191l0.237,0.192l0.236,0.193l0.235,0.193l0.235,0.194l0.235,0.195l0.234,0.195l0.233,0.197l0.233,0.197l0.232,0.197l0.231,0.199l0.231,0.199l0.231,0.2l0.23,0.201l0.229,0.201l0.228,0.202l0.228,0.203l0.228,0.203l0.227,0.204l0.226,0.205l0.226,0.206l0.225,0.206l0.224,0.207l0.224,0.208l0.224,0.208l0.222,0.209l0.223,0.21l0.221,0.21l0.221,0.211l0.22,0.212l0.22,0.213l0.219,0.213l0.219,0.214l0.218,0.214l0.217,0.215l0.217,0.216l0.216,0.217l0.215,0.217l0.215,0.218l0.214,0.219l0.213,0.219l0.214,0.22l0.212,0.221l0.212,0.221l0.211,0.222l0.21,0.223l0.21,0.223l0.209,0.224l0.209,0.225l0.208,0.225l0.207,0.226l0.207,0.226l0.206,0.228l0.205,0.228l0.205,0.228l0.204,0.229l0.203,0.23l0.203,0.231l0.202,0.231l0.202,0.231l0.201,0.233l0.2,0.233l0.199,0.234l0.199,0.234l0.199,0.235l0.197,0.235l0.197,0.237l0.196,0.236l0.196,0.238l0.195,0.238l0.194,0.239l0.194,0.239l0.193,0.24l0.192,0.24l0.192,0.242l0.191,0.241l0.19,0.243l0.19,0.243l0.189,0.243l0.188,0.245l0.187,0.245l0.187,0.245l0.186,0.246l0.186,0.247l0.185,0.247l0.184,0.248l0.184,0.248l0.182,0.249l0.182,0.25l0.182,0.25l0.181,0.251l0.18,0.251l0.179,0.252l0.179,0.253l0.177,0.253l0.178,0.254l0.176,0.254l0.176,0.255l0.175,0.256l0.175,0.256l0.173,0.256l0.173,0.257l0.173,0.258l0.171,0.259l0.171,0.258l0.17,0.26l0.17,0.26l0.168,0.261l0.168,0.261l0.168,0.262l0.166,0.262l0.166,0.263l0.165,0.263l0.165,0.264l0.163,0.265l0.163,0.265l0.162,0.265l0.162,0.266l0.16,0.267l0.16,0.267l0.16,0.268l0.158,0.269l0.158,0.268l0.157,0.27l0.156,0.27l0.156,0.27l0.155,0.271l0.154,0.272l0.153,0.272l0.153,0.272l0.151,0.274l0.151,0.273l0.151,0.274l0.149,0.275l0.149,0.275l0.148,0.276l0.147,0.276l0.147,0.277l0.145,0.277l0.145,0.278l0.145,0.279l0.143,0.278l0.143,0.28l0.142,0.279l0.141,0.281l0.14,0.281l0.14,0.281l0.139,0.282l0.138,0.282l0.137,0.283l0.136,0.283l0.136,0.284l0.135,0.285l0.134,0.284l0.133,0.286l0.133,0.285l0.132,0.287l0.131,0.286l0.13,0.288l0.129,0.287l0.129,0.288l0.127,0.289l0.127,0.289l0.127,0.29l0.125,0.29l0.125,0.29l0.123,0.292l0.123,0.291l0.122,0.292l0.122,0.292l0.12,0.293l0.12,0.294l0.119,0.293l0.118,0.295l0.117,0.294l0.117,0.295l0.115,0.296l0.115,0.296l0.114,0.297l0.113,0.297l0.113,0.297l0.111,0.298l0.111,0.298l0.11,0.299l0.109,0.299l0.108,0.3l0.108,0.3l0.106,0.3l0.106,0.301l0.105,0.301l0.104,0.302l0.103,0.303l0.102,0.302l0.102,0.303l0.1,0.304l0.1,0.304l0.099,0.304l0.098,0.305l0.097,0.305l0.097,0.305l0.095,0.306l0.095,0.307l0.094,0.307l0.093,0.307l0.092,0.307l0.091,0.309l0.09,0.308l0.09,0.309l0.088,0.309l0.088,0.31l0.087,0.31l0.086,0.31l0.085,0.311l0.085,0.311l0.083,0.312l0.082,0.312l0.082,0.312l0.081,0.313l0.08,0.313l0.079,0.313l0.078,0.314l0.077,0.315l0.076,0.314l0.076,0.315l0.074,0.316l0.074,0.315l0.073,0.317l0.072,0.316l0.071,0.317l0.07,0.317l0.069,0.318l0.068,0.318l0.068,0.318l0.066,0.319l0.066,0.319l0.064,0.319l0.064,0.32l0.063,0.32l0.062,0.321l0.061,0.321l0.06,0.321l0.059,0.321l0.058,0.322l0.058,0.322l0.056,0.323l0.056,0.323l0.054,0.323l0.054,0.324l0.053,0.324l0.051,0.324l0.051,0.324l0.05,0.325l0.049,0.325l0.048,0.326l0.047,0.326l0.047,0.326l0.045,0.326l0.044,0.327l0.044,0.327l0.042,0.328l0.042,0.328l0.04,0.328l0.04,0.328l0.038,0.329l0.038,0.329l0.037,0.329l0.036,0.33l0.034,0.33l0.034,0.33l0.033,0.33l0.032,0.331l0.031,0.331l0.03,0.331l0.029,0.332l0.028,0.332l0.028,0.332l0.026,0.333l0.025,0.333l0.024,0.333l0.024,0.333l0.022,0.334l0.021,0.334l0.02,0.334l0.02,0.335l0.018,0.335l0.018,0.335l0.016,0.335l0.015,0.335l0.015,0.336l0.013,0.337l0.013,0.336l0.011,0.337l0.011,0.336l0.009,0.338l0.009,0.337l0.007,0.338l0.007,0.338l0.005,0.338l0.005,0.338l0.003,0.339l0.003,0.339l0.001,0.339l0.001,0.342l-0.001,0.571l0.001,376.392l0,0.571l-0.001,0.336l-0.001,0.339l-0.003,0.339l-0.003,0.338l-0.005,0.339l-0.005,0.338l-0.007,0.338l-0.007,0.338l-0.009,0.337l-0.009,0.337l-0.011,0.337l-0.011,0.337l-0.013,0.336l-0.013,0.336l-0.015,0.336l-0.015,0.336l-0.016,0.335l-0.018,0.335l-0.018,0.335l-0.02,0.334l-0.02,0.335l-0.021,0.334l-0.022,0.333l-0.024,0.334l-0.024,0.333l-0.025,0.333l-0.026,0.332l-0.028,0.332l-0.028,0.332l-0.029,0.332l-0.03,0.331l-0.031,0.331l-0.032,0.331l-0.033,0.331l-0.034,0.33l-0.034,0.33l-0.036,0.33l-0.037,0.329l-0.038,0.329l-0.038,0.329l-0.04,0.328l-0.04,0.328l-0.042,0.328l-0.042,0.327l-0.044,0.327l-0.044,0.327l-0.045,0.327l-0.047,0.326l-0.047,0.326l-0.048,0.325l-0.049,0.325l-0.05,0.325l-0.051,0.325l-0.051,0.324l-0.053,0.324l-0.054,0.324l-0.054,0.323l-0.056,0.323l-0.056,0.322l-0.058,0.322l-0.058,0.322l-0.059,0.322l-0.06,0.321l-0.061,0.321l-0.062,0.32l-0.063,0.32l-0.064,0.32l-0.064,0.32l-0.066,0.319l-0.066,0.318l-0.068,0.319l-0.068,0.318l-0.069,0.317l-0.07,0.318l-0.071,0.316l-0.072,0.317l-0.073,0.316l-0.074,0.316l-0.074,0.315l-0.076,0.315l-0.076,0.315l-0.077,0.314l-0.078,0.314l-0.079,0.314l-0.08,0.313l-0.081,0.313l-0.082,0.312l-0.082,0.312l-0.083,0.312l-0.085,0.311l-0.085,0.311l-0.086,0.31l-0.087,0.31l-0.088,0.31l-0.088,0.309l-0.09,0.309l-0.09,0.308l-0.091,0.308l-0.092,0.308l-0.093,0.307l-0.094,0.307l-0.095,0.306l-0.095,0.306l-0.097,0.306l-0.097,0.305l-0.098,0.305l-0.099,0.304l-0.1,0.304l-0.1,0.303l-0.102,0.304l-0.102,0.302l-0.103,0.302l-0.104,0.302l-0.105,0.301l-0.106,0.301l-0.107,0.301l-0.107,0.3l-0.108,0.299l-0.109,0.3l-0.11,0.298l-0.111,0.299l-0.111,0.297l-0.113,0.298l-0.113,0.297l-0.114,0.296l-0.115,0.297l-0.115,0.295l-0.117,0.295l-0.117,0.295l-0.118,0.294l-0.119,0.294l-0.12,0.293l-0.12,0.293l-0.122,0.293l-0.122,0.292l-0.123,0.291l-0.123,0.291l-0.125,0.291l-0.125,0.29l-0.127,0.289l-0.127,0.29l-0.127,0.288l-0.129,0.288l-0.129,0.288l-0.13,0.287l-0.131,0.287l-0.132,0.286l-0.133,0.286l-0.133,0.285l-0.134,0.285l-0.135,0.284l-0.136,0.284l-0.136,0.284l-0.137,0.282l-0.138,0.283l-0.139,0.282l-0.14,0.281l-0.14,0.281l-0.141,0.28l-0.142,0.28l-0.143,0.279l-0.143,0.279l-0.144,0.278l-0.145,0.278l-0.146,0.277l-0.147,0.277l-0.147,0.276l-0.148,0.276l-0.149,0.275l-0.149,0.275l-0.151,0.274l-0.151,0.274l-0.152,0.273l-0.152,0.273l-0.153,0.272l-0.154,0.271l-0.155,0.271l-0.156,0.271l-0.156,0.27l-0.157,0.269l-0.158,0.269l-0.158,0.268l-0.16,0.268l-0.16,0.268l-0.16,0.266l-0.162,0.266l-0.162,0.266l-0.163,0.265l-0.164,0.265l-0.164,0.264l-0.165,0.263l-0.166,0.263l-0.166,0.262l-0.168,0.262l-0.168,0.261l-0.168,0.26l-0.17,0.261l-0.17,0.259l-0.171,0.259l-0.171,0.258l-0.173,0.258l-0.173,0.257l-0.173,0.257l-0.175,0.256l-0.175,0.255l-0.176,0.256l-0.176,0.254l-0.177,0.254l-0.179,0.253l-0.178,0.252l-0.179,0.252l-0.18,0.252l-0.181,0.25l-0.182,0.251l-0.182,0.25l-0.183,0.248l-0.183,0.249l-0.184,0.248l-0.185,0.247l-0.185,0.247l-0.187,0.246l-0.187,0.245l-0.187,0.245l-0.188,0.244l-0.189,0.244l-0.19,0.243l-0.19,0.242l-0.191,0.242l-0.192,0.241l-0.192,0.241l-0.193,0.24l-0.194,0.239l-0.194,0.239l-0.195,0.238l-0.196,0.237l-0.196,0.237l-0.197,0.236l-0.197,0.236l-0.199,0.235l-0.199,0.234l-0.199,0.234l-0.2,0.233l-0.201,0.232l-0.202,0.232l-0.202,0.231l-0.203,0.23l-0.203,0.23l-0.204,0.23l-0.205,0.228l-0.205,0.228l-0.206,0.227l-0.207,0.227l-0.208,0.226l-0.207,0.225l-0.209,0.225l-0.209,0.224l-0.21,0.223l-0.21,0.222l-0.211,0.222l-0.212,0.222l-0.213,0.221l-0.213,0.22l-0.213,0.219l-0.214,0.218l-0.215,0.218l-0.215,0.217l-0.216,0.217l-0.217,0.216l-0.217,0.215l-0.218,0.215l-0.219,0.214l-0.219,0.213l-0.22,0.212l-0.22,0.212l-0.221,0.212l-0.221,0.21l-0.223,0.21l-0.222,0.209l-0.224,0.208l-0.224,0.208l-0.224,0.207l-0.225,0.206l-0.226,0.206l-0.226,0.204l-0.227,0.205l-0.228,0.203l-0.228,0.203l-0.228,0.202l-0.229,0.201l-0.23,0.201l-0.231,0.2l-0.23,0.199l-0.232,0.198l-0.232,0.198l-0.233,0.197l-0.233,0.196l-0.234,0.196l-0.235,0.195l-0.235,0.194l-0.235,0.193l-0.236,0.193l-0.237,0.192l-0.237,0.191l-0.238,0.19l-0.238,0.19l-0.239,0.189l-0.24,0.188l-0.24,0.187l-0.24,0.187l-0.242,0.186l-0.241,0.185l-0.242,0.185l-0.243,0.184l-0.244,0.183l-0.244,0.182l-0.244,0.181l-0.245,0.181l-0.246,0.18l-0.246,0.179l-0.246,0.178l-0.247,0.178l-0.248,0.177l-0.248,0.176l-0.249,0.175l-0.249,0.175l-0.25,0.174l-0.25,0.173l-0.251,0.172l-0.252,0.171l-0.251,0.171l-0.253,0.17l-0.253,0.169l-0.254,0.169l-0.253,0.167l-0.255,0.167l-0.255,0.166l-0.256,0.165l-0.256,0.164l-0.256,0.164l-0.257,0.163l-0.258,0.161l-0.258,0.162l-0.258,0.16l-0.259,0.16l-0.26,0.158l-0.26,0.158l-0.261,0.158l-0.261,0.156l-0.261,0.155l-0.262,0.155l-0.263,0.154l-0.263,0.153l-0.264,0.152l-0.264,0.152l-0.264,0.15l-0.265,0.15l-0.266,0.149l-0.265,0.148l-0.267,0.148l-0.267,0.146l-0.267,0.146l-0.268,0.144l-0.268,0.145l-0.269,0.143l-0.269,0.142l-0.27,0.142l-0.271,0.14l-0.27,0.14l-0.271,0.139l-0.272,0.138l-0.272,0.137l-0.272,0.136l-0.274,0.136l-0.273,0.135l-0.274,0.133l-0.275,0.133l-0.274,0.132l-0.275,0.132l-0.276,0.13l-0.276,0.129l-0.277,0.129l-0.277,0.128l-0.278,0.127l-0.278,0.126l-0.278,0.125l-0.279,0.124l-0.279,0.124l-0.28,0.122l-0.28,0.122l-0.28,0.121l-0.281,0.119l-0.282,0.119l-0.282,0.119l-0.282,0.117l-0.283,0.116l-0.283,0.115l-0.283,0.115l-0.284,0.114l-0.285,0.112l-0.285,0.112l-0.285,0.111l-0.285,0.11l-0.287,0.109l-0.286,0.108l-0.286,0.108l-0.289,0.107l-0.287,0.105l-0.287,0.104l-0.289,0.104l-0.289,0.103l-0.29,0.102l-0.289,0.101l-0.29,0.099l-0.291,0.1l-0.291,0.098l-0.291,0.097l-0.291,0.096l-0.293,0.096l-0.292,0.094l-0.292,0.094l-0.294,0.092l-0.294,0.092l-0.293,0.09l-0.295,0.09l-0.295,0.089l-0.295,0.088l-0.295,0.087l-0.296,0.086l-0.296,0.085l-0.297,0.084l-0.296,0.083l-0.298,0.082l-0.298,0.082l-0.297,0.08l-0.299,0.079l-0.299,0.078l-0.299,0.078l-0.299,0.076l-0.299,0.075l-0.301,0.075l-0.301,0.074l-0.301,0.072l-0.3,0.072l-0.302,0.07l-0.302,0.07l-0.303,0.069l-0.302,0.067l-0.303,0.067l-0.303,0.066l-0.304,0.064l-0.304,0.064l-0.304,0.063l-0.304,0.062l-0.305,0.06l-0.305,0.06l-0.306,0.059l-0.306,0.058l-0.306,0.057l-0.307,0.055l-0.307,0.055l-0.306,0.054l-0.308,0.053l-0.308,0.052l-0.308,0.05l-0.308,0.05l-0.309,0.049l-0.309,0.048l-0.309,0.046l-0.31,0.046l-0.31,0.045l-0.31,0.043l-0.311,0.043l-0.31,0.042l-0.311,0.04l-0.312,0.04l-0.312,0.039l-0.312,0.037l-0.312,0.037l-0.313,0.035l-0.312,0.034l-0.313,0.034l-0.314,0.032l-0.314,0.032l-0.314,0.03l-0.313,0.029l-0.315,0.028l-0.315,0.028l-0.315,0.026l-0.315,0.025l-0.316,0.024l-0.316,0.023l-0.316,0.022l-0.316,0.02l-0.317,0.02l-0.316,0.019l-0.317,0.018l-0.318,0.016l-0.318,0.016l-0.317,0.014l-0.318,0.014l-0.319,0.012l-0.319,0.012l-0.319,0.01l-0.319,0.009l-0.319,0.008l-0.319,0.007l-0.32,0.006l-0.321,0.005l-0.32,0.004l-0.32,0.002l-0.321,0.002l-0.321,0.001l-0.321,-0.001l-0.321,-0.002l-0.32,-0.002l-0.32,-0.004l-0.321,-0.005l-0.32,-0.006l-0.319,-0.007l-0.319,-0.008l-0.319,-0.009l-0.319,-0.01l-0.319,-0.012l-0.319,-0.012l-0.318,-0.014l-0.317,-0.014l-0.318,-0.016l-0.318,-0.016l-0.317,-0.018l-0.316,-0.019l-0.317,-0.02l-0.316,-0.02l-0.316,-0.022l-0.316,-0.023l-0.316,-0.024l-0.315,-0.025l-0.315,-0.026l-0.315,-0.028l-0.315,-0.028l-0.313,-0.029l-0.314,-0.03l-0.314,-0.032l-0.314,-0.032l-0.313,-0.034l-0.312,-0.034l-0.313,-0.035l-0.312,-0.037l-0.312,-0.037l-0.312,-0.039l-0.312,-0.04l-0.311,-0.04l-0.31,-0.042l-0.311,-0.043l-0.31,-0.043l-0.31,-0.045l-0.31,-0.046l-0.309,-0.046l-0.309,-0.048l-0.309,-0.049l-0.308,-0.05l-0.308,-0.05l-0.308,-0.052l-0.308,-0.053l-0.306,-0.054l-0.307,-0.055l-0.307,-0.055l-0.306,-0.057l-0.306,-0.058l-0.306,-0.059l-0.305,-0.06l-0.305,-0.06l-0.304,-0.062l-0.304,-0.063l-0.304,-0.064l-0.304,-0.064l-0.303,-0.066l-0.303,-0.067l-0.302,-0.067l-0.303,-0.069l-0.302,-0.07l-0.302,-0.07l-0.3,-0.072l-0.301,-0.072l-0.301,-0.074l-0.301,-0.075l-0.299,-0.075l-0.299,-0.076l-0.299,-0.078l-0.299,-0.078l-0.299,-0.079l-0.297,-0.08l-0.298,-0.082l-0.298,-0.082l-0.296,-0.083l-0.297,-0.084l-0.296,-0.085l-0.296,-0.086l-0.295,-0.087l-0.295,-0.088l-0.295,-0.089l-0.295,-0.09l-0.293,-0.09l-0.294,-0.092l-0.294,-0.092l-0.292,-0.094l-0.292,-0.094l-0.293,-0.096l-0.291,-0.096l-0.291,-0.097l-0.291,-0.098l-0.291,-0.1l-0.29,-0.099l-0.289,-0.101l-0.29,-0.102l-0.289,-0.103l-0.289,-0.104l-0.287,-0.104l-0.287,-0.105l-0.289,-0.107l-0.286,-0.108l-0.286,-0.108l-0.287,-0.109l-0.285,-0.11l-0.285,-0.111l-0.285,-0.112l-0.285,-0.112l-0.284,-0.114l-0.283,-0.115l-0.283,-0.115l-0.283,-0.116l-0.282,-0.117l-0.282,-0.119l-0.282,-0.119l-0.281,-0.119l-0.28,-0.121l-0.28,-0.122l-0.28,-0.122l-0.279,-0.124l-0.279,-0.124l-0.278,-0.125l-0.278,-0.126l-0.278,-0.127l-0.277,-0.128l-0.277,-0.128l-0.276,-0.13l-0.276,-0.13l-0.275,-0.132l-0.274,-0.132l-0.275,-0.133l-0.274,-0.133l-0.273,-0.135l-0.274,-0.136l-0.272,-0.136l-0.272,-0.137l-0.272,-0.138l-0.271,-0.139l-0.27,-0.14l-0.271,-0.14l-0.27,-0.142l-0.269,-0.142l-0.269,-0.143l-0.268,-0.145l-0.268,-0.144l-0.267,-0.146l-0.267,-0.146l-0.267,-0.148l-0.265,-0.148l-0.266,-0.149l-0.265,-0.15l-0.264,-0.15l-0.264,-0.152l-0.264,-0.152l-0.263,-0.153l-0.263,-0.154l-0.262,-0.155l-0.261,-0.155l-0.261,-0.156l-0.261,-0.158l-0.26,-0.158l-0.259,-0.158l-0.26,-0.16l-0.258,-0.16l-0.258,-0.162l-0.258,-0.161l-0.257,-0.163l-0.256,-0.164l-0.256,-0.164l-0.256,-0.165l-0.255,-0.166l-0.255,-0.167l-0.253,-0.167l-0.254,-0.169l-0.253,-0.169l-0.253,-0.17l-0.251,-0.171l-0.252,-0.171l-0.251,-0.172l-0.25,-0.173l-0.25,-0.174l-0.249,-0.175l-0.249,-0.175l-0.248,-0.176l-0.248,-0.177l-0.247,-0.178l-0.246,-0.178l-0.246,-0.179l-0.246,-0.18l-0.245,-0.181l-0.244,-0.181l-0.244,-0.182l-0.244,-0.183l-0.243,-0.184l-0.242,-0.185l-0.241,-0.185l-0.242,-0.186l-0.24,-0.187l-0.24,-0.187l-0.24,-0.188l-0.239,-0.189l-0.238,-0.19l-0.238,-0.19l-0.237,-0.191l-0.237,-0.192l-0.236,-0.193l-0.235,-0.193l-0.235,-0.194l-0.235,-0.195l-0.234,-0.196l-0.233,-0.196l-0.233,-0.197l-0.232,-0.198l-0.231,-0.198l-0.231,-0.199l-0.231,-0.2l-0.229,-0.201l-0.23,-0.201l-0.228,-0.202l-0.228,-0.203l-0.228,-0.203l-0.227,-0.205l-0.226,-0.204l-0.226,-0.206l-0.225,-0.206l-0.224,-0.207l-0.224,-0.208l-0.224,-0.208l-0.222,-0.209l-0.223,-0.21l-0.221,-0.21l-0.221,-0.212l-0.22,-0.212l-0.22,-0.212l-0.219,-0.213l-0.219,-0.214l-0.218,-0.215l-0.217,-0.215l-0.217,-0.216l-0.216,-0.216l-0.215,-0.218l-0.215,-0.218l-0.214,-0.218l-0.213,-0.219l-0.213,-0.22l-0.213,-0.221l-0.212,-0.222l-0.211,-0.222l-0.21,-0.222l-0.21,-0.223l-0.209,-0.224l-0.209,-0.225l-0.207,-0.225l-0.208,-0.226l-0.207,-0.227l-0.206,-0.227l-0.205,-0.228l-0.205,-0.229l-0.204,-0.229l-0.203,-0.23l-0.203,-0.23l-0.202,-0.231l-0.202,-0.232l-0.201,-0.232l-0.2,-0.233l-0.199,-0.234l-0.199,-0.234l-0.199,-0.235l-0.197,-0.236l-0.197,-0.236l-0.196,-0.237l-0.196,-0.237l-0.195,-0.238l-0.194,-0.239l-0.194,-0.239l-0.193,-0.24l-0.192,-0.241l-0.192,-0.241l-0.191,-0.242l-0.19,-0.242l-0.19,-0.243l-0.189,-0.244l-0.188,-0.244l-0.187,-0.245l-0.187,-0.245l-0.187,-0.246l-0.185,-0.247l-0.185,-0.247l-0.184,-0.248l-0.184,-0.249l-0.182,-0.248l-0.182,-0.25l-0.182,-0.251l-0.181,-0.25l-0.18,-0.252l-0.179,-0.252l-0.178,-0.252l-0.179,-0.254l-0.177,-0.253l-0.176,-0.254l-0.176,-0.256l-0.175,-0.255l-0.175,-0.256l-0.173,-0.257l-0.173,-0.257l-0.173,-0.258l-0.171,-0.258l-0.171,-0.259l-0.17,-0.259l-0.17,-0.261l-0.168,-0.26l-0.168,-0.261l-0.168,-0.262l-0.166,-0.262l-0.166,-0.263l-0.165,-0.264l-0.164,-0.263l-0.164,-0.265l-0.163,-0.265l-0.162,-0.266l-0.162,-0.266l-0.16,-0.266l-0.16,-0.268l-0.16,-0.268l-0.158,-0.268l-0.158,-0.269l-0.157,-0.269l-0.156,-0.27l-0.156,-0.271l-0.155,-0.271l-0.154,-0.271l-0.153,-0.272l-0.152,-0.273l-0.152,-0.273l-0.151,-0.274l-0.151,-0.274l-0.149,-0.275l-0.149,-0.275l-0.148,-0.276l-0.147,-0.276l-0.147,-0.276l-0.146,-0.278l-0.145,-0.278l-0.144,-0.278l-0.143,-0.279l-0.143,-0.279l-0.142,-0.28l-0.141,-0.28l-0.14,-0.281l-0.14,-0.281l-0.139,-0.282l-0.138,-0.283l-0.137,-0.282l-0.136,-0.284l-0.136,-0.284l-0.135,-0.284l-0.134,-0.285l-0.133,-0.285l-0.133,-0.286l-0.132,-0.286l-0.131,-0.287l-0.13,-0.287l-0.129,-0.288l-0.129,-0.288l-0.127,-0.288l-0.128,-0.29l-0.126,-0.289l-0.125,-0.29l-0.125,-0.291l-0.123,-0.291l-0.123,-0.291l-0.122,-0.292l-0.122,-0.293l-0.12,-0.293l-0.12,-0.293l-0.119,-0.294l-0.118,-0.294l-0.117,-0.295l-0.117,-0.295l-0.115,-0.295l-0.115,-0.297l-0.114,-0.296l-0.113,-0.297l-0.113,-0.297l-0.111,-0.298l-0.111,-0.299l-0.11,-0.298l-0.109,-0.3l-0.108,-0.299l-0.107,-0.3l-0.107,-0.301l-0.106,-0.301l-0.105,-0.301l-0.104,-0.302l-0.103,-0.302l-0.102,-0.302l-0.102,-0.304l-0.1,-0.303l-0.1,-0.304l-0.099,-0.304l-0.098,-0.305l-0.097,-0.305l-0.097,-0.306l-0.095,-0.306l-0.095,-0.306l-0.094,-0.307l-0.093,-0.307l-0.092,-0.308l-0.091,-0.308l-0.09,-0.308l-0.09,-0.309l-0.088,-0.309l-0.088,-0.31l-0.087,-0.31l-0.086,-0.31l-0.085,-0.311l-0.085,-0.311l-0.083,-0.312l-0.082,-0.312l-0.082,-0.312l-0.081,-0.313l-0.08,-0.313l-0.079,-0.314l-0.078,-0.314l-0.077,-0.314l-0.076,-0.315l-0.076,-0.315l-0.074,-0.315l-0.074,-0.316l-0.073,-0.316l-0.072,-0.317l-0.071,-0.316l-0.07,-0.318l-0.069,-0.317l-0.068,-0.318l-0.068,-0.319l-0.066,-0.318l-0.066,-0.32l-0.064,-0.319l-0.064,-0.32l-0.063,-0.32l-0.062,-0.32l-0.061,-0.321l-0.06,-0.321l-0.059,-0.322l-0.058,-0.322l-0.058,-0.322l-0.056,-0.322l-0.056,-0.323l-0.054,-0.323l-0.054,-0.324l-0.053,-0.324l-0.051,-0.324l-0.051,-0.325l-0.05,-0.324l-0.049,-0.326l-0.048,-0.325l-0.047,-0.326l-0.047,-0.326l-0.045,-0.327l-0.044,-0.327l-0.044,-0.327l-0.042,-0.327l-0.042,-0.328l-0.04,-0.328l-0.04,-0.328l-0.038,-0.329l-0.038,-0.329l-0.037,-0.329l-0.036,-0.33l-0.034,-0.33l-0.034,-0.33l-0.033,-0.331l-0.032,-0.33l-0.031,-0.332l-0.03,-0.331l-0.029,-0.332l-0.028,-0.332l-0.028,-0.332l-0.026,-0.332l-0.025,-0.333l-0.024,-0.333l-0.024,-0.334l-0.022,-0.333l-0.021,-0.334l-0.02,-0.335l-0.02,-0.334l-0.018,-0.335l-0.018,-0.335l-0.016,-0.335l-0.016,-0.336l-0.014,-0.336l-0.013,-0.336l-0.013,-0.336l-0.011,-0.337l-0.011,-0.337l-0.009,-0.337l-0.009,-0.337l-0.007,-0.338l-0.007,-0.338l-0.005,-0.338l-0.005,-0.339l-0.003,-0.338l-0.003,-0.339l-0.002,-0.339l0,-0.343l0.001,-0.57l-0.001,-376.954l0,-0.003l0,-0.005l0,-4.431l0.086,0l0.012,-0.296l0.014,-0.336l0.016,-0.335l0.016,-0.335l0.018,-0.335l0.018,-0.335l0.02,-0.335l0.02,-0.334l0.021,-0.334l0.022,-0.334l0.024,-0.333l0.024,-0.333l0.025,-0.333l0.026,-0.333l0.028,-0.332l0.028,-0.332l0.029,-0.331l0.03,-0.332l0.031,-0.331l0.032,-0.331l0.033,-0.33l0.034,-0.33l0.034,-0.33l0.036,-0.33l0.037,-0.329l0.038,-0.329l0.038,-0.329l0.04,-0.328l0.04,-0.328l0.042,-0.328l0.042,-0.328l0.044,-0.327l0.044,-0.327l0.045,-0.326l0.047,-0.326l0.047,-0.326l0.048,-0.326l0.049,-0.325l0.05,-0.325l0.051,-0.324l0.051,-0.325l0.053,-0.323l0.054,-0.324l0.054,-0.323l0.056,-0.323l0.056,-0.323l0.058,-0.322l0.058,-0.322l0.059,-0.321l0.06,-0.321l0.061,-0.321l0.062,-0.321l0.063,-0.32l0.064,-0.32l0.064,-0.319l0.066,-0.319l0.066,-0.319l0.068,-0.318l0.068,-0.318l0.069,-0.318l0.07,-0.317l0.071,-0.317l0.072,-0.316l0.073,-0.316l0.074,-0.316l0.074,-0.316l0.076,-0.315l0.076,-0.314l0.077,-0.315l0.078,-0.314l0.079,-0.313l0.08,-0.313l0.081,-0.313l0.082,-0.312l0.082,-0.312l0.083,-0.312l0.085,-0.311l0.085,-0.311l0.086,-0.31l0.087,-0.31l0.088,-0.31l0.088,-0.309l0.09,-0.309l0.09,-0.309l0.091,-0.308l0.092,-0.307l0.093,-0.307l0.094,-0.307l0.095,-0.307l0.095,-0.306l0.097,-0.305l0.097,-0.305l0.098,-0.305l0.099,-0.304l0.1,-0.304l0.1,-0.304l0.102,-0.303l0.102,-0.302l0.103,-0.303l0.104,-0.301l0.105,-0.302l0.106,-0.301l0.106,-0.3l0.108,-0.3l0.108,-0.3l0.109,-0.299l0.11,-0.299l0.111,-0.298l0.111,-0.298l0.113,-0.297l0.113,-0.297l0.114,-0.297l0.115,-0.296l0.115,-0.295l0.117,-0.296l0.117,-0.294l0.118,-0.295l0.119,-0.293l0.12,-0.294l0.12,-0.293l0.122,-0.292l0.122,-0.292l0.123,-0.291l0.123,-0.291l0.125,-0.291l0.125,-0.29l0.127,-0.29l0.127,-0.289l0.127,-0.289l0.129,-0.288l0.129,-0.287l0.13,-0.288l0.131,-0.286l0.132,-0.287l0.133,-0.285l0.133,-0.286l0.134,-0.284l0.135,-0.285l0.136,-0.284l0.136,-0.283l0.137,-0.283l0.138,-0.282l0.139,-0.282l0.14,-0.281l0.14,-0.281l0.141,-0.28l0.142,-0.28l0.143,-0.28l0.143,-0.278l0.145,-0.279l0.144,-0.278l0.146,-0.277l0.147,-0.277l0.147,-0.276l0.148,-0.276l0.149,-0.275l0.149,-0.275l0.151,-0.274l0.151,-0.273l0.151,-0.274l0.153,-0.272l0.153,-0.272l0.154,-0.272l0.155,-0.271l0.156,-0.27l0.156,-0.27l0.157,-0.27l0.158,-0.268l0.158,-0.269l0.16,-0.268l0.16,-0.267l0.16,-0.267l0.162,-0.266l0.162,-0.265l0.163,-0.265l0.164,-0.265l0.164,-0.264l0.165,-0.263l0.166,-0.263l0.166,-0.262l0.168,-0.262l0.168,-0.261l0.168,-0.261l0.17,-0.26l0.17,-0.26l0.171,-0.258l0.171,-0.259l0.173,-0.258l0.173,-0.257l0.173,-0.256l0.175,-0.256l0.175,-0.256l0.176,-0.255l0.176,-0.254l0.178,-0.254l0.177,-0.253l0.179,-0.253l0.179,-0.252l0.18,-0.251l0.181,-0.251l0.182,-0.25l0.182,-0.25l0.182,-0.249l0.184,-0.248l0.184,-0.248l0.185,-0.247l0.185,-0.247l0.187,-0.246l0.187,-0.246l0.187,-0.244l0.188,-0.245l0.189,-0.243l0.19,-0.243l0.19,-0.243l0.191,-0.241l0.192,-0.242l0.192,-0.24l0.193,-0.24l0.194,-0.239l0.194,-0.239l0.195,-0.238l0.196,-0.238l0.196,-0.236l0.197,-0.237l0.197,-0.235l0.199,-0.235l0.199,-0.234l0.199,-0.234l0.2,-0.233l0.201,-0.233l0.202,-0.231l0.202,-0.231l0.203,-0.231l0.203,-0.23l0.204,-0.229l0.205,-0.228l0.205,-0.228l0.206,-0.228l0.207,-0.226l0.207,-0.226l0.208,-0.225l0.209,-0.225l0.209,-0.224l0.21,-0.223l0.21,-0.223l0.211,-0.222l0.212,-0.221l0.212,-0.221l0.213,-0.22l0.214,-0.219l0.214,-0.219l0.215,-0.218l0.215,-0.217l0.217,-0.217l0.216,-0.216l0.217,-0.215l0.218,-0.214l0.219,-0.214l0.219,-0.213l0.22,-0.213l0.22,-0.212l0.221,-0.211l0.221,-0.21l0.223,-0.21l0.222,-0.209l0.224,-0.209l0.224,-0.207l0.224,-0.207l0.225,-0.206l0.226,-0.206l0.226,-0.205l0.227,-0.204l0.228,-0.203l0.228,-0.203l0.228,-0.202l0.229,-0.202l0.23,-0.2l0.231,-0.2l0.231,-0.199l0.231,-0.199l0.232,-0.197l0.233,-0.197l0.233,-0.197l0.234,-0.195l0.235,-0.195l0.235,-0.194l0.235,-0.193l0.236,-0.193l0.237,-0.192l0.237,-0.191l0.238,-0.191l0.238,-0.189l0.239,-0.189l0.24,-0.188l0.24,-0.188l0.24,-0.187l0.242,-0.186l0.241,-0.185l0.243,-0.184l0.242,-0.184l0.244,-0.183l0.244,-0.182l0.244,-0.182l0.245,-0.18l0.246,-0.18l0.246,-0.179l0.246,-0.179l0.247,-0.177l0.248,-0.177l0.248,-0.176l0.249,-0.176l0.249,-0.174l0.25,-0.174l0.25,-0.173l0.251,-0.172l0.252,-0.172l0.251,-0.17l0.253,-0.17l0.253,-0.17l0.253,-0.168l0.254,-0.167l0.255,-0.167l0.255,-0.166l0.255,-0.165l0.256,-0.165l0.257,-0.163l0.257,-0.163l0.258,-0.162l0.258,-0.161l0.258,-0.161l0.259,-0.159l0.26,-0.159l0.26,-0.158l0.261,-0.157l0.261,-0.156l0.261,-0.156l0.262,-0.155l0.263,-0.153l0.263,-0.154l0.263,-0.152l0.264,-0.151l0.265,-0.151l0.265,-0.15l0.265,-0.149l0.266,-0.148l0.267,-0.147l0.267,-0.147l0.267,-0.145l0.268,-0.145l0.268,-0.144l0.269,-0.143l0.27,-0.142l0.269,-0.142l0.271,-0.14l0.27,-0.14l0.271,-0.139l0.272,-0.138l0.272,-0.137l0.273,-0.137l0.273,-0.135l0.273,-0.135l0.274,-0.134l0.274,-0.133l0.275,-0.132l0.276,-0.131l0.275,-0.13l0.276,-0.13l0.277,-0.129l0.277,-0.127l0.278,-0.127l0.278,-0.126l0.278,-0.125l0.279,-0.125l0.279,-0.123l0.28,-0.123l0.28,-0.121l0.28,-0.121l0.281,-0.12l0.282,-0.119l0.282,-0.118l0.282,-0.117l0.283,-0.116l0.283,-0.116l0.283,-0.114l0.284,-0.114l0.285,-0.113l0.285,-0.112l0.285,-0.111l0.285,-0.11l0.286,-0.109l0.287,-0.108l0.287,-0.107l0.287,-0.107l0.288,-0.105l0.288,-0.105l0.288,-0.103l0.289,-0.103l0.29,-0.102l0.289,-0.101l0.29,-0.1l0.291,-0.099l0.291,-0.098l0.291,-0.097l0.292,-0.097l0.292,-0.095l0.292,-0.095l0.293,-0.093l0.293,-0.093l0.294,-0.091l0.293,-0.091l0.295,-0.09l0.295,-0.089l0.295,-0.087l0.295,-0.087l0.296,-0.086l0.296,-0.085l0.297,-0.084l0.297,-0.083l0.297,-0.083l0.297,-0.081l0.298,-0.08l0.299,-0.079l0.299,-0.079l0.299,-0.077l0.299,-0.077l0.3,-0.075l0.3,-0.075l0.301,-0.073l0.3,-0.073l0.302,-0.071l0.301,-0.071l0.302,-0.069l0.302,-0.069l0.303,-0.068l0.303,-0.066l0.303,-0.066l0.304,-0.065l0.304,-0.064l0.304,-0.062l0.304,-0.062l0.305,-0.061l0.305,-0.06l0.306,-0.058l0.306,-0.058l0.306,-0.057l0.307,-0.056l0.306,-0.055l0.308,-0.053l0.307,-0.053l0.308,-0.052l0.308,-0.051l0.308,-0.049l0.309,-0.049l0.309,-0.048l0.309,-0.047l0.31,-0.045l0.31,-0.045l0.31,-0.044l0.311,-0.042l0.31,-0.042l0.311,-0.041l0.312,-0.039l0.312,-0.039l0.312,-0.037l0.312,-0.037l0.312,-0.035l0.313,-0.035l0.313,-0.033l0.314,-0.033l0.313,-0.031l0.314,-0.03l0.315,-0.03l0.314,-0.028l0.315,-0.027l0.315,-0.026l0.315,-0.025l0.316,-0.024l0.316,-0.023l0.316,-0.022l0.316,-0.021l0.317,-0.02l0.317,-0.018l0.317,-0.018l0.317,-0.017l0.318,-0.015l0.318,-0.015l0.318,-0.013l0.318,-0.013l0.319,-0.011l0.319,-0.01l0.319,-0.009l0.319,-0.009l0.32,-0.007l0.319,-0.005l0.32,-0.005l0.321,-0.004l0.32,-0.003l0.321,-0.001l0.321,-0.001l0.321,0.001Zm-0.608,9.999l-0.287,0.002l-0.287,0.002l-0.286,0.004l-0.287,0.004l-0.286,0.005l-0.285,0.007l-0.286,0.007l-0.285,0.008l-0.285,0.009l-0.285,0.01l-0.285,0.011l-0.284,0.013l-0.285,0.012l-0.283,0.014l-0.284,0.015l-0.284,0.016l-0.283,0.017l-0.283,0.018l-0.282,0.018l-0.283,0.02l-0.282,0.02l-0.282,0.022l-0.282,0.022l-0.281,0.024l-0.281,0.024l-0.281,0.025l-0.281,0.026l-0.28,0.027l-0.281,0.028l-0.279,0.029l-0.28,0.03l-0.28,0.031l-0.279,0.031l-0.279,0.033l-0.278,0.033l-0.278,0.035l-0.279,0.035l-0.277,0.037l-0.278,0.037l-0.277,0.038l-0.277,0.039l-0.277,0.04l-0.276,0.041l-0.277,0.041l-0.275,0.043l-0.276,0.043l-0.275,0.045l-0.276,0.045l-0.274,0.046l-0.275,0.048l-0.274,0.048l-0.274,0.049l-0.274,0.049l-0.273,0.051l-0.273,0.052l-0.273,0.052l-0.272,0.054l-0.273,0.054l-0.272,0.055l-0.271,0.056l-0.272,0.057l-0.271,0.058l-0.27,0.058l-0.271,0.06l-0.27,0.06l-0.27,0.062l-0.269,0.062l-0.27,0.063l-0.269,0.064l-0.268,0.064l-0.268,0.066l-0.269,0.067l-0.267,0.067l-0.268,0.068l-0.267,0.069l-0.267,0.07l-0.266,0.071l-0.266,0.072l-0.266,0.072l-0.265,0.074l-0.266,0.074l-0.265,0.075l-0.264,0.076l-0.264,0.077l-0.264,0.077l-0.264,0.079l-0.263,0.079l-0.263,0.08l-0.263,0.081l-0.262,0.082l-0.262,0.083l-0.261,0.084l-0.262,0.084l-0.261,0.085l-0.26,0.086l-0.261,0.087l-0.26,0.088l-0.259,0.088l-0.259,0.09l-0.259,0.09l-0.259,0.091l-0.258,0.092l-0.258,0.092l-0.257,0.094l-0.258,0.094l-0.256,0.095l-0.257,0.096l-0.256,0.097l-0.256,0.098l-0.255,0.098l-0.255,0.099l-0.255,0.1l-0.254,0.101l-0.254,0.102l-0.254,0.102l-0.253,0.103l-0.253,0.105l-0.253,0.104l-0.252,0.106l-0.252,0.106l-0.251,0.108l-0.251,0.108l-0.251,0.109l-0.25,0.109l-0.25,0.111l-0.249,0.111l-0.25,0.112l-0.248,0.113l-0.249,0.113l-0.248,0.115l-0.248,0.115l-0.247,0.116l-0.247,0.117l-0.246,0.117l-0.246,0.118l-0.246,0.119l-0.245,0.12l-0.245,0.121l-0.245,0.121l-0.244,0.122l-0.244,0.123l-0.243,0.124l-0.243,0.125l-0.243,0.125l-0.242,0.126l-0.241,0.127l-0.242,0.127l-0.241,0.128l-0.24,0.129l-0.24,0.13l-0.24,0.131l-0.239,0.131l-0.239,0.132l-0.239,0.133l-0.238,0.134l-0.237,0.134l-0.238,0.135l-0.237,0.136l-0.236,0.136l-0.236,0.138l-0.235,0.138l-0.235,0.139l-0.235,0.139l-0.234,0.14l-0.234,0.141l-0.234,0.142l-0.233,0.143l-0.232,0.143l-0.232,0.144l-0.232,0.145l-0.231,0.145l-0.231,0.146l-0.23,0.147l-0.23,0.148l-0.23,0.148l-0.229,0.149l-0.228,0.15l-0.228,0.15l-0.228,0.151l-0.227,0.152l-0.227,0.153l-0.226,0.153l-0.226,0.154l-0.226,0.155l-0.225,0.156l-0.224,0.156l-0.224,0.157l-0.224,0.157l-0.223,0.159l-0.223,0.159l-0.222,0.159l-0.222,0.161l-0.221,0.161l-0.221,0.162l-0.22,0.162l-0.22,0.163l-0.219,0.164l-0.219,0.165l-0.218,0.165l-0.218,0.166l-0.218,0.167l-0.217,0.167l-0.216,0.168l-0.216,0.169l-0.216,0.169l-0.215,0.17l-0.214,0.171l-0.214,0.171l-0.214,0.172l-0.213,0.173l-0.213,0.173l-0.212,0.175l-0.211,0.174l-0.211,0.176l-0.211,0.176l-0.21,0.177l-0.21,0.177l-0.209,0.178l-0.208,0.179l-0.209,0.179l-0.207,0.18l-0.207,0.181l-0.207,0.182l-0.206,0.182l-0.205,0.182l-0.205,0.184l-0.205,0.184l-0.204,0.184l-0.203,0.186l-0.203,0.186l-0.203,0.186l-0.201,0.187l-0.202,0.188l-0.201,0.189l-0.2,0.189l-0.2,0.19l-0.199,0.19l-0.199,0.191l-0.198,0.192l-0.198,0.192l-0.197,0.193l-0.196,0.194l-0.196,0.194l-0.196,0.195l-0.195,0.195l-0.194,0.196l-0.194,0.197l-0.193,0.197l-0.193,0.198l-0.192,0.199l-0.192,0.199l-0.191,0.2l-0.191,0.2l-0.19,0.201l-0.189,0.202l-0.189,0.202l-0.188,0.203l-0.188,0.204l-0.187,0.204l-0.187,0.204l-0.186,0.205l-0.186,0.206l-0.185,0.207l-0.184,0.207l-0.184,0.207l-0.183,0.209l-0.183,0.208l-0.182,0.21l-0.181,0.21l-0.181,0.21l-0.181,0.212l-0.179,0.211l-0.18,0.213l-0.178,0.213l-0.178,0.213l-0.178,0.214l-0.177,0.215l-0.176,0.215l-0.175,0.216l-0.176,0.216l-0.174,0.217l-0.174,0.218l-0.173,0.218l-0.173,0.219l-0.172,0.219l-0.171,0.22l-0.171,0.22l-0.171,0.221l-0.169,0.221l-0.169,0.223l-0.169,0.222l-0.168,0.223l-0.167,0.224l-0.167,0.224l-0.166,0.225l-0.165,0.225l-0.165,0.226l-0.164,0.227l-0.164,0.227l-0.163,0.227l-0.162,0.228l-0.162,0.229l-0.161,0.229l-0.16,0.23l-0.16,0.23l-0.159,0.231l-0.159,0.231l-0.157,0.232l-0.158,0.232l-0.156,0.233l-0.156,0.234l-0.156,0.234l-0.155,0.234l-0.154,0.235l-0.153,0.236l-0.153,0.236l-0.152,0.236l-0.152,0.237l-0.15,0.238l-0.151,0.238l-0.149,0.239l-0.149,0.239l-0.148,0.239l-0.148,0.241l-0.147,0.24l-0.146,0.241l-0.146,0.242l-0.145,0.242l-0.144,0.243l-0.144,0.243l-0.143,0.244l-0.142,0.244l-0.142,0.245l-0.141,0.245l-0.14,0.245l-0.14,0.246l-0.139,0.247l-0.138,0.247l-0.137,0.248l-0.137,0.248l-0.137,0.248l-0.135,0.25l-0.135,0.249l-0.134,0.25l-0.134,0.251l-0.133,0.251l-0.132,0.251l-0.131,0.252l-0.131,0.252l-0.13,0.253l-0.13,0.253l-0.128,0.254l-0.128,0.254l-0.128,0.255l-0.126,0.255l-0.126,0.256l-0.125,0.256l-0.125,0.257l-0.124,0.257l-0.123,0.257l-0.122,0.258l-0.122,0.258l-0.121,0.259l-0.12,0.26l-0.119,0.259l-0.119,0.26l-0.118,0.261l-0.118,0.261l-0.116,0.262l-0.116,0.262l-0.116,0.262l-0.114,0.263l-0.114,0.263l-0.113,0.264l-0.112,0.264l-0.112,0.264l-0.111,0.265l-0.11,0.266l-0.109,0.266l-0.109,0.266l-0.108,0.267l-0.107,0.267l-0.107,0.267l-0.105,0.268l-0.105,0.269l-0.105,0.268l-0.103,0.27l-0.103,0.269l-0.102,0.27l-0.101,0.271l-0.101,0.271l-0.099,0.271l-0.099,0.272l-0.099,0.272l-0.097,0.272l-0.097,0.273l-0.096,0.273l-0.095,0.274l-0.095,0.274l-0.093,0.275l-0.093,0.274l-0.092,0.276l-0.092,0.275l-0.091,0.276l-0.089,0.277l-0.089,0.277l-0.089,0.277l-0.087,0.278l-0.087,0.278l-0.086,0.278l-0.085,0.279l-0.085,0.279l-0.084,0.279l-0.082,0.28l-0.083,0.28l-0.081,0.281l-0.08,0.281l-0.08,0.282l-0.079,0.281l-0.078,0.282l-0.078,0.283l-0.076,0.283l-0.076,0.283l-0.075,0.284l-0.074,0.283l-0.074,0.285l-0.072,0.284l-0.072,0.285l-0.071,0.286l-0.07,0.286l-0.07,0.286l-0.068,0.286l-0.068,0.287l-0.067,0.287l-0.066,0.287l-0.066,0.288l-0.064,0.288l-0.064,0.289l-0.063,0.289l-0.062,0.289l-0.061,0.289l-0.061,0.29l-0.059,0.291l-0.059,0.29l-0.058,0.291l-0.057,0.291l-0.057,0.292l-0.055,0.292l-0.055,0.292l-0.054,0.292l-0.053,0.293l-0.052,0.293l-0.051,0.294l-0.051,0.293l-0.049,0.295l-0.049,0.294l-0.048,0.295l-0.047,0.295l-0.047,0.295l-0.045,0.296l-0.045,0.296l-0.043,0.296l-0.043,0.297l-0.042,0.297l-0.042,0.297l-0.04,0.297l-0.039,0.298l-0.039,0.298l-0.038,0.299l-0.037,0.299l-0.036,0.299l-0.035,0.299l-0.034,0.299l-0.034,0.3l-0.032,0.301l-0.032,0.3l-0.031,0.301l-0.03,0.301l-0.029,0.301l-0.028,0.302l-0.028,0.302l-0.026,0.302l-0.026,0.302l-0.025,0.303l-0.023,0.303l-0.023,0.303l-0.023,0.304l-0.021,0.304l-0.02,0.304l-0.02,0.304l-0.018,0.305l-0.018,0.305l-0.016,0.305l-0.016,0.306l-0.015,0.305l-0.014,0.306l-0.014,0.306l-0.012,0.307l-0.011,0.307l-0.011,0.307l-0.009,0.307l-0.009,0.308l-0.008,0.307l-0.007,0.308l-0.005,0.309l-0.006,0.308l-0.004,0.309l-0.003,0.309l-0.002,0.309l-0.002,0.31l0,0.307l0.014,5.569l-0.014,0l0.001,371.406l-0.001,0.563l0,0.307l0.002,0.309l0.002,0.31l0.003,0.309l0.004,0.309l0.006,0.308l0.005,0.308l0.007,0.308l0.008,0.308l0.009,0.308l0.009,0.307l0.011,0.307l0.011,0.307l0.012,0.306l0.014,0.306l0.014,0.306l0.015,0.306l0.016,0.305l0.016,0.306l0.018,0.305l0.018,0.304l0.02,0.305l0.02,0.304l0.021,0.304l0.023,0.303l0.023,0.303l0.023,0.303l0.025,0.303l0.026,0.303l0.026,0.302l0.028,0.302l0.028,0.301l0.029,0.302l0.03,0.301l0.031,0.301l0.032,0.3l0.032,0.3l0.034,0.3l0.034,0.3l0.035,0.299l0.036,0.299l0.037,0.299l0.038,0.298l0.039,0.298l0.039,0.298l0.04,0.298l0.042,0.297l0.042,0.297l0.043,0.296l0.043,0.297l0.045,0.296l0.045,0.295l0.047,0.296l0.047,0.295l0.048,0.295l0.049,0.294l0.049,0.294l0.051,0.294l0.051,0.293l0.052,0.294l0.053,0.292l0.054,0.293l0.055,0.292l0.055,0.292l0.057,0.291l0.057,0.292l0.058,0.29l0.059,0.291l0.059,0.29l0.061,0.29l0.061,0.29l0.062,0.289l0.063,0.289l0.064,0.288l0.064,0.288l0.066,0.288l0.066,0.288l0.067,0.287l0.068,0.286l0.068,0.287l0.07,0.286l0.07,0.286l0.071,0.285l0.072,0.285l0.072,0.285l0.074,0.284l0.074,0.284l0.075,0.284l0.076,0.283l0.076,0.283l0.078,0.282l0.078,0.282l0.079,0.282l0.08,0.281l0.08,0.281l0.081,0.281l0.083,0.28l0.082,0.28l0.084,0.28l0.085,0.279l0.085,0.279l0.086,0.278l0.087,0.278l0.087,0.278l0.088,0.277l0.09,0.277l0.09,0.276l0.09,0.276l0.092,0.276l0.092,0.275l0.093,0.275l0.093,0.275l0.095,0.274l0.095,0.273l0.096,0.274l0.097,0.272l0.097,0.273l0.099,0.272l0.099,0.272l0.099,0.271l0.101,0.271l0.101,0.27l0.102,0.27l0.103,0.27l0.103,0.269l0.105,0.269l0.105,0.268l0.105,0.268l0.107,0.268l0.107,0.267l0.108,0.267l0.109,0.266l0.109,0.266l0.11,0.265l0.111,0.265l0.112,0.265l0.112,0.264l0.113,0.264l0.114,0.263l0.114,0.263l0.116,0.262l0.115,0.262l0.117,0.262l0.118,0.261l0.118,0.26l0.119,0.26l0.119,0.26l0.12,0.259l0.121,0.259l0.122,0.259l0.122,0.257l0.123,0.258l0.124,0.257l0.125,0.257l0.125,0.256l0.126,0.255l0.126,0.255l0.128,0.255l0.128,0.254l0.128,0.254l0.13,0.254l0.13,0.252l0.131,0.253l0.131,0.252l0.132,0.251l0.133,0.251l0.134,0.25l0.134,0.251l0.135,0.249l0.135,0.249l0.136,0.249l0.138,0.248l0.137,0.247l0.138,0.247l0.139,0.247l0.14,0.246l0.14,0.246l0.141,0.245l0.142,0.245l0.142,0.244l0.143,0.244l0.144,0.243l0.144,0.242l0.145,0.242l0.146,0.242l0.146,0.241l0.147,0.241l0.148,0.24l0.148,0.24l0.149,0.239l0.149,0.238l0.151,0.239l0.151,0.237l0.151,0.237l0.152,0.237l0.153,0.236l0.153,0.235l0.154,0.235l0.155,0.235l0.156,0.234l0.156,0.233l0.156,0.233l0.158,0.233l0.157,0.231l0.159,0.232l0.159,0.23l0.16,0.231l0.16,0.23l0.161,0.229l0.162,0.228l0.162,0.228l0.163,0.228l0.164,0.227l0.164,0.226l0.165,0.226l0.165,0.225l0.166,0.226l0.167,0.224l0.167,0.223l0.168,0.224l0.168,0.222l0.17,0.222l0.169,0.222l0.171,0.221l0.17,0.22l0.172,0.22l0.172,0.219l0.173,0.218l0.173,0.219l0.174,0.217l0.174,0.217l0.175,0.216l0.176,0.216l0.177,0.216l0.176,0.214l0.178,0.214l0.178,0.214l0.179,0.213l0.179,0.212l0.179,0.212l0.181,0.211l0.181,0.211l0.181,0.21l0.182,0.209l0.183,0.209l0.183,0.208l0.184,0.208l0.184,0.207l0.185,0.206l0.186,0.206l0.186,0.205l0.187,0.205l0.187,0.204l0.188,0.204l0.188,0.202l0.189,0.202l0.189,0.202l0.19,0.201l0.191,0.201l0.191,0.2l0.191,0.198l0.193,0.199l0.193,0.198l0.193,0.198l0.194,0.196l0.194,0.196l0.195,0.196l0.196,0.194l0.196,0.195l0.196,0.193l0.197,0.193l0.198,0.192l0.198,0.192l0.199,0.191l0.199,0.191l0.2,0.19l0.2,0.189l0.201,0.188l0.202,0.188l0.201,0.187l0.203,0.187l0.203,0.186l0.203,0.185l0.204,0.185l0.205,0.184l0.205,0.183l0.205,0.183l0.206,0.182l0.207,0.181l0.207,0.181l0.207,0.18l0.209,0.18l0.208,0.178l0.209,0.178l0.21,0.178l0.21,0.177l0.211,0.176l0.211,0.175l0.211,0.175l0.212,0.174l0.213,0.174l0.213,0.172l0.214,0.172l0.214,0.172l0.214,0.171l0.215,0.17l0.216,0.169l0.216,0.169l0.216,0.168l0.217,0.167l0.218,0.167l0.218,0.166l0.218,0.165l0.219,0.164l0.219,0.164l0.22,0.164l0.22,0.162l0.221,0.162l0.221,0.161l0.222,0.16l0.222,0.16l0.223,0.159l0.223,0.158l0.224,0.158l0.224,0.157l0.224,0.156l0.225,0.156l0.226,0.154l0.226,0.154l0.226,0.154l0.227,0.152l0.227,0.152l0.227,0.151l0.229,0.151l0.229,0.15l0.228,0.149l0.23,0.148l0.229,0.147l0.231,0.148l0.231,0.146l0.231,0.145l0.232,0.145l0.232,0.144l0.232,0.143l0.233,0.142l0.234,0.142l0.233,0.141l0.235,0.14l0.235,0.14l0.235,0.139l0.235,0.138l0.236,0.137l0.236,0.137l0.237,0.135l0.238,0.136l0.237,0.134l0.238,0.133l0.239,0.134l0.239,0.132l0.239,0.131l0.239,0.13l0.241,0.13l0.24,0.129l0.241,0.129l0.242,0.127l0.241,0.127l0.242,0.126l0.243,0.125l0.243,0.125l0.243,0.123l0.244,0.123l0.244,0.122l0.245,0.122l0.245,0.12l0.245,0.12l0.245,0.119l0.247,0.119l0.246,0.117l0.247,0.117l0.248,0.116l0.247,0.115l0.248,0.114l0.248,0.114l0.249,0.113l0.25,0.112l0.249,0.111l0.25,0.11l0.25,0.11l0.251,0.109l0.251,0.108l0.252,0.107l0.251,0.107l0.252,0.105l0.253,0.105l0.253,0.104l0.253,0.103l0.254,0.103l0.254,0.101l0.254,0.101l0.255,0.1l0.255,0.099l0.255,0.099l0.256,0.097l0.256,0.097l0.257,0.096l0.256,0.095l0.257,0.095l0.258,0.093l0.258,0.093l0.258,0.092l0.258,0.091l0.26,0.09l0.259,0.089l0.259,0.089l0.26,0.087l0.261,0.087l0.261,0.087l0.26,0.085l0.261,0.084l0.263,0.084l0.261,0.082l0.262,0.082l0.263,0.081l0.263,0.08l0.263,0.08l0.264,0.078l0.263,0.078l0.265,0.077l0.265,0.076l0.264,0.075l0.266,0.074l0.265,0.073l0.266,0.073l0.266,0.072l0.266,0.07l0.267,0.07l0.267,0.069l0.268,0.069l0.268,0.067l0.268,0.067l0.267,0.065l0.269,0.065l0.27,0.064l0.269,0.063l0.269,0.062l0.27,0.061l0.271,0.061l0.27,0.059l0.27,0.059l0.272,0.058l0.271,0.057l0.272,0.056l0.271,0.055l0.272,0.054l0.273,0.053l0.273,0.053l0.273,0.052l0.273,0.05l0.274,0.05l0.274,0.049l0.274,0.048l0.275,0.047l0.274,0.046l0.276,0.046l0.275,0.044l0.275,0.044l0.276,0.042l0.277,0.042l0.276,0.041l0.277,0.04l0.277,0.039l0.277,0.038l0.278,0.037l0.278,0.036l0.278,0.036l0.278,0.034l0.278,0.034l0.279,0.032l0.279,0.032l0.28,0.031l0.28,0.03l0.279,0.028l0.28,0.028l0.281,0.027l0.281,0.027l0.281,0.025l0.281,0.024l0.281,0.023l0.282,0.023l0.282,0.021l0.282,0.021l0.283,0.019l0.282,0.019l0.283,0.018l0.284,0.017l0.283,0.015l0.283,0.015l0.284,0.014l0.285,0.013l0.284,0.012l0.285,0.011l0.284,0.01l0.286,0.009l0.285,0.009l0.285,0.007l0.287,0.006l0.285,0.006l0.286,0.004l0.287,0.003l0.287,0.003l0.287,0.001l0.287,0.001l0.287,-0.001l0.287,-0.001l0.287,-0.003l0.287,-0.003l0.286,-0.004l0.285,-0.006l0.287,-0.006l0.285,-0.007l0.285,-0.009l0.286,-0.009l0.284,-0.01l0.285,-0.011l0.284,-0.012l0.285,-0.013l0.284,-0.014l0.283,-0.015l0.283,-0.015l0.284,-0.017l0.283,-0.018l0.282,-0.019l0.283,-0.019l0.282,-0.021l0.282,-0.021l0.282,-0.023l0.281,-0.023l0.281,-0.024l0.281,-0.025l0.281,-0.027l0.281,-0.027l0.28,-0.028l0.279,-0.028l0.28,-0.03l0.28,-0.031l0.279,-0.032l0.279,-0.032l0.278,-0.034l0.278,-0.034l0.278,-0.036l0.278,-0.036l0.278,-0.037l0.277,-0.038l0.277,-0.039l0.277,-0.04l0.276,-0.041l0.277,-0.042l0.276,-0.042l0.275,-0.044l0.275,-0.044l0.276,-0.046l0.274,-0.046l0.275,-0.047l0.274,-0.048l0.274,-0.049l0.274,-0.05l0.273,-0.05l0.273,-0.052l0.273,-0.053l0.273,-0.053l0.272,-0.054l0.271,-0.055l0.272,-0.056l0.271,-0.057l0.272,-0.058l0.27,-0.059l0.27,-0.059l0.271,-0.061l0.27,-0.061l0.269,-0.062l0.269,-0.063l0.27,-0.064l0.269,-0.065l0.267,-0.065l0.268,-0.067l0.268,-0.067l0.268,-0.069l0.267,-0.069l0.267,-0.07l0.266,-0.07l0.266,-0.072l0.266,-0.073l0.265,-0.073l0.266,-0.074l0.264,-0.075l0.265,-0.076l0.265,-0.077l0.263,-0.078l0.264,-0.078l0.263,-0.08l0.263,-0.08l0.263,-0.081l0.262,-0.082l0.261,-0.082l0.263,-0.084l0.261,-0.084l0.26,-0.085l0.261,-0.087l0.261,-0.087l0.26,-0.087l0.259,-0.089l0.259,-0.089l0.26,-0.09l0.258,-0.091l0.258,-0.092l0.258,-0.093l0.258,-0.093l0.257,-0.095l0.256,-0.095l0.257,-0.096l0.256,-0.097l0.256,-0.097l0.255,-0.099l0.255,-0.099l0.255,-0.1l0.254,-0.101l0.254,-0.101l0.254,-0.103l0.253,-0.103l0.253,-0.104l0.253,-0.105l0.252,-0.105l0.251,-0.107l0.252,-0.107l0.251,-0.108l0.251,-0.109l0.25,-0.11l0.25,-0.11l0.249,-0.111l0.25,-0.112l0.249,-0.113l0.248,-0.114l0.248,-0.114l0.247,-0.115l0.248,-0.116l0.247,-0.117l0.246,-0.117l0.247,-0.119l0.245,-0.119l0.245,-0.12l0.245,-0.12l0.245,-0.122l0.244,-0.122l0.244,-0.123l0.243,-0.123l0.243,-0.125l0.243,-0.125l0.242,-0.126l0.241,-0.127l0.242,-0.127l0.241,-0.129l0.24,-0.129l0.241,-0.13l0.239,-0.13l0.239,-0.131l0.239,-0.132l0.239,-0.134l0.238,-0.133l0.237,-0.134l0.238,-0.136l0.237,-0.135l0.236,-0.137l0.236,-0.137l0.235,-0.138l0.235,-0.139l0.235,-0.14l0.235,-0.14l0.233,-0.141l0.234,-0.142l0.233,-0.142l0.232,-0.143l0.232,-0.144l0.232,-0.145l0.231,-0.145l0.231,-0.146l0.231,-0.148l0.23,-0.147l0.229,-0.148l0.229,-0.149l0.228,-0.15l0.229,-0.151l0.227,-0.151l0.227,-0.152l0.227,-0.152l0.226,-0.154l0.226,-0.154l0.226,-0.154l0.225,-0.156l0.224,-0.156l0.224,-0.157l0.224,-0.158l0.223,-0.158l0.223,-0.159l0.222,-0.16l0.222,-0.16l0.221,-0.161l0.221,-0.162l0.22,-0.162l0.22,-0.164l0.219,-0.164l0.219,-0.164l0.218,-0.165l0.218,-0.166l0.218,-0.167l0.217,-0.167l0.216,-0.168l0.216,-0.169l0.216,-0.169l0.215,-0.17l0.214,-0.171l0.214,-0.172l0.214,-0.172l0.213,-0.172l0.213,-0.174l0.212,-0.174l0.211,-0.175l0.211,-0.175l0.211,-0.176l0.21,-0.177l0.21,-0.178l0.209,-0.178l0.208,-0.178l0.209,-0.18l0.207,-0.18l0.207,-0.181l0.207,-0.181l0.206,-0.182l0.205,-0.183l0.205,-0.183l0.205,-0.184l0.204,-0.185l0.203,-0.185l0.203,-0.186l0.203,-0.187l0.201,-0.187l0.202,-0.188l0.201,-0.188l0.2,-0.189l0.2,-0.19l0.199,-0.191l0.199,-0.191l0.198,-0.191l0.198,-0.193l0.197,-0.193l0.196,-0.193l0.196,-0.195l0.196,-0.194l0.195,-0.196l0.194,-0.196l0.194,-0.196l0.193,-0.198l0.193,-0.198l0.193,-0.199l0.191,-0.198l0.191,-0.2l0.191,-0.201l0.19,-0.201l0.189,-0.201l0.189,-0.203l0.188,-0.202l0.188,-0.204l0.187,-0.204l0.187,-0.204l0.186,-0.206l0.186,-0.206l0.185,-0.206l0.184,-0.207l0.184,-0.208l0.183,-0.208l0.183,-0.209l0.182,-0.209l0.181,-0.21l0.181,-0.211l0.181,-0.211l0.179,-0.212l0.179,-0.212l0.179,-0.213l0.178,-0.214l0.178,-0.214l0.176,-0.214l0.177,-0.216l0.176,-0.216l0.175,-0.216l0.174,-0.217l0.174,-0.217l0.173,-0.219l0.173,-0.218l0.172,-0.219l0.172,-0.22l0.17,-0.22l0.171,-0.221l0.169,-0.222l0.17,-0.222l0.168,-0.222l0.168,-0.224l0.167,-0.223l0.167,-0.225l0.166,-0.225l0.165,-0.225l0.165,-0.226l0.164,-0.226l0.164,-0.227l0.163,-0.228l0.162,-0.228l0.162,-0.229l0.161,-0.228l0.16,-0.23l0.16,-0.231l0.159,-0.23l0.158,-0.231l0.158,-0.232l0.158,-0.233l0.156,-0.233l0.156,-0.233l0.156,-0.234l0.155,-0.235l0.154,-0.235l0.153,-0.235l0.153,-0.236l0.152,-0.237l0.151,-0.237l0.151,-0.237l0.151,-0.239l0.149,-0.238l0.149,-0.239l0.148,-0.24l0.148,-0.24l0.147,-0.241l0.146,-0.241l0.146,-0.242l0.145,-0.242l0.144,-0.242l0.144,-0.243l0.143,-0.244l0.142,-0.244l0.142,-0.245l0.141,-0.245l0.14,-0.246l0.14,-0.246l0.139,-0.247l0.138,-0.247l0.137,-0.247l0.138,-0.248l0.136,-0.249l0.135,-0.249l0.135,-0.249l0.134,-0.25l0.134,-0.251l0.133,-0.251l0.132,-0.251l0.131,-0.252l0.131,-0.253l0.13,-0.252l0.13,-0.254l0.128,-0.254l0.128,-0.254l0.128,-0.255l0.126,-0.255l0.126,-0.255l0.125,-0.256l0.125,-0.257l0.124,-0.257l0.123,-0.257l0.122,-0.258l0.122,-0.259l0.121,-0.259l0.12,-0.259l0.119,-0.26l0.119,-0.26l0.118,-0.26l0.118,-0.261l0.117,-0.262l0.115,-0.262l0.116,-0.262l0.114,-0.263l0.114,-0.263l0.113,-0.264l0.112,-0.264l0.112,-0.265l0.111,-0.265l0.11,-0.265l0.109,-0.266l0.109,-0.266l0.108,-0.267l0.107,-0.267l0.107,-0.268l0.105,-0.268l0.105,-0.268l0.105,-0.269l0.103,-0.269l0.103,-0.27l0.102,-0.27l0.101,-0.27l0.101,-0.271l0.099,-0.271l0.099,-0.272l0.099,-0.272l0.097,-0.273l0.097,-0.272l0.096,-0.274l0.095,-0.273l0.095,-0.274l0.093,-0.275l0.093,-0.275l0.092,-0.275l0.092,-0.276l0.09,-0.276l0.09,-0.276l0.09,-0.277l0.088,-0.277l0.087,-0.278l0.087,-0.278l0.086,-0.278l0.085,-0.279l0.085,-0.279l0.084,-0.28l0.082,-0.28l0.083,-0.28l0.081,-0.281l0.081,-0.281l0.079,-0.281l0.079,-0.282l0.078,-0.282l0.078,-0.282l0.076,-0.283l0.076,-0.283l0.075,-0.284l0.074,-0.284l0.074,-0.284l0.072,-0.285l0.072,-0.285l0.071,-0.285l0.07,-0.286l0.07,-0.286l0.068,-0.286l0.068,-0.287l0.067,-0.287l0.066,-0.288l0.066,-0.288l0.064,-0.288l0.064,-0.288l0.063,-0.289l0.062,-0.289l0.061,-0.29l0.061,-0.29l0.059,-0.29l0.059,-0.291l0.058,-0.29l0.057,-0.292l0.057,-0.291l0.055,-0.292l0.055,-0.292l0.054,-0.293l0.053,-0.292l0.052,-0.294l0.051,-0.293l0.051,-0.294l0.049,-0.294l0.049,-0.295l0.048,-0.294l0.047,-0.295l0.047,-0.296l0.045,-0.295l0.045,-0.296l0.043,-0.297l0.043,-0.296l0.042,-0.297l0.042,-0.297l0.04,-0.298l0.039,-0.298l0.039,-0.298l0.038,-0.298l0.037,-0.299l0.036,-0.299l0.035,-0.299l0.034,-0.3l0.034,-0.3l0.032,-0.3l0.032,-0.3l0.031,-0.301l0.03,-0.301l0.029,-0.302l0.028,-0.301l0.028,-0.302l0.026,-0.302l0.026,-0.303l0.025,-0.303l0.023,-0.303l0.023,-0.303l0.023,-0.303l0.021,-0.304l0.02,-0.304l0.02,-0.305l0.018,-0.304l0.018,-0.305l0.016,-0.306l0.016,-0.305l0.015,-0.306l0.014,-0.306l0.014,-0.306l0.012,-0.306l0.011,-0.307l0.011,-0.307l0.009,-0.307l0.009,-0.308l0.008,-0.308l0.007,-0.308l0.005,-0.308l0.006,-0.308l0.004,-0.309l0.003,-0.309l0.002,-0.31l0.002,-0.309l0,-0.314l0,-0.563l-0.001,-376.405l0.001,-0.563l0,-0.307l-0.002,-0.31l-0.002,-0.309l-0.003,-0.309l-0.004,-0.309l-0.006,-0.308l-0.005,-0.309l-0.007,-0.308l-0.008,-0.307l-0.009,-0.308l-0.009,-0.307l-0.011,-0.307l-0.011,-0.307l-0.012,-0.307l-0.014,-0.306l-0.014,-0.306l-0.015,-0.305l-0.016,-0.306l-0.016,-0.305l-0.018,-0.305l-0.018,-0.305l-0.02,-0.304l-0.02,-0.304l-0.021,-0.304l-0.023,-0.304l-0.023,-0.303l-0.023,-0.303l-0.025,-0.303l-0.026,-0.302l-0.026,-0.302l-0.028,-0.302l-0.028,-0.302l-0.029,-0.301l-0.03,-0.301l-0.031,-0.301l-0.032,-0.301l-0.032,-0.3l-0.034,-0.3l-0.034,-0.299l-0.035,-0.299l-0.036,-0.299l-0.037,-0.299l-0.038,-0.299l-0.039,-0.298l-0.039,-0.298l-0.04,-0.297l-0.042,-0.297l-0.042,-0.297l-0.043,-0.297l-0.043,-0.296l-0.045,-0.296l-0.045,-0.296l-0.047,-0.295l-0.047,-0.295l-0.048,-0.295l-0.049,-0.294l-0.049,-0.295l-0.051,-0.293l-0.051,-0.294l-0.052,-0.293l-0.053,-0.293l-0.054,-0.292l-0.055,-0.292l-0.055,-0.292l-0.057,-0.292l-0.057,-0.291l-0.058,-0.291l-0.059,-0.29l-0.059,-0.291l-0.061,-0.289l-0.061,-0.29l-0.062,-0.289l-0.063,-0.289l-0.064,-0.289l-0.064,-0.288l-0.066,-0.288l-0.066,-0.287l-0.067,-0.287l-0.068,-0.287l-0.068,-0.286l-0.07,-0.286l-0.07,-0.286l-0.071,-0.286l-0.072,-0.285l-0.072,-0.284l-0.074,-0.285l-0.074,-0.283l-0.075,-0.284l-0.076,-0.283l-0.076,-0.283l-0.078,-0.283l-0.078,-0.282l-0.079,-0.282l-0.08,-0.281l-0.08,-0.281l-0.081,-0.28l-0.083,-0.281l-0.082,-0.28l-0.084,-0.279l-0.085,-0.279l-0.085,-0.279l-0.086,-0.279l-0.087,-0.277l-0.087,-0.278l-0.088,-0.277l-0.09,-0.277l-0.09,-0.277l-0.09,-0.276l-0.092,-0.275l-0.092,-0.276l-0.093,-0.274l-0.093,-0.275l-0.095,-0.274l-0.095,-0.274l-0.096,-0.273l-0.097,-0.273l-0.097,-0.272l-0.099,-0.272l-0.099,-0.272l-0.099,-0.271l-0.101,-0.271l-0.101,-0.271l-0.102,-0.27l-0.103,-0.269l-0.103,-0.27l-0.105,-0.268l-0.105,-0.269l-0.105,-0.268l-0.107,-0.267l-0.107,-0.267l-0.108,-0.267l-0.109,-0.266l-0.109,-0.266l-0.11,-0.266l-0.111,-0.265l-0.112,-0.264l-0.112,-0.264l-0.113,-0.264l-0.114,-0.263l-0.114,-0.263l-0.116,-0.262l-0.116,-0.262l-0.116,-0.262l-0.118,-0.261l-0.118,-0.261l-0.119,-0.26l-0.119,-0.26l-0.12,-0.259l-0.121,-0.258l-0.122,-0.259l-0.122,-0.258l-0.123,-0.257l-0.124,-0.257l-0.125,-0.257l-0.125,-0.256l-0.126,-0.256l-0.126,-0.255l-0.128,-0.255l-0.128,-0.254l-0.128,-0.254l-0.13,-0.253l-0.13,-0.253l-0.131,-0.252l-0.131,-0.252l-0.132,-0.252l-0.133,-0.25l-0.134,-0.251l-0.134,-0.25l-0.135,-0.249l-0.135,-0.25l-0.137,-0.248l-0.137,-0.248l-0.137,-0.248l-0.138,-0.247l-0.139,-0.247l-0.14,-0.246l-0.14,-0.245l-0.141,-0.245l-0.142,-0.245l-0.142,-0.244l-0.143,-0.244l-0.144,-0.243l-0.144,-0.243l-0.145,-0.242l-0.146,-0.242l-0.146,-0.241l-0.147,-0.24l-0.148,-0.241l-0.148,-0.239l-0.149,-0.239l-0.149,-0.239l-0.151,-0.238l-0.15,-0.238l-0.152,-0.237l-0.152,-0.236l-0.153,-0.236l-0.153,-0.236l-0.154,-0.235l-0.155,-0.234l-0.156,-0.234l-0.156,-0.234l-0.156,-0.233l-0.158,-0.232l-0.157,-0.232l-0.159,-0.231l-0.159,-0.231l-0.16,-0.23l-0.16,-0.23l-0.161,-0.229l-0.162,-0.229l-0.163,-0.228l-0.162,-0.227l-0.164,-0.227l-0.164,-0.227l-0.165,-0.226l-0.165,-0.225l-0.166,-0.225l-0.167,-0.224l-0.167,-0.224l-0.168,-0.223l-0.169,-0.223l-0.169,-0.222l-0.169,-0.221l-0.171,-0.221l-0.17,-0.22l-0.172,-0.22l-0.172,-0.219l-0.173,-0.219l-0.173,-0.218l-0.174,-0.218l-0.174,-0.217l-0.176,-0.216l-0.175,-0.216l-0.177,-0.215l-0.176,-0.215l-0.178,-0.214l-0.178,-0.213l-0.178,-0.213l-0.18,-0.213l-0.179,-0.211l-0.181,-0.212l-0.181,-0.21l-0.181,-0.21l-0.182,-0.21l-0.183,-0.208l-0.183,-0.209l-0.184,-0.207l-0.184,-0.207l-0.185,-0.207l-0.186,-0.206l-0.186,-0.205l-0.187,-0.204l-0.187,-0.204l-0.188,-0.204l-0.188,-0.203l-0.189,-0.202l-0.189,-0.202l-0.19,-0.201l-0.191,-0.2l-0.191,-0.2l-0.192,-0.199l-0.192,-0.199l-0.193,-0.197l-0.193,-0.198l-0.194,-0.197l-0.194,-0.196l-0.195,-0.195l-0.196,-0.195l-0.196,-0.194l-0.196,-0.194l-0.197,-0.193l-0.198,-0.192l-0.198,-0.192l-0.199,-0.191l-0.199,-0.19l-0.2,-0.19l-0.2,-0.189l-0.201,-0.189l-0.202,-0.188l-0.201,-0.187l-0.203,-0.186l-0.203,-0.186l-0.203,-0.186l-0.204,-0.184l-0.205,-0.184l-0.205,-0.184l-0.205,-0.182l-0.206,-0.182l-0.207,-0.182l-0.207,-0.18l-0.207,-0.181l-0.209,-0.179l-0.208,-0.179l-0.209,-0.178l-0.21,-0.177l-0.21,-0.177l-0.211,-0.176l-0.211,-0.176l-0.211,-0.174l-0.212,-0.175l-0.213,-0.173l-0.213,-0.173l-0.214,-0.172l-0.214,-0.171l-0.214,-0.171l-0.215,-0.17l-0.216,-0.169l-0.216,-0.169l-0.216,-0.168l-0.217,-0.167l-0.218,-0.167l-0.218,-0.166l-0.218,-0.165l-0.219,-0.165l-0.219,-0.164l-0.22,-0.163l-0.22,-0.162l-0.221,-0.162l-0.222,-0.161l-0.221,-0.161l-0.222,-0.159l-0.223,-0.16l-0.223,-0.158l-0.224,-0.157l-0.224,-0.157l-0.224,-0.156l-0.225,-0.156l-0.226,-0.155l-0.226,-0.154l-0.226,-0.153l-0.227,-0.153l-0.227,-0.152l-0.228,-0.151l-0.228,-0.15l-0.228,-0.15l-0.229,-0.149l-0.23,-0.148l-0.23,-0.148l-0.23,-0.147l-0.231,-0.146l-0.231,-0.146l-0.232,-0.144l-0.232,-0.144l-0.232,-0.143l-0.233,-0.143l-0.234,-0.142l-0.234,-0.141l-0.234,-0.14l-0.235,-0.139l-0.235,-0.139l-0.235,-0.138l-0.236,-0.138l-0.236,-0.136l-0.237,-0.136l-0.238,-0.135l-0.237,-0.134l-0.238,-0.134l-0.239,-0.133l-0.239,-0.132l-0.239,-0.131l-0.24,-0.131l-0.24,-0.13l-0.24,-0.129l-0.241,-0.128l-0.242,-0.127l-0.241,-0.127l-0.242,-0.126l-0.243,-0.125l-0.243,-0.125l-0.243,-0.124l-0.244,-0.123l-0.244,-0.122l-0.245,-0.121l-0.245,-0.121l-0.245,-0.12l-0.246,-0.119l-0.246,-0.118l-0.246,-0.117l-0.247,-0.117l-0.247,-0.116l-0.248,-0.115l-0.248,-0.115l-0.249,-0.113l-0.248,-0.113l-0.25,-0.112l-0.249,-0.111l-0.25,-0.111l-0.25,-0.109l-0.251,-0.109l-0.251,-0.108l-0.251,-0.108l-0.252,-0.106l-0.252,-0.106l-0.253,-0.104l-0.253,-0.105l-0.253,-0.103l-0.254,-0.102l-0.254,-0.102l-0.254,-0.101l-0.255,-0.1l-0.255,-0.099l-0.255,-0.098l-0.256,-0.098l-0.256,-0.097l-0.257,-0.096l-0.256,-0.095l-0.258,-0.094l-0.257,-0.094l-0.258,-0.092l-0.258,-0.092l-0.259,-0.091l-0.259,-0.09l-0.259,-0.09l-0.26,-0.088l-0.259,-0.088l-0.261,-0.087l-0.26,-0.086l-0.261,-0.085l-0.262,-0.084l-0.261,-0.084l-0.262,-0.083l-0.262,-0.082l-0.263,-0.081l-0.263,-0.08l-0.263,-0.079l-0.264,-0.079l-0.264,-0.077l-0.264,-0.077l-0.264,-0.076l-0.265,-0.075l-0.266,-0.074l-0.265,-0.074l-0.266,-0.072l-0.266,-0.072l-0.266,-0.071l-0.267,-0.07l-0.267,-0.069l-0.268,-0.068l-0.267,-0.067l-0.269,-0.067l-0.268,-0.066l-0.268,-0.064l-0.269,-0.064l-0.27,-0.063l-0.269,-0.062l-0.27,-0.062l-0.27,-0.06l-0.271,-0.06l-0.27,-0.058l-0.271,-0.058l-0.272,-0.057l-0.271,-0.056l-0.272,-0.055l-0.273,-0.054l-0.272,-0.054l-0.273,-0.052l-0.273,-0.052l-0.273,-0.051l-0.274,-0.049l-0.274,-0.049l-0.274,-0.048l-0.275,-0.048l-0.274,-0.046l-0.276,-0.045l-0.275,-0.045l-0.276,-0.043l-0.275,-0.043l-0.277,-0.041l-0.276,-0.041l-0.277,-0.04l-0.277,-0.039l-0.277,-0.038l-0.278,-0.037l-0.277,-0.037l-0.279,-0.035l-0.278,-0.035l-0.278,-0.033l-0.279,-0.033l-0.279,-0.031l-0.28,-0.031l-0.28,-0.03l-0.279,-0.029l-0.281,-0.028l-0.28,-0.027l-0.281,-0.026l-0.281,-0.025l-0.281,-0.024l-0.281,-0.024l-0.282,-0.022l-0.282,-0.022l-0.282,-0.02l-0.283,-0.02l-0.282,-0.018l-0.283,-0.018l-0.283,-0.017l-0.284,-0.016l-0.284,-0.015l-0.283,-0.014l-0.285,-0.012l-0.284,-0.013l-0.285,-0.011l-0.285,-0.01l-0.285,-0.009l-0.285,-0.008l-0.286,-0.007l-0.285,-0.007l-0.286,-0.005l-0.287,-0.004l-0.286,-0.004l-0.287,-0.002l-0.287,-0.002l-0.287,0l-0.287,0Z" style="fill:#4a4a4a;"/><g id="Oval-2"><ellipse cx="99.5" cy="116.5" rx="18.5" ry="17.5" style="fill:#4d4d4d;"/><path d="M99.775,96.002l0.274,0.005l0.274,0.008l0.272,0.011l0.272,0.015l0.271,0.018l0.27,0.021l0.27,0.024l0.268,0.028l0.267,0.03l0.267,0.034l0.265,0.037l0.265,0.04l0.263,0.043l0.263,0.046l0.261,0.049l0.26,0.052l0.26,0.055l0.257,0.058l0.257,0.061l0.256,0.063l0.254,0.067l0.253,0.07l0.252,0.072l0.251,0.076l0.249,0.078l0.248,0.081l0.247,0.084l0.245,0.087l0.244,0.089l0.242,0.092l0.241,0.095l0.24,0.098l0.238,0.1l0.236,0.103l0.235,0.105l0.234,0.108l0.232,0.111l0.23,0.113l0.229,0.116l0.227,0.119l0.225,0.121l0.224,0.123l0.222,0.126l0.221,0.129l0.218,0.131l0.217,0.133l0.215,0.136l0.214,0.138l0.211,0.14l0.21,0.143l0.208,0.146l0.206,0.147l0.204,0.15l0.202,0.152l0.2,0.155l0.198,0.156l0.197,0.159l0.194,0.161l0.192,0.164l0.19,0.165l0.189,0.168l0.186,0.17l0.184,0.172l0.181,0.174l0.18,0.176l0.178,0.178l0.175,0.18l0.173,0.183l0.171,0.184l0.168,0.186l0.167,0.189l0.164,0.19l0.161,0.192l0.16,0.194l0.157,0.196l0.154,0.198l0.153,0.2l0.149,0.202l0.148,0.203l0.145,0.206l0.142,0.207l0.14,0.209l0.137,0.211l0.135,0.212l0.132,0.214l0.129,0.216l0.127,0.218l0.124,0.219l0.122,0.221l0.118,0.222l0.116,0.224l0.114,0.226l0.11,0.227l0.108,0.229l0.105,0.231l0.102,0.231l0.099,0.234l0.096,0.235l0.093,0.236l0.09,0.237l0.088,0.239l0.084,0.241l0.081,0.242l0.079,0.243l0.075,0.244l0.072,0.246l0.069,0.247l0.066,0.248l0.062,0.249l0.06,0.25l0.056,0.252l0.053,0.253l0.05,0.254l0.046,0.255l0.043,0.255l0.04,0.257l0.037,0.258l0.033,0.259l0.029,0.26l0.027,0.261l0.022,0.262l0.02,0.262l0.015,0.258l0.007,0.137l0.006,0.132l0.005,0.133l0.004,0.132l0.003,0.133l0.002,0.133l0.002,0.133l0,0.133l0,0.133l-0.002,0.133l-0.002,0.133l-0.003,0.133l-0.004,0.132l-0.005,0.133l-0.006,0.132l-0.007,0.137l-0.015,0.258l-0.02,0.262l-0.022,0.262l-0.027,0.261l-0.029,0.26l-0.033,0.259l-0.037,0.258l-0.04,0.257l-0.043,0.255l-0.046,0.255l-0.05,0.254l-0.053,0.253l-0.056,0.252l-0.06,0.25l-0.062,0.249l-0.066,0.248l-0.069,0.247l-0.072,0.246l-0.075,0.244l-0.079,0.243l-0.081,0.242l-0.084,0.241l-0.088,0.239l-0.09,0.237l-0.093,0.236l-0.096,0.235l-0.099,0.234l-0.102,0.231l-0.105,0.231l-0.108,0.229l-0.11,0.227l-0.114,0.225l-0.116,0.225l-0.118,0.222l-0.122,0.221l-0.124,0.219l-0.127,0.218l-0.129,0.216l-0.132,0.214l-0.135,0.212l-0.137,0.211l-0.14,0.209l-0.142,0.207l-0.145,0.206l-0.148,0.203l-0.149,0.202l-0.153,0.2l-0.154,0.198l-0.157,0.196l-0.159,0.194l-0.162,0.192l-0.164,0.19l-0.167,0.189l-0.168,0.186l-0.171,0.184l-0.173,0.183l-0.175,0.18l-0.178,0.178l-0.18,0.176l-0.181,0.174l-0.184,0.172l-0.186,0.17l-0.189,0.168l-0.19,0.165l-0.192,0.164l-0.194,0.161l-0.197,0.159l-0.198,0.156l-0.2,0.155l-0.202,0.152l-0.204,0.15l-0.206,0.147l-0.208,0.146l-0.21,0.143l-0.211,0.14l-0.214,0.138l-0.215,0.136l-0.217,0.133l-0.218,0.131l-0.221,0.129l-0.222,0.126l-0.224,0.123l-0.225,0.121l-0.227,0.119l-0.229,0.116l-0.23,0.113l-0.232,0.111l-0.233,0.108l-0.236,0.105l-0.236,0.103l-0.238,0.1l-0.24,0.098l-0.241,0.095l-0.242,0.092l-0.244,0.089l-0.245,0.087l-0.247,0.084l-0.248,0.081l-0.249,0.078l-0.251,0.076l-0.252,0.072l-0.253,0.07l-0.254,0.067l-0.256,0.063l-0.257,0.061l-0.257,0.058l-0.26,0.055l-0.26,0.052l-0.261,0.05l-0.263,0.045l-0.263,0.043l-0.265,0.04l-0.265,0.037l-0.267,0.034l-0.267,0.03l-0.268,0.028l-0.27,0.024l-0.27,0.021l-0.271,0.018l-0.272,0.015l-0.272,0.011l-0.274,0.008l-0.274,0.005l-0.275,0.002l-0.275,-0.002l-0.274,-0.005l-0.274,-0.008l-0.272,-0.011l-0.272,-0.015l-0.271,-0.018l-0.27,-0.021l-0.27,-0.024l-0.268,-0.028l-0.267,-0.03l-0.267,-0.034l-0.265,-0.037l-0.265,-0.04l-0.263,-0.043l-0.263,-0.045l-0.261,-0.05l-0.26,-0.052l-0.26,-0.055l-0.257,-0.058l-0.257,-0.061l-0.256,-0.063l-0.254,-0.067l-0.253,-0.07l-0.252,-0.072l-0.251,-0.076l-0.249,-0.078l-0.248,-0.081l-0.247,-0.084l-0.245,-0.087l-0.244,-0.089l-0.242,-0.092l-0.241,-0.095l-0.24,-0.098l-0.238,-0.1l-0.236,-0.103l-0.235,-0.105l-0.234,-0.108l-0.232,-0.111l-0.23,-0.113l-0.229,-0.116l-0.227,-0.119l-0.225,-0.121l-0.224,-0.123l-0.222,-0.126l-0.221,-0.129l-0.218,-0.131l-0.217,-0.133l-0.215,-0.136l-0.214,-0.138l-0.211,-0.14l-0.21,-0.143l-0.208,-0.146l-0.206,-0.147l-0.204,-0.15l-0.202,-0.152l-0.2,-0.155l-0.198,-0.156l-0.197,-0.159l-0.194,-0.161l-0.192,-0.164l-0.19,-0.165l-0.189,-0.168l-0.186,-0.17l-0.184,-0.172l-0.181,-0.174l-0.18,-0.176l-0.178,-0.178l-0.175,-0.18l-0.173,-0.183l-0.171,-0.184l-0.168,-0.186l-0.167,-0.189l-0.164,-0.19l-0.162,-0.192l-0.159,-0.194l-0.157,-0.196l-0.155,-0.198l-0.152,-0.2l-0.149,-0.202l-0.148,-0.203l-0.145,-0.206l-0.142,-0.207l-0.14,-0.209l-0.137,-0.211l-0.135,-0.212l-0.132,-0.214l-0.129,-0.216l-0.127,-0.218l-0.124,-0.219l-0.122,-0.221l-0.118,-0.222l-0.116,-0.225l-0.114,-0.225l-0.11,-0.227l-0.108,-0.229l-0.105,-0.231l-0.102,-0.231l-0.099,-0.234l-0.096,-0.235l-0.093,-0.236l-0.09,-0.237l-0.088,-0.239l-0.084,-0.241l-0.081,-0.242l-0.079,-0.243l-0.075,-0.244l-0.072,-0.246l-0.069,-0.247l-0.066,-0.248l-0.062,-0.249l-0.06,-0.25l-0.056,-0.252l-0.053,-0.253l-0.05,-0.254l-0.046,-0.255l-0.043,-0.255l-0.04,-0.257l-0.037,-0.258l-0.033,-0.259l-0.029,-0.26l-0.027,-0.261l-0.022,-0.262l-0.02,-0.262l-0.015,-0.258l-0.007,-0.137l-0.006,-0.132l-0.005,-0.133l-0.004,-0.132l-0.003,-0.133l-0.002,-0.133l-0.002,-0.133l0,-0.133l0,-0.133l0.002,-0.133l0.002,-0.133l0.003,-0.133l0.004,-0.132l0.005,-0.133l0.006,-0.132l0.007,-0.137l0.015,-0.258l0.02,-0.262l0.022,-0.262l0.027,-0.261l0.029,-0.26l0.033,-0.259l0.037,-0.258l0.04,-0.257l0.043,-0.255l0.046,-0.255l0.05,-0.254l0.053,-0.253l0.056,-0.252l0.06,-0.25l0.062,-0.249l0.066,-0.248l0.069,-0.247l0.072,-0.246l0.075,-0.244l0.079,-0.243l0.081,-0.242l0.084,-0.241l0.088,-0.239l0.09,-0.237l0.093,-0.236l0.096,-0.235l0.099,-0.234l0.102,-0.231l0.105,-0.231l0.108,-0.229l0.11,-0.227l0.114,-0.226l0.116,-0.224l0.118,-0.222l0.122,-0.221l0.124,-0.219l0.127,-0.218l0.129,-0.216l0.132,-0.214l0.135,-0.212l0.137,-0.211l0.14,-0.209l0.142,-0.207l0.145,-0.206l0.148,-0.203l0.149,-0.202l0.153,-0.2l0.154,-0.198l0.157,-0.196l0.16,-0.194l0.161,-0.192l0.164,-0.19l0.167,-0.189l0.168,-0.186l0.171,-0.184l0.173,-0.183l0.175,-0.18l0.178,-0.178l0.18,-0.176l0.181,-0.174l0.184,-0.172l0.186,-0.17l0.189,-0.168l0.19,-0.165l0.192,-0.164l0.194,-0.161l0.197,-0.159l0.198,-0.156l0.2,-0.155l0.202,-0.152l0.204,-0.15l0.206,-0.147l0.208,-0.146l0.21,-0.143l0.211,-0.14l0.214,-0.138l0.215,-0.136l0.217,-0.133l0.218,-0.131l0.221,-0.129l0.222,-0.126l0.224,-0.123l0.225,-0.121l0.227,-0.119l0.229,-0.116l0.23,-0.113l0.232,-0.111l0.234,-0.108l0.235,-0.105l0.236,-0.103l0.238,-0.1l0.24,-0.098l0.241,-0.095l0.242,-0.092l0.244,-0.089l0.245,-0.087l0.247,-0.084l0.248,-0.081l0.249,-0.078l0.251,-0.076l0.252,-0.072l0.253,-0.07l0.254,-0.067l0.256,-0.063l0.257,-0.061l0.257,-0.058l0.26,-0.055l0.26,-0.052l0.261,-0.049l0.263,-0.046l0.263,-0.043l0.265,-0.04l0.265,-0.037l0.267,-0.034l0.267,-0.03l0.268,-0.028l0.27,-0.024l0.27,-0.021l0.271,-0.018l0.272,-0.015l0.272,-0.011l0.274,-0.008l0.274,-0.005l0.275,-0.002l0.275,0.002Zm-0.478,5.999l-0.202,0.004l-0.202,0.006l-0.201,0.008l-0.2,0.011l-0.199,0.013l-0.198,0.016l-0.198,0.018l-0.197,0.02l-0.196,0.022l-0.196,0.025l-0.194,0.027l-0.194,0.029l-0.193,0.032l-0.192,0.033l-0.191,0.036l-0.19,0.038l-0.189,0.04l-0.189,0.043l-0.187,0.044l-0.187,0.047l-0.185,0.048l-0.185,0.051l-0.183,0.053l-0.183,0.055l-0.182,0.057l-0.18,0.059l-0.18,0.061l-0.178,0.063l-0.177,0.065l-0.177,0.067l-0.175,0.069l-0.174,0.071l-0.173,0.073l-0.172,0.075l-0.171,0.076l-0.169,0.079l-0.168,0.08l-0.168,0.082l-0.165,0.085l-0.165,0.085l-0.163,0.088l-0.163,0.09l-0.16,0.091l-0.16,0.093l-0.158,0.094l-0.157,0.097l-0.156,0.098l-0.154,0.1l-0.153,0.101l-0.151,0.104l-0.15,0.104l-0.149,0.107l-0.147,0.108l-0.145,0.11l-0.145,0.111l-0.142,0.113l-0.141,0.114l-0.14,0.116l-0.138,0.117l-0.137,0.119l-0.135,0.12l-0.133,0.122l-0.132,0.123l-0.131,0.125l-0.128,0.126l-0.127,0.128l-0.125,0.129l-0.124,0.13l-0.122,0.131l-0.12,0.133l-0.119,0.135l-0.117,0.135l-0.115,0.137l-0.113,0.138l-0.111,0.139l-0.11,0.141l-0.108,0.141l-0.106,0.143l-0.105,0.144l-0.102,0.146l-0.101,0.146l-0.098,0.148l-0.097,0.148l-0.095,0.15l-0.093,0.151l-0.091,0.152l-0.09,0.153l-0.087,0.154l-0.085,0.155l-0.083,0.156l-0.082,0.157l-0.079,0.158l-0.077,0.159l-0.076,0.16l-0.073,0.161l-0.071,0.162l-0.069,0.163l-0.067,0.164l-0.065,0.164l-0.063,0.166l-0.061,0.166l-0.058,0.167l-0.057,0.168l-0.054,0.169l-0.053,0.17l-0.05,0.17l-0.047,0.172l-0.046,0.172l-0.044,0.173l-0.041,0.173l-0.039,0.175l-0.037,0.175l-0.034,0.176l-0.032,0.177l-0.03,0.177l-0.028,0.179l-0.025,0.178l-0.023,0.18l-0.021,0.18l-0.018,0.181l-0.016,0.182l-0.013,0.183l-0.011,0.188l-0.005,0.087l-0.004,0.092l-0.003,0.092l-0.003,0.092l-0.002,0.093l-0.002,0.092l-0.001,0.093l0,0.093l0,0.093l0.001,0.093l0.002,0.092l0.002,0.093l0.003,0.092l0.003,0.092l0.004,0.092l0.005,0.087l0.011,0.188l0.013,0.183l0.016,0.182l0.018,0.181l0.021,0.18l0.023,0.18l0.025,0.178l0.028,0.179l0.03,0.177l0.032,0.177l0.034,0.176l0.037,0.175l0.039,0.175l0.041,0.173l0.044,0.173l0.046,0.172l0.047,0.172l0.05,0.17l0.053,0.17l0.054,0.169l0.057,0.168l0.058,0.167l0.061,0.166l0.063,0.166l0.065,0.164l0.067,0.164l0.069,0.163l0.071,0.162l0.073,0.161l0.076,0.16l0.077,0.159l0.079,0.158l0.082,0.157l0.083,0.156l0.085,0.155l0.087,0.154l0.09,0.153l0.091,0.152l0.093,0.151l0.095,0.15l0.097,0.148l0.098,0.148l0.101,0.146l0.102,0.146l0.105,0.144l0.106,0.143l0.108,0.141l0.109,0.141l0.112,0.139l0.113,0.138l0.115,0.137l0.117,0.135l0.119,0.135l0.12,0.133l0.122,0.131l0.124,0.13l0.125,0.129l0.127,0.128l0.128,0.126l0.131,0.124l0.132,0.124l0.133,0.122l0.135,0.12l0.137,0.119l0.138,0.117l0.139,0.116l0.142,0.114l0.142,0.113l0.145,0.111l0.145,0.11l0.147,0.108l0.149,0.107l0.15,0.104l0.151,0.104l0.153,0.101l0.154,0.1l0.156,0.098l0.157,0.097l0.158,0.094l0.16,0.093l0.16,0.091l0.163,0.09l0.163,0.088l0.165,0.085l0.165,0.085l0.168,0.082l0.168,0.08l0.169,0.079l0.171,0.076l0.172,0.075l0.173,0.073l0.174,0.071l0.175,0.069l0.176,0.067l0.178,0.065l0.178,0.063l0.18,0.061l0.18,0.059l0.182,0.057l0.183,0.055l0.183,0.053l0.185,0.051l0.185,0.048l0.187,0.047l0.187,0.044l0.189,0.043l0.189,0.04l0.19,0.038l0.191,0.036l0.192,0.033l0.193,0.032l0.194,0.029l0.194,0.027l0.196,0.025l0.196,0.022l0.197,0.02l0.198,0.018l0.198,0.016l0.199,0.013l0.2,0.011l0.201,0.008l0.202,0.006l0.202,0.004l0.203,0.001l0.203,-0.001l0.202,-0.004l0.202,-0.006l0.201,-0.008l0.2,-0.011l0.199,-0.013l0.198,-0.016l0.198,-0.018l0.197,-0.02l0.196,-0.022l0.196,-0.025l0.194,-0.027l0.194,-0.029l0.193,-0.032l0.192,-0.033l0.191,-0.036l0.19,-0.038l0.189,-0.04l0.189,-0.043l0.187,-0.044l0.187,-0.047l0.185,-0.048l0.185,-0.051l0.183,-0.053l0.183,-0.055l0.182,-0.057l0.18,-0.059l0.18,-0.061l0.178,-0.063l0.178,-0.065l0.176,-0.067l0.175,-0.069l0.174,-0.071l0.173,-0.073l0.172,-0.075l0.171,-0.076l0.169,-0.079l0.168,-0.08l0.168,-0.082l0.165,-0.085l0.165,-0.085l0.163,-0.088l0.163,-0.09l0.16,-0.091l0.16,-0.093l0.158,-0.094l0.157,-0.097l0.156,-0.098l0.154,-0.1l0.153,-0.101l0.151,-0.104l0.15,-0.104l0.149,-0.107l0.147,-0.108l0.145,-0.11l0.145,-0.111l0.142,-0.113l0.142,-0.114l0.139,-0.116l0.138,-0.117l0.137,-0.119l0.135,-0.12l0.133,-0.122l0.132,-0.124l0.131,-0.124l0.128,-0.126l0.127,-0.128l0.125,-0.129l0.124,-0.13l0.122,-0.131l0.12,-0.133l0.119,-0.135l0.117,-0.135l0.115,-0.137l0.113,-0.138l0.112,-0.139l0.109,-0.141l0.108,-0.141l0.106,-0.143l0.105,-0.144l0.102,-0.146l0.101,-0.146l0.098,-0.148l0.097,-0.148l0.095,-0.15l0.093,-0.151l0.091,-0.152l0.09,-0.153l0.087,-0.154l0.085,-0.155l0.083,-0.156l0.082,-0.157l0.079,-0.158l0.077,-0.159l0.076,-0.16l0.073,-0.161l0.071,-0.162l0.069,-0.163l0.067,-0.164l0.065,-0.164l0.063,-0.166l0.061,-0.166l0.058,-0.167l0.057,-0.168l0.054,-0.169l0.053,-0.17l0.05,-0.17l0.047,-0.172l0.046,-0.172l0.044,-0.173l0.041,-0.173l0.039,-0.175l0.036,-0.175l0.035,-0.176l0.032,-0.177l0.03,-0.177l0.028,-0.179l0.025,-0.178l0.023,-0.18l0.021,-0.18l0.018,-0.181l0.016,-0.182l0.013,-0.183l0.011,-0.188l0.005,-0.087l0.004,-0.091l0.003,-0.093l0.003,-0.092l0.002,-0.093l0.002,-0.092l0.001,-0.093l0,-0.093l0,-0.093l-0.001,-0.093l-0.002,-0.092l-0.002,-0.093l-0.003,-0.092l-0.003,-0.093l-0.004,-0.091l-0.005,-0.087l-0.011,-0.188l-0.013,-0.183l-0.016,-0.182l-0.018,-0.181l-0.021,-0.18l-0.023,-0.18l-0.025,-0.178l-0.028,-0.179l-0.03,-0.177l-0.032,-0.177l-0.035,-0.176l-0.036,-0.175l-0.039,-0.175l-0.041,-0.173l-0.044,-0.173l-0.046,-0.172l-0.047,-0.172l-0.05,-0.17l-0.053,-0.17l-0.054,-0.169l-0.057,-0.168l-0.058,-0.167l-0.061,-0.166l-0.063,-0.166l-0.065,-0.164l-0.067,-0.164l-0.069,-0.163l-0.071,-0.162l-0.073,-0.161l-0.076,-0.16l-0.077,-0.159l-0.079,-0.158l-0.082,-0.157l-0.083,-0.156l-0.085,-0.155l-0.087,-0.154l-0.09,-0.153l-0.091,-0.152l-0.093,-0.151l-0.095,-0.15l-0.097,-0.148l-0.098,-0.148l-0.101,-0.146l-0.102,-0.146l-0.105,-0.144l-0.106,-0.143l-0.108,-0.141l-0.11,-0.141l-0.111,-0.139l-0.113,-0.138l-0.115,-0.137l-0.117,-0.135l-0.119,-0.135l-0.12,-0.133l-0.122,-0.131l-0.124,-0.13l-0.125,-0.129l-0.127,-0.128l-0.128,-0.126l-0.131,-0.125l-0.132,-0.123l-0.133,-0.122l-0.135,-0.12l-0.137,-0.119l-0.138,-0.117l-0.14,-0.116l-0.141,-0.114l-0.142,-0.113l-0.145,-0.111l-0.145,-0.11l-0.147,-0.108l-0.149,-0.107l-0.15,-0.104l-0.151,-0.104l-0.153,-0.101l-0.154,-0.1l-0.156,-0.098l-0.157,-0.097l-0.158,-0.094l-0.16,-0.093l-0.16,-0.091l-0.163,-0.09l-0.163,-0.088l-0.165,-0.085l-0.165,-0.085l-0.168,-0.082l-0.168,-0.08l-0.169,-0.079l-0.171,-0.076l-0.172,-0.075l-0.173,-0.073l-0.174,-0.071l-0.175,-0.069l-0.177,-0.067l-0.177,-0.065l-0.178,-0.063l-0.18,-0.061l-0.18,-0.059l-0.182,-0.057l-0.183,-0.055l-0.183,-0.053l-0.185,-0.051l-0.185,-0.048l-0.187,-0.047l-0.187,-0.044l-0.189,-0.043l-0.189,-0.04l-0.19,-0.038l-0.191,-0.036l-0.192,-0.033l-0.193,-0.032l-0.194,-0.029l-0.194,-0.027l-0.196,-0.025l-0.196,-0.022l-0.197,-0.02l-0.198,-0.018l-0.198,-0.016l-0.199,-0.013l-0.2,-0.011l-0.201,-0.008l-0.202,-0.006l-0.202,-0.004l-0.203,-0.001l-0.203,0.001Z" style="fill:#4a4a4a;"/></g><g id="Oval-21"><ellipse cx="99.5" cy="520.5" rx="18.5" ry="17.5" style="fill:#4d4d4d;"/><path d="M99.775,500.002l0.274,0.005l0.274,0.008l0.272,0.011l0.272,0.015l0.271,0.018l0.27,0.021l0.27,0.024l0.268,0.028l0.268,0.03l0.266,0.034l0.265,0.037l0.265,0.04l0.263,0.042l0.263,0.047l0.261,0.049l0.261,0.052l0.258,0.055l0.258,0.058l0.257,0.061l0.256,0.063l0.254,0.067l0.253,0.07l0.252,0.073l0.251,0.075l0.249,0.078l0.248,0.081l0.247,0.084l0.245,0.087l0.244,0.089l0.242,0.092l0.241,0.095l0.24,0.098l0.238,0.1l0.236,0.103l0.236,0.105l0.233,0.108l0.232,0.111l0.23,0.114l0.229,0.115l0.227,0.119l0.225,0.121l0.224,0.123l0.222,0.126l0.221,0.129l0.218,0.131l0.217,0.133l0.215,0.136l0.214,0.138l0.211,0.141l0.21,0.142l0.208,0.146l0.206,0.147l0.204,0.15l0.202,0.152l0.2,0.155l0.198,0.156l0.197,0.159l0.194,0.161l0.192,0.164l0.191,0.165l0.188,0.168l0.186,0.17l0.184,0.172l0.181,0.174l0.18,0.176l0.177,0.178l0.176,0.18l0.173,0.183l0.171,0.184l0.169,0.186l0.166,0.189l0.164,0.19l0.162,0.192l0.159,0.194l0.157,0.196l0.155,0.198l0.152,0.2l0.149,0.202l0.148,0.203l0.145,0.206l0.142,0.207l0.14,0.209l0.137,0.211l0.135,0.212l0.132,0.214l0.129,0.216l0.127,0.218l0.124,0.219l0.122,0.221l0.118,0.222l0.116,0.224l0.114,0.226l0.11,0.227l0.108,0.229l0.105,0.231l0.102,0.231l0.099,0.234l0.096,0.235l0.093,0.236l0.09,0.237l0.088,0.239l0.084,0.241l0.081,0.242l0.079,0.243l0.075,0.244l0.072,0.246l0.069,0.247l0.066,0.248l0.062,0.249l0.06,0.25l0.056,0.252l0.053,0.253l0.05,0.254l0.046,0.255l0.043,0.255l0.04,0.257l0.037,0.258l0.033,0.259l0.029,0.26l0.027,0.261l0.022,0.262l0.02,0.262l0.015,0.258l0.007,0.137l0.006,0.132l0.005,0.133l0.004,0.132l0.003,0.133l0.002,0.133l0.002,0.133l0,0.133l0,0.133l-0.002,0.133l-0.002,0.133l-0.003,0.133l-0.004,0.132l-0.005,0.133l-0.006,0.132l-0.007,0.137l-0.015,0.258l-0.02,0.262l-0.022,0.262l-0.027,0.261l-0.029,0.26l-0.033,0.259l-0.037,0.258l-0.04,0.257l-0.043,0.255l-0.046,0.255l-0.05,0.254l-0.053,0.253l-0.056,0.252l-0.06,0.25l-0.062,0.249l-0.066,0.249l-0.069,0.246l-0.072,0.246l-0.075,0.244l-0.079,0.243l-0.081,0.242l-0.084,0.241l-0.088,0.239l-0.09,0.237l-0.093,0.236l-0.096,0.235l-0.099,0.233l-0.102,0.232l-0.105,0.231l-0.108,0.229l-0.11,0.227l-0.114,0.226l-0.116,0.224l-0.118,0.222l-0.122,0.221l-0.124,0.219l-0.127,0.218l-0.129,0.216l-0.132,0.214l-0.135,0.212l-0.137,0.211l-0.14,0.209l-0.142,0.207l-0.145,0.205l-0.148,0.204l-0.149,0.202l-0.152,0.2l-0.155,0.198l-0.157,0.196l-0.159,0.194l-0.162,0.192l-0.164,0.19l-0.167,0.189l-0.168,0.186l-0.171,0.184l-0.173,0.183l-0.175,0.18l-0.178,0.178l-0.18,0.176l-0.182,0.175l-0.183,0.171l-0.186,0.17l-0.189,0.168l-0.19,0.165l-0.192,0.164l-0.194,0.161l-0.197,0.159l-0.198,0.156l-0.2,0.155l-0.202,0.152l-0.204,0.15l-0.206,0.148l-0.208,0.145l-0.21,0.143l-0.211,0.14l-0.213,0.138l-0.216,0.136l-0.217,0.133l-0.218,0.131l-0.221,0.129l-0.222,0.126l-0.223,0.123l-0.226,0.121l-0.227,0.119l-0.229,0.115l-0.23,0.114l-0.232,0.111l-0.233,0.108l-0.235,0.105l-0.237,0.103l-0.238,0.1l-0.24,0.098l-0.241,0.095l-0.242,0.092l-0.244,0.089l-0.245,0.087l-0.247,0.084l-0.248,0.081l-0.249,0.078l-0.251,0.076l-0.251,0.072l-0.253,0.07l-0.255,0.067l-0.256,0.063l-0.256,0.061l-0.258,0.058l-0.259,0.055l-0.261,0.052l-0.262,0.05l-0.262,0.045l-0.263,0.043l-0.265,0.04l-0.265,0.037l-0.267,0.034l-0.267,0.03l-0.268,0.028l-0.27,0.024l-0.27,0.021l-0.271,0.018l-0.272,0.015l-0.272,0.011l-0.274,0.008l-0.274,0.005l-0.275,0.002l-0.275,-0.002l-0.274,-0.005l-0.274,-0.008l-0.272,-0.011l-0.272,-0.015l-0.271,-0.018l-0.27,-0.021l-0.27,-0.024l-0.268,-0.028l-0.267,-0.03l-0.267,-0.034l-0.265,-0.037l-0.265,-0.04l-0.263,-0.043l-0.262,-0.045l-0.262,-0.05l-0.261,-0.052l-0.259,-0.055l-0.258,-0.058l-0.256,-0.061l-0.256,-0.063l-0.255,-0.067l-0.253,-0.07l-0.251,-0.072l-0.251,-0.076l-0.249,-0.078l-0.248,-0.081l-0.247,-0.084l-0.245,-0.087l-0.244,-0.089l-0.242,-0.092l-0.241,-0.095l-0.24,-0.098l-0.238,-0.1l-0.237,-0.103l-0.234,-0.105l-0.234,-0.108l-0.232,-0.111l-0.23,-0.114l-0.229,-0.115l-0.227,-0.119l-0.226,-0.121l-0.223,-0.123l-0.222,-0.126l-0.221,-0.129l-0.218,-0.131l-0.217,-0.133l-0.216,-0.136l-0.213,-0.138l-0.211,-0.14l-0.21,-0.143l-0.208,-0.145l-0.206,-0.148l-0.204,-0.15l-0.202,-0.152l-0.2,-0.155l-0.198,-0.156l-0.197,-0.159l-0.194,-0.161l-0.192,-0.164l-0.19,-0.165l-0.189,-0.168l-0.186,-0.17l-0.183,-0.172l-0.182,-0.174l-0.18,-0.176l-0.178,-0.178l-0.175,-0.18l-0.173,-0.183l-0.171,-0.184l-0.168,-0.186l-0.167,-0.189l-0.164,-0.19l-0.162,-0.192l-0.159,-0.194l-0.157,-0.196l-0.155,-0.198l-0.152,-0.2l-0.149,-0.202l-0.148,-0.204l-0.145,-0.205l-0.142,-0.207l-0.14,-0.209l-0.137,-0.211l-0.135,-0.212l-0.132,-0.214l-0.129,-0.216l-0.127,-0.218l-0.124,-0.219l-0.122,-0.221l-0.118,-0.222l-0.116,-0.224l-0.114,-0.226l-0.11,-0.227l-0.108,-0.229l-0.105,-0.231l-0.102,-0.232l-0.099,-0.233l-0.096,-0.235l-0.093,-0.236l-0.09,-0.237l-0.088,-0.239l-0.084,-0.241l-0.081,-0.242l-0.079,-0.243l-0.075,-0.244l-0.072,-0.246l-0.069,-0.247l-0.066,-0.248l-0.062,-0.249l-0.06,-0.25l-0.056,-0.252l-0.053,-0.253l-0.05,-0.254l-0.046,-0.255l-0.043,-0.255l-0.04,-0.257l-0.037,-0.258l-0.033,-0.259l-0.029,-0.26l-0.027,-0.261l-0.022,-0.262l-0.02,-0.262l-0.015,-0.258l-0.007,-0.137l-0.006,-0.132l-0.005,-0.133l-0.004,-0.132l-0.003,-0.133l-0.002,-0.133l-0.002,-0.133l0,-0.133l0,-0.133l0.002,-0.133l0.002,-0.133l0.003,-0.133l0.004,-0.132l0.005,-0.133l0.006,-0.132l0.007,-0.137l0.015,-0.258l0.02,-0.262l0.022,-0.262l0.027,-0.261l0.029,-0.26l0.033,-0.259l0.037,-0.258l0.04,-0.257l0.043,-0.255l0.046,-0.255l0.05,-0.254l0.053,-0.253l0.056,-0.252l0.06,-0.25l0.062,-0.249l0.066,-0.248l0.069,-0.247l0.072,-0.246l0.075,-0.244l0.079,-0.243l0.081,-0.242l0.084,-0.241l0.088,-0.239l0.09,-0.237l0.093,-0.236l0.096,-0.235l0.099,-0.234l0.102,-0.231l0.105,-0.231l0.108,-0.229l0.11,-0.227l0.114,-0.226l0.116,-0.224l0.118,-0.222l0.122,-0.221l0.124,-0.219l0.127,-0.218l0.129,-0.216l0.132,-0.214l0.135,-0.212l0.137,-0.211l0.14,-0.209l0.142,-0.207l0.145,-0.206l0.148,-0.203l0.149,-0.202l0.152,-0.2l0.155,-0.198l0.157,-0.196l0.159,-0.194l0.162,-0.192l0.164,-0.19l0.166,-0.189l0.169,-0.186l0.171,-0.184l0.173,-0.183l0.176,-0.18l0.177,-0.178l0.18,-0.176l0.181,-0.174l0.184,-0.172l0.186,-0.17l0.188,-0.168l0.191,-0.165l0.192,-0.164l0.194,-0.161l0.197,-0.159l0.198,-0.156l0.2,-0.155l0.202,-0.152l0.204,-0.15l0.206,-0.147l0.208,-0.146l0.21,-0.142l0.211,-0.141l0.214,-0.138l0.215,-0.136l0.217,-0.133l0.218,-0.131l0.221,-0.129l0.222,-0.126l0.224,-0.123l0.225,-0.121l0.227,-0.119l0.229,-0.115l0.23,-0.114l0.232,-0.111l0.234,-0.108l0.235,-0.105l0.236,-0.103l0.238,-0.1l0.24,-0.098l0.241,-0.095l0.242,-0.092l0.244,-0.089l0.245,-0.087l0.247,-0.084l0.248,-0.081l0.249,-0.078l0.251,-0.075l0.252,-0.073l0.253,-0.07l0.254,-0.067l0.256,-0.063l0.257,-0.061l0.258,-0.058l0.258,-0.055l0.261,-0.052l0.261,-0.049l0.263,-0.047l0.263,-0.042l0.265,-0.04l0.265,-0.037l0.266,-0.034l0.268,-0.03l0.268,-0.028l0.27,-0.024l0.27,-0.021l0.271,-0.018l0.272,-0.015l0.272,-0.011l0.274,-0.008l0.274,-0.005l0.275,-0.002l0.275,0.002Zm-0.478,5.999l-0.202,0.004l-0.201,0.006l-0.202,0.008l-0.2,0.011l-0.199,0.013l-0.198,0.016l-0.198,0.018l-0.197,0.02l-0.196,0.022l-0.195,0.025l-0.195,0.027l-0.194,0.029l-0.193,0.032l-0.192,0.033l-0.191,0.036l-0.19,0.038l-0.189,0.04l-0.189,0.043l-0.187,0.044l-0.186,0.047l-0.186,0.048l-0.185,0.051l-0.183,0.053l-0.183,0.055l-0.182,0.057l-0.18,0.059l-0.18,0.061l-0.178,0.063l-0.178,0.065l-0.176,0.067l-0.175,0.069l-0.174,0.071l-0.173,0.073l-0.172,0.075l-0.171,0.076l-0.169,0.079l-0.169,0.08l-0.166,0.082l-0.166,0.084l-0.165,0.087l-0.164,0.087l-0.161,0.089l-0.161,0.092l-0.16,0.093l-0.158,0.094l-0.157,0.097l-0.156,0.098l-0.154,0.1l-0.152,0.101l-0.152,0.104l-0.15,0.104l-0.149,0.107l-0.147,0.108l-0.145,0.11l-0.145,0.111l-0.142,0.113l-0.141,0.114l-0.14,0.116l-0.138,0.117l-0.137,0.119l-0.135,0.12l-0.133,0.122l-0.132,0.123l-0.13,0.125l-0.129,0.126l-0.127,0.128l-0.126,0.129l-0.123,0.13l-0.122,0.131l-0.12,0.133l-0.119,0.135l-0.117,0.135l-0.115,0.137l-0.113,0.138l-0.111,0.139l-0.11,0.141l-0.108,0.141l-0.106,0.143l-0.105,0.144l-0.102,0.146l-0.101,0.146l-0.098,0.148l-0.097,0.148l-0.095,0.15l-0.093,0.151l-0.091,0.152l-0.09,0.153l-0.087,0.154l-0.085,0.155l-0.083,0.156l-0.082,0.157l-0.079,0.158l-0.077,0.159l-0.076,0.16l-0.073,0.161l-0.071,0.162l-0.069,0.163l-0.067,0.164l-0.065,0.164l-0.063,0.166l-0.061,0.166l-0.058,0.167l-0.057,0.168l-0.054,0.169l-0.053,0.17l-0.05,0.17l-0.047,0.172l-0.046,0.172l-0.044,0.173l-0.041,0.174l-0.039,0.174l-0.037,0.175l-0.034,0.176l-0.032,0.177l-0.03,0.177l-0.028,0.179l-0.025,0.178l-0.023,0.18l-0.021,0.18l-0.018,0.182l-0.016,0.181l-0.013,0.183l-0.011,0.188l-0.005,0.086l-0.004,0.093l-0.003,0.092l-0.003,0.092l-0.002,0.093l-0.002,0.092l-0.001,0.093l0,0.093l0,0.093l0.001,0.093l0.002,0.093l0.002,0.092l0.003,0.092l0.003,0.092l0.004,0.092l0.005,0.087l0.011,0.188l0.013,0.183l0.016,0.182l0.018,0.18l0.021,0.181l0.023,0.18l0.025,0.178l0.028,0.179l0.03,0.177l0.032,0.177l0.034,0.176l0.037,0.175l0.039,0.175l0.041,0.173l0.044,0.173l0.046,0.172l0.047,0.172l0.05,0.17l0.053,0.17l0.054,0.169l0.057,0.168l0.058,0.167l0.061,0.166l0.063,0.166l0.065,0.164l0.067,0.164l0.069,0.163l0.071,0.162l0.073,0.161l0.076,0.16l0.077,0.159l0.079,0.158l0.082,0.157l0.083,0.156l0.085,0.155l0.088,0.154l0.089,0.153l0.091,0.152l0.093,0.151l0.095,0.15l0.097,0.148l0.098,0.148l0.101,0.146l0.102,0.146l0.105,0.144l0.106,0.143l0.108,0.141l0.109,0.141l0.112,0.139l0.113,0.138l0.115,0.137l0.117,0.135l0.119,0.135l0.12,0.133l0.122,0.131l0.124,0.13l0.125,0.129l0.127,0.128l0.128,0.126l0.131,0.124l0.132,0.124l0.133,0.122l0.135,0.12l0.137,0.119l0.138,0.117l0.14,0.116l0.141,0.114l0.142,0.113l0.145,0.111l0.145,0.11l0.148,0.108l0.148,0.106l0.15,0.105l0.152,0.104l0.152,0.101l0.155,0.1l0.155,0.098l0.157,0.096l0.158,0.095l0.16,0.093l0.16,0.091l0.163,0.09l0.163,0.088l0.164,0.085l0.167,0.085l0.167,0.082l0.168,0.08l0.169,0.079l0.171,0.076l0.172,0.075l0.173,0.073l0.174,0.071l0.175,0.069l0.177,0.067l0.177,0.065l0.178,0.063l0.18,0.061l0.18,0.059l0.182,0.057l0.183,0.055l0.184,0.053l0.184,0.051l0.185,0.048l0.187,0.047l0.187,0.044l0.189,0.043l0.189,0.04l0.19,0.038l0.191,0.036l0.192,0.033l0.193,0.032l0.194,0.029l0.195,0.027l0.195,0.025l0.196,0.022l0.197,0.02l0.198,0.018l0.198,0.016l0.199,0.013l0.201,0.011l0.2,0.008l0.202,0.006l0.202,0.004l0.203,0.001l0.203,-0.001l0.202,-0.004l0.202,-0.006l0.2,-0.008l0.201,-0.011l0.199,-0.013l0.198,-0.016l0.198,-0.018l0.197,-0.02l0.196,-0.022l0.195,-0.025l0.195,-0.027l0.194,-0.029l0.193,-0.032l0.192,-0.033l0.191,-0.036l0.19,-0.038l0.189,-0.04l0.189,-0.043l0.187,-0.044l0.187,-0.047l0.185,-0.048l0.184,-0.051l0.184,-0.053l0.183,-0.055l0.182,-0.057l0.18,-0.059l0.18,-0.061l0.178,-0.063l0.177,-0.065l0.177,-0.067l0.175,-0.069l0.174,-0.071l0.173,-0.073l0.172,-0.075l0.171,-0.076l0.169,-0.079l0.168,-0.08l0.167,-0.082l0.167,-0.085l0.164,-0.085l0.163,-0.088l0.163,-0.09l0.16,-0.091l0.16,-0.093l0.158,-0.095l0.157,-0.096l0.155,-0.098l0.155,-0.1l0.153,-0.101l0.151,-0.104l0.15,-0.105l0.148,-0.106l0.148,-0.108l0.145,-0.11l0.145,-0.111l0.142,-0.113l0.141,-0.114l0.14,-0.116l0.138,-0.117l0.137,-0.119l0.135,-0.12l0.133,-0.122l0.132,-0.124l0.131,-0.124l0.128,-0.126l0.127,-0.128l0.125,-0.129l0.124,-0.13l0.122,-0.131l0.12,-0.133l0.119,-0.135l0.117,-0.135l0.115,-0.137l0.113,-0.138l0.112,-0.139l0.109,-0.141l0.108,-0.141l0.106,-0.143l0.105,-0.144l0.102,-0.146l0.101,-0.146l0.098,-0.148l0.097,-0.148l0.095,-0.15l0.093,-0.151l0.091,-0.152l0.089,-0.153l0.088,-0.154l0.085,-0.155l0.083,-0.156l0.082,-0.157l0.079,-0.158l0.077,-0.159l0.076,-0.16l0.073,-0.161l0.071,-0.162l0.069,-0.163l0.067,-0.164l0.065,-0.164l0.063,-0.166l0.061,-0.166l0.058,-0.167l0.057,-0.168l0.054,-0.169l0.053,-0.17l0.05,-0.17l0.047,-0.172l0.046,-0.172l0.044,-0.173l0.041,-0.173l0.039,-0.175l0.037,-0.175l0.034,-0.176l0.032,-0.177l0.03,-0.177l0.028,-0.179l0.025,-0.178l0.023,-0.18l0.021,-0.18l0.018,-0.181l0.016,-0.182l0.013,-0.183l0.011,-0.188l0.005,-0.087l0.004,-0.092l0.003,-0.092l0.003,-0.092l0.002,-0.092l0.002,-0.093l0.001,-0.093l0,-0.093l0,-0.093l-0.001,-0.093l-0.002,-0.092l-0.002,-0.093l-0.003,-0.092l-0.003,-0.092l-0.004,-0.092l-0.005,-0.087l-0.011,-0.188l-0.013,-0.183l-0.016,-0.181l-0.018,-0.182l-0.021,-0.18l-0.023,-0.18l-0.025,-0.178l-0.028,-0.179l-0.03,-0.177l-0.032,-0.177l-0.035,-0.176l-0.036,-0.175l-0.039,-0.174l-0.041,-0.174l-0.044,-0.173l-0.046,-0.172l-0.047,-0.172l-0.05,-0.17l-0.053,-0.17l-0.054,-0.169l-0.057,-0.168l-0.058,-0.167l-0.061,-0.166l-0.063,-0.166l-0.065,-0.164l-0.067,-0.164l-0.069,-0.163l-0.071,-0.162l-0.073,-0.161l-0.076,-0.16l-0.077,-0.159l-0.079,-0.158l-0.082,-0.157l-0.083,-0.156l-0.085,-0.155l-0.087,-0.154l-0.09,-0.153l-0.091,-0.152l-0.093,-0.151l-0.095,-0.15l-0.097,-0.148l-0.098,-0.148l-0.101,-0.146l-0.102,-0.146l-0.105,-0.144l-0.106,-0.143l-0.108,-0.141l-0.11,-0.141l-0.111,-0.139l-0.113,-0.138l-0.115,-0.137l-0.117,-0.135l-0.119,-0.135l-0.12,-0.133l-0.122,-0.131l-0.123,-0.13l-0.126,-0.129l-0.127,-0.128l-0.129,-0.126l-0.13,-0.125l-0.132,-0.123l-0.133,-0.122l-0.135,-0.12l-0.137,-0.119l-0.138,-0.117l-0.14,-0.116l-0.141,-0.114l-0.142,-0.113l-0.145,-0.111l-0.145,-0.11l-0.147,-0.108l-0.149,-0.107l-0.15,-0.104l-0.151,-0.104l-0.153,-0.101l-0.154,-0.1l-0.156,-0.098l-0.157,-0.097l-0.158,-0.094l-0.16,-0.093l-0.161,-0.092l-0.161,-0.089l-0.164,-0.087l-0.165,-0.087l-0.166,-0.084l-0.166,-0.082l-0.169,-0.08l-0.169,-0.079l-0.171,-0.076l-0.172,-0.075l-0.173,-0.073l-0.174,-0.071l-0.175,-0.069l-0.176,-0.067l-0.178,-0.065l-0.178,-0.063l-0.18,-0.061l-0.18,-0.059l-0.182,-0.057l-0.183,-0.055l-0.183,-0.053l-0.185,-0.051l-0.186,-0.048l-0.186,-0.047l-0.187,-0.044l-0.189,-0.043l-0.189,-0.04l-0.19,-0.038l-0.191,-0.036l-0.192,-0.033l-0.193,-0.032l-0.194,-0.029l-0.195,-0.027l-0.195,-0.025l-0.196,-0.022l-0.197,-0.02l-0.198,-0.018l-0.198,-0.016l-0.199,-0.013l-0.2,-0.011l-0.202,-0.008l-0.201,-0.006l-0.202,-0.004l-0.203,-0.001l-0.203,0.001Z" style="fill:#4a4a4a;"/></g><g id="Path-2"><path d="M194,181l60,-92l-5,-39l27,28l1,-56l34,72l-117,184l0,-97Z" style="fill:#666;"/><path d="M312.709,94.107l-120.209,189.047l0,-102.6l59.942,-91.911l-5.506,-42.944l27.629,28.652l1.039,-58.188l0.271,-0.058l36.834,78.002Zm-35.274,-12.458l-26.371,-27.348l4.494,35.056l-60.058,92.089l0,91.4l113.791,-178.953l-30.906,-65.447l-0.95,53.203Z" style="fill:#4a4a4a;"/></g><path id="Path-12" d="M196.203,512.865l-0.03,0.193l-0.025,0.174l-0.023,0.175l-0.022,0.178l-0.02,0.179l-0.019,0.181l-0.017,0.183l-0.016,0.184l-0.014,0.187l-0.013,0.188l-0.011,0.19l-0.009,0.192l-0.008,0.193l-0.007,0.196l-0.004,0.197l-0.004,0.199l-0.002,0.2l0,0.202l0.002,0.204l0.002,0.206l0.005,0.207l0.006,0.209l0.008,0.21l0.009,0.212l0.01,0.213l0.013,0.215l0.013,0.217l0.016,0.218l0.017,0.219l0.018,0.221l0.02,0.223l0.021,0.224l0.023,0.225l0.025,0.227l0.026,0.228l0.028,0.229l0.029,0.231l0.03,0.232l0.032,0.234l0.034,0.235l0.035,0.236l0.036,0.237l0.038,0.239l0.039,0.24l0.041,0.241l0.043,0.242l0.043,0.243l0.045,0.245l0.047,0.246l0.048,0.247l0.049,0.248l0.051,0.249l0.052,0.25l0.053,0.251l0.055,0.253l0.056,0.253l0.058,0.255l0.059,0.255l0.06,0.256l0.061,0.258l0.063,0.258l0.064,0.259l0.065,0.261l0.067,0.261l0.068,0.262l0.069,0.263l0.07,0.264l0.071,0.264l0.073,0.266l0.074,0.266l0.075,0.267l0.076,0.268l0.078,0.269l0.078,0.27l0.08,0.27l0.081,0.271l0.082,0.272l0.083,0.272l0.085,0.274l0.085,0.273l0.086,0.275l0.088,0.276l0.088,0.275l0.09,0.277l0.09,0.277l0.092,0.278l0.093,0.278l0.093,0.279l0.095,0.28l0.094,0.277l0.195,0.565l0.198,0.564l0.201,0.565l0.205,0.568l0.208,0.57l0.212,0.571l0.215,0.573l0.218,0.574l0.221,0.576l0.224,0.577l0.227,0.578l0.23,0.58l0.233,0.58l0.235,0.582l0.237,0.582l0.24,0.583l0.242,0.583l0.244,0.584l0.247,0.585l0.248,0.585l0.25,0.585l0.252,0.586l0.254,0.585l0.255,0.586l0.257,0.585l0.258,0.586l0.26,0.585l0.261,0.585l0.261,0.584l0.263,0.584l0.264,0.584l0.264,0.582l0.266,0.582l0.265,0.581l0.267,0.581l0.267,0.579l0.266,0.577l0.535,1.154l0.535,1.147l0.534,1.142l0.533,1.134l0.53,1.128l1.051,2.231l0.519,1.102l0.514,1.092l0.507,1.082l0.501,1.072l0.493,1.059l0.484,1.047l0.24,0.52l0.236,0.516l0.234,0.513l0.232,0.509l0.229,0.506l0.226,0.503l0.223,0.499l0.221,0.495l0.217,0.492l0.214,0.488l0.211,0.484l0.208,0.481l0.205,0.477l0.2,0.472l0.198,0.469l0.193,0.465l0.19,0.461l0.186,0.457l0.182,0.453l0.18,0.453l0.063,0.162l0.063,0.167l0.061,0.166l0.059,0.165l0.058,0.166l0.056,0.165l0.054,0.165l0.052,0.164l0.05,0.165l0.049,0.165l0.047,0.164l0.045,0.164l0.043,0.164l0.041,0.163l0.04,0.163l0.037,0.163l0.036,0.163l0.034,0.163l0.032,0.162l0.031,0.162l0.028,0.162l0.027,0.162l0.025,0.161l0.023,0.161l0.021,0.161l0.019,0.161l0.018,0.16l0.015,0.159l0.014,0.16l0.012,0.159l0.01,0.158l0.008,0.158l0.007,0.158l0.004,0.157l0.003,0.157l0.001,0.156l0,0.156l-0.003,0.155l-0.004,0.154l-0.006,0.155l-0.008,0.153l-0.009,0.152l-0.011,0.152l-0.013,0.152l-0.014,0.15l-0.016,0.15l-0.018,0.149l-0.019,0.148l-0.021,0.148l-0.022,0.146l-0.024,0.146l-0.025,0.145l-0.027,0.144l-0.028,0.144l-0.029,0.141l-0.031,0.142l-0.032,0.14l-0.034,0.14l-0.034,0.139l-0.036,0.137l-0.037,0.136l-0.039,0.136l-0.039,0.135l-0.041,0.133l-0.041,0.133l-0.043,0.131l-0.044,0.131l-0.044,0.13l-0.046,0.128l-0.046,0.127l-0.047,0.127l-0.048,0.126l-0.049,0.124l-0.05,0.124l-0.05,0.122l-0.055,0.129l-0.101,0.233l-0.107,0.237l-0.109,0.232l-0.111,0.229l-0.113,0.226l-0.114,0.222l-0.116,0.219l-0.117,0.215l-0.119,0.213l-0.119,0.209l-0.12,0.206l-0.121,0.204l-0.121,0.201l-0.122,0.198l-0.121,0.196l-0.122,0.194l-0.122,0.191l-0.124,0.193l-0.239,0.368l-0.241,0.366l-0.471,0.711l-0.231,0.349l-0.227,0.347l-0.11,0.168l-0.109,0.17l-0.108,0.169l-0.107,0.168l-0.105,0.167l-0.103,0.167l-0.102,0.166l-0.1,0.166l-0.098,0.166l-0.097,0.165l-0.094,0.165l-0.093,0.164l-0.091,0.165l-0.089,0.164l-0.087,0.165l-0.084,0.164l-0.083,0.165l-0.081,0.166l-0.078,0.165l-0.076,0.166l-0.075,0.166l-0.075,0.174l-0.032,0.077l-0.035,0.084l-0.034,0.084l-0.034,0.085l-0.032,0.084l-0.033,0.085l-0.032,0.086l-0.031,0.085l-0.031,0.085l-0.03,0.087l-0.03,0.086l-0.029,0.087l-0.028,0.087l-0.028,0.087l-0.027,0.088l-0.027,0.089l-0.026,0.089l-0.026,0.088l-0.024,0.09l-0.025,0.09l-0.024,0.091l-0.023,0.091l-0.022,0.091l-0.022,0.092l-0.021,0.093l-0.021,0.094l-0.02,0.093l-0.019,0.095l-0.019,0.095l-0.017,0.096l-0.018,0.097l-0.016,0.097l-0.016,0.098l-0.016,0.099l-0.014,0.099l-0.014,0.101l-0.013,0.101l-0.012,0.102l-0.012,0.103l-0.011,0.104l-0.01,0.104l-0.009,0.106l-0.009,0.106l-0.007,0.107l-0.007,0.109l-0.006,0.109l-0.006,0.111l-0.004,0.111l-0.004,0.113l-0.002,0.113l-0.002,0.115l-0.001,0.116l0,0.116l0.001,0.118l0.002,0.12l0.003,0.12l0.004,0.121l0.005,0.123l0.006,0.124l0.006,0.125l0.008,0.127l0.01,0.128l0.01,0.129l0.011,0.13l0.012,0.132l0.014,0.133l0.014,0.134l0.016,0.136l0.017,0.137l0.018,0.138l0.02,0.14l0.02,0.141l0.022,0.143l0.023,0.144l0.025,0.146l0.028,0.162l-8.661,1.518l-0.034,-0.193l-0.035,-0.207l-0.033,-0.206l-0.031,-0.205l-0.03,-0.204l-0.028,-0.202l-0.027,-0.202l-0.025,-0.202l-0.023,-0.2l-0.022,-0.199l-0.02,-0.199l-0.018,-0.197l-0.017,-0.197l-0.016,-0.196l-0.013,-0.194l-0.013,-0.194l-0.01,-0.194l-0.01,-0.192l-0.007,-0.191l-0.006,-0.19l-0.005,-0.19l-0.003,-0.188l-0.002,-0.188l0,-0.187l0.002,-0.185l0.003,-0.185l0.004,-0.184l0.006,-0.183l0.007,-0.182l0.009,-0.182l0.01,-0.18l0.011,-0.179l0.013,-0.179l0.014,-0.178l0.016,-0.176l0.017,-0.176l0.018,-0.175l0.02,-0.173l0.021,-0.173l0.022,-0.172l0.023,-0.171l0.025,-0.17l0.026,-0.169l0.028,-0.168l0.028,-0.167l0.03,-0.166l0.031,-0.165l0.032,-0.164l0.033,-0.163l0.034,-0.162l0.036,-0.161l0.036,-0.16l0.038,-0.159l0.039,-0.158l0.04,-0.158l0.04,-0.155l0.042,-0.155l0.043,-0.154l0.044,-0.153l0.045,-0.152l0.045,-0.151l0.047,-0.15l0.047,-0.149l0.048,-0.147l0.05,-0.147l0.05,-0.146l0.05,-0.144l0.052,-0.144l0.052,-0.143l0.053,-0.141l0.054,-0.141l0.054,-0.14l0.055,-0.138l0.056,-0.137l0.056,-0.137l0.06,-0.141l0.113,-0.262l0.117,-0.264l0.12,-0.259l0.121,-0.256l0.123,-0.252l0.125,-0.248l0.125,-0.244l0.127,-0.241l0.128,-0.236l0.128,-0.233l0.129,-0.229l0.13,-0.226l0.129,-0.222l0.13,-0.219l0.13,-0.215l0.13,-0.212l0.129,-0.209l0.129,-0.205l0.128,-0.203l0.128,-0.199l0.127,-0.196l0.127,-0.196l0.246,-0.374l0.241,-0.366l0.466,-0.702l0.219,-0.333l0.214,-0.329l0.1,-0.156l0.099,-0.156l0.097,-0.153l0.094,-0.151l0.091,-0.15l0.088,-0.146l0.086,-0.144l0.082,-0.142l0.08,-0.14l0.076,-0.137l0.074,-0.135l0.07,-0.133l0.067,-0.13l0.064,-0.128l0.062,-0.126l0.058,-0.124l0.054,-0.121l0.056,-0.128l0.021,-0.051l0.024,-0.059l0.024,-0.058l0.022,-0.057l0.022,-0.057l0.021,-0.056l0.021,-0.057l0.02,-0.056l0.018,-0.055l0.019,-0.055l0.017,-0.054l0.017,-0.054l0.017,-0.054l0.015,-0.054l0.015,-0.053l0.015,-0.053l0.014,-0.053l0.013,-0.052l0.012,-0.052l0.012,-0.052l0.011,-0.052l0.011,-0.052l0.01,-0.052l0.01,-0.051l0.009,-0.052l0.008,-0.051l0.008,-0.051l0.007,-0.052l0.007,-0.052l0.006,-0.052l0.006,-0.052l0.005,-0.052l0.004,-0.053l0.004,-0.053l0.003,-0.053l0.003,-0.054l0.002,-0.053l0.002,-0.055l0,-0.055l0.001,-0.056l-0.001,-0.055l-0.001,-0.057l-0.001,-0.057l-0.003,-0.058l-0.003,-0.059l-0.004,-0.059l-0.004,-0.06l-0.005,-0.061l-0.006,-0.062l-0.007,-0.063l-0.008,-0.064l-0.008,-0.064l-0.01,-0.066l-0.01,-0.066l-0.011,-0.068l-0.012,-0.069l-0.014,-0.07l-0.014,-0.071l-0.015,-0.072l-0.016,-0.073l-0.017,-0.075l-0.018,-0.075l-0.02,-0.078l-0.02,-0.078l-0.022,-0.079l-0.023,-0.081l-0.025,-0.082l-0.025,-0.084l-0.027,-0.084l-0.028,-0.087l-0.03,-0.087l-0.03,-0.089l-0.033,-0.09l-0.034,-0.092l-0.035,-0.093l-0.038,-0.098l-0.161,-0.407l-0.168,-0.416l-0.172,-0.423l-0.176,-0.428l-0.181,-0.435l-0.185,-0.44l-0.19,-0.445l-0.193,-0.451l-0.197,-0.457l-0.201,-0.462l-0.205,-0.467l-0.209,-0.471l-0.212,-0.477l-0.216,-0.482l-0.218,-0.486l-0.222,-0.491l-0.226,-0.495l-0.228,-0.5l-0.231,-0.504l-0.233,-0.507l-0.477,-1.03l-0.486,-1.044l-0.495,-1.059l-0.503,-1.073l-0.511,-1.086l-0.517,-1.099l-1.052,-2.233l-0.533,-1.133l-0.536,-1.143l-0.54,-1.152l-0.54,-1.161l-0.542,-1.167l-0.272,-0.588l-0.271,-0.589l-0.271,-0.591l-0.271,-0.592l-0.27,-0.593l-0.27,-0.595l-0.27,-0.596l-0.269,-0.598l-0.268,-0.599l-0.267,-0.6l-0.267,-0.6l-0.265,-0.602l-0.265,-0.603l-0.263,-0.604l-0.261,-0.604l-0.261,-0.605l-0.259,-0.605l-0.257,-0.606l-0.256,-0.607l-0.253,-0.606l-0.252,-0.607l-0.25,-0.608l-0.248,-0.607l-0.245,-0.608l-0.244,-0.607l-0.241,-0.607l-0.238,-0.607l-0.236,-0.608l-0.233,-0.606l-0.23,-0.607l-0.227,-0.606l-0.225,-0.605l-0.221,-0.605l-0.218,-0.604l-0.215,-0.604l-0.211,-0.603l-0.207,-0.599l-0.104,-0.304l-0.101,-0.3l-0.101,-0.301l-0.1,-0.3l-0.099,-0.299l-0.097,-0.3l-0.097,-0.299l-0.096,-0.299l-0.095,-0.299l-0.094,-0.298l-0.093,-0.299l-0.092,-0.297l-0.091,-0.298l-0.089,-0.297l-0.089,-0.297l-0.087,-0.297l-0.087,-0.296l-0.085,-0.296l-0.084,-0.296l-0.083,-0.295l-0.082,-0.295l-0.081,-0.295l-0.079,-0.294l-0.079,-0.293l-0.077,-0.294l-0.075,-0.293l-0.075,-0.293l-0.073,-0.292l-0.072,-0.292l-0.071,-0.291l-0.07,-0.291l-0.068,-0.291l-0.067,-0.29l-0.065,-0.29l-0.064,-0.289l-0.063,-0.289l-0.061,-0.289l-0.06,-0.288l-0.059,-0.287l-0.057,-0.287l-0.056,-0.287l-0.054,-0.286l-0.052,-0.286l-0.052,-0.285l-0.049,-0.285l-0.048,-0.284l-0.047,-0.284l-0.045,-0.283l-0.043,-0.283l-0.042,-0.282l-0.04,-0.282l-0.039,-0.282l-0.037,-0.28l-0.035,-0.281l-0.034,-0.28l-0.032,-0.279l-0.03,-0.278l-0.028,-0.279l-0.027,-0.278l-0.025,-0.277l-0.023,-0.277l-0.021,-0.276l-0.02,-0.275l-0.017,-0.275l-0.016,-0.275l-0.013,-0.274l-0.012,-0.273l-0.01,-0.273l-0.008,-0.272l-0.006,-0.272l-0.004,-0.272l-0.001,-0.27l0,-0.27l0.002,-0.27l0.005,-0.269l0.006,-0.268l0.009,-0.268l0.011,-0.267l0.014,-0.267l0.015,-0.266l0.018,-0.265l0.02,-0.265l0.023,-0.264l0.024,-0.263l0.028,-0.263l0.029,-0.263l0.032,-0.261l0.035,-0.261l0.037,-0.26l0.037,-0.238l8.692,1.332Z" style="fill:#4a4a4a;"/><path d="M202.178,618.297c0,0 -11.883,13.059 -14.401,17.161c-3.101,5.05 2.059,6.234 3.243,3.742c2.792,-5.873 9.107,-14.696 11.158,-20.903Z" style="fill:none;stroke:#737373;stroke-width:2px;"/><path d="M192.964,608.607c0,0 -17.302,3.517 -21.758,5.338c-5.485,2.242 -2.021,6.246 0.406,4.935c5.723,-3.089 16.031,-6.476 21.352,-10.273Z" style="fill:none;stroke:#737373;stroke-width:2px;"/><path d="M214.486,616.647c0,0 1.534,17.59 2.839,22.223c1.607,5.704 5.977,2.716 4.95,0.156c-2.421,-6.036 -4.619,-16.661 -7.789,-22.379Z" style="fill:none;stroke:#737373;stroke-width:2px;"/><path d="M222.358,610.019c0,0 14.312,10.34 18.67,12.382c5.367,2.514 5.963,-2.747 3.355,-3.644c-6.15,-2.114 -15.627,-7.398 -22.025,-8.738Z" style="fill:none;stroke:#737373;stroke-width:2px;"/><path d="M221.373,600.737c0,0 17.096,-4.412 21.45,-6.463c5.362,-2.525 1.694,-6.343 -0.662,-4.908c-5.554,3.383 -15.672,7.303 -20.788,11.371Z" style="fill:none;stroke:#737373;stroke-width:2px;"/></g></svg>